<svg width="39" height="36" viewBox="0 0 39 36" fill="none" xmlns="http://www.w3.org/2000/svg">
<path d="M33.15 6H27.3V4C27.3 2.93913 26.8891 1.92172 26.1577 1.17157C25.4263 0.421427 24.4343 0 23.4 0H15.6C14.5657 0 13.5737 0.421427 12.8423 1.17157C12.1109 1.92172 11.7 2.93913 11.7 4V6H5.85C4.29848 6 2.81051 6.63214 1.71343 7.75736C0.616338 8.88258 0 10.4087 0 12V30C0 31.5913 0.616338 33.1174 1.71343 34.2426C2.81051 35.3679 4.29848 36 5.85 36H33.15C34.7015 36 36.1895 35.3679 37.2866 34.2426C38.3837 33.1174 39 31.5913 39 30V12C39 10.4087 38.3837 8.88258 37.2866 7.75736C36.1895 6.63214 34.7015 6 33.15 6ZM15.6 4H23.4V6H15.6V4ZM35.1 30C35.1 30.5304 34.8946 31.0391 34.5289 31.4142C34.1632 31.7893 33.6672 32 33.15 32H5.85C5.33283 32 4.83684 31.7893 4.47114 31.4142C4.10545 31.0391 3.9 30.5304 3.9 30V20H11.7V22C11.7 22.5304 11.9054 23.0391 12.2711 23.4142C12.6368 23.7893 13.1328 24 13.65 24C14.1672 24 14.6632 23.7893 15.0289 23.4142C15.3946 23.0391 15.6 22.5304 15.6 22V20H23.4V22C23.4 22.5304 23.6054 23.0391 23.9711 23.4142C24.3368 23.7893 24.8328 24 25.35 24C25.8672 24 26.3632 23.7893 26.7289 23.4142C27.0946 23.0391 27.3 22.5304 27.3 22V20H35.1V30ZM35.1 16H3.9V12C3.9 11.4696 4.10545 10.9609 4.47114 10.5858C4.83684 10.2107 5.33283 10 5.85 10H33.15C33.6672 10 34.1632 10.2107 34.5289 10.5858C34.8946 10.9609 35.1 11.4696 35.1 12V16Z" fill="white"/>
</svg>
