<svg width="429" height="118" viewBox="0 0 429 118" fill="none" xmlns="http://www.w3.org/2000/svg">
<g opacity="0.7">
<path d="M135.541 24.0289C135.299 23.2922 135.047 22.545 134.784 21.7979C124.891 -5.70067 78.8712 -7.60547 78.8712 26.1968C78.8712 32.711 63.2434 26.1968 57.3817 34.6158C51.52 43.0348 58.0342 48.2966 50.2256 50.8855C42.4169 53.4743 41.8066 46.9812 31.9984 47.6336C22.1903 48.2861 23.5268 57.4523 20.275 60.0516C17.0232 62.651 17.0232 61.3566 9.85649 62.0091C2.68982 62.6615 1.4375 67.8708 1.4375 67.8708H172.627C172.627 67.8708 179.131 48.2966 167.449 41.1721C155.768 34.0475 155.726 43.7819 146.612 39.8776C139.035 36.6469 137.646 30.522 135.541 24.0289Z" stroke="#EFEADD" stroke-linecap="round" stroke-linejoin="round"/>
<path d="M141.456 60.7486C141.456 60.7486 145.002 49.7828 136.299 41.7216C127.596 33.6604 118.566 38.1751 115.988 41.7216C113.41 45.2681 113.399 52.0454 109.211 52.6874C105.022 53.3293 105.991 45.5944 96.9612 47.5307C87.9318 49.4671 91.4783 58.4965 87.2898 60.4223C83.1014 62.3482 83.0803 55.2657 77.2923 57.5283C71.5042 59.7909 71.8094 63.9688 71.8094 63.9688" stroke="#EFEADD" stroke-linecap="round" stroke-linejoin="round"/>
<path d="M95.1411 38.8257C92.7664 37.1368 89.9833 36.1135 87.0801 35.8618C84.1769 35.6102 81.2593 36.1394 78.6294 37.3945C69.2948 41.6987 73.599 50.6755 69.2948 52.8328C64.9906 54.9902 62.8332 52.475 57.4451 54.9376C52.0569 57.4001 52.4252 61.0308 52.4252 61.0308" stroke="#EFEADD" stroke-linecap="round" stroke-linejoin="round"/>
<path d="M404.012 74.0062C403.865 73.5537 403.707 73.0907 403.549 72.6276C397.425 55.6213 368.968 54.4426 368.958 75.3533C368.958 79.3838 359.297 75.3533 355.677 80.6151C352.057 85.877 356.077 89.0341 351.246 90.6758C346.416 92.3175 345.985 88.2659 339.965 88.6658C333.945 89.0657 334.703 94.7064 332.714 96.3165C330.725 97.9267 330.704 97.1269 326.274 97.5268C321.843 97.9267 321.012 101.147 321.012 101.147H426.954C426.954 101.147 430.985 89.0657 423.734 84.6352C416.483 80.2047 416.483 86.2453 410.842 83.8354C406.191 81.8148 405.286 78.0263 404.012 74.0062Z" stroke="#EFEADD" stroke-linecap="round" stroke-linejoin="round"/>
<path d="M407.676 96.7038C407.676 96.7038 409.875 89.916 404.518 84.9277C399.162 79.9395 393.542 82.7388 391.953 84.9277C390.364 87.1167 390.353 91.3156 387.744 91.7156C385.134 92.1155 385.744 87.3272 380.167 88.5584C374.589 89.7897 376.767 95.3357 374.179 96.5354C371.59 97.7351 371.59 93.3783 367.991 94.7359C364.391 96.0934 364.602 98.7244 364.602 98.7244" stroke="#EFEADD" stroke-linecap="round" stroke-linejoin="round"/>
<path d="M379.03 83.1713C377.561 82.1242 375.838 81.4899 374.041 81.3344C372.244 81.179 370.438 81.508 368.811 82.2873C363.044 84.9498 365.707 90.4958 363.044 91.8324C360.382 93.1689 359.045 91.6114 355.678 93.1689C352.31 94.7264 352.573 96.9364 352.573 96.9364" stroke="#EFEADD" stroke-linecap="round" stroke-linejoin="round"/>
<path d="M112.906 94.5993C112.779 94.2099 112.653 93.8205 112.516 93.4417C107.37 79.1504 83.4603 78.1612 83.4603 95.7253C83.4603 99.1035 75.3465 95.7253 72.3052 100.124C69.2638 104.523 72.6419 107.228 68.5798 108.543C64.5176 109.859 64.1808 106.512 59.1084 106.849C54.036 107.186 54.7095 111.921 53.0152 113.279C51.3208 114.636 51.3208 113.952 47.606 114.331C43.8911 114.71 43.207 117.373 43.207 117.373H132.175C132.175 117.373 135.563 107.228 129.47 103.502C123.377 99.777 123.387 104.86 118.652 102.829C114.737 101.166 114 97.9774 112.906 94.5993Z" stroke="#EFEADD" stroke-linecap="round" stroke-linejoin="round"/>
<path d="M115.988 113.692C116.481 111.955 116.491 110.116 116.019 108.373C115.546 106.631 114.608 105.049 113.304 103.8C108.779 99.5901 104.086 101.958 102.781 103.8C101.476 105.641 101.434 109.167 99.2551 109.503C97.0767 109.84 97.5818 105.81 92.9409 106.82C88.2999 107.83 90.0995 112.513 87.921 113.523C85.7426 114.534 85.7426 110.84 82.7223 112.008C79.702 113.176 79.8809 115.365 79.8809 115.365" stroke="#EFEADD" stroke-linecap="round" stroke-linejoin="round"/>
<path d="M91.9199 102.303C90.6855 101.423 89.2381 100.89 87.7281 100.759C86.2181 100.627 84.7004 100.902 83.3326 101.555C78.4811 103.797 80.7227 108.459 78.4811 109.574C76.2396 110.69 75.1241 109.396 72.3353 110.701C69.5465 112.005 69.7148 113.858 69.7148 113.858" stroke="#EFEADD" stroke-linecap="round" stroke-linejoin="round"/>
</g>
</svg>
