<svg width="421" height="301" viewBox="0 0 421 301" fill="none" xmlns="http://www.w3.org/2000/svg">
<g opacity="0.53">
<path d="M24.2891 121.431V74.6847H58.1018V125.409H87.9366H100.87V141.332H115.782V125.409V115.464H153.584V100.552H275.238V13.0156H319.69L328.646 17.9934V53.7951H341.58V128.398H356.492V136.354H381.36V126.409H402.249V147.299H416.172" stroke="#695F93" stroke-linejoin="round"/>
<path d="M317.701 16.9961V100.555" stroke="#695F93" stroke-linejoin="round"/>
<path d="M328.645 53.7969V128.4" stroke="#695F93" stroke-linejoin="round"/>
<path d="M335.613 55.7852V110.498" stroke="#695F93" stroke-linejoin="round"/>
<path d="M363.457 148.289H390.314V158.234H397.27V153.267H419.159" stroke="#695F93" stroke-linejoin="round"/>
<path d="M390.314 158.234V205.981" stroke="#695F93" stroke-linejoin="round"/>
<path d="M147.615 119.441V139.342" stroke="#695F93" stroke-linejoin="round"/>
<path d="M76.0039 128.398V156.244" stroke="#695F93" stroke-linejoin="round"/>
<path d="M354.008 142.176H325.162V295.917H354.008V142.176Z" fill="#695F93" stroke="#695F93" stroke-linejoin="round"/>
<path d="M354.008 142.176H330.141V295.917H354.008V142.176Z" fill="white" stroke="#695F93" stroke-linejoin="round"/>
<path d="M355.008 149.09H332.129V295.917H355.008V149.09Z" fill="#695F93" stroke="#695F93" stroke-linejoin="round"/>
<path d="M354.997 149.09H336.064V295.917H354.997V149.09Z" fill="white" stroke="#695F93" stroke-linejoin="round"/>
<path d="M353.513 151.961H338.096V157.717H353.513V151.961Z" fill="#695F93" stroke="#695F93" stroke-linejoin="round"/>
<path d="M338.592 162.328H353.009" stroke="#695F93" stroke-linejoin="round"/>
<path d="M338.592 167.516H353.009" stroke="#695F93" stroke-linejoin="round"/>
<path d="M338.592 172.695H353.009" stroke="#695F93" stroke-linejoin="round"/>
<path d="M338.592 177.883H353.009" stroke="#695F93" stroke-linejoin="round"/>
<path d="M338.592 183.059H353.009" stroke="#695F93" stroke-linejoin="round"/>
<path d="M338.592 188.246H353.009" stroke="#695F93" stroke-linejoin="round"/>
<path d="M338.592 193.426H353.009" stroke="#695F93" stroke-linejoin="round"/>
<path d="M338.592 198.602H353.009" stroke="#695F93" stroke-linejoin="round"/>
<path d="M338.592 203.789H353.009" stroke="#695F93" stroke-linejoin="round"/>
<path d="M338.592 208.969H353.009" stroke="#695F93" stroke-linejoin="round"/>
<path d="M338.592 214.156H353.009" stroke="#695F93" stroke-linejoin="round"/>
<path d="M338.592 219.336H353.009" stroke="#695F93" stroke-linejoin="round"/>
<path d="M338.592 224.523H353.009" stroke="#695F93" stroke-linejoin="round"/>
<path d="M338.592 229.699H353.009" stroke="#695F93" stroke-linejoin="round"/>
<path d="M338.592 234.879H353.009" stroke="#695F93" stroke-linejoin="round"/>
<path d="M338.592 240.066H353.009" stroke="#695F93" stroke-linejoin="round"/>
<path d="M338.592 245.242H353.009" stroke="#695F93" stroke-linejoin="round"/>
<path d="M338.592 250.434H353.009" stroke="#695F93" stroke-linejoin="round"/>
<path d="M338.592 255.609H353.009" stroke="#695F93" stroke-linejoin="round"/>
<path d="M338.592 260.797H353.009" stroke="#695F93" stroke-linejoin="round"/>
<path d="M338.592 265.977H353.009" stroke="#695F93" stroke-linejoin="round"/>
<path d="M338.592 271.164H353.009" stroke="#695F93" stroke-linejoin="round"/>
<path d="M338.592 276.344H353.009" stroke="#695F93" stroke-linejoin="round"/>
<path d="M338.592 281.52H353.009" stroke="#695F93" stroke-linejoin="round"/>
<path d="M338.592 286.707H353.009" stroke="#695F93" stroke-linejoin="round"/>
<path d="M267.725 97.5977H220.115V270.661H267.725V97.5977Z" fill="#695F93" stroke="#695F93" stroke-linejoin="round"/>
<path d="M267.726 97.5977H234.797V270.661H267.726V97.5977Z" fill="#8F8F8F" stroke="#695F93" stroke-linejoin="round"/>
<path d="M261.609 93.6289H240.898V270.659H261.609V93.6289Z" fill="#BDBDBD" stroke="#695F93" stroke-linejoin="round"/>
<path d="M237.184 102.574H266.976" stroke="white" stroke-linejoin="round"/>
<path d="M237.184 107.34H266.976" stroke="white" stroke-linejoin="round"/>
<path d="M237.184 112.109H266.976" stroke="white" stroke-linejoin="round"/>
<path d="M237.184 116.875H266.976" stroke="white" stroke-linejoin="round"/>
<path d="M237.184 121.641H266.976" stroke="white" stroke-linejoin="round"/>
<path d="M237.184 126.41H266.976" stroke="white" stroke-linejoin="round"/>
<path d="M237.184 131.176H266.976" stroke="white" stroke-linejoin="round"/>
<path d="M237.184 135.945H266.976" stroke="white" stroke-linejoin="round"/>
<path d="M237.184 140.711H266.976" stroke="white" stroke-linejoin="round"/>
<path d="M237.184 145.48H266.976" stroke="white" stroke-linejoin="round"/>
<path d="M237.184 150.246H266.976" stroke="white" stroke-linejoin="round"/>
<path d="M237.184 155.023H266.976" stroke="white" stroke-linejoin="round"/>
<path d="M237.184 159.793H266.976" stroke="white" stroke-linejoin="round"/>
<path d="M237.184 164.559H266.976" stroke="white" stroke-linejoin="round"/>
<path d="M237.184 169.324H266.976" stroke="white" stroke-linejoin="round"/>
<path d="M237.184 174.094H266.976" stroke="white" stroke-linejoin="round"/>
<path d="M237.184 178.859H266.976" stroke="white" stroke-linejoin="round"/>
<path d="M237.184 183.629H266.976" stroke="white" stroke-linejoin="round"/>
<path d="M237.184 188.395H266.976" stroke="white" stroke-linejoin="round"/>
<path d="M237.184 193.16H266.976" stroke="white" stroke-linejoin="round"/>
<path d="M237.184 197.93H266.976" stroke="white" stroke-linejoin="round"/>
<path d="M237.184 202.695H266.976" stroke="white" stroke-linejoin="round"/>
<path d="M237.184 207.477H266.976" stroke="white" stroke-linejoin="round"/>
<path d="M237.184 212.242H266.976" stroke="white" stroke-linejoin="round"/>
<path d="M237.184 217.008H266.976" stroke="white" stroke-linejoin="round"/>
<path d="M237.184 221.777H266.976" stroke="white" stroke-linejoin="round"/>
<path d="M237.184 226.543H266.976" stroke="white" stroke-linejoin="round"/>
<path d="M237.184 231.312H266.976" stroke="white" stroke-linejoin="round"/>
<path d="M237.184 236.078H266.976" stroke="white" stroke-linejoin="round"/>
<path d="M237.184 240.848H266.976" stroke="white" stroke-linejoin="round"/>
<path d="M237.184 245.613H266.976" stroke="white" stroke-linejoin="round"/>
<path d="M237.184 250.379H266.976" stroke="white" stroke-linejoin="round"/>
<path d="M237.184 255.145H266.976" stroke="white" stroke-linejoin="round"/>
<path d="M237.184 259.926H266.976" stroke="white" stroke-linejoin="round"/>
<path d="M237.184 264.691H266.976" stroke="white" stroke-linejoin="round"/>
<path d="M237.184 269.457H266.976" stroke="white" stroke-linejoin="round"/>
<path d="M175.252 33.7273V271.974H203.508V1.91406L175.252 33.7273Z" fill="#695F93" stroke="#695F93" stroke-width="0.5" stroke-linejoin="round"/>
<path d="M220.977 25.382L203.508 1.91406V271.974H220.977V25.382Z" fill="#695F93" stroke="#695F93" stroke-width="0.5" stroke-linejoin="round"/>
<path d="M202.992 139.723V272.017L231.775 272.532V158.623L202.992 139.723Z" fill="#695F93" stroke="#695F93" stroke-width="0.5" stroke-linejoin="round"/>
<path d="M202.445 95.8164L175.768 121.947H190.154L202.445 95.8164Z" fill="#695F93" stroke="#695F93" stroke-width="0.5" stroke-linejoin="round"/>
<path d="M190.154 121.949V271.428H174.736L175.347 121.949H190.154Z" fill="#695F93" stroke="#695F93" stroke-width="0.5" stroke-linejoin="round"/>
<path d="M202.717 271.941V94.9531L190.236 121.904V271.678L202.717 271.941Z" fill="#695F93" stroke="#695F93" stroke-width="0.5" stroke-linejoin="round"/>
<path d="M197.1 12.6053C197.11 12.722 197.145 12.8352 197.203 12.9369C197.261 13.0387 197.341 13.1266 197.436 13.1946L200.52 15.4151C200.641 15.5054 200.789 15.5535 200.941 15.5519C201.07 15.5517 201.196 15.5192 201.309 15.4572C201.434 15.3801 201.537 15.2714 201.607 15.1422C201.677 15.013 201.713 14.8676 201.709 14.7206V8.58522C201.713 8.42108 201.668 8.25953 201.58 8.12094C201.492 7.98235 201.365 7.87293 201.214 7.80647C201.067 7.74412 200.903 7.73305 200.748 7.77502C200.594 7.81699 200.458 7.90959 200.362 8.03799L197.236 11.9318C197.168 12.0284 197.121 12.1382 197.097 12.2541C197.074 12.3701 197.074 12.4897 197.1 12.6053Z" fill="white" stroke="#695F93" stroke-width="0.5" stroke-linejoin="round"/>
<path d="M205.161 15.9641C205.282 16.0466 205.425 16.0906 205.572 16.0904C205.689 16.0888 205.804 16.06 205.908 16.0062L209.697 13.9962C209.802 13.936 209.892 13.8542 209.963 13.7562C210.034 13.6582 210.083 13.5463 210.107 13.4279C210.134 13.3066 210.134 13.1811 210.109 13.0597C210.083 12.9382 210.033 12.8234 209.96 12.7228L206.171 7.46094C206.079 7.32804 205.946 7.22923 205.792 7.17978C205.637 7.13033 205.471 7.13298 205.319 7.18732C205.161 7.24953 205.026 7.35847 204.932 7.49955C204.838 7.64062 204.79 7.80708 204.793 7.9766V15.2064C204.783 15.3538 204.812 15.5011 204.877 15.6339C204.941 15.7668 205.039 15.8806 205.161 15.9641Z" fill="white" stroke="#695F93" stroke-width="0.5" stroke-linejoin="round"/>
<path d="M232.544 158.623C232.549 158.581 232.549 158.539 232.544 158.497C232.529 158.379 232.489 158.266 232.428 158.164C232.366 158.063 232.284 157.975 232.186 157.907L221.505 150.899V26.045L221.621 25.8661C221.723 25.7195 221.778 25.545 221.778 25.3662C221.778 25.1874 221.723 25.0129 221.621 24.8663L204.151 1.39838C204.073 1.28962 203.967 1.20269 203.846 1.14581C203.701 1.08358 203.54 1.06941 203.387 1.1054C203.233 1.14139 203.096 1.22564 202.994 1.34577L174.695 33.159C174.557 33.3158 174.482 33.5183 174.485 33.7273V271.985C174.479 272.194 174.554 272.398 174.696 272.553C174.837 272.708 175.033 272.803 175.242 272.816L231.765 273.374C231.866 273.371 231.966 273.348 232.058 273.306C232.15 273.265 232.233 273.206 232.302 273.132C232.451 272.967 232.533 272.754 232.534 272.532V158.623H232.544ZM230.997 220.019L204.288 193.225V192.783L230.997 160.791V220.019ZM202.741 271.416L191.438 271.301V270.596L191.586 270.522L191.438 270.217V170.957L202.32 193.457C202.357 193.541 202.41 193.616 202.478 193.678L202.741 193.941V271.416ZM189.87 200.402V237.919L183.367 219.156L189.87 200.402ZM182.819 217.577L176.421 199.118L183.304 183.901L189.228 199.097L182.819 217.577ZM189.87 197.898L183.903 182.575L189.87 169.41V197.898ZM176 124.347L182.314 143.29L176 160.823V124.347ZM182.883 144.879L189.87 165.727V166.842L183.377 181.218L176.316 163.096L182.883 144.879ZM183.451 143.311L189.87 125.6V162.433L183.451 143.311ZM189.955 121.579C189.904 121.696 189.879 121.821 189.881 121.948V122.548L182.935 141.732L176.358 122.106L200.394 98.6798L189.955 121.579ZM176 120.948V72.7072L201.489 96.0278L176 120.948ZM182.777 182.533L176 197.519V165.2L182.777 182.533ZM176 201.076L182.314 219.156L176 237.246V201.076ZM182.819 220.745L189.87 241.077V242.697L183.777 254.41L176.411 239.193L182.819 220.745ZM189.87 244.949V266.997L184.345 255.568L189.87 244.949ZM191.417 124.389L202.173 139.607L191.417 165.916V124.389ZM202.72 142.395V190.72L192.017 168.568L202.72 142.395ZM202.72 137.628L191.544 121.843L202.625 97.3643L202.72 97.4906V137.628ZM204.267 99.5533L220.452 121.316L204.288 139.354L204.267 99.5533ZM202.373 94.6913L177.052 71.5391L202.741 53.533V94.2178L202.373 94.6913ZM204.288 54.0802L219.453 71.476L204.288 92.1025V54.0802ZM176.021 70.2552V35.2006L202.057 51.965L176.021 70.2552ZM176.021 240.74L183.198 255.589L176.021 269.385V240.74ZM183.767 256.757L189.87 269.385V271.248L176.253 271.111L183.767 256.757ZM204.288 195.509L230.113 221.408L204.288 246.286V195.509ZM204.288 190.299V141.617H204.351L230.576 158.834L204.288 190.299ZM220.473 150.236L205.498 140.406L220.473 123.737V150.236ZM204.288 96.9118V94.6913L220.473 72.6862V118.643L204.288 96.9118ZM220.473 70.1605L204.509 51.8597L220.473 27.6551V70.1605ZM204.288 49.3235V4.28188L220.074 25.4136L204.288 49.3235ZM202.741 50.4916L176.484 33.5484L202.741 3.98722V50.4916ZM204.288 271.49V248.517L230.997 222.776V271.69L204.288 271.49Z" fill="white" stroke="#695F93" stroke-width="0.5" stroke-linejoin="round"/>
<path d="M215.001 197.773H211.275V200.257H215.001V197.773Z" fill="white" stroke="#695F93" stroke-linejoin="round"/>
<path d="M221.473 197.773H217.748V200.257H221.473V197.773Z" fill="white" stroke="#695F93" stroke-linejoin="round"/>
<path d="M227.934 197.773H224.209V200.257H227.934V197.773Z" fill="white" stroke="#695F93" stroke-linejoin="round"/>
<path d="M231.72 199.426H198.812V210.613H231.72V199.426Z" fill="white" stroke="#695F93" stroke-linejoin="round"/>
<path d="M231.722 199.426H209.633V210.613H231.722V199.426Z" fill="white" stroke="#695F93" stroke-linejoin="round"/>
<path d="M245.488 202.781H185.902V272.122H245.488V202.781Z" fill="white" stroke="#695F93" stroke-linejoin="round"/>
<path d="M245.487 202.781H194.836V272.122H245.487V202.781Z" fill="white" stroke="#695F93" stroke-linejoin="round"/>
<path d="M245.488 215.82H185.902V217.43H245.488V215.82Z" fill="#695F93" stroke="#695F93" stroke-linejoin="round"/>
<path d="M245.487 215.82H194.836V217.43H245.487V215.82Z" fill="#695F93" stroke="#695F93" stroke-linejoin="round"/>
<path d="M245.488 219.734H185.902V221.345H245.488V219.734Z" fill="#695F93" stroke="#695F93" stroke-linejoin="round"/>
<path d="M245.487 219.734H194.836V221.345H245.487V219.734Z" fill="#695F93" stroke="#695F93" stroke-linejoin="round"/>
<path d="M245.488 223.641H185.902V225.251H245.488V223.641Z" fill="#695F93" stroke="#695F93" stroke-linejoin="round"/>
<path d="M245.487 223.641H194.836V225.251H245.487V223.641Z" fill="#695F93" stroke="#695F93" stroke-linejoin="round"/>
<path d="M245.488 227.543H185.902V229.153H245.488V227.543Z" fill="#695F93" stroke="#695F93" stroke-linejoin="round"/>
<path d="M245.487 227.543H194.836V229.153H245.487V227.543Z" fill="#695F93" stroke="#695F93" stroke-linejoin="round"/>
<path d="M245.488 231.445H185.902V233.055H245.488V231.445Z" fill="#695F93" stroke="#695F93" stroke-linejoin="round"/>
<path d="M245.487 231.445H194.836V233.055H245.487V231.445Z" fill="#695F93" stroke="#695F93" stroke-linejoin="round"/>
<path d="M245.488 235.352H185.902V236.962H245.488V235.352Z" fill="#695F93" stroke="#695F93" stroke-linejoin="round"/>
<path d="M245.487 235.352H194.836V236.962H245.487V235.352Z" fill="#695F93" stroke="#695F93" stroke-linejoin="round"/>
<path d="M245.488 239.258H185.902V240.868H245.488V239.258Z" fill="#695F93" stroke="#695F93" stroke-linejoin="round"/>
<path d="M245.487 239.258H194.836V240.868H245.487V239.258Z" fill="#695F93" stroke="#695F93" stroke-linejoin="round"/>
<path d="M245.488 243.16H185.902V244.77H245.488V243.16Z" fill="#695F93" stroke="#695F93" stroke-linejoin="round"/>
<path d="M245.487 243.16H194.836V244.77H245.487V243.16Z" fill="#695F93" stroke="#695F93" stroke-linejoin="round"/>
<path d="M245.488 247.062H185.902V248.673H245.488V247.062Z" fill="#695F93" stroke="#695F93" stroke-linejoin="round"/>
<path d="M245.487 247.062H194.836V248.673H245.487V247.062Z" fill="#695F93" stroke="#695F93" stroke-linejoin="round"/>
<path d="M245.488 250.969H185.902V252.579H245.488V250.969Z" fill="#695F93" stroke="#695F93" stroke-linejoin="round"/>
<path d="M245.487 250.969H194.836V252.579H245.487V250.969Z" fill="#695F93" stroke="#695F93" stroke-linejoin="round"/>
<path d="M245.488 254.875H185.902V256.485H245.488V254.875Z" fill="#695F93" stroke="#695F93" stroke-linejoin="round"/>
<path d="M245.487 254.875H194.836V256.485H245.487V254.875Z" fill="#695F93" stroke="#695F93" stroke-linejoin="round"/>
<path d="M245.488 258.777H185.902V260.387H245.488V258.777Z" fill="#695F93" stroke="#695F93" stroke-linejoin="round"/>
<path d="M245.487 258.777H194.836V260.387H245.487V258.777Z" fill="#695F93" stroke="#695F93" stroke-linejoin="round"/>
<path d="M245.488 262.684H185.902V264.294H245.488V262.684Z" fill="#695F93" stroke="#695F93" stroke-linejoin="round"/>
<path d="M245.487 262.684H194.836V264.294H245.487V262.684Z" fill="#695F93" stroke="#695F93" stroke-linejoin="round"/>
<path d="M245.488 266.586H185.902V268.196H245.488V266.586Z" fill="#695F93" stroke="#695F93" stroke-linejoin="round"/>
<path d="M245.487 266.586H194.836V268.196H245.487V266.586Z" fill="#695F93" stroke="#695F93" stroke-linejoin="round"/>
<path d="M245.488 202.781H185.902V213.968H245.488V202.781Z" fill="white" stroke="#695F93" stroke-linejoin="round"/>
<path d="M245.487 202.781H194.836V213.968H245.487V202.781Z" fill="white" stroke="#695F93" stroke-linejoin="round"/>
<path d="M112.563 161.223H77.75V165.18H112.563V161.223Z" fill="white" stroke="#695F93" stroke-linejoin="round"/>
<path d="M62.173 259.199C62.173 259.199 77.506 267.513 77.506 271.544H109.772C109.772 271.544 110.519 263.924 120.411 259.452C120.411 259.452 61.0153 258.031 62.173 259.199Z" fill="#8F8F8F" stroke="#695F93" stroke-linejoin="round"/>
<path d="M121.761 163.781H62.1758V259.2H121.761V163.781Z" fill="white" stroke="#695F93" stroke-linejoin="round"/>
<path d="M121.77 163.781H71.1191V259.2H121.77V163.781Z" fill="white" stroke="#695F93" stroke-linejoin="round"/>
<path d="M86.7566 166.41H83.0312V183.522H86.7566V166.41Z" fill="#695F93"/>
<path d="M92.7137 166.41H88.9883V183.522H92.7137V166.41Z" fill="#695F93"/>
<path d="M98.6707 166.41H94.9453V183.522H98.6707V166.41Z" fill="#695F93"/>
<path d="M80.8016 166.41H77.0762V183.522H80.8016V166.41Z" fill="#695F93"/>
<path d="M115.802 166.41H112.824V183.522H115.802V166.41Z" fill="#695F93"/>
<path d="M110.595 166.41H106.869V183.522H110.595V166.41Z" fill="#695F93"/>
<path d="M104.639 166.41H100.914V183.522H104.639V166.41Z" fill="#695F93"/>
<path d="M121.77 163.781H71.1191V174.305H121.77V163.781Z" fill="white" stroke="#695F93" stroke-linejoin="round"/>
<path d="M98.4395 166.609L98.85 167.872H100.165L99.1025 168.651L99.5024 169.903L98.4395 169.125L97.3661 169.903L97.7766 168.651L96.7031 167.872H98.0291L98.4395 166.609Z" fill="#695F93"/>
<path d="M78.4863 167.684H74.0137V170.167H78.4863V167.684Z" fill="#695F93"/>
<path d="M84.2109 167.684H79.7383V170.167H84.2109V167.684Z" fill="#695F93"/>
<path d="M89.9257 167.684H85.4531V170.167H89.9257V167.684Z" fill="#695F93"/>
<path d="M95.6503 167.684H91.1777V170.167H95.6503V167.684Z" fill="#695F93"/>
<path d="M104.816 167.684H101.617V170.167H104.816V167.684Z" fill="#695F93"/>
<path d="M108.9 167.684H105.701V170.167H108.9V167.684Z" fill="#695F93"/>
<path d="M112.982 167.684H109.783V170.167H112.982V167.684Z" fill="#695F93"/>
<path d="M117.066 167.684H113.867V170.167H117.066V167.684Z" fill="#695F93"/>
<path d="M75.7605 186.27H73.7715V257.884H75.7605V186.27Z" fill="#695F93"/>
<path d="M79.739 186.27H77.75V257.884H79.739V186.27Z" fill="#695F93"/>
<path d="M83.7155 186.27H81.7266V257.884H83.7155V186.27Z" fill="#695F93"/>
<path d="M87.6941 186.27H85.7051V257.884H87.6941V186.27Z" fill="#695F93"/>
<path d="M91.6726 186.27H89.6836V257.884H91.6726V186.27Z" fill="#695F93"/>
<path d="M95.6491 186.27H93.6602V257.884H95.6491V186.27Z" fill="#695F93"/>
<path d="M99.6277 186.27H97.6387V257.884H99.6277V186.27Z" fill="#695F93"/>
<path d="M103.606 186.27H101.617V257.884H103.606V186.27Z" fill="#695F93"/>
<path d="M107.585 186.27H105.596V257.884H107.585V186.27Z" fill="#695F93"/>
<path d="M111.561 186.27H109.572V257.884H111.561V186.27Z" fill="#695F93"/>
<path d="M115.54 186.27H113.551V257.884H115.54V186.27Z" fill="#695F93"/>
<path d="M119.518 186.27H117.529V257.884H119.518V186.27Z" fill="#695F93"/>
<path d="M175.369 149.223H115.783V272.119H175.369V149.223Z" fill="white" stroke="#695F93" stroke-linejoin="round"/>
<path d="M175.368 149.223H124.717V272.119H175.368V149.223Z" fill="white" stroke="#695F93" stroke-linejoin="round"/>
<path d="M132.169 152.203H128.443V156.676H132.169V152.203Z" fill="#695F93"/>
<path d="M132.169 158.906H128.443V163.379H132.169V158.906Z" fill="#695F93"/>
<path d="M132.169 165.609H128.443V170.082H132.169V165.609Z" fill="#695F93"/>
<path d="M132.169 172.316H128.443V176.789H132.169V172.316Z" fill="#695F93"/>
<path d="M132.169 179.02H128.443V183.492H132.169V179.02Z" fill="#695F93"/>
<path d="M132.169 185.723H128.443V190.195H132.169V185.723Z" fill="#695F93"/>
<path d="M132.169 192.426H128.443V196.898H132.169V192.426Z" fill="#695F93"/>
<path d="M132.169 199.129H128.443V203.601H132.169V199.129Z" fill="#695F93"/>
<path d="M132.169 205.832H128.443V210.305H132.169V205.832Z" fill="#695F93"/>
<path d="M132.169 212.535H128.443V217.008H132.169V212.535Z" fill="#695F93"/>
<path d="M132.169 219.23H128.443V223.703H132.169V219.23Z" fill="#695F93"/>
<path d="M132.169 225.934H128.443V230.406H132.169V225.934Z" fill="#695F93"/>
<path d="M132.169 232.637H128.443V237.109H132.169V232.637Z" fill="#695F93"/>
<path d="M132.169 239.34H128.443V243.812H132.169V239.34Z" fill="#695F93"/>
<path d="M132.169 246.043H128.443V250.516H132.169V246.043Z" fill="#695F93"/>
<path d="M132.169 252.746H128.443V257.219H132.169V252.746Z" fill="#695F93"/>
<path d="M132.169 259.449H128.443V263.922H132.169V259.449Z" fill="#695F93"/>
<path d="M138.87 152.203H135.145V156.676H138.87V152.203Z" fill="#695F93"/>
<path d="M138.87 158.906H135.145V163.379H138.87V158.906Z" fill="#695F93"/>
<path d="M138.87 165.609H135.145V170.082H138.87V165.609Z" fill="#695F93"/>
<path d="M138.87 172.316H135.145V176.789H138.87V172.316Z" fill="#695F93"/>
<path d="M138.87 179.02H135.145V183.492H138.87V179.02Z" fill="#695F93"/>
<path d="M138.87 185.723H135.145V190.195H138.87V185.723Z" fill="#695F93"/>
<path d="M138.87 192.426H135.145V196.898H138.87V192.426Z" fill="#695F93"/>
<path d="M138.87 199.129H135.145V203.601H138.87V199.129Z" fill="#695F93"/>
<path d="M138.87 205.832H135.145V210.305H138.87V205.832Z" fill="#695F93"/>
<path d="M138.87 212.535H135.145V217.008H138.87V212.535Z" fill="#695F93"/>
<path d="M138.87 219.23H135.145V223.703H138.87V219.23Z" fill="#695F93"/>
<path d="M138.87 225.934H135.145V230.406H138.87V225.934Z" fill="#695F93"/>
<path d="M138.87 232.637H135.145V237.109H138.87V232.637Z" fill="#695F93"/>
<path d="M138.87 239.34H135.145V243.812H138.87V239.34Z" fill="#695F93"/>
<path d="M138.87 246.043H135.145V250.516H138.87V246.043Z" fill="#695F93"/>
<path d="M138.87 252.746H135.145V257.219H138.87V252.746Z" fill="#695F93"/>
<path d="M138.87 259.449H135.145V263.922H138.87V259.449Z" fill="#695F93"/>
<path d="M121.58 152.203H120.412V156.676H121.58V152.203Z" fill="#695F93"/>
<path d="M121.58 158.906H120.412V163.379H121.58V158.906Z" fill="#695F93"/>
<path d="M121.58 165.609H120.412V170.082H121.58V165.609Z" fill="#695F93"/>
<path d="M121.58 172.316H120.412V176.789H121.58V172.316Z" fill="#695F93"/>
<path d="M121.58 179.02H120.412V183.492H121.58V179.02Z" fill="#695F93"/>
<path d="M121.58 185.723H120.412V190.195H121.58V185.723Z" fill="#695F93"/>
<path d="M121.58 192.426H120.412V196.898H121.58V192.426Z" fill="#695F93"/>
<path d="M121.58 199.129H120.412V203.601H121.58V199.129Z" fill="#695F93"/>
<path d="M121.58 205.832H120.412V210.305H121.58V205.832Z" fill="#695F93"/>
<path d="M121.58 212.535H120.412V217.008H121.58V212.535Z" fill="#695F93"/>
<path d="M121.58 219.23H120.412V223.703H121.58V219.23Z" fill="#695F93"/>
<path d="M121.58 225.934H120.412V230.406H121.58V225.934Z" fill="#695F93"/>
<path d="M121.58 232.637H120.412V237.109H121.58V232.637Z" fill="#695F93"/>
<path d="M121.58 239.34H120.412V243.812H121.58V239.34Z" fill="#695F93"/>
<path d="M121.58 246.043H120.412V250.516H121.58V246.043Z" fill="#695F93"/>
<path d="M121.58 252.746H120.412V257.219H121.58V252.746Z" fill="#695F93"/>
<path d="M121.58 259.449H120.412V263.922H121.58V259.449Z" fill="#695F93"/>
<path d="M145.575 152.203H141.85V156.676H145.575V152.203Z" fill="#695F93"/>
<path d="M145.575 158.906H141.85V163.379H145.575V158.906Z" fill="#695F93"/>
<path d="M145.575 165.609H141.85V170.082H145.575V165.609Z" fill="#695F93"/>
<path d="M145.575 172.316H141.85V176.789H145.575V172.316Z" fill="#695F93"/>
<path d="M145.575 179.02H141.85V183.492H145.575V179.02Z" fill="#695F93"/>
<path d="M145.575 185.723H141.85V190.195H145.575V185.723Z" fill="#695F93"/>
<path d="M145.575 192.426H141.85V196.898H145.575V192.426Z" fill="#695F93"/>
<path d="M145.575 199.129H141.85V203.601H145.575V199.129Z" fill="#695F93"/>
<path d="M145.575 205.832H141.85V210.305H145.575V205.832Z" fill="#695F93"/>
<path d="M145.575 212.535H141.85V217.008H145.575V212.535Z" fill="#695F93"/>
<path d="M145.575 219.23H141.85V223.703H145.575V219.23Z" fill="#695F93"/>
<path d="M145.575 225.934H141.85V230.406H145.575V225.934Z" fill="#695F93"/>
<path d="M145.575 232.637H141.85V237.109H145.575V232.637Z" fill="#695F93"/>
<path d="M145.575 239.34H141.85V243.812H145.575V239.34Z" fill="#695F93"/>
<path d="M145.575 246.043H141.85V250.516H145.575V246.043Z" fill="#695F93"/>
<path d="M145.575 252.746H141.85V257.219H145.575V252.746Z" fill="#695F93"/>
<path d="M145.575 259.449H141.85V263.922H145.575V259.449Z" fill="#695F93"/>
<path d="M152.278 152.203H148.553V156.676H152.278V152.203Z" fill="#695F93"/>
<path d="M152.278 158.906H148.553V163.379H152.278V158.906Z" fill="#695F93"/>
<path d="M152.278 165.609H148.553V170.082H152.278V165.609Z" fill="#695F93"/>
<path d="M152.278 172.316H148.553V176.789H152.278V172.316Z" fill="#695F93"/>
<path d="M152.278 179.02H148.553V183.492H152.278V179.02Z" fill="#695F93"/>
<path d="M152.278 185.723H148.553V190.195H152.278V185.723Z" fill="#695F93"/>
<path d="M152.278 192.426H148.553V196.898H152.278V192.426Z" fill="#695F93"/>
<path d="M152.278 199.129H148.553V203.601H152.278V199.129Z" fill="#695F93"/>
<path d="M152.278 205.832H148.553V210.305H152.278V205.832Z" fill="#695F93"/>
<path d="M152.278 212.535H148.553V217.008H152.278V212.535Z" fill="#695F93"/>
<path d="M152.278 219.23H148.553V223.703H152.278V219.23Z" fill="#695F93"/>
<path d="M152.278 225.934H148.553V230.406H152.278V225.934Z" fill="#695F93"/>
<path d="M152.278 232.637H148.553V237.109H152.278V232.637Z" fill="#695F93"/>
<path d="M152.278 239.34H148.553V243.812H152.278V239.34Z" fill="#695F93"/>
<path d="M152.278 246.043H148.553V250.516H152.278V246.043Z" fill="#695F93"/>
<path d="M152.278 252.746H148.553V257.219H152.278V252.746Z" fill="#695F93"/>
<path d="M152.278 259.449H148.553V263.922H152.278V259.449Z" fill="#695F93"/>
<path d="M158.981 152.203H155.256V156.676H158.981V152.203Z" fill="#695F93"/>
<path d="M158.981 158.906H155.256V163.379H158.981V158.906Z" fill="#695F93"/>
<path d="M158.981 165.609H155.256V170.082H158.981V165.609Z" fill="#695F93"/>
<path d="M158.981 172.316H155.256V176.789H158.981V172.316Z" fill="#695F93"/>
<path d="M158.981 179.02H155.256V183.492H158.981V179.02Z" fill="#695F93"/>
<path d="M158.981 185.723H155.256V190.195H158.981V185.723Z" fill="#695F93"/>
<path d="M158.981 192.426H155.256V196.898H158.981V192.426Z" fill="#695F93"/>
<path d="M158.981 199.129H155.256V203.601H158.981V199.129Z" fill="#695F93"/>
<path d="M158.981 205.832H155.256V210.305H158.981V205.832Z" fill="#695F93"/>
<path d="M158.981 212.535H155.256V217.008H158.981V212.535Z" fill="#695F93"/>
<path d="M158.981 219.23H155.256V223.703H158.981V219.23Z" fill="#695F93"/>
<path d="M158.981 225.934H155.256V230.406H158.981V225.934Z" fill="#695F93"/>
<path d="M158.981 232.637H155.256V237.109H158.981V232.637Z" fill="#695F93"/>
<path d="M158.981 239.34H155.256V243.812H158.981V239.34Z" fill="#695F93"/>
<path d="M158.981 246.043H155.256V250.516H158.981V246.043Z" fill="#695F93"/>
<path d="M158.981 252.746H155.256V257.219H158.981V252.746Z" fill="#695F93"/>
<path d="M158.981 259.449H155.256V263.922H158.981V259.449Z" fill="#695F93"/>
<path d="M165.684 152.203H161.959V156.676H165.684V152.203Z" fill="#695F93"/>
<path d="M165.684 158.906H161.959V163.379H165.684V158.906Z" fill="#695F93"/>
<path d="M165.684 165.609H161.959V170.082H165.684V165.609Z" fill="#695F93"/>
<path d="M165.684 172.316H161.959V176.789H165.684V172.316Z" fill="#695F93"/>
<path d="M165.684 179.02H161.959V183.492H165.684V179.02Z" fill="#695F93"/>
<path d="M165.684 185.723H161.959V190.195H165.684V185.723Z" fill="#695F93"/>
<path d="M165.684 192.426H161.959V196.898H165.684V192.426Z" fill="#695F93"/>
<path d="M165.684 199.129H161.959V203.601H165.684V199.129Z" fill="#695F93"/>
<path d="M165.684 205.832H161.959V210.305H165.684V205.832Z" fill="#695F93"/>
<path d="M165.684 212.535H161.959V217.008H165.684V212.535Z" fill="#695F93"/>
<path d="M165.684 219.23H161.959V223.703H165.684V219.23Z" fill="#695F93"/>
<path d="M165.684 225.934H161.959V230.406H165.684V225.934Z" fill="#695F93"/>
<path d="M165.684 232.637H161.959V237.109H165.684V232.637Z" fill="#695F93"/>
<path d="M165.684 239.34H161.959V243.812H165.684V239.34Z" fill="#695F93"/>
<path d="M165.684 246.043H161.959V250.516H165.684V246.043Z" fill="#695F93"/>
<path d="M165.684 252.746H161.959V257.219H165.684V252.746Z" fill="#695F93"/>
<path d="M165.684 259.449H161.959V263.922H165.684V259.449Z" fill="#695F93"/>
<path d="M172.389 152.203H168.664V156.676H172.389V152.203Z" fill="#695F93"/>
<path d="M172.389 158.906H168.664V163.379H172.389V158.906Z" fill="#695F93"/>
<path d="M172.389 165.609H168.664V170.082H172.389V165.609Z" fill="#695F93"/>
<path d="M172.389 172.316H168.664V176.789H172.389V172.316Z" fill="#695F93"/>
<path d="M172.389 179.02H168.664V183.492H172.389V179.02Z" fill="#695F93"/>
<path d="M172.389 185.723H168.664V190.195H172.389V185.723Z" fill="#695F93"/>
<path d="M172.389 192.426H168.664V196.898H172.389V192.426Z" fill="#695F93"/>
<path d="M172.389 199.129H168.664V203.601H172.389V199.129Z" fill="#695F93"/>
<path d="M172.389 205.832H168.664V210.305H172.389V205.832Z" fill="#695F93"/>
<path d="M172.389 212.535H168.664V217.008H172.389V212.535Z" fill="#695F93"/>
<path d="M172.389 219.23H168.664V223.703H172.389V219.23Z" fill="#695F93"/>
<path d="M172.389 225.934H168.664V230.406H172.389V225.934Z" fill="#695F93"/>
<path d="M172.389 232.637H168.664V237.109H172.389V232.637Z" fill="#695F93"/>
<path d="M172.389 239.34H168.664V243.812H172.389V239.34Z" fill="#695F93"/>
<path d="M172.389 246.043H168.664V250.516H172.389V246.043Z" fill="#695F93"/>
<path d="M172.389 252.746H168.664V257.219H172.389V252.746Z" fill="#695F93"/>
<path d="M172.389 259.449H168.664V263.922H172.389V259.449Z" fill="#695F93"/>
<path d="M175.474 141.828H115.783V149.226H175.474V141.828Z" fill="#695F93" stroke="#695F93" stroke-linejoin="round"/>
<path d="M131.705 145.805H167.517" stroke="white" stroke-width="2" stroke-linejoin="round"/>
<path d="M121.759 145.805H117.781" stroke="white" stroke-width="2" stroke-linejoin="round"/>
<path d="M314.712 216.495H310.239C310.239 216.495 308.745 134.41 306.514 115.467L284.877 108.227V104.238H272.943C272.943 104.238 265.482 213.054 272.943 295.97H315.459C315.459 295.97 316.953 235.49 314.712 216.495Z" fill="white" stroke="#695F93" stroke-linejoin="round"/>
<path d="M272.785 296.073C264.987 212.01 272.701 100.584 272.785 99.4688L274.774 99.6582C274.69 100.774 266.997 211.989 274.774 295.821L272.785 296.073Z" fill="#695F93"/>
<path d="M275.239 296.073C267.44 212.01 275.154 100.584 275.239 99.4688L277.228 99.6582C277.143 100.774 269.45 211.989 277.228 295.821L275.239 296.073Z" fill="#695F93"/>
<path d="M277.69 296.073C269.892 212.01 277.605 100.584 277.69 99.4688L279.668 99.6582C279.584 100.774 271.891 211.989 279.668 295.821L277.69 296.073Z" fill="#695F93"/>
<path d="M280.141 296.073C272.343 212.01 280.057 100.584 280.141 99.4688L282.13 99.6582C282.046 100.774 274.342 211.989 282.13 295.821L280.141 296.073Z" fill="#695F93"/>
<path d="M282.594 296.073C274.796 212.01 282.51 100.584 282.594 99.4688L284.583 99.6582C284.499 100.774 276.806 211.989 284.583 295.821L282.594 296.073Z" fill="#695F93"/>
<path d="M284.877 104.215C284.877 104.215 277.415 213.03 284.877 295.947H327.393C327.393 295.947 328.887 235.488 326.656 216.493H322.173C322.173 216.493 320.689 134.407 318.447 115.465L284.877 104.215Z" fill="white" stroke="#695F93" stroke-linejoin="round"/>
<path d="M307.262 113.391H286.867V124.335H307.262V113.391Z" fill="#695F93"/>
<path d="M286.445 127.062H285.414V132.63H286.445V127.062Z" fill="#695F93"/>
<path d="M287.992 127.062H286.961V132.63H287.992V127.062Z" fill="#695F93"/>
<path d="M289.529 127.062H288.498V132.63H289.529V127.062Z" fill="#695F93"/>
<path d="M291.076 127.062H290.045V132.63H291.076V127.062Z" fill="#695F93"/>
<path d="M292.623 127.062H291.592V132.63H292.623V127.062Z" fill="#695F93"/>
<path d="M294.17 127.062H293.139V132.63H294.17V127.062Z" fill="#695F93"/>
<path d="M295.717 127.062H294.686V132.63H295.717V127.062Z" fill="#695F93"/>
<path d="M297.264 127.062H296.232V132.63H297.264V127.062Z" fill="#695F93"/>
<path d="M298.801 127.062H297.77V132.63H298.801V127.062Z" fill="#695F93"/>
<path d="M300.348 127.062H299.316V132.63H300.348V127.062Z" fill="#695F93"/>
<path d="M301.895 127.062H300.863V132.63H301.895V127.062Z" fill="#695F93"/>
<path d="M303.441 127.062H302.41V132.63H303.441V127.062Z" fill="#695F93"/>
<path d="M304.988 127.062H303.957V132.63H304.988V127.062Z" fill="#695F93"/>
<path d="M306.535 127.062H305.504V132.63H306.535V127.062Z" fill="#695F93"/>
<path d="M308.072 127.062H307.041V132.63H308.072V127.062Z" fill="#695F93"/>
<path d="M309.617 127.062H308.586V132.63H309.617V127.062Z" fill="#695F93"/>
<path d="M311.166 127.062H310.135V132.63H311.166V127.062Z" fill="#695F93"/>
<path d="M312.713 127.062H311.682V132.63H312.713V127.062Z" fill="#695F93"/>
<path d="M314.258 127.062H313.227V132.63H314.258V127.062Z" fill="#695F93"/>
<path d="M315.807 127.062H314.775V132.63H315.807V127.062Z" fill="#695F93"/>
<path d="M317.344 127.062H316.312V132.63H317.344V127.062Z" fill="#695F93"/>
<path d="M302.82 220.145H301.789V225.775H302.82V220.145Z" fill="#695F93"/>
<path d="M304.367 220.145H303.336V225.775H304.367V220.145Z" fill="#695F93"/>
<path d="M305.904 220.145H304.873V225.775H305.904V220.145Z" fill="#695F93"/>
<path d="M307.451 220.145H306.42V225.775H307.451V220.145Z" fill="#695F93"/>
<path d="M308.998 220.145H307.967V225.775H308.998V220.145Z" fill="#695F93"/>
<path d="M310.545 220.145H309.514V225.775H310.545V220.145Z" fill="#695F93"/>
<path d="M312.092 220.145H311.061V225.775H312.092V220.145Z" fill="#695F93"/>
<path d="M313.627 220.145H312.596V225.775H313.627V220.145Z" fill="#695F93"/>
<path d="M315.176 220.145H314.145V225.775H315.176V220.145Z" fill="#695F93"/>
<path d="M316.723 220.145H315.691V225.775H316.723V220.145Z" fill="#695F93"/>
<path d="M318.27 220.145H317.238V225.775H318.27V220.145Z" fill="#695F93"/>
<path d="M319.816 220.145H318.785V225.775H319.816V220.145Z" fill="#695F93"/>
<path d="M321.363 220.145H320.332V225.775H321.363V220.145Z" fill="#695F93"/>
<path d="M322.899 220.145H321.867V225.775H322.899V220.145Z" fill="#695F93"/>
<path d="M285.057 140.805H317.186" stroke="#695F93" stroke-linejoin="round"/>
<path d="M285.057 147.004H317.186" stroke="#695F93" stroke-linejoin="round"/>
<path d="M285.057 153.203H317.186" stroke="#695F93" stroke-linejoin="round"/>
<path d="M285.057 159.402H317.186" stroke="#695F93" stroke-linejoin="round"/>
<path d="M285.057 165.609H317.186" stroke="#695F93" stroke-linejoin="round"/>
<path d="M285.057 171.809H317.186" stroke="#695F93" stroke-linejoin="round"/>
<path d="M285.057 178.008H317.186" stroke="#695F93" stroke-linejoin="round"/>
<path d="M285.057 184.207H317.186" stroke="#695F93" stroke-linejoin="round"/>
<path d="M285.057 190.406H317.186" stroke="#695F93" stroke-linejoin="round"/>
<path d="M285.057 196.602H317.186" stroke="#695F93" stroke-linejoin="round"/>
<path d="M285.057 202.801H317.186" stroke="#695F93" stroke-linejoin="round"/>
<path d="M285.057 209.012H317.186" stroke="#695F93" stroke-linejoin="round"/>
<path d="M285.057 215.207H317.186" stroke="#695F93" stroke-linejoin="round"/>
<path d="M285.057 231.555H324.479" stroke="#695F93" stroke-linejoin="round"/>
<path d="M285.057 238.32H324.479" stroke="#695F93" stroke-linejoin="round"/>
<path d="M285.057 245.074H324.479" stroke="#695F93" stroke-linejoin="round"/>
<path d="M285.057 251.844H324.479" stroke="#695F93" stroke-linejoin="round"/>
<path d="M285.057 258.609H324.479" stroke="#695F93" stroke-linejoin="round"/>
<path d="M285.057 265.367H324.479" stroke="#695F93" stroke-linejoin="round"/>
<path d="M285.057 272.133H324.479" stroke="#695F93" stroke-linejoin="round"/>
<path d="M285.057 278.898H324.479" stroke="#695F93" stroke-linejoin="round"/>
<path d="M285.057 285.664H324.479" stroke="#695F93" stroke-linejoin="round"/>
<path d="M285.057 292.422H324.479" stroke="#695F93" stroke-linejoin="round"/>
<path d="M394.797 211.273H358.984V296.495H394.797V211.273Z" fill="white" stroke="#695F93" stroke-linejoin="round"/>
<path d="M364.457 211.273H358.984V296.495H364.457V211.273Z" fill="white" stroke="#695F93" stroke-linejoin="round"/>
<path d="M377.381 211.273H371.908V296.495H377.381V211.273Z" fill="white" stroke="#695F93" stroke-linejoin="round"/>
<path d="M393.294 218.754H378.877V221.059H393.294V218.754Z" fill="#695F93"/>
<path d="M393.294 222.785H378.877V225.09H393.294V222.785Z" fill="#695F93"/>
<path d="M393.294 226.816H378.877V229.121H393.294V226.816Z" fill="#695F93"/>
<path d="M393.294 230.848H378.877V233.152H393.294V230.848Z" fill="#695F93"/>
<path d="M393.294 234.879H378.877V237.184H393.294V234.879Z" fill="#695F93"/>
<path d="M393.294 238.906H378.877V241.211H393.294V238.906Z" fill="#695F93"/>
<path d="M393.294 242.938H378.877V245.242H393.294V242.938Z" fill="#695F93"/>
<path d="M393.294 246.973H378.877V249.277H393.294V246.973Z" fill="#695F93"/>
<path d="M393.294 251H378.877V253.305H393.294V251Z" fill="#695F93"/>
<path d="M393.294 255.031H378.877V257.336H393.294V255.031Z" fill="#695F93"/>
<path d="M393.294 259.062H378.877V261.367H393.294V259.062Z" fill="#695F93"/>
<path d="M393.294 263.094H378.877V265.398H393.294V263.094Z" fill="#695F93"/>
<path d="M393.294 267.121H378.877V269.426H393.294V267.121Z" fill="#695F93"/>
<path d="M393.294 271.164H378.877V273.469H393.294V271.164Z" fill="#695F93"/>
<path d="M393.294 275.195H378.877V277.5H393.294V275.195Z" fill="#695F93"/>
<path d="M393.294 279.227H378.877V281.531H393.294V279.227Z" fill="#695F93"/>
<path d="M393.294 283.254H378.877V285.559H393.294V283.254Z" fill="#695F93"/>
<path d="M393.294 287.285H378.877V289.59H393.294V287.285Z" fill="#695F93"/>
<path d="M393.294 291.316H378.877V293.621H393.294V291.316Z" fill="#695F93"/>
<path d="M369.424 215.305H366.436V217.031H369.424V215.305Z" fill="#695F93"/>
<path d="M369.424 219.617H366.436V221.343H369.424V219.617Z" fill="#695F93"/>
<path d="M369.424 223.941H366.436V225.667H369.424V223.941Z" fill="#695F93"/>
<path d="M369.424 228.258H366.436V229.984H369.424V228.258Z" fill="#695F93"/>
<path d="M369.424 232.586H366.436V234.312H369.424V232.586Z" fill="#695F93"/>
<path d="M369.424 236.898H366.436V238.624H369.424V236.898Z" fill="#695F93"/>
<path d="M369.424 241.215H366.436V242.941H369.424V241.215Z" fill="#695F93"/>
<path d="M369.424 245.539H366.436V247.265H369.424V245.539Z" fill="#695F93"/>
<path d="M369.424 249.852H366.436V251.577H369.424V249.852Z" fill="#695F93"/>
<path d="M369.424 254.168H366.436V255.894H369.424V254.168Z" fill="#695F93"/>
<path d="M369.424 258.496H366.436V260.222H369.424V258.496Z" fill="#695F93"/>
<path d="M369.424 262.809H366.436V264.535H369.424V262.809Z" fill="#695F93"/>
<path d="M369.424 267.121H366.436V268.847H369.424V267.121Z" fill="#695F93"/>
<path d="M369.424 271.449H366.436V273.175H369.424V271.449Z" fill="#695F93"/>
<path d="M369.424 275.762H366.436V277.488H369.424V275.762Z" fill="#695F93"/>
<path d="M369.424 280.09H366.436V281.816H369.424V280.09Z" fill="#695F93"/>
<path d="M369.424 284.402H366.436V286.128H369.424V284.402Z" fill="#695F93"/>
<path d="M369.424 288.719H366.436V290.445H369.424V288.719Z" fill="#695F93"/>
<path d="M369.424 293.043H366.436V294.769H369.424V293.043Z" fill="#695F93"/>
<path d="M375.372 215.305H374.414V217.031H375.372V215.305Z" fill="#695F93"/>
<path d="M375.372 219.617H374.414V221.343H375.372V219.617Z" fill="#695F93"/>
<path d="M375.372 223.941H374.414V225.667H375.372V223.941Z" fill="#695F93"/>
<path d="M375.372 228.258H374.414V229.984H375.372V228.258Z" fill="#695F93"/>
<path d="M375.372 232.586H374.414V234.312H375.372V232.586Z" fill="#695F93"/>
<path d="M375.372 236.898H374.414V238.624H375.372V236.898Z" fill="#695F93"/>
<path d="M375.372 241.215H374.414V242.941H375.372V241.215Z" fill="#695F93"/>
<path d="M375.372 245.539H374.414V247.265H375.372V245.539Z" fill="#695F93"/>
<path d="M375.372 249.852H374.414V251.577H375.372V249.852Z" fill="#695F93"/>
<path d="M375.372 254.168H374.414V255.894H375.372V254.168Z" fill="#695F93"/>
<path d="M375.372 258.496H374.414V260.222H375.372V258.496Z" fill="#695F93"/>
<path d="M375.372 262.809H374.414V264.535H375.372V262.809Z" fill="#695F93"/>
<path d="M375.372 267.121H374.414V268.847H375.372V267.121Z" fill="#695F93"/>
<path d="M375.372 271.449H374.414V273.175H375.372V271.449Z" fill="#695F93"/>
<path d="M375.372 275.762H374.414V277.488H375.372V275.762Z" fill="#695F93"/>
<path d="M375.372 280.09H374.414V281.816H375.372V280.09Z" fill="#695F93"/>
<path d="M375.372 284.402H374.414V286.128H375.372V284.402Z" fill="#695F93"/>
<path d="M375.372 288.719H374.414V290.445H375.372V288.719Z" fill="#695F93"/>
<path d="M375.372 293.043H374.414V294.769H375.372V293.043Z" fill="#695F93"/>
<path d="M124.242 278.594C124.242 278.594 127.726 270.638 130.209 272.122C130.906 272.504 131.47 273.089 131.825 273.8C132.181 274.511 132.311 275.313 132.198 276.1C132.198 276.1 133.692 272.627 137.176 272.627C138.145 272.596 139.106 272.807 139.974 273.241C140.841 273.674 141.586 274.317 142.143 275.111C142.143 275.111 140.154 271.133 142.648 271.627C145.142 272.122 145.626 275.111 145.626 275.111C145.626 275.111 145.626 266.155 148.615 269.144C149.471 269.961 150.104 270.984 150.452 272.115C150.8 273.247 150.852 274.448 150.604 275.605C150.604 275.605 152.593 268.649 154.088 270.638C155.582 272.627 154.088 275.111 154.088 275.111C154.088 275.111 156.077 270.638 157.56 271.627C159.044 272.617 160.549 275.605 160.549 275.605C160.549 275.605 159.055 266.66 163.033 270.133C167.011 273.606 168.01 276.1 168.01 276.1C168.01 276.1 167.011 269.144 169.505 269.638C170.198 269.778 170.822 270.15 171.274 270.694C171.726 271.238 171.978 271.92 171.988 272.627L176.461 266.66L175.409 272.122C175.409 272.122 177.997 267.155 179.492 269.144C180.398 270.631 180.749 272.39 180.481 274.111C180.481 274.111 179.986 269.144 182.975 269.638C183.632 269.74 184.236 270.059 184.691 270.543C185.494 271.561 185.938 272.815 185.953 274.111C185.953 274.111 190.531 267.997 191.478 271.301C192.425 274.606 193.415 277.615 193.415 277.615C193.415 277.615 192.362 269.649 194.878 272.143C197.393 274.637 197.393 276.121 197.393 276.121C197.393 276.121 195.404 269.659 199.382 272.143L203.36 274.637C203.36 274.637 199.213 271.227 202.781 271.48C203.765 271.506 204.72 271.819 205.53 272.379C206.339 272.94 206.967 273.725 207.338 274.637C207.338 274.637 207.832 270.659 211.81 273.143L215.799 275.626C215.799 275.626 217.788 271.648 218.282 273.637C218.575 274.777 218.741 275.945 218.777 277.121V299.799H124.8L124.242 278.594Z" fill="#695F93" stroke="#695F93" stroke-linejoin="round"/>
<path d="M124.757 269.816H59.6465V299.777H124.757V269.816Z" fill="white" stroke="#695F93" stroke-linejoin="round"/>
<path d="M124.759 269.816H79.8125V299.777H124.759V269.816Z" fill="white" stroke="#695F93" stroke-linejoin="round"/>
<path d="M420.162 274.617H377.709V299.779H420.162V274.617Z" fill="white" stroke="#695F93" stroke-linejoin="round"/>
<path d="M420.16 274.617H390.473V299.779H420.16V274.617Z" fill="white" stroke="#695F93" stroke-linejoin="round"/>
<path d="M386.085 274.617H321.006V299.779H386.085V274.617Z" fill="white" stroke="#695F93" stroke-linejoin="round"/>
<path d="M386.085 274.617H340.58V299.779H386.085V274.617Z" fill="white" stroke="#695F93" stroke-linejoin="round"/>
<path d="M274.427 269.816H217.062V299.777H274.427V269.816Z" fill="white" stroke="#695F93" stroke-linejoin="round"/>
<path d="M248.582 273.617H224.209V275.112H248.582V273.617Z" fill="#695F93"/>
<path d="M248.582 277.594H224.209V279.088H248.582V277.594Z" fill="#695F93"/>
<path d="M248.582 281.57H224.209V283.065H248.582V281.57Z" fill="#695F93"/>
<path d="M248.582 285.551H224.209V287.045H248.582V285.551Z" fill="#695F93"/>
<path d="M248.582 289.527H224.209V291.022H248.582V289.527Z" fill="#695F93"/>
<path d="M272.45 273.617H255.791V275.112H272.45V273.617Z" fill="#695F93"/>
<path d="M272.45 277.594H255.791V279.088H272.45V277.594Z" fill="#695F93"/>
<path d="M272.45 281.57H255.791V283.065H272.45V281.57Z" fill="#695F93"/>
<path d="M272.45 285.551H255.791V287.045H272.45V285.551Z" fill="#695F93"/>
<path d="M272.45 289.527H255.791V291.022H272.45V289.527Z" fill="#695F93"/>
<path d="M267.482 291.023H234.975V299.779H267.482V291.023Z" fill="white" stroke="#695F93" stroke-linejoin="round"/>
<path d="M260.884 299.99C158.498 286.73 81.3382 292.476 80.57 292.539L80.4121 290.55C81.1803 290.497 166.865 286.193 269.461 299.484L260.884 299.99Z" fill="white" stroke="#695F93" stroke-linejoin="round"/>
<path d="M48.6824 102.688H20.2578V114.211H48.6824V102.688Z" fill="#695F93" stroke="#695F93" stroke-linejoin="round"/>
<path d="M56.3648 117.285H11.0391V299.777H56.3648V117.285Z" fill="white" stroke="#695F93" stroke-linejoin="round"/>
<path d="M56.3762 117.285H44.4844V299.777H56.3762V117.285Z" fill="white" stroke="#695F93" stroke-linejoin="round"/>
<path d="M56.3648 117.285H11.0391V126.504H56.3648V117.285Z" fill="white" stroke="#695F93" stroke-linejoin="round"/>
<path d="M56.3762 117.285H44.4844V126.504H56.3762V117.285Z" fill="white" stroke="#695F93" stroke-linejoin="round"/>
<path d="M13.3438 131.883H42.5471" stroke="#695F93" stroke-linejoin="round"/>
<path d="M13.3438 138.027H42.5471" stroke="#695F93" stroke-linejoin="round"/>
<path d="M13.3438 144.176H42.5471" stroke="#695F93" stroke-linejoin="round"/>
<path d="M13.3438 150.32H42.5471" stroke="#695F93" stroke-linejoin="round"/>
<path d="M13.3438 156.465H42.5471" stroke="#695F93" stroke-linejoin="round"/>
<path d="M13.3438 162.609H42.5471" stroke="#695F93" stroke-linejoin="round"/>
<path d="M13.3438 168.77H42.5471" stroke="#695F93" stroke-linejoin="round"/>
<path d="M13.3438 174.914H42.5471" stroke="#695F93" stroke-linejoin="round"/>
<path d="M13.3438 181.059H42.5471" stroke="#695F93" stroke-linejoin="round"/>
<path d="M13.3438 187.207H42.5471" stroke="#695F93" stroke-linejoin="round"/>
<path d="M13.3438 193.352H42.5471" stroke="#695F93" stroke-linejoin="round"/>
<path d="M13.3438 199.496H42.5471" stroke="#695F93" stroke-linejoin="round"/>
<path d="M13.3438 205.645H42.5471" stroke="#695F93" stroke-linejoin="round"/>
<path d="M13.3438 211.789H42.5471" stroke="#695F93" stroke-linejoin="round"/>
<path d="M13.3438 217.934H42.5471" stroke="#695F93" stroke-linejoin="round"/>
<path d="M13.3438 224.082H42.5471" stroke="#695F93" stroke-linejoin="round"/>
<path d="M13.3438 230.227H42.5471" stroke="#695F93" stroke-linejoin="round"/>
<path d="M13.3438 236.375H42.5471" stroke="#695F93" stroke-linejoin="round"/>
<path d="M13.3438 242.52H42.5471" stroke="#695F93" stroke-linejoin="round"/>
<path d="M13.3438 248.664H42.5471" stroke="#695F93" stroke-linejoin="round"/>
<path d="M13.3438 254.809H42.5471" stroke="#695F93" stroke-linejoin="round"/>
<path d="M13.3438 260.957H42.5471" stroke="#695F93" stroke-linejoin="round"/>
<path d="M13.3438 267.102H42.5471" stroke="#695F93" stroke-linejoin="round"/>
<path d="M13.3438 273.246H42.5471" stroke="#695F93" stroke-linejoin="round"/>
<path d="M13.3438 279.395H42.5471" stroke="#695F93" stroke-linejoin="round"/>
<path d="M13.3438 285.551H42.5471" stroke="#695F93" stroke-linejoin="round"/>
<path d="M13.3438 291.695H42.5471" stroke="#695F93" stroke-linejoin="round"/>
<path d="M47.9258 131.883H53.3034" stroke="#695F93" stroke-linejoin="round"/>
<path d="M47.9258 138.027H53.3034" stroke="#695F93" stroke-linejoin="round"/>
<path d="M47.9258 144.176H53.3034" stroke="#695F93" stroke-linejoin="round"/>
<path d="M47.9258 150.32H53.3034" stroke="#695F93" stroke-linejoin="round"/>
<path d="M47.9258 156.465H53.3034" stroke="#695F93" stroke-linejoin="round"/>
<path d="M47.9258 162.609H53.3034" stroke="#695F93" stroke-linejoin="round"/>
<path d="M47.9258 168.77H53.3034" stroke="#695F93" stroke-linejoin="round"/>
<path d="M47.9258 174.914H53.3034" stroke="#695F93" stroke-linejoin="round"/>
<path d="M47.9258 181.059H53.3034" stroke="#695F93" stroke-linejoin="round"/>
<path d="M47.9258 187.207H53.3034" stroke="#695F93" stroke-linejoin="round"/>
<path d="M47.9258 193.352H53.3034" stroke="#695F93" stroke-linejoin="round"/>
<path d="M47.9258 199.496H53.3034" stroke="#695F93" stroke-linejoin="round"/>
<path d="M47.9258 205.645H53.3034" stroke="#695F93" stroke-linejoin="round"/>
<path d="M47.9258 211.789H53.3034" stroke="#695F93" stroke-linejoin="round"/>
<path d="M47.9258 217.934H53.3034" stroke="#695F93" stroke-linejoin="round"/>
<path d="M47.9258 224.082H53.3034" stroke="#695F93" stroke-linejoin="round"/>
<path d="M47.9258 230.227H53.3034" stroke="#695F93" stroke-linejoin="round"/>
<path d="M47.9258 236.375H53.3034" stroke="#695F93" stroke-linejoin="round"/>
<path d="M47.9258 242.52H53.3034" stroke="#695F93" stroke-linejoin="round"/>
<path d="M47.9258 248.664H53.3034" stroke="#695F93" stroke-linejoin="round"/>
<path d="M47.9258 254.809H53.3034" stroke="#695F93" stroke-linejoin="round"/>
<path d="M47.9258 260.957H53.3034" stroke="#695F93" stroke-linejoin="round"/>
<path d="M47.9258 267.102H53.3034" stroke="#695F93" stroke-linejoin="round"/>
<path d="M47.9258 273.246H53.3034" stroke="#695F93" stroke-linejoin="round"/>
<path d="M47.9258 279.395H53.3034" stroke="#695F93" stroke-linejoin="round"/>
<path d="M47.9258 285.551H53.3034" stroke="#695F93" stroke-linejoin="round"/>
<path d="M47.9258 291.695H53.3034" stroke="#695F93" stroke-linejoin="round"/>
<path d="M0 299.801H402.933" stroke="#695F93" stroke-linejoin="round"/>
</g>
</svg>
