<svg width="672" height="632" viewBox="0 0 672 632" fill="none" xmlns="http://www.w3.org/2000/svg">
<path d="M36.0996 493.914H653.582" stroke="#263238" stroke-miterlimit="10"/>
<path d="M36.0996 377.021H653.582" stroke="#263238" stroke-miterlimit="10"/>
<path d="M36.0996 260.113H653.582" stroke="#263238" stroke-miterlimit="10"/>
<path d="M36.0996 143.203H653.582" stroke="#263238" stroke-miterlimit="10"/>
<path d="M176.494 76.8203V494.205" stroke="#263238" stroke-miterlimit="10"/>
<path d="M547.641 76.8203V494.205" stroke="#263238" stroke-miterlimit="10"/>
<path d="M190.268 231.541L185.688 236.382" stroke="#263238" stroke-miterlimit="10"/>
<path d="M268.538 148.996L195.812 225.705" stroke="#263238" stroke-miterlimit="10"/>
<path d="M273.074 161.482L232.215 203.475" stroke="#263238" stroke-miterlimit="10"/>
<path d="M563.514 231.541L558.934 236.382" stroke="#263238" stroke-miterlimit="10"/>
<path d="M641.784 148.996L569.059 225.705" stroke="#263238" stroke-miterlimit="10"/>
<path d="M646.32 161.482L605.461 203.475" stroke="#263238" stroke-miterlimit="10"/>
<path d="M26.8308 467.627L22.25 472.468" stroke="#263238" stroke-miterlimit="10"/>
<path d="M105.102 385.064L32.377 461.788" stroke="#263238" stroke-miterlimit="10"/>
<path d="M109.636 397.551L68.7773 439.544" stroke="#263238" stroke-miterlimit="10"/>
<path d="M86.9945 131.668L82.3984 136.509" stroke="#263238" stroke-miterlimit="10"/>
<path d="M165.249 49.1074L92.5234 125.816" stroke="#263238" stroke-miterlimit="10"/>
<path d="M169.799 61.5938L128.939 103.587" stroke="#263238" stroke-miterlimit="10"/>
<path d="M427.102 131.668L422.506 136.509" stroke="#263238" stroke-miterlimit="10"/>
<path d="M505.358 49.1074L432.633 125.816" stroke="#263238" stroke-miterlimit="10"/>
<path d="M509.91 61.5938L469.051 103.587" stroke="#263238" stroke-miterlimit="10"/>
<path d="M321.928 352.984L317.348 357.826" stroke="#263238" stroke-miterlimit="10"/>
<path d="M400.202 270.439L327.477 347.148" stroke="#263238" stroke-miterlimit="10"/>
<path d="M404.734 282.924L363.875 324.917" stroke="#263238" stroke-miterlimit="10"/>
<path d="M279.647 195.537H365.349C372.865 195.537 380.074 198.523 385.39 203.838C390.705 209.154 393.691 216.363 393.691 223.88V471.317H251.305V223.864C251.309 216.35 254.297 209.145 259.611 203.833C264.926 198.521 272.133 195.537 279.647 195.537Z" fill="#263238" stroke="#263238" stroke-linecap="round" stroke-linejoin="round"/>
<path d="M410.48 616.11L335.272 593.987V569.368H331.029V478.473H317.67V569.368H313.426V593.328L238.219 616.11V619.71H239.23C238.65 620.771 238.349 621.963 238.357 623.172C238.352 624.444 238.678 625.694 239.304 626.801C239.929 627.908 240.832 628.833 241.923 629.485C243.015 630.138 244.257 630.494 245.528 630.521C246.799 630.547 248.055 630.242 249.173 629.635C250.29 629.029 251.231 628.142 251.901 627.062C252.572 625.982 252.95 624.746 252.998 623.475C253.045 622.205 252.762 620.944 252.174 619.816C251.587 618.688 250.716 617.733 249.648 617.044L249.801 616.891L318.742 608.603V618.53C317.859 619.602 317.3 620.902 317.128 622.28C316.957 623.658 317.18 625.055 317.773 626.311C318.365 627.566 319.302 628.627 320.475 629.371C321.647 630.114 323.007 630.508 324.395 630.508C325.783 630.508 327.143 630.114 328.315 629.371C329.488 628.627 330.425 627.566 331.018 626.311C331.61 625.055 331.834 623.658 331.662 622.28C331.49 620.902 330.931 619.602 330.048 618.53V608.603L398.836 616.876C397.599 617.605 396.604 618.681 395.974 619.971C395.344 621.261 395.107 622.708 395.293 624.132C395.478 625.556 396.079 626.893 397.018 627.979C397.958 629.064 399.197 629.849 400.579 630.236C401.962 630.624 403.427 630.596 404.794 630.157C406.161 629.718 407.369 628.886 408.267 627.766C409.165 626.646 409.715 625.287 409.846 623.857C409.978 622.428 409.687 620.991 409.009 619.725H410.541L410.48 616.11Z" fill="#263238" stroke="#263238" stroke-linecap="round" stroke-linejoin="round"/>
<path d="M389.277 471.164H258.35C252.191 471.164 247.197 476.157 247.197 482.317V493.547C247.197 499.707 252.191 504.7 258.35 504.7H389.277C395.437 504.7 400.43 499.707 400.43 493.547V482.317C400.43 476.157 395.437 471.164 389.277 471.164Z" fill="white" stroke="#263238" stroke-linecap="round" stroke-linejoin="round"/>
<path d="M378.309 416.777H271.879V475.959H378.309V416.777Z" fill="white" stroke="#263238" stroke-linecap="round" stroke-linejoin="round"/>
<path d="M315.342 246.447L299.041 252.836C299.041 252.836 304.939 289.466 312.829 308.372C320.719 327.277 349.46 357.289 349.46 357.289C349.46 357.289 364.351 335.55 369.545 318.299C374.738 301.049 369.315 252.591 369.315 252.591C365.599 250.427 361.509 248.982 357.258 248.332C349.858 247.152 315.342 246.447 315.342 246.447Z" fill="white" stroke="#263238" stroke-linecap="round" stroke-linejoin="round"/>
<path d="M331.183 272.216L338.72 286.694L326.219 314.285L346.304 344.527L358.59 316.874L343.699 286.157L351.497 272.676L340.39 261.568L331.183 272.216Z" fill="#263238" stroke="#263238" stroke-linecap="round" stroke-linejoin="round"/>
<path d="M317.718 244.793L312.509 246.218L307.545 254.95L319.801 289.697L339.901 268.907L361.87 291.351C361.87 291.351 364.475 256.375 364.475 252.361C364.475 248.347 360.936 246.922 358.347 246.233C355.758 245.544 317.718 244.793 317.718 244.793Z" fill="white" stroke="#263238" stroke-linecap="round" stroke-linejoin="round"/>
<path d="M312.507 246.217C312.507 246.217 314.759 277.639 327.827 305.292C334.584 319.539 347.208 339.563 347.208 338.858C347.208 338.154 359.724 301.048 360.199 288.516C360.674 275.984 363.033 249.281 363.033 249.281C363.033 249.281 387.27 258.933 393.061 262.288C402.039 267.481 413.376 268.661 413.146 274.804C413.054 277.041 414.586 291.657 416.532 309.474C416.838 312.308 432.051 336.622 432.373 339.563C435.636 369.238 424.559 381.74 424.008 381.878C423.073 382.107 403.448 381.878 403.448 381.878C403.448 381.878 414.096 430.32 415.704 432.925L417.359 435.514H332.929L329.405 424.881L326.265 435.514H239.476L251.058 382.812H238.296C238.296 382.812 234.987 376.194 239.476 351.375C243.965 326.556 259.101 264.402 259.101 262.288C259.101 260.174 307.544 251.41 312.507 246.217Z" fill="#A2675F" stroke="#263238" stroke-linecap="round" stroke-linejoin="round"/>
<path d="M330.555 369.008L329.406 424.881" stroke="#263238" stroke-linecap="round" stroke-linejoin="round"/>
<path d="M363.08 347.837C377.036 334.845 383.18 308.847 383.18 308.847L370.648 303.408L382.705 297.494L372.287 253.066C366.389 247.979 362.926 248.117 363.095 249.236C363.095 249.236 360.736 275.939 360.261 288.471C359.786 301.003 347.238 338.154 347.238 338.859C347.238 339.564 333.343 320.076 327.858 305.292C315.081 270.883 312.63 250.139 312.262 246.171C312.258 246.106 312.237 246.042 312.2 245.988C312.163 245.933 312.112 245.89 312.053 245.862C311.993 245.833 311.927 245.822 311.862 245.828C311.796 245.834 311.734 245.857 311.68 245.896C309.918 246.937 305.552 247.795 302.488 250.492C301.63 256.62 300.527 265.506 299.761 275.28C298.352 293.48 298.352 301.508 298.352 301.508L314.652 305.537L303.07 312.156C303.07 312.156 315.832 325.147 326.464 334.845C337.096 344.543 344.174 348.066 344.174 348.066L330.555 369.009C330.555 369.009 349.138 360.843 363.08 347.837Z" fill="#A2675F" stroke="#263238" stroke-linecap="round" stroke-linejoin="round"/>
<path d="M315.342 229.195V249.525C315.342 249.525 320.551 266.531 338.981 267.71C358.361 268.967 361.67 250.23 361.67 250.23V232.259C361.67 232.259 325.79 241.007 315.342 229.195Z" fill="white" stroke="#263238" stroke-linecap="round" stroke-linejoin="round"/>
<path d="M366.159 201.772C366.159 201.772 366.863 192.58 372.532 192.58C378.2 192.58 378.216 203.212 376.791 207.471C375.366 211.73 368.043 214.794 365.684 211.485" fill="white"/>
<path d="M366.159 201.772C366.159 201.772 366.863 192.58 372.532 192.58C378.2 192.58 378.216 203.212 376.791 207.471C375.366 211.73 368.043 214.794 365.684 211.485" stroke="#263238" stroke-linecap="round" stroke-linejoin="round"/>
<path d="M342.642 155.766C342.642 155.766 321.761 155 314.545 160.362C307.329 165.724 308.846 180.11 308.846 184.66C308.846 189.21 312.262 228.323 314.545 234.022C316.828 239.721 333.45 248.393 347.943 245.053C362.436 241.713 366.925 231.387 367.675 226.071C368.426 220.755 368.441 180.11 367.675 169.509C366.909 158.907 352.876 156.9 342.642 155.766Z" fill="white" stroke="#263238" stroke-linecap="round" stroke-linejoin="round"/>
<path d="M367.892 173.66C367.892 171.975 367.769 170.596 367.677 169.432C366.926 158.8 352.878 156.9 342.629 155.766C342.629 155.766 321.747 155 314.531 160.362C307.315 165.724 308.832 180.11 308.832 184.66C308.832 186.483 309.384 193.852 310.196 202.371C310.561 202.577 310.97 202.695 311.389 202.715C311.808 202.735 312.226 202.658 312.61 202.488C312.994 202.319 313.332 202.062 313.6 201.738C313.867 201.414 314.054 201.033 314.148 200.624C315.68 196.442 313.398 192.657 315.297 187.341C317.197 182.025 317.948 178.609 322.513 175.943C325.375 174.303 328.433 173.032 331.613 172.159C331.613 172.159 322.13 183.159 343.012 182.776C356.57 182.47 364.215 179.651 367.892 173.66Z" fill="#263238" stroke="#263238" stroke-linecap="round" stroke-linejoin="round"/>
<path d="M346.779 193.041C346.779 193.041 350.318 209.817 347.009 211.425C343.7 213.034 341.586 213.555 338.736 207.886" stroke="#263238" stroke-linecap="round" stroke-linejoin="round"/>
<path d="M328.349 211.227C328.349 211.227 327.629 219.04 343.47 217.845" stroke="#263238" stroke-linecap="round" stroke-linejoin="round"/>
<path d="M333.314 193.392C333.314 195.016 332.625 196.349 331.782 196.349C330.939 196.349 330.25 195.016 330.25 193.392C330.25 191.768 330.939 190.436 331.782 190.436C332.625 190.436 333.314 191.753 333.314 193.392Z" fill="#263238"/>
<path d="M357.06 193.392C357.06 195.016 356.371 196.349 355.528 196.349C354.686 196.349 353.996 195.016 353.996 193.392C353.996 191.768 354.686 190.436 355.528 190.436C356.371 190.436 357.06 191.753 357.06 193.392Z" fill="#263238"/>
<path d="M336.929 200.364H324.09C323.425 200.362 322.782 200.128 322.271 199.703C321.759 199.278 321.411 198.689 321.287 198.035L319.602 189.012H340.866L339.763 197.867C339.674 198.556 339.337 199.189 338.816 199.649C338.294 200.108 337.624 200.362 336.929 200.364V200.364Z" stroke="#263238" stroke-width="2" stroke-linecap="round" stroke-linejoin="round"/>
<path d="M364.35 200.364H351.512C350.846 200.365 350.201 200.132 349.689 199.707C349.177 199.281 348.83 198.69 348.708 198.035L347.008 189.012H368.288L367.154 197.867C367.065 198.551 366.733 199.18 366.218 199.639C365.703 200.097 365.04 200.355 364.35 200.364V200.364Z" stroke="#263238" stroke-width="2" stroke-linecap="round" stroke-linejoin="round"/>
<path d="M340.865 189.012H347.009" stroke="#263238" stroke-width="2" stroke-linecap="round" stroke-linejoin="round"/>
<path d="M319.601 189.012L309.443 193.501" stroke="#263238" stroke-width="2" stroke-linecap="round" stroke-linejoin="round"/>
<path d="M311.803 201.772C311.803 201.772 311.099 192.58 305.415 192.58C299.731 192.58 299.746 203.212 301.171 207.471C302.596 211.73 309.904 214.794 312.278 211.485" fill="white"/>
<path d="M311.803 201.772C311.803 201.772 311.099 192.58 305.415 192.58C299.731 192.58 299.746 203.212 301.171 207.471C302.596 211.73 309.904 214.794 312.278 211.485" stroke="#263238" stroke-linecap="round" stroke-linejoin="round"/>
<path d="M373.009 319.709C369.812 316.693 365.917 314.519 361.672 313.382C360.299 312.908 358.828 312.792 357.397 313.045C355.498 313.045 346.076 309.643 343.716 308.939C341.357 308.234 339.932 310.593 340.652 313.198C341.372 315.802 346.413 318.008 348.312 318.483C350.212 318.958 349.4 319.004 349.4 319.004C349.4 319.004 352.464 326.572 351.055 329.407C349.645 332.241 344.666 338.599 346.321 343.118C347.975 347.638 350.58 349.966 355.773 349.966C360.967 349.966 364.046 350.196 365.226 349.966C366.406 349.737 387.44 360.124 385.142 360.369C382.844 360.614 384.192 339.334 384.192 339.334L373.009 319.709Z" fill="white" stroke="#263238" stroke-linecap="round" stroke-linejoin="round"/>
<path d="M325.27 332.24C325.27 332.24 336.377 326.802 341.815 321.363C347.254 315.924 349.138 314.515 351.008 314.04C352.877 313.565 360.46 311.435 362.344 309.781C364.229 308.126 365.654 311.206 362.819 313.565C360.747 315.25 358.533 316.752 356.201 318.054C355.021 318.774 353.842 322.083 353.842 322.083C353.842 322.083 365.424 317.119 369.438 318.299C373.452 319.479 377.435 323.064 377.19 325.178C376.945 327.292 376.209 326.281 373.605 326.036C371 325.791 367.308 324.672 364.413 325.852C361.517 327.031 358.285 329.881 358.285 331.061C358.285 332.24 361.594 332.945 364.198 332.715C366.803 332.485 368.687 331.765 371.276 332.24C373.865 332.715 376.01 334.125 376.24 335.55C376.47 336.974 375.305 336.959 372.456 337.204C369.606 337.449 364.658 337.679 363.003 338.859C361.349 340.038 352.846 344.052 354.271 345.477C355.696 346.902 356.538 346.902 359.372 346.902C362.207 346.902 365.24 344.726 366.895 344.849C369.116 345.017 370.311 345.186 370.311 345.186C370.311 345.186 374.248 345.354 373.896 346.902C373.344 349.384 372.027 349.46 366.312 349.721C361.839 349.935 360.644 349.491 356.63 350.441C353.188 351.549 349.611 352.183 345.998 352.325C339.134 352.8 326.848 349.491 326.848 349.491L325.27 332.24Z" fill="white" stroke="#263238" stroke-linecap="round" stroke-linejoin="round"/>
<path d="M369.866 316.813C369.866 316.813 365.086 312.355 362.344 312.217C359.602 312.079 351.237 319.402 350.088 322.144C348.939 324.887 351.62 323.845 353.841 323.171C356.063 322.497 362.053 319.739 364.106 318.896C365.784 318.07 367.701 317.869 369.514 318.33" fill="white"/>
<path d="M369.866 316.813C369.866 316.813 365.086 312.355 362.344 312.217C359.602 312.079 351.237 319.402 350.088 322.144C348.939 324.887 351.62 323.845 353.841 323.171C356.063 322.497 362.053 319.739 364.106 318.896C365.784 318.07 367.701 317.869 369.514 318.33" stroke="#263238" stroke-linecap="round" stroke-linejoin="round"/>
<path d="M376.026 326.556C376.026 326.556 369.193 323.14 364.919 325.024C360.645 326.908 355.344 330.677 355.344 332.378C355.344 334.078 356.202 333.757 359.94 333.573C363.678 333.389 370.434 332.301 371.338 332.255C372.692 332.411 374.03 332.682 375.337 333.067" fill="white"/>
<path d="M376.026 326.556C376.026 326.556 369.193 323.14 364.919 325.024C360.645 326.908 355.344 330.677 355.344 332.378C355.344 334.078 356.202 333.757 359.94 333.573C363.678 333.389 370.434 332.301 371.338 332.255C372.692 332.411 374.03 332.682 375.337 333.067" stroke="#263238" stroke-linecap="round" stroke-linejoin="round"/>
<path d="M280.136 306.013L274.222 337.68C274.222 337.68 325.515 327.508 327.399 328.932C329.283 330.357 330.999 367.938 330.999 367.938C330.999 367.938 264.77 379.504 256.972 382.109C249.174 384.713 241.131 385.173 238.296 382.814C235.462 380.454 235.232 374.541 237.347 362.897C239.461 351.254 259.806 266.717 259.806 266.717" fill="#A2675F"/>
<path d="M280.136 306.013L274.222 337.68C274.222 337.68 325.515 327.508 327.399 328.932C329.283 330.357 330.999 367.938 330.999 367.938C330.999 367.938 264.77 379.504 256.972 382.109C249.174 384.713 241.131 385.173 238.296 382.814C235.462 380.454 235.232 374.541 237.347 362.897C239.461 351.254 259.806 266.717 259.806 266.717" stroke="#263238" stroke-linecap="round" stroke-linejoin="round"/>
<path d="M399.005 303.883L401.135 340.039L384.114 339.334L382.475 369.3C382.475 369.3 429.385 380.224 431.99 381.556C434.594 382.889 434.119 380.147 437.183 375.643C440.247 371.139 442.867 361.472 442.622 357.259C442.377 353.045 432.694 338.874 432.465 339.533" fill="#A2675F"/>
<path d="M399.005 303.883L401.135 340.039L384.114 339.334L382.475 369.3C382.475 369.3 429.385 380.224 431.99 381.556C434.594 382.889 434.119 380.147 437.183 375.643C440.247 371.139 442.867 361.472 442.622 357.259C442.377 353.045 432.694 338.874 432.465 339.533" stroke="#263238" stroke-linecap="round" stroke-linejoin="round"/>
<path d="M401.135 340.039H416.976" stroke="#263238" stroke-linecap="round" stroke-linejoin="round"/>
<path d="M274.222 337.678L253.188 345.001" stroke="#263238" stroke-linecap="round" stroke-linejoin="round"/>
<path d="M279.247 593.908C279.247 593.908 275.816 608.661 271.021 613.824C266.225 618.987 261.828 622.404 262.104 626.51L262.441 630.631H311.803V618.252C311.803 611.051 308.739 598.336 308.739 593.234C308.739 588.132 277.884 593.571 277.884 593.571" fill="#263238"/>
<path d="M279.247 593.908C279.247 593.908 275.816 608.661 271.021 613.824C266.225 618.987 261.828 622.404 262.104 626.51L262.441 630.631H311.803V618.252C311.803 611.051 308.739 598.336 308.739 593.234C308.739 588.132 277.884 593.571 277.884 593.571" stroke="#263238" stroke-linecap="round" stroke-linejoin="round"/>
<path d="M263.284 622.375C262.445 623.575 262.03 625.019 262.104 626.481L262.441 630.602H311.803V622.375H263.284Z" fill="#586166" stroke="#263238" stroke-linecap="round" stroke-linejoin="round"/>
<path d="M322.099 462.967C322.099 462.967 326.894 432.464 318.667 418.415C310.44 404.367 281.638 404.014 265.537 413.605C249.435 423.195 243.169 438.929 248.991 459.152C254.813 479.375 268.279 479.773 268.279 479.773C268.279 479.773 264.847 507.533 264.847 518.502C264.847 529.472 276.506 597.693 276.506 597.693H310.471C310.471 597.693 321.41 477.368 322.099 462.967Z" fill="#586166" stroke="#263238" stroke-linecap="round" stroke-linejoin="round"/>
<path d="M268.277 479.775L271.694 451.662" stroke="#263238" stroke-linecap="round" stroke-linejoin="round"/>
<path d="M379.028 593.908C379.028 593.908 382.46 608.661 387.255 613.824C392.05 618.987 396.447 622.404 396.172 626.51L395.834 630.631H346.473V618.252C346.473 611.051 349.537 598.336 349.537 593.234C349.537 588.132 380.392 593.571 380.392 593.571" fill="#263238"/>
<path d="M379.028 593.908C379.028 593.908 382.46 608.661 387.255 613.824C392.05 618.987 396.447 622.404 396.172 626.51L395.834 630.631H346.473V618.252C346.473 611.051 349.537 598.336 349.537 593.234C349.537 588.132 380.392 593.571 380.392 593.571" stroke="#263238" stroke-linecap="round" stroke-linejoin="round"/>
<path d="M394.977 622.375C395.819 623.573 396.24 625.018 396.172 626.481L395.834 630.602H346.473V622.375H394.977Z" fill="#586166" stroke="#263238" stroke-linecap="round" stroke-linejoin="round"/>
<path d="M336.178 462.967C336.178 462.967 331.383 432.464 339.61 418.415C347.837 404.367 376.639 404.014 392.741 413.605C408.842 423.195 415.246 438.929 409.409 459.152C403.572 479.375 389.998 479.773 389.998 479.773C389.998 479.773 393.43 507.533 393.43 518.502C393.43 529.472 381.771 597.693 381.771 597.693H347.837C347.837 597.693 336.868 477.368 336.178 462.967Z" fill="#586166" stroke="#263238" stroke-linecap="round" stroke-linejoin="round"/>
<path d="M389.998 479.775L386.566 451.662" stroke="#263238" stroke-linecap="round" stroke-linejoin="round"/>
<path d="M406.407 99.7715H474.214C476.132 99.7715 477.971 100.533 479.327 101.889C480.684 103.246 481.445 105.085 481.445 107.003V138.47C481.445 140.388 480.684 142.228 479.327 143.584C477.971 144.94 476.132 145.702 474.214 145.702H453.854L459.17 160.103L442.425 145.702H406.407C405.457 145.702 404.517 145.515 403.64 145.151C402.762 144.788 401.965 144.255 401.294 143.584C400.622 142.912 400.09 142.115 399.726 141.238C399.363 140.36 399.176 139.42 399.176 138.47V107.003C399.176 106.053 399.363 105.113 399.726 104.235C400.09 103.358 400.622 102.561 401.294 101.889C401.965 101.218 402.762 100.685 403.64 100.322C404.517 99.9585 405.457 99.7715 406.407 99.7715Z" fill="#263238" stroke="#263238" stroke-linecap="round" stroke-linejoin="round"/>
<path d="M457.285 125.816C459.459 125.816 461.222 124.053 461.222 121.879C461.222 119.704 459.459 117.941 457.285 117.941C455.11 117.941 453.348 119.704 453.348 121.879C453.348 124.053 455.11 125.816 457.285 125.816Z" fill="#E0E0E0"/>
<path d="M438.426 125.816C440.6 125.816 442.363 124.053 442.363 121.879C442.363 119.704 440.6 117.941 438.426 117.941C436.251 117.941 434.488 119.704 434.488 121.879C434.488 124.053 436.251 125.816 438.426 125.816Z" fill="#E0E0E0"/>
<path d="M419.582 125.816C421.756 125.816 423.519 124.053 423.519 121.879C423.519 119.704 421.756 117.941 419.582 117.941C417.407 117.941 415.645 119.704 415.645 121.879C415.645 124.053 417.407 125.816 419.582 125.816Z" fill="#E0E0E0"/>
<path d="M142.974 355.818L131.07 380.959H164.821L176.725 357.044L142.974 355.818Z" fill="#263238" stroke="#263238" stroke-linecap="round" stroke-linejoin="round"/>
<path d="M217.077 355.818H142.973L154.892 380.959H228.98L217.077 355.818Z" fill="white" stroke="#263238" stroke-linecap="round" stroke-linejoin="round"/>
<path d="M85.3866 415.582H68.6875V630.51H85.3866V415.582Z" fill="#A3A3A3" stroke="#263238" stroke-linecap="round" stroke-linejoin="round"/>
<path d="M619.908 416.135H603.209V631.062H619.908V416.135Z" fill="#A3A3A3" stroke="#263238" stroke-linecap="round" stroke-linejoin="round"/>
<path d="M627.246 380.27H65.0547V587.414H627.246V380.27Z" fill="#A3A3A3" stroke="#263238" stroke-linecap="round" stroke-linejoin="round"/>
<path d="M627.246 380.27H65.0547V401.825H627.246V380.27Z" fill="#263238" stroke="#263238" stroke-linecap="round" stroke-linejoin="round"/>
<path d="M641.571 380.27H50.7461V393.123H641.571V380.27Z" fill="white" stroke="#263238" stroke-linecap="round" stroke-linejoin="round"/>
<path d="M74.0607 570.054C74.0607 570.054 36.1125 489.224 44.3701 486.88C52.6277 484.536 69.9396 497.421 69.9396 497.421C69.9396 497.421 19.1683 361.484 32.2977 351.005C45.4272 340.526 69.9396 394.346 69.9396 394.346C69.9396 394.346 43.7573 311.173 46.8366 279.536C49.916 247.9 83.1763 278.372 83.1763 278.372C83.1763 278.372 56.5344 164.742 81.2612 158.874C105.988 153.006 105.176 288.912 105.176 288.912C105.176 288.912 113.296 191.69 123.208 218.623C133.12 245.556 112.285 335.777 112.285 335.777C112.285 335.777 125.874 305.32 133.427 333.433C140.98 361.546 118.413 475.161 118.413 475.161C118.413 475.161 137.594 456.424 139.386 479.849C141.179 503.273 99.6915 575.968 99.6915 575.968L76.2209 578.25L74.0607 570.054Z" fill="#4AB468"/>
<path opacity="0.6" d="M74.0607 570.054C74.0607 570.054 36.1125 489.224 44.3701 486.88C52.6277 484.536 69.9396 497.421 69.9396 497.421C69.9396 497.421 19.1683 361.484 32.2977 351.005C45.4272 340.526 69.9396 394.346 69.9396 394.346C69.9396 394.346 43.7573 311.173 46.8366 279.536C49.916 247.9 83.1763 278.372 83.1763 278.372C83.1763 278.372 56.5344 164.742 81.2612 158.874C105.988 153.006 105.176 288.912 105.176 288.912C105.176 288.912 113.296 191.69 123.208 218.623C133.12 245.556 112.285 335.777 112.285 335.777C112.285 335.777 125.874 305.32 133.427 333.433C140.98 361.546 118.413 475.161 118.413 475.161C118.413 475.161 137.594 456.424 139.386 479.849C141.179 503.273 99.6915 575.968 99.6915 575.968L76.2209 578.25L74.0607 570.054Z" fill="white"/>
<path d="M82.1952 573.562C82.1952 573.562 50.5589 517.337 56.4266 506.796C62.2942 496.256 79.8206 520.814 79.8206 520.814C79.8206 520.814 39.988 421.233 45.8556 411.888C51.7233 402.542 70.368 443.509 70.368 443.509C70.368 443.509 63.3513 306.454 75.056 311.142C86.7606 315.83 88.0169 381.4 88.0169 381.4C88.0169 381.4 80.9849 225.593 91.5406 230.281C102.096 234.969 100.901 408.333 100.901 408.333C100.901 408.333 122.028 341.568 125.506 372.086C128.983 402.604 98.5572 484.536 98.5572 484.536C98.5572 484.536 127.85 420.115 131.358 454.079C134.866 488.044 107.933 551.302 107.933 551.302C107.933 551.302 118.474 525.533 118.474 539.597C118.474 553.661 110.277 571.218 110.277 571.218" stroke="#263238" stroke-linecap="round" stroke-linejoin="round"/>
<path d="M124.924 573.119H57.959V631.06H124.924V573.119Z" fill="#263238" stroke="#263238" stroke-miterlimit="10"/>
<path d="M492.456 180.983C492.456 180.983 485.592 192.305 484.566 197.437C483.54 202.569 485.255 204.638 483.877 208.406C482.498 212.175 476.691 212.19 476.691 215.959C476.691 219.728 480.797 223.16 482.176 224.186C483.555 225.213 481.134 229.671 483.54 236.182C485.945 242.693 486.971 250.92 491.077 250.92C495.328 250.696 499.563 250.235 503.762 249.541L505.815 262.058L534.142 259.484C534.142 259.484 533.805 247.228 541.343 242.004C548.88 236.779 563.802 207.38 554.886 188.184C545.97 168.987 508.558 165.219 492.456 180.983Z" fill="white" stroke="#263238" stroke-linecap="round" stroke-linejoin="round"/>
<path d="M483.065 166.766C482.137 169.779 481.763 172.935 481.962 176.081C482.387 182.129 484.269 187.985 487.447 193.148C490.94 198.923 499.305 202.6 501.373 208.759C502.047 210.812 503.763 216.297 508.558 217.675C513.353 219.054 512.342 219.039 510.963 228.292C509.585 237.546 513.706 246.799 521.933 249.204C525.808 250.329 529.9 250.48 533.848 249.644C537.795 248.807 541.475 247.009 544.561 244.409C551.072 239.262 563.405 218.012 563.757 198.816C564.354 164.851 530.88 148.259 500.683 152.396C496.66 152.795 492.843 154.371 489.709 156.927C486.576 159.482 484.265 162.905 483.065 166.766Z" fill="#263238" stroke="#263238" stroke-linecap="round" stroke-linejoin="round"/>
<path d="M519.376 253.281C514.806 253.356 510.305 254.4 506.17 256.345C502.34 258.367 489.026 271.083 485.595 273.197C482.163 275.311 475.652 274.224 479.466 275.939C483.281 277.655 485.978 277.992 492.489 275.602C499 273.212 512.711 268.402 516.817 268.402C520.923 268.402 536.013 270.455 537.392 270.807C538.771 271.16 547.672 275.25 547.672 275.25C547.672 275.25 543.214 265.66 538.082 260.864C532.949 256.069 526.576 252.928 519.376 253.281Z" fill="white" stroke="#263238" stroke-linecap="round" stroke-linejoin="round"/>
<path d="M508.238 210.628C507.512 210.917 506.902 211.44 506.505 212.114C506.109 212.788 505.948 213.575 506.047 214.351C506.63 218.873 506.553 223.455 505.818 227.955C504.454 233.777 511.731 233.777 513.325 224.232C514.366 217.92 511.976 209.295 508.238 210.628Z" fill="white" stroke="#263238" stroke-linecap="round" stroke-linejoin="round"/>
<path d="M450.97 289.648C450.97 289.648 446.864 291.701 446.527 301.644C446.19 311.587 429.031 381.524 428.005 392.493C426.979 403.462 432.816 410.648 442.743 414.432C452.671 418.216 471.545 424.359 474.916 422.659C478.286 420.958 484.858 385.63 487.248 370.202C489.638 354.775 460.852 301.261 459.488 299.254C458.125 297.247 453.375 290.001 450.97 289.648Z" fill="white" stroke="#263238" stroke-linecap="round" stroke-linejoin="round"/>
<path d="M473.262 371.582L454.402 399.695" stroke="#263238" stroke-linecap="round" stroke-linejoin="round"/>
<path d="M509.631 496.381L533.439 628.135C533.515 628.547 533.677 628.938 533.916 629.283C534.155 629.627 534.464 629.917 534.823 630.133C535.183 630.349 535.584 630.486 536 630.535C536.416 630.584 536.838 630.544 537.238 630.418C537.895 630.202 538.456 629.765 538.825 629.18C539.194 628.596 539.348 627.901 539.26 627.216L521.688 493.531L509.631 496.381Z" fill="white" stroke="#263238" stroke-linecap="round" stroke-linejoin="round"/>
<path d="M483.204 467.593C483.204 467.593 474.288 587.903 474.288 591.334C474.288 594.766 465.096 630.753 465.096 630.753H489.715C489.715 630.753 492.105 625.958 492.105 616.015C492.105 606.073 493.147 584.823 493.147 582.77C493.147 580.718 520.57 474.441 520.57 474.441C520.57 474.441 519.191 463.809 505.817 457.589C492.442 451.369 485.257 464.851 483.204 467.593Z" fill="white" stroke="#263238" stroke-linecap="round" stroke-linejoin="round"/>
<path d="M492.104 616.016C492.104 606.931 492.962 588.439 493.115 583.72C481.701 577.317 474.623 585.85 474.623 585.85C474.424 588.914 474.302 590.906 474.302 591.304C474.302 594.736 465.109 630.723 465.109 630.723H489.714C489.714 630.723 492.104 625.958 492.104 616.016Z" fill="#263238" stroke="#263238" stroke-linecap="round" stroke-linejoin="round"/>
<path d="M489.714 630.754C489.714 630.754 492.104 625.958 492.104 616.016C492.104 612.323 492.257 607.053 492.426 601.798C490.051 599.025 484.919 594.782 479.434 601.278C477.029 604.112 470.702 622.006 467.684 630.754H489.714Z" fill="#4F4F4F" stroke="#263238" stroke-linecap="round" stroke-linejoin="round"/>
<path d="M479.436 601.281L481.488 630.757H487.617L492.779 600.591C492.779 600.591 485.947 592.364 479.436 601.281Z" fill="#263238" stroke="#263238" stroke-linecap="round" stroke-linejoin="round"/>
<path d="M433.152 451.876C433.152 451.876 422.52 463.534 421.494 473.477C420.467 483.42 457.144 588.655 457.144 588.655C456.238 593.077 454.236 597.202 451.322 600.65C446.175 607.162 438.974 616.415 437.948 622.589C436.921 628.763 437.948 630.816 437.948 630.816H462.292C462.292 630.816 470.856 608.877 474.287 603.393C477.719 597.908 475.651 587.276 474.624 582.481C473.598 577.685 464.345 466.966 464.345 466.966C464.345 466.966 457.144 443.587 433.152 451.876Z" fill="white" stroke="#263238" stroke-linecap="round" stroke-linejoin="round"/>
<path d="M474.288 603.331C477.26 598.566 476.111 589.941 475.069 584.609C473.789 583.543 472.278 582.79 470.655 582.41C469.033 582.03 467.345 582.033 465.724 582.419C458.523 584.134 457.145 588.547 457.145 588.547C456.238 592.969 454.237 597.094 451.323 600.542C446.175 607.054 438.975 616.307 437.948 622.481C436.922 628.655 437.948 630.708 437.948 630.708H462.292C462.292 630.708 470.856 608.815 474.288 603.331Z" fill="#263238" stroke="#263238" stroke-linecap="round" stroke-linejoin="round"/>
<path d="M449.775 630.755H462.292C462.292 630.755 469.952 611.237 473.66 604.419C471.821 602.734 466.26 598.429 460.913 602.642C454.402 607.789 453.713 620.475 452.012 625.27C451.2 627.522 450.388 629.391 449.775 630.755Z" fill="#4F4F4F" stroke="#263238" stroke-linecap="round" stroke-linejoin="round"/>
<path d="M460.914 602.642L462.293 630.754H466.736L474.273 603.331C474.273 603.331 467.425 596.483 460.914 602.642Z" fill="#263238" stroke="#263238" stroke-linecap="round" stroke-linejoin="round"/>
<path d="M460.822 336.117C466.521 355.359 471.638 391.438 471.638 394.808C471.638 400.937 453.713 436.372 453.713 436.372C453.713 436.372 433.797 446.652 429.032 453.853C426.82 457.035 425.523 460.763 425.283 464.631C425.043 468.499 425.868 472.359 427.669 475.791C431.1 482.639 436.233 485.734 447.585 487.787C458.937 489.84 564.126 487.787 564.126 487.787C564.126 487.787 575.095 474.412 569.948 453.163C567.558 443.266 564.953 434.672 562.073 422.661C562.073 422.661 573.38 422.998 581.606 416.134C589.833 409.271 590.186 398.654 590.186 390.779C590.186 382.905 585.008 317.058 585.008 310.562C585.008 304.067 584.701 295.824 578.573 291.014C572.445 286.203 557.921 278.758 544.869 271.833C534.604 266.425 527.051 267.375 518.824 267.375C510.597 267.375 500.654 273.503 500.654 273.503C500.654 273.503 455.061 285.499 451.63 287.551C448.198 289.604 449.423 291.688 450.68 299.256" fill="white"/>
<path d="M460.822 336.117C466.521 355.359 471.638 391.438 471.638 394.808C471.638 400.937 453.713 436.372 453.713 436.372C453.713 436.372 433.797 446.652 429.032 453.853C426.82 457.035 425.523 460.763 425.283 464.631C425.043 468.499 425.868 472.359 427.669 475.791C431.1 482.639 436.233 485.734 447.585 487.787C458.937 489.84 564.126 487.787 564.126 487.787C564.126 487.787 575.095 474.412 569.948 453.163C567.558 443.266 564.953 434.672 562.073 422.661C562.073 422.661 573.38 422.998 581.606 416.134C589.833 409.271 590.186 398.654 590.186 390.779C590.186 382.905 585.008 317.058 585.008 310.562C585.008 304.067 584.701 295.824 578.573 291.014C572.445 286.203 557.921 278.758 544.869 271.833C534.604 266.425 527.051 267.375 518.824 267.375C510.597 267.375 500.654 273.503 500.654 273.503C500.654 273.503 455.061 285.499 451.63 287.551C448.198 289.604 449.423 291.688 450.68 299.256" stroke="#263238" stroke-linecap="round" stroke-linejoin="round"/>
<path d="M567.526 308.848C567.526 308.848 553.492 390.382 553.492 394.84C553.492 399.298 562.041 422.662 562.041 422.662" stroke="#263238" stroke-linecap="round" stroke-linejoin="round"/>
<path d="M470.902 398.256C467.532 409.087 453.713 436.373 453.713 436.373C453.713 436.373 433.797 446.653 429.032 453.853C426.82 457.035 425.523 460.764 425.283 464.632C425.043 468.5 425.868 472.36 427.669 475.792C431.1 482.64 436.233 485.734 447.585 487.787C458.937 489.84 564.126 487.787 564.126 487.787C564.126 487.787 575.095 474.413 569.948 453.164C567.558 443.267 564.953 434.672 562.073 422.661L553.494 398.256H470.902Z" fill="#263238" stroke="#263238" stroke-miterlimit="10"/>
<path d="M441.379 494.988L423.654 627.738C423.599 628.154 423.634 628.577 423.756 628.978C423.879 629.379 424.085 629.75 424.362 630.065C424.639 630.379 424.981 630.631 425.363 630.804C425.746 630.976 426.161 631.064 426.58 631.063C427.269 631.066 427.936 630.827 428.466 630.387C428.996 629.947 429.353 629.335 429.476 628.657L453.712 496.015L441.379 494.988Z" fill="white" stroke="#263238" stroke-linecap="round" stroke-linejoin="round"/>
<path d="M558.655 494.988L576.38 627.738C576.435 628.154 576.4 628.577 576.278 628.978C576.155 629.379 575.949 629.75 575.672 630.065C575.395 630.379 575.053 630.631 574.671 630.804C574.288 630.976 573.873 631.064 573.454 631.063C572.766 631.066 572.098 630.827 571.568 630.387C571.039 629.947 570.681 629.335 570.558 628.657L546.398 496.015L558.655 494.988Z" fill="white" stroke="#263238" stroke-linecap="round" stroke-linejoin="round"/>
<path d="M489.715 494.988L471.99 627.738C471.935 628.154 471.97 628.577 472.092 628.978C472.215 629.379 472.421 629.75 472.698 630.065C472.975 630.379 473.317 630.631 473.699 630.804C474.082 630.976 474.497 631.064 474.916 631.063C475.604 631.063 476.27 630.823 476.799 630.384C477.328 629.944 477.686 629.334 477.812 628.657L502.048 496.015L489.715 494.988Z" fill="white" stroke="#263238" stroke-linecap="round" stroke-linejoin="round"/>
<path d="M577.806 343.102H467.087C467.087 343.102 464.023 369.146 465.723 391.437C467.424 413.728 471.208 442.162 470.519 460.378C469.829 478.594 459.549 488.491 459.549 488.491H434.868C434.284 488.489 433.704 488.602 433.163 488.824C432.623 489.047 432.131 489.374 431.717 489.786C431.303 490.199 430.974 490.69 430.75 491.23C430.526 491.77 430.41 492.349 430.41 492.933C430.41 493.519 430.525 494.099 430.749 494.64C430.974 495.18 431.302 495.672 431.716 496.086C432.13 496.5 432.621 496.828 433.162 497.052C433.703 497.276 434.283 497.392 434.868 497.392H568.154C576.234 484.359 580.175 469.184 579.461 453.867C578.434 427.822 568.154 398.331 571.571 377.419C574.987 356.507 577.806 343.102 577.806 343.102Z" fill="#220F07" stroke="#263238" stroke-linecap="round" stroke-linejoin="round"/>
<path d="M548.499 183.909C548.499 183.909 541.651 186.652 541.299 193.101C540.947 199.551 538.909 221.888 530.682 234.573C522.455 247.258 530.682 267.481 550.905 270.561C571.127 273.64 587.581 243.137 580.013 211.608C572.445 180.079 555.363 181.167 548.499 183.909Z" fill="#263238" stroke="#263238" stroke-linecap="round" stroke-linejoin="round"/>
<path d="M1 631.062H671" stroke="#263238" stroke-linecap="round" stroke-linejoin="round"/>
</svg>
