<svg width="662" height="562" viewBox="0 0 662 562" fill="none" xmlns="http://www.w3.org/2000/svg">
<path d="M610.286 466.201C610.146 466.201 612.341 456.625 612.544 456.033C614.941 449.229 623.599 437.472 631.68 437.69C633.024 437.762 634.337 438.116 635.534 438.73C636.732 439.344 637.786 440.204 638.628 441.254C639.47 442.303 640.081 443.518 640.422 444.82C640.762 446.122 640.823 447.481 640.602 448.808C639.87 454.46 634.654 459.178 629.967 461.857C624.455 465.002 610.301 466.201 610.286 466.201Z" fill="#94A79A"/>
<path d="M611.19 427.242C611.049 427.242 614.662 418.087 614.958 417.542C618.368 411.158 628.691 400.85 636.648 402.298C637.964 402.573 639.207 403.122 640.297 403.91C641.387 404.698 642.299 405.706 642.973 406.869C643.647 408.033 644.069 409.325 644.21 410.662C644.352 411.999 644.21 413.351 643.795 414.63C642.238 420.127 636.337 423.973 631.338 425.919C625.375 428.208 611.205 427.242 611.19 427.242Z" fill="#94A79A"/>
<path d="M621.343 383.943C621.187 383.943 624.8 374.787 625.095 374.242C628.505 367.874 638.845 357.566 646.801 358.998C648.118 359.275 649.361 359.826 650.45 360.616C651.54 361.405 652.451 362.415 653.123 363.58C653.796 364.745 654.216 366.039 654.355 367.377C654.495 368.715 654.351 370.067 653.933 371.346C652.376 376.827 646.474 380.688 641.476 382.635C635.528 384.908 621.343 383.943 621.343 383.943Z" fill="#94A79A"/>
<path d="M628.925 342.649C628.769 342.649 632.382 333.493 632.677 332.932C636.087 326.564 646.427 316.256 654.383 317.704C655.699 317.979 656.943 318.529 658.033 319.316C659.122 320.104 660.034 321.112 660.708 322.276C661.382 323.439 661.804 324.731 661.946 326.068C662.087 327.406 661.946 328.757 661.53 330.036C659.973 335.533 654.056 339.379 649.074 341.325C643.11 343.599 628.925 342.649 628.925 342.649Z" fill="#94A79A"/>
<path d="M625.701 306.758C625.545 306.758 626.62 297.01 626.76 296.403C628.317 289.35 635.604 276.675 643.67 275.974C645.011 275.894 646.355 276.097 647.612 276.57C648.87 277.043 650.014 277.776 650.97 278.72C651.927 279.664 652.673 280.799 653.162 282.051C653.65 283.303 653.87 284.644 653.806 285.986C653.806 291.701 649.135 296.979 644.744 300.171C639.637 303.877 625.701 306.758 625.701 306.758Z" fill="#94A79A"/>
<path d="M606.363 465.143C606.503 465.143 604.946 455.458 604.806 454.866C602.859 447.906 594.996 435.605 586.915 435.294C585.569 435.278 584.236 435.547 583.001 436.082C581.766 436.616 580.658 437.405 579.749 438.397C578.839 439.389 578.149 440.561 577.723 441.837C577.297 443.113 577.145 444.465 577.276 445.804C577.634 451.503 582.539 456.548 587.039 459.522C592.302 463.025 606.347 465.143 606.363 465.143Z" fill="#94A79A"/>
<path d="M610.629 421.825C610.785 421.825 607.764 412.483 607.515 411.891C604.525 405.305 594.887 394.343 586.852 395.261C585.521 395.451 584.244 395.92 583.106 396.636C581.968 397.352 580.993 398.3 580.245 399.417C579.498 400.535 578.994 401.798 578.767 403.124C578.539 404.449 578.594 405.808 578.927 407.111C580.141 412.685 585.762 416.936 590.652 419.194C596.413 421.856 610.613 421.825 610.629 421.825Z" fill="#94A79A"/>
<path d="M620.283 380.997C620.423 380.997 617.418 371.655 617.169 371.079C614.195 364.492 604.556 353.53 596.522 354.449C595.191 354.637 593.914 355.104 592.775 355.818C591.636 356.532 590.661 357.478 589.912 358.594C589.162 359.711 588.657 360.972 588.427 362.297C588.198 363.621 588.25 364.98 588.58 366.283C589.811 371.873 595.416 376.108 600.321 378.381C606.067 381.028 620.267 380.997 620.283 380.997Z" fill="#94A79A"/>
<path d="M627.336 343.005C627.492 343.005 624.471 333.662 624.222 333.071C621.232 326.5 611.609 315.538 603.559 316.457C602.228 316.645 600.952 317.111 599.814 317.825C598.676 318.54 597.701 319.486 596.953 320.603C596.205 321.72 595.701 322.982 595.474 324.306C595.246 325.631 595.301 326.988 595.634 328.29C596.848 333.88 602.469 338.116 607.374 340.374C613.12 343.036 627.336 343.005 627.336 343.005Z" fill="#94A79A"/>
<path d="M625.405 307.925C625.561 307.925 621.544 298.94 621.217 298.395C617.527 292.167 606.751 282.342 598.857 284.148C597.554 284.481 596.337 285.086 595.283 285.922C594.23 286.758 593.365 287.807 592.745 289.001C592.125 290.194 591.764 291.505 591.685 292.847C591.605 294.189 591.81 295.534 592.286 296.791C594.108 302.194 600.149 305.807 605.272 307.504C611.283 309.513 625.405 307.925 625.405 307.925Z" fill="#94A79A"/>
<path d="M616.904 276.876C617.028 276.876 617.605 267.113 617.573 266.49C617.153 259.265 612.124 245.563 604.291 243.523C602.982 243.22 601.623 243.197 600.303 243.455C598.984 243.712 597.733 244.244 596.633 245.017C595.533 245.789 594.608 246.785 593.918 247.939C593.228 249.092 592.789 250.378 592.629 251.713C591.757 257.365 595.463 263.345 599.215 267.284C603.622 271.769 616.888 276.86 616.904 276.876Z" fill="#94A79A"/>
<path d="M609.01 518.521C609.01 518.521 608.497 514.395 607.874 507.232C607.251 500.07 606.535 489.824 606.208 477.507C606.036 471.279 605.974 464.677 606.099 457.608C606.099 454.057 606.286 450.507 606.426 446.708C606.55 444.871 606.69 443.018 606.815 441.134C606.94 439.25 607.251 437.319 607.453 435.388C608.52 427.527 610.012 419.731 611.922 412.032C613.837 404.168 616.017 396.274 618.151 388.395C620.284 380.516 622.386 372.637 624.036 364.805C625.715 357.157 626.845 349.398 627.415 341.589C627.816 334.278 627.566 326.947 626.668 319.68C625.93 313.095 624.802 306.559 623.289 300.108C621.919 294.144 620.315 288.757 618.851 284.008C617.388 279.258 615.877 275.179 614.632 271.831C612.094 265.136 610.365 261.43 610.365 261.43C610.365 261.43 612.171 265.104 614.85 271.738C616.189 275.054 617.73 279.118 619.35 283.836C620.969 288.554 622.651 293.926 624.145 299.89C625.827 306.296 627.132 312.795 628.054 319.353C629.125 326.693 629.542 334.113 629.299 341.526C628.883 349.443 627.91 357.321 626.388 365.101C624.831 373.042 622.962 381.014 620.985 388.956C619.007 396.897 616.936 404.853 615.208 412.639C613.491 420.254 612.192 427.958 611.315 435.715C611.159 437.599 610.879 439.39 610.817 441.289C610.754 443.189 610.63 445.042 610.536 446.879C610.536 450.429 610.427 454.104 610.459 457.576C610.459 464.568 610.692 471.17 611.004 477.258C611.58 489.45 612.561 499.587 613.292 506.656C614.024 513.725 614.647 517.711 614.647 517.711C614.701 518.081 614.682 518.457 614.591 518.818C614.5 519.18 614.338 519.52 614.116 519.82C613.893 520.119 613.614 520.371 613.293 520.563C612.973 520.754 612.618 520.88 612.249 520.935C611.88 520.989 611.504 520.97 611.142 520.879C610.781 520.787 610.44 520.626 610.141 520.403C609.842 520.18 609.589 519.901 609.398 519.581C609.207 519.261 609.08 518.906 609.026 518.537V518.521H609.01Z" fill="#94A79A"/>
<path d="M591.695 502.438H630.514V510.472H627.135L620.128 554.32H602.097L595.074 510.472H591.695V502.438Z" fill="#17252D" stroke="#263238" stroke-linecap="round" stroke-linejoin="round"/>
<path d="M335.913 531.754C335.913 531.754 334.574 539.648 335.555 541.423C336.536 543.198 338.108 545.534 338.108 545.534H350.471L351.141 541.719C352.846 543.611 354.938 545.114 357.276 546.126C360.561 547.293 363.738 546.126 367.584 546.422C370.838 546.671 378.484 546.422 378.484 546.422L378.266 542.295L355.952 532.299L347.965 526.07C347.965 526.07 340.958 532.392 335.913 531.754Z" fill="#263238" stroke="#263238" stroke-linecap="round" stroke-linejoin="round"/>
<path d="M243.826 531.755C243.826 531.755 245.943 538.186 245.165 539.946C244.386 541.705 243.109 545.535 243.109 545.535H230.762L229.672 541.721C228.168 543.622 226.23 545.133 224.019 546.127C220.905 547.295 217.542 546.127 213.743 546.423C210.519 546.672 202.843 546.423 202.843 546.423L202.625 542.297L223.848 532.3L232.272 527.629C232.272 527.629 238.843 532.394 243.826 531.755Z" fill="#263238" stroke="#263238" stroke-linecap="round" stroke-linejoin="round"/>
<path d="M342.576 228.184C342.576 228.184 347.683 294.298 349.458 325.907C351.233 357.516 352.058 371.856 352.261 394.107C352.463 416.358 353.444 460.33 353.444 476.851C353.461 493.717 352.364 510.565 350.159 527.285L335.226 535.242C335.226 535.242 330.399 492.827 328.453 477.63C326.693 463.881 320.262 407.934 317.351 390.635C314.439 373.336 301.173 313.185 301.173 313.185C301.173 313.185 283.468 376.294 278.891 401.503C274.313 426.713 257.091 483.562 253.401 497.389C249.711 511.216 243.825 531.723 243.825 531.723C241.749 532.332 239.57 532.501 237.425 532.221C236.463 532.146 235.533 531.835 234.719 531.316C233.905 530.798 233.23 530.087 232.754 529.247C232.754 529.247 237.098 487.86 238.889 467.742C241.115 442.829 241.816 409.756 244.526 395.914C247.235 382.071 247.141 355.554 250.287 337.756C252.077 327.651 261.186 230.971 261.186 230.971C261.186 230.971 311.698 251.415 342.576 228.184Z" fill="#263238" stroke="#263238" stroke-linecap="round" stroke-linejoin="round"/>
<path d="M350.159 527.285L338.527 536.721" stroke="white" stroke-width="0.5" stroke-linecap="round" stroke-linejoin="round"/>
<path d="M232.287 527.598L241.521 534.682" stroke="white" stroke-width="0.5" stroke-linecap="round" stroke-linejoin="round"/>
<path d="M308.803 250.434L307.869 288.987L314.409 282.463" stroke="white" stroke-width="0.5" stroke-linecap="round" stroke-linejoin="round"/>
<path d="M304.723 312.064L323.299 288.957" stroke="white" stroke-width="0.5" stroke-linecap="round" stroke-linejoin="round"/>
<path d="M328.454 290.641L312.961 305.838" stroke="white" stroke-width="0.5" stroke-linecap="round" stroke-linejoin="round"/>
<path d="M293.667 292.336C288.875 281.726 280.684 273.014 270.389 267.578" stroke="white" stroke-width="0.5" stroke-linecap="round" stroke-linejoin="round"/>
<path d="M317.29 240.004L316.403 244.519L309.178 246.201L310.003 240.58" stroke="white" stroke-width="0.5" stroke-linecap="round" stroke-linejoin="round"/>
<path d="M309.177 246.201C309.177 246.201 295.646 245.641 288.779 243.383L290.227 238.883" stroke="white" stroke-width="0.5" stroke-linecap="round" stroke-linejoin="round"/>
<path d="M283.968 237.762L282.597 243.383C282.597 243.383 271.869 242.822 270.141 241.141" stroke="white" stroke-width="0.5" stroke-linecap="round" stroke-linejoin="round"/>
<path d="M316.402 244.471C320.085 244.362 323.693 243.403 326.944 241.668L331.849 238.85L329.949 234.91" stroke="white" stroke-width="0.5" stroke-linecap="round" stroke-linejoin="round"/>
<path d="M349.241 98.8047C349.241 98.8047 359.019 107.291 361.947 112.896C364.874 118.502 403.303 196.855 403.147 202.211C402.991 207.568 397.308 217.782 387.28 217.782C377.253 217.782 339.244 156.713 339.244 156.713L349.241 98.8047Z" fill="white"/>
<g style="mix-blend-mode:multiply" opacity="0.5">
<path d="M350.439 108.211L351.093 108.569C352.245 109.238 354.83 110.749 357.664 112.633C360.866 115.089 363.785 117.894 366.368 120.994C366.368 120.994 362.849 111.652 357.695 107.183C354.829 104.72 352.163 102.034 349.723 99.1484L350.439 108.211Z" fill="#A2675F"/>
</g>
<path d="M349.241 98.8047C349.241 98.8047 359.019 107.291 361.947 112.896C364.874 118.502 403.303 196.855 403.147 202.211C402.991 207.568 397.308 217.782 387.28 217.782C377.253 217.782 339.244 156.713 339.244 156.713L349.241 98.8047Z" stroke="#263238" stroke-linecap="round" stroke-linejoin="round"/>
<path opacity="0.5" d="M373.734 180.738C372.441 179.181 362.834 163.719 361.853 157.942C360.872 152.166 363.41 144.77 363.41 140.908C363.41 137.046 357.306 147.65 356.979 146.373C356.652 145.096 352.806 131.27 352.806 131.27L341.019 146.513L339.26 156.744C339.26 156.744 354.146 180.645 367.755 198.536C377.44 195.422 392.061 190.673 395.206 188.773C400.08 185.892 375.026 182.358 373.734 180.738Z" fill="#A2675F"/>
<path d="M302.294 88.2188L349.303 98.807C349.303 98.807 352.573 122.895 352.199 135.912C351.825 148.93 342.14 229.431 342.14 229.431C342.14 229.431 317.227 254.843 261.296 230.988C261.296 230.988 259.35 227.236 258.618 199.177C257.917 171.508 237.114 120.124 238.78 114.269C242.206 102.264 283.344 90.7257 288.748 90.3987C293.305 89.9654 297.831 89.2372 302.294 88.2188Z" fill="white" stroke="#263238" stroke-linecap="round" stroke-linejoin="round"/>
<g style="mix-blend-mode:multiply" opacity="0.5">
<path d="M306.546 229.29L263.492 212.411L270.935 130.633L319.906 153.553L349.257 140.349L328.267 225.693L306.546 229.29Z" fill="#A2675F"/>
</g>
<g style="mix-blend-mode:multiply" opacity="0.5">
<path d="M319.282 102.342C321.291 102.342 339.867 106.063 350.424 108.212C349.817 102.7 349.288 98.8695 349.288 98.8695L302.279 88.2812C297.816 89.305 293.291 90.0383 288.732 90.4768C283.329 90.8037 242.191 102.342 238.765 114.347C238.22 116.293 240.12 123.207 242.938 132.596C247.049 121.992 250.724 113.257 251.985 112.027C254.819 109.193 283.127 101.844 283.127 101.844L319.282 102.342Z" fill="#A2675F"/>
</g>
<path d="M315.063 112.259L308.601 126.709L322.771 226.83L312.385 240.844L302.529 229.415L305.285 127.986L292.236 112.758L300.582 96.9688L315.063 112.259Z" fill="#263238"/>
<path d="M365.123 144.617L327.457 165.514L279.016 140.164L271.34 211.712L319.314 234.835L355.641 212.974L365.123 144.617Z" fill="#DAAA9E" stroke="#263238" stroke-linecap="round" stroke-linejoin="round"/>
<path d="M326.025 181.581L327.458 170.09" stroke="#263238" stroke-width="0.5" stroke-linecap="round" stroke-linejoin="round"/>
<path d="M319.312 234.833L325.229 187.887" stroke="#263238" stroke-width="0.5" stroke-linecap="round" stroke-linejoin="round"/>
<path d="M306.67 84.2012C306.67 84.2012 315.156 84.2012 318.847 89.8067C322.537 95.4123 329.622 117.57 329.622 117.57L304.085 110.391L288.608 126.383C288.608 126.383 274.423 105.362 280.2 92.0178C285.976 78.6735 306.67 84.2012 306.67 84.2012Z" fill="white" stroke="#263238" stroke-linecap="round" stroke-linejoin="round"/>
<g style="mix-blend-mode:multiply" opacity="0.5">
<path d="M321.431 94.9908C320.7 93.2004 319.836 91.4671 318.846 89.8057C315.156 84.1223 306.67 84.2002 306.67 84.2002C306.67 84.2002 286.007 78.6725 280.199 91.9857C278.331 96.2988 278.642 101.422 279.717 106.373C280.729 103.726 283.018 98.4164 285.945 95.4735C289.9 91.5185 290.367 94.9597 290.367 94.9597L312.509 93.2002C315.442 93.987 318.422 94.5851 321.431 94.9908Z" fill="#A2675F"/>
</g>
<path d="M310.314 71.3086C310.314 71.3086 311.747 100.769 308.025 106.577C304.304 112.385 300.068 110.158 296.97 106.577C293.871 102.995 290.368 94.992 290.368 94.992L286.584 73.1927C286.584 73.1927 308.632 77.2567 310.314 71.3086Z" fill="white" stroke="#263238" stroke-linecap="round" stroke-linejoin="round"/>
<g style="mix-blend-mode:multiply" opacity="0.5">
<path d="M302.326 94.9908C305.532 94.072 308.38 92.1916 310.485 89.6033C310.485 87.9372 310.485 86.2867 310.485 84.6829C306.857 80.5254 298.526 72.6777 289.246 75.2002C288.452 75.4182 287.689 75.6673 286.988 75.9164L290.352 94.9908C290.352 94.9908 293.871 103.057 296.954 106.576L293.839 92.6707C294.926 93.7683 296.282 94.5605 297.772 94.9677C299.261 95.375 300.832 95.3829 302.326 94.9908Z" fill="#A2675F"/>
</g>
<path d="M323.3 44.51C323.3 44.51 327.566 44.1986 327.66 51.3145C327.753 58.4304 323.564 64.4097 320.684 61.9339C317.803 59.4581 322.506 41.2713 323.3 44.51Z" fill="white" stroke="#263238" stroke-linecap="round" stroke-linejoin="round"/>
<path d="M294.01 7.66995C274.593 12.2478 269.393 24.798 269.548 36.1647C269.548 40.509 271.557 48.0298 274.22 55.9554L273.877 55.2391C273.877 55.2391 268.038 45.0557 267.182 51.1751C266.325 57.2945 272.102 63.6318 274.017 65.6716C274.549 66.1612 275.234 66.4507 275.956 66.4904C276.677 66.5302 277.39 66.3178 277.972 65.8896C281.834 75.2322 286.147 83.5937 288.965 85.8671C295.069 90.8031 303.649 93.3411 310.469 87.4242C317.289 81.5072 324.031 47.7651 324.031 47.7651C325.65 13.6336 313.427 3.12325 294.01 7.66995Z" fill="white"/>
<g style="mix-blend-mode:multiply" opacity="0.5">
<path d="M283.671 43.6061C283.671 43.6061 290.445 37.9538 297.234 37.9538C304.022 37.9538 318.161 44.1822 319.843 49.2583C320.87 52.3725 319.656 62.4158 318.519 70.0455C321.789 59.3016 324.093 47.8102 324.093 47.8102C325.65 13.6944 313.412 3.15285 294.01 7.7307C274.609 12.3085 269.393 24.8587 269.548 36.2255C269.548 40.5698 271.557 48.0905 274.22 56.0161L273.877 55.2998C273.877 55.2998 268.038 45.1165 267.182 51.2358C266.325 57.3552 272.102 63.6926 274.017 65.7324C274.549 66.2219 275.234 66.5114 275.956 66.5512C276.677 66.591 277.39 66.3785 277.972 65.9503C281.834 75.2929 286.147 83.6545 288.965 85.9278C288.965 85.9278 282.472 71.3067 280.215 65.094C277.957 58.8812 278.58 48.0749 283.671 43.6061Z" fill="#A2675F"/>
</g>
<path d="M294.01 7.66995C274.593 12.2478 269.393 24.798 269.548 36.1647C269.548 40.509 271.557 48.0298 274.22 55.9554L273.877 55.2391C273.877 55.2391 268.038 45.0557 267.182 51.1751C266.325 57.2945 272.102 63.6318 274.017 65.6716C274.549 66.1612 275.234 66.4507 275.956 66.4904C276.677 66.5302 277.39 66.3178 277.972 65.8896C281.834 75.2322 286.147 83.5937 288.965 85.8671C295.069 90.8031 303.649 93.3411 310.469 87.4242C317.289 81.5072 324.031 47.7651 324.031 47.7651C325.65 13.6336 313.427 3.12325 294.01 7.66995Z" stroke="#263238" stroke-linecap="round" stroke-linejoin="round"/>
<path d="M316.837 57.6992C315.865 59.1614 314.357 60.1832 312.639 60.5443C310.92 60.9055 309.129 60.5771 307.65 59.63" stroke="#263238" stroke-linecap="round" stroke-linejoin="round"/>
<path d="M296.113 59.7539C295.14 61.2161 293.633 62.2378 291.914 62.599C290.196 62.9601 288.404 62.6318 286.926 61.6847" stroke="#263238" stroke-linecap="round" stroke-linejoin="round"/>
<path d="M297.109 55.0523C294.599 53.7929 291.882 52.9964 289.09 52.7011C285.384 52.5454 281.74 55.5662 281.74 55.5662" stroke="#263238" stroke-linecap="round" stroke-linejoin="round"/>
<path d="M306.047 70.7773C305.915 71.7235 305.417 72.5801 304.66 73.1626C303.903 73.745 302.947 74.0068 301.999 73.8915C301.008 73.9216 300.029 73.6772 299.169 73.1853C298.309 72.6934 297.601 71.9732 297.125 71.1043" stroke="#263238" stroke-linecap="round" stroke-linejoin="round"/>
<path d="M309.317 78.3008C309.317 78.3008 300.224 81.0101 294.385 78.6589C295.148 80.0304 296.191 81.2258 297.446 82.1674C298.702 83.1091 300.142 83.7758 301.672 84.1243C305.129 85.043 309.317 78.3008 309.317 78.3008Z" fill="#263238"/>
<path d="M317.974 50.9584C317.974 50.9584 314.564 50.6626 311.341 50.6937C308.383 50.6937 305.44 54.5397 305.44 54.5397L304.396 59.211" stroke="#263238" stroke-linecap="round" stroke-linejoin="round"/>
<path d="M289.916 34.1555C296.977 40.069 304.694 45.1524 312.914 49.306C326.305 56.0015 336.582 43.0777 330.307 36.7247C324.032 30.3718 338.481 43.7005 340.755 35.7282C343.028 27.7559 322.225 0.397783 301.329 0.00850994C280.433 -0.380763 275.373 12.7144 275.373 12.7144C275.373 12.7144 272.912 5.97217 271.059 9.69362C269.982 11.719 269.365 13.9575 269.253 16.249C269.253 16.249 265.018 19.3632 263.149 21.2161C261.281 23.069 263.679 25.031 263.679 25.031C263.679 25.031 259.942 34.3735 261.935 41.5829L272.663 57.1538C273.957 57.1118 275.225 56.7726 276.367 56.1624C277.509 55.5522 278.495 54.6873 279.25 53.6348C282.052 49.96 279.997 38.4998 279.997 38.4998C279.997 38.4998 280.168 50.832 283.454 48.1226C286.739 45.4133 281.897 33.3614 281.897 33.3614L289.916 34.1555Z" fill="#263238"/>
<path d="M280.588 21.418C280.588 21.418 290.148 28.6117 297.062 35.1827C303.975 41.7536 314.517 44.2761 317.647 42.828" stroke="white" stroke-width="0.5" stroke-miterlimit="10" stroke-linecap="round"/>
<path d="M310.126 30.4659C310.126 30.4659 296.423 27.3517 293.2 21.4037C289.977 15.4556 279.996 16.1563 279.996 16.1563C282.489 13.8571 285.531 12.2372 288.83 11.4519C292.13 10.6666 295.575 10.7424 298.837 11.6718" stroke="white" stroke-width="0.5" stroke-miterlimit="10" stroke-linecap="round"/>
<path d="M275.389 24.3633C275.389 24.3633 286.101 40.5103 279.344 45.4774" stroke="white" stroke-width="0.5" stroke-miterlimit="10" stroke-linecap="round"/>
<path d="M238.781 114.285C238.781 114.285 209.71 193.541 211.049 202.385C212.388 211.23 227.647 207.711 232.459 206.512C237.27 205.313 255.815 175.884 255.94 169.546C257.138 168.797 258.163 167.801 258.947 166.625C259.731 165.45 260.255 164.12 260.486 162.726C261.623 157.619 262.402 139.37 255.021 125.683" fill="white"/>
<g style="mix-blend-mode:multiply" opacity="0.5">
<path d="M238.781 114.285C238.781 114.285 209.71 193.541 211.049 202.385C211.796 207.228 216.717 208.349 221.793 208.193C225.343 198.181 226.729 179.885 229.391 170.823C232.334 160.686 241.926 134.449 247.765 120.654L238.781 114.285Z" fill="#A2675F"/>
</g>
<path d="M238.781 114.285C238.781 114.285 209.71 193.541 211.049 202.385C212.388 211.23 227.647 207.711 232.459 206.512C237.27 205.313 255.815 175.884 255.94 169.546C257.138 168.797 258.163 167.801 258.947 166.625C259.731 165.45 260.255 164.12 260.486 162.726C261.623 157.619 262.402 139.37 255.021 125.683" stroke="#263238" stroke-linecap="round" stroke-linejoin="round"/>
<path d="M260.751 195.144C260.751 195.144 223.38 192.87 218.584 192.481C213.789 192.092 208.043 198.71 212.559 207.865C217.074 217.021 224.252 217.55 233.065 215.884C241.879 214.218 261.342 202.338 261.342 202.338L260.751 195.144Z" fill="white"/>
<path opacity="0.5" d="M260.751 195.144C260.751 195.144 223.38 192.87 218.584 192.481C213.789 192.092 208.043 198.71 212.559 207.865C217.074 217.021 224.252 217.55 233.065 215.884C241.879 214.218 261.342 202.338 261.342 202.338L260.751 195.144Z" fill="#A2675F" stroke="#263238" stroke-linecap="round" stroke-linejoin="round"/>
<path d="M260.751 195.144C260.751 195.144 223.38 192.87 218.584 192.481C213.789 192.092 208.043 198.71 212.559 207.865C217.074 217.021 224.252 217.55 233.065 215.884C241.879 214.218 261.342 202.338 261.342 202.338L260.751 195.144Z" stroke="#263238" stroke-linecap="round" stroke-linejoin="round"/>
<path d="M266.714 186.035C266.714 186.035 271.541 180.912 272.818 181.021C274.095 181.13 283.468 180.616 284.262 182.812C285.057 185.007 283.795 184.042 282.503 184.774C281.211 185.506 274.795 186.331 274.795 186.331C274.795 186.331 280.323 186.782 281.989 187.763C283.655 188.744 290.709 195.253 290.678 196.53C290.647 197.807 289.79 198.087 288.077 198.087C286.365 198.087 287.626 199.317 287.159 200.547C286.691 201.777 283.313 201.513 283.313 201.513C283.313 201.513 283.608 205.779 281.055 205.561C278.501 205.343 273.923 202.011 273.923 202.011C273.923 202.011 264.472 205.468 261.077 205.203C258.848 205.102 256.632 205.602 254.662 206.651C257.517 199.162 261.589 192.196 266.714 186.035Z" fill="white"/>
<g style="mix-blend-mode:multiply" opacity="0.5">
<path d="M266.714 186.035C261.602 192.154 257.53 199.071 254.662 206.511C256.632 205.462 258.848 204.962 261.077 205.063C262.193 205.082 263.308 204.961 264.394 204.705C265.07 201.727 265.472 198.693 265.593 195.642C265.593 191.111 272.818 181.021 272.818 181.021C271.525 180.912 266.714 186.035 266.714 186.035Z" fill="#A2675F"/>
</g>
<path d="M266.714 186.035C266.714 186.035 271.541 180.912 272.818 181.021C274.095 181.13 283.468 180.616 284.262 182.812C285.057 185.007 283.795 184.042 282.503 184.774C281.211 185.506 274.795 186.331 274.795 186.331C274.795 186.331 280.323 186.782 281.989 187.763C283.655 188.744 290.709 195.253 290.678 196.53C290.647 197.807 289.79 198.087 288.077 198.087C286.365 198.087 287.626 199.317 287.159 200.547C286.691 201.777 283.313 201.513 283.313 201.513C283.313 201.513 283.608 205.779 281.055 205.561C278.501 205.343 273.923 202.011 273.923 202.011C273.923 202.011 264.472 205.468 261.077 205.203C258.848 205.102 256.632 205.602 254.662 206.651C257.517 199.162 261.589 192.196 266.714 186.035Z" stroke="#263238" stroke-linecap="round" stroke-linejoin="round"/>
<path d="M288.078 197.946L279.748 191.329L272.959 190.348" stroke="#263238" stroke-linecap="round" stroke-linejoin="round"/>
<path d="M283.297 201.371L274.063 196.372L269.828 195.609" stroke="#263238" stroke-linecap="round" stroke-linejoin="round"/>
<path d="M369.048 179.73C369.048 179.73 364.221 174.623 362.944 174.716C361.667 174.81 352.293 174.327 351.499 176.507C350.705 178.687 351.966 177.737 353.259 178.484C355.777 179.213 358.357 179.708 360.966 179.964C360.966 179.964 355.439 180.415 353.773 181.412C352.107 182.408 345.053 188.901 345.084 190.162C345.115 191.424 345.972 191.72 347.684 191.72C349.397 191.72 348.136 192.95 348.603 194.18C349.07 195.41 352.449 195.13 352.449 195.13C352.449 195.13 352.153 199.396 354.707 199.194C357.261 198.991 361.838 195.643 361.838 195.643C361.838 195.643 371.29 199.1 374.684 198.758C376.916 198.654 379.134 199.16 381.1 200.221C378.234 192.776 374.162 185.853 369.048 179.73Z" fill="white" stroke="#263238" stroke-linecap="round" stroke-linejoin="round"/>
<path d="M347.684 191.642L355.998 185.04L362.787 184.059" stroke="#263238" stroke-linecap="round" stroke-linejoin="round"/>
<path d="M352.449 195.066L361.683 190.083L365.918 189.305" stroke="#263238" stroke-linecap="round" stroke-linejoin="round"/>
<path d="M374.605 187.482C374.605 187.482 390.628 185.645 396.124 189.771C401.621 193.897 400.702 204.408 400.702 204.408" stroke="#263238" stroke-linecap="round" stroke-linejoin="round"/>
<path d="M248.029 526.308C248.029 526.308 249.742 522.898 255.207 523.583C260.673 524.268 264.098 530.761 260.33 532.801C256.562 534.841 248.029 526.308 248.029 526.308Z" fill="#A2675F" stroke="#263238" stroke-linecap="round" stroke-linejoin="round"/>
<path d="M256.112 367.734C256.112 367.734 268.973 370.319 275.155 374.429C281.337 378.54 282.349 379.568 283.89 387.805C285.432 396.042 279.779 418.153 279.779 429.473C279.779 440.793 271.542 509.725 271.542 515.409C271.542 521.092 277.21 532.895 276.696 537.005C276.478 539.961 276.827 542.931 277.724 545.756C277.724 545.756 281.321 548.325 276.696 548.87C272.072 549.415 271.542 549.898 267.432 547.843C263.321 545.787 261.203 535.495 257.653 532.412C254.103 529.329 252.001 525.732 252.001 523.147C252.001 520.562 260.222 510.815 260.222 510.815C260.222 510.815 259.195 496.412 258.665 484.064C258.136 471.717 252.437 444.452 252.437 432.68C252.437 420.909 260.222 393.068 260.222 393.068C260.222 393.068 240.245 395.512 232.459 390.374C224.674 385.236 233.487 362.596 256.112 367.734Z" fill="white" stroke="#263238" stroke-linecap="round" stroke-linejoin="round"/>
<path d="M257.653 532.347C257.653 532.347 248.311 524.328 248.031 526.367C247.75 528.407 247.688 544.492 248.373 546.189C249.058 547.886 267.51 549.615 277.086 551.328C286.662 553.04 282.894 546.874 280.839 545.504C278.783 544.134 257.653 532.347 257.653 532.347Z" fill="#A2675F" stroke="#263238" stroke-linecap="round" stroke-linejoin="round"/>
<path opacity="0.2" d="M257.653 532.347C257.653 532.347 248.311 524.328 248.031 526.367C247.75 528.407 247.688 544.492 248.373 546.189C249.058 547.886 267.51 549.615 277.086 551.328C286.662 553.04 282.894 546.874 280.839 545.504C278.783 544.134 257.653 532.347 257.653 532.347Z" fill="black"/>
<path d="M260.33 541.41C262.2 539.168 264.388 537.212 266.823 535.602C269.716 533.548 272.962 532.043 276.399 531.164L280.837 539.697C277.777 540.419 274.802 541.463 271.962 542.811C269.806 544.117 267.85 545.727 266.154 547.591C266.154 547.591 261.015 544.15 260.33 541.41Z" fill="#263238" stroke="#263238" stroke-linecap="round" stroke-linejoin="round"/>
<path d="M269.564 531.851C269.132 531.905 268.716 532.047 268.341 532.268C267.966 532.489 267.64 532.784 267.384 533.136C267.127 533.487 266.945 533.887 266.849 534.312C266.752 534.736 266.744 535.176 266.824 535.604C267.166 539.029 267.509 549.96 268.879 550.303C270.249 550.645 287.331 553.417 293.481 553.713C299.632 554.008 306.467 554.055 306.467 550.988C306.467 547.92 305.44 546.55 304.085 546.55C302.73 546.55 299.632 545.522 295.536 543.14C291.441 540.758 281.523 531.524 278.408 531.181C275.294 530.839 271.277 528.768 269.564 531.851Z" fill="#A2675F" stroke="#263238" stroke-linecap="round" stroke-linejoin="round"/>
<path opacity="0.2" d="M269.564 531.851C269.132 531.905 268.716 532.047 268.341 532.268C267.966 532.489 267.64 532.784 267.384 533.136C267.127 533.487 266.945 533.887 266.849 534.312C266.752 534.736 266.744 535.176 266.824 535.604C267.166 539.029 267.509 549.96 268.879 550.303C270.249 550.645 287.331 553.417 293.481 553.713C299.632 554.008 306.467 554.055 306.467 550.988C306.467 547.92 305.44 546.55 304.085 546.55C302.73 546.55 299.632 545.522 295.536 543.14C291.441 540.758 281.523 531.524 278.408 531.181C275.294 530.839 271.277 528.768 269.564 531.851Z" fill="black"/>
<path d="M126.282 546.551C126.282 545.011 125.825 543.506 124.97 542.226C124.114 540.945 122.898 539.948 121.476 539.358C120.053 538.769 118.488 538.615 116.978 538.915C115.467 539.216 114.08 539.957 112.991 541.046C111.902 542.135 111.161 543.522 110.861 545.032C110.56 546.542 110.714 548.108 111.304 549.53C111.893 550.953 112.891 552.169 114.171 553.024C115.451 553.88 116.957 554.337 118.496 554.337C120.561 554.337 122.541 553.516 124.002 552.056C125.462 550.596 126.282 548.616 126.282 546.551Z" fill="#263238" stroke="#263238" stroke-linecap="round" stroke-linejoin="round"/>
<path d="M118.496 550.426C120.646 550.426 122.389 548.683 122.389 546.533C122.389 544.383 120.646 542.641 118.496 542.641C116.346 542.641 114.604 544.383 114.604 546.533C114.604 548.683 116.346 550.426 118.496 550.426Z" fill="white" stroke="#263238" stroke-linecap="round" stroke-linejoin="round"/>
<path d="M209.71 546.551C209.71 545.011 209.253 543.506 208.398 542.226C207.542 540.945 206.326 539.948 204.904 539.358C203.481 538.769 201.916 538.615 200.405 538.915C198.895 539.216 197.508 539.957 196.419 541.046C195.33 542.135 194.589 543.522 194.288 545.032C193.988 546.542 194.142 548.108 194.731 549.53C195.321 550.953 196.318 552.169 197.599 553.024C198.879 553.88 200.384 554.337 201.924 554.337C203.989 554.337 205.969 553.516 207.429 552.056C208.889 550.596 209.71 548.616 209.71 546.551Z" fill="#263238" stroke="#263238" stroke-linecap="round" stroke-linejoin="round"/>
<path d="M205.817 546.549C205.817 545.779 205.588 545.026 205.161 544.386C204.733 543.746 204.125 543.247 203.414 542.953C202.702 542.658 201.92 542.581 201.165 542.731C200.409 542.881 199.716 543.252 199.171 543.796C198.627 544.341 198.256 545.034 198.106 545.79C197.956 546.545 198.033 547.327 198.328 548.039C198.622 548.75 199.121 549.358 199.761 549.786C200.401 550.213 201.154 550.442 201.924 550.442C202.956 550.442 203.947 550.032 204.677 549.302C205.407 548.572 205.817 547.581 205.817 546.549Z" fill="white" stroke="#263238" stroke-linecap="round" stroke-linejoin="round"/>
<path d="M236.975 546.551C236.975 545.011 236.519 543.506 235.663 542.226C234.808 540.945 233.592 539.948 232.169 539.358C230.747 538.769 229.181 538.615 227.671 538.915C226.161 539.216 224.773 539.957 223.685 541.046C222.596 542.135 221.854 543.522 221.554 545.032C221.253 546.542 221.408 548.108 221.997 549.53C222.586 550.953 223.584 552.169 224.864 553.024C226.145 553.88 227.65 554.337 229.19 554.337C231.255 554.337 233.235 553.516 234.695 552.056C236.155 550.596 236.975 548.616 236.975 546.551Z" fill="#263238" stroke="#263238" stroke-linecap="round" stroke-linejoin="round"/>
<path d="M233.082 546.549C233.085 545.775 232.858 545.017 232.43 544.372C232.002 543.727 231.392 543.223 230.677 542.925C229.962 542.628 229.175 542.549 228.415 542.699C227.656 542.85 226.958 543.222 226.41 543.77C225.863 544.317 225.49 545.015 225.34 545.775C225.19 546.534 225.268 547.321 225.566 548.036C225.864 548.751 226.367 549.361 227.012 549.789C227.657 550.218 228.415 550.445 229.189 550.442C230.222 550.442 231.212 550.031 231.942 549.301C232.672 548.571 233.082 547.581 233.082 546.549Z" fill="white" stroke="#263238" stroke-linecap="round" stroke-linejoin="round"/>
<path d="M189.841 412.887H173.367V537.625H189.841V412.887Z" fill="#263238" stroke="#263238" stroke-linecap="round" stroke-linejoin="round"/>
<path d="M194.248 478.066H168.992V537.625H194.248V478.066Z" fill="#263238" stroke="#263238" stroke-linecap="round" stroke-linejoin="round"/>
<path d="M116.892 535.277H233.254C234.906 535.277 236.49 535.934 237.658 537.102C238.826 538.27 239.482 539.854 239.482 541.506V542.331H110.664V541.506C110.664 539.854 111.32 538.27 112.488 537.102C113.656 535.934 115.241 535.277 116.892 535.277Z" fill="#263238" stroke="#263238" stroke-linecap="round" stroke-linejoin="round"/>
<path d="M164.788 364.648H143.611V398.78H164.788V364.648Z" fill="#263238" stroke="#263238" stroke-linecap="round" stroke-linejoin="round"/>
<path d="M250.21 394.062H112.999C106.696 394.062 101.586 399.172 101.586 405.476V408.543C101.586 414.847 106.696 419.957 112.999 419.957H250.21C256.514 419.957 261.624 414.847 261.624 408.543V405.476C261.624 399.172 256.514 394.062 250.21 394.062Z" fill="#A2675F" stroke="#263238" stroke-linecap="round" stroke-linejoin="round"/>
<path opacity="0.1" d="M250.21 394.062H112.999C106.696 394.062 101.586 399.172 101.586 405.476V408.543C101.586 414.847 106.696 419.957 112.999 419.957H250.21C256.514 419.957 261.624 414.847 261.624 408.543V405.476C261.624 399.172 256.514 394.062 250.21 394.062Z" fill="black"/>
<path d="M261.624 407.002C261.624 403.57 260.26 400.279 257.834 397.852C255.407 395.426 252.116 394.062 248.684 394.062H178.086C176.348 394.002 174.615 394.292 172.992 394.916C171.368 395.539 169.887 396.484 168.636 397.692C167.385 398.9 166.391 400.348 165.711 401.948C165.032 403.549 164.682 405.271 164.682 407.01C164.682 408.749 165.032 410.47 165.711 412.071C166.391 413.672 167.385 415.119 168.636 416.328C169.887 417.536 171.368 418.48 172.992 419.103C174.615 419.727 176.348 420.017 178.086 419.957H248.684C252.117 419.953 255.409 418.586 257.835 416.157C260.261 413.728 261.624 410.435 261.624 407.002Z" fill="#A2675F" stroke="#263238" stroke-miterlimit="10"/>
<path opacity="0.1" d="M261.624 407.408C261.624 405.709 261.289 404.026 260.639 402.456C259.988 400.887 259.035 399.46 257.834 398.259C256.632 397.057 255.206 396.104 253.636 395.454C252.066 394.803 250.383 394.469 248.684 394.469H178.086C176.348 394.408 174.615 394.699 172.992 395.322C171.368 395.946 169.887 396.89 168.636 398.098C167.385 399.306 166.391 400.754 165.711 402.355C165.032 403.956 164.682 405.677 164.682 407.416C164.682 409.155 165.032 410.876 165.711 412.477C166.391 414.078 167.385 415.526 168.636 416.734C169.887 417.942 171.368 418.886 172.992 419.51C174.615 420.133 176.348 420.423 178.086 420.363H248.684C250.385 420.363 252.069 420.028 253.64 419.377C255.21 418.725 256.638 417.771 257.839 416.568C259.041 415.365 259.994 413.936 260.643 412.365C261.293 410.793 261.626 409.109 261.624 407.408Z" fill="black"/>
<path d="M195.914 364.667H113.388C111.459 364.668 109.549 364.282 107.771 363.532C105.993 362.783 104.383 361.685 103.036 360.304C101.689 358.922 100.633 357.285 99.9292 355.488C99.2254 353.692 98.8885 351.772 98.9384 349.844L100.978 269.389C101.068 265.617 102.63 262.031 105.331 259.397C108.031 256.764 111.656 255.292 115.428 255.297H183.52C186.974 255.291 190.317 256.524 192.94 258.773C195.563 261.021 197.292 264.136 197.814 267.551L210.193 348.068C210.502 350.124 210.364 352.221 209.788 354.218C209.213 356.215 208.213 358.065 206.858 359.64C205.503 361.216 203.823 362.481 201.935 363.348C200.046 364.216 197.992 364.665 195.914 364.667Z" fill="#A2675F" stroke="#263238" stroke-linecap="round" stroke-linejoin="round"/>
<path opacity="0.1" d="M195.914 364.667H113.388C111.459 364.668 109.549 364.282 107.771 363.532C105.993 362.783 104.383 361.685 103.036 360.304C101.689 358.922 100.633 357.285 99.9292 355.488C99.2254 353.692 98.8885 351.772 98.9384 349.844L100.978 269.389C101.068 265.617 102.63 262.031 105.331 259.397C108.031 256.764 111.656 255.292 115.428 255.297H183.52C186.974 255.291 190.317 256.524 192.94 258.773C195.563 261.021 197.292 264.136 197.814 267.551L210.193 348.068C210.502 350.124 210.364 352.221 209.788 354.218C209.213 356.215 208.213 358.065 206.858 359.64C205.503 361.216 203.823 362.481 201.935 363.348C200.046 364.216 197.992 364.665 195.914 364.667Z" fill="black"/>
<path d="M168.96 415.832L132.773 439.656" stroke="#263238" stroke-linecap="round" stroke-linejoin="round"/>
<path d="M131.403 435.996L125.175 440.185C124.687 440.517 124.279 440.954 123.98 441.462C123.681 441.971 123.498 442.54 123.444 443.128C123.391 443.716 123.468 444.308 123.67 444.863C123.872 445.417 124.195 445.92 124.614 446.335L125.144 446.834C125.844 447.522 126.773 447.927 127.754 447.97C128.734 448.013 129.696 447.691 130.454 447.067L136.153 442.396C136.576 442.046 136.922 441.612 137.169 441.122C137.417 440.632 137.56 440.096 137.591 439.548C137.622 438.999 137.539 438.451 137.348 437.936C137.156 437.421 136.861 436.952 136.48 436.557C135.834 435.881 134.972 435.455 134.044 435.352C133.115 435.25 132.18 435.478 131.403 435.996Z" fill="#263238" stroke="#263238" stroke-linecap="round" stroke-linejoin="round"/>
<path d="M174.613 535.277H210.317C211.969 535.277 213.553 535.934 214.722 537.102C215.89 538.27 216.546 539.854 216.546 541.506V542.331H174.613V535.277Z" fill="#263238" stroke="#263238" stroke-linecap="round" stroke-linejoin="round"/>
<path d="M203.202 323.2C210.245 323.2 215.954 319.951 215.954 315.944C215.954 311.936 210.245 308.688 203.202 308.688C196.159 308.688 190.449 311.936 190.449 315.944C190.449 319.951 196.159 323.2 203.202 323.2Z" fill="white" stroke="#263238" stroke-linecap="round" stroke-linejoin="round"/>
<path d="M238.687 375.457C238.687 375.457 259.257 376.485 263.897 387.291C264.852 390.991 265.375 394.79 265.454 398.611C265.454 404.263 284.482 513.322 284.995 515.393C285.509 517.464 296.829 533.393 298.371 536.99C299.912 540.587 301.485 543.685 301.485 543.685C301.485 543.685 306.156 545.741 305.611 547.282C305.066 548.824 294.291 549.337 289.667 549.337C285.042 549.337 279.888 538.033 276.805 536.99C273.722 535.946 270.11 532.318 270.11 530.31C270.11 528.301 271.667 513.338 271.667 513.338C269.693 501.131 266.243 489.209 261.39 477.836C254.508 462.156 245.944 439.251 244.916 428.46C243.888 417.67 243.888 407.362 243.888 407.362L230.902 405.291C230.902 405.291 229.345 378.54 238.687 375.457Z" fill="white" stroke="#263238" stroke-linecap="round" stroke-linejoin="round"/>
<path d="M280.496 542.098C280.496 542.098 284.607 525.359 295.195 531.852L299.633 539.357C299.633 539.357 289.73 539.357 286.647 548.933C285.141 548.383 283.793 547.472 282.721 546.281C281.649 545.089 280.885 543.653 280.496 542.098Z" fill="#263238" stroke="#263238" stroke-linecap="round" stroke-linejoin="round"/>
<path d="M196.117 344.222L195.619 344.3C190.948 325.272 184.642 305.824 184.642 305.824C184.642 305.824 153.702 313.999 135.858 308.456C135.858 308.456 126.78 353.16 126.78 364.838C126.78 374.181 124.849 383.679 131.918 389.16C132.602 390.166 133.481 391.025 134.503 391.686C135.524 392.346 136.668 392.795 137.867 393.006C157.159 396.634 190.403 395.373 195.946 396.478C201.489 397.584 230.903 405.291 230.903 405.291C230.903 405.291 232.662 389.066 237.645 378.54C242.628 368.014 265.377 369.805 265.377 369.805L196.117 344.222Z" fill="#263238" stroke="#263238" stroke-linecap="round" stroke-linejoin="round"/>
<path d="M188.969 219.559C188.969 219.559 184.703 214.203 180.094 220.104C175.485 226.005 179.144 246.497 181.417 254.687C183.691 262.877 222.088 296.853 225.701 299.376C229.313 301.898 276.384 312.533 280.495 310.587C284.606 308.64 285.789 298.784 283.453 293.459C281.118 288.133 237.13 276.829 237.13 276.829L188.969 219.559Z" fill="white"/>
<g style="mix-blend-mode:multiply" opacity="0.5">
<path d="M225.7 299.406C229.313 301.913 276.384 312.564 280.494 310.617C282.861 309.496 284.247 305.728 284.558 301.726C277.287 298.799 268.66 296.821 264.659 297.055C258.851 297.382 262.743 302.801 253.432 301.275C244.121 299.749 233.501 295.046 223.847 289.534C214.193 284.022 196.863 267.735 196.863 267.735L210.456 269.292L194.963 264.512L208.432 259.451L196.863 258.766C197.604 256.933 197.949 254.965 197.875 252.989C197.875 248.987 190.245 234.133 190.245 234.133L182.148 256.384C187.801 266.536 222.29 297.024 225.7 299.406Z" fill="#A2675F"/>
</g>
<path d="M188.969 219.559C188.969 219.559 184.703 214.203 180.094 220.104C175.485 226.005 179.144 246.497 181.417 254.687C183.691 262.877 222.088 296.853 225.701 299.376C229.313 301.898 276.384 312.533 280.495 310.587C284.606 308.64 285.789 298.784 283.453 293.459C281.118 288.133 237.13 276.829 237.13 276.829L188.969 219.559Z" stroke="#263238" stroke-linecap="round" stroke-linejoin="round"/>
<path d="M204.088 262.582L193.516 266.677L211.298 272.594" stroke="#263238" stroke-width="0.5" stroke-linecap="round" stroke-linejoin="round"/>
<path d="M280.604 293.412C279.245 293.69 278.002 294.373 277.038 295.371C276.073 296.368 275.433 297.634 275.201 299.002C274.282 303.876 279.078 308.033 279.078 308.033C279.078 308.033 289.184 311.505 292.204 303.362C295.225 295.218 285.493 293.1 280.604 293.412Z" fill="white"/>
<g style="mix-blend-mode:multiply" opacity="0.5">
<path d="M279.078 308.034C279.078 308.034 287.704 310.977 291.395 305.044C286.326 302.223 280.907 300.082 275.279 298.676C275.246 298.783 275.219 298.892 275.201 299.003C274.282 303.876 279.078 308.034 279.078 308.034Z" fill="#A2675F"/>
</g>
<path d="M280.604 293.412C279.245 293.69 278.002 294.373 277.038 295.371C276.073 296.368 275.433 297.634 275.201 299.002C274.282 303.876 279.078 308.033 279.078 308.033C279.078 308.033 289.184 311.505 292.204 303.362C295.225 295.218 285.493 293.1 280.604 293.412Z" stroke="#263238" stroke-linecap="round" stroke-linejoin="round"/>
<path d="M310.454 304.669C313.277 305.122 315.877 306.477 317.866 308.531C320.809 311.847 318.411 313.202 316.527 312.719C314.643 312.237 308.446 303.081 310.454 304.669Z" fill="white" stroke="#263238" stroke-linecap="round" stroke-linejoin="round"/>
<path d="M308.491 304.062C311.226 304.901 313.614 306.606 315.296 308.92C317.756 312.595 315.187 313.591 313.396 312.875C311.605 312.159 306.716 302.209 308.491 304.062Z" fill="white" stroke="#263238" stroke-linecap="round" stroke-linejoin="round"/>
<path d="M290.865 296.809C290.865 296.809 286.194 298.521 285.68 301.48C285.596 302.403 285.704 303.335 285.999 304.214C286.294 305.093 286.769 305.901 287.393 306.587C287.393 306.587 292.064 310.324 293.839 310.713C295.615 311.103 299.601 313.376 300.068 311.212C300.535 309.047 295.801 307.132 295.801 307.132C295.801 307.132 304.848 307.677 305.144 309.499C305.44 311.321 308.71 313.205 311.606 313.252C314.502 313.298 310.999 307.444 310.298 305.98C309.597 304.516 296.658 296.918 290.865 296.809Z" fill="white" stroke="#263238" stroke-linecap="round" stroke-linejoin="round"/>
<path d="M142.583 205.032C142.583 205.032 114.119 221.584 111.893 222.674C109.666 223.764 107.455 240.892 107.455 242.511C107.455 244.131 135.919 308.454 135.919 308.454C135.919 308.454 142.926 314.387 163.433 314.387C183.939 314.387 185.528 311.272 185.528 311.272L187.163 284.132C187.163 284.132 194.17 265.79 194.714 262.551C195.259 259.312 188.969 219.56 188.969 219.56L159.851 200.143C159.851 200.143 147.986 193.167 142.583 205.032Z" fill="white"/>
<g style="mix-blend-mode:multiply" opacity="0.5">
<path d="M114.789 234.444C117.016 230.878 137.507 217.519 137.507 217.519L145.074 213.065L154.775 198.351C150.882 197.634 145.682 198.226 142.583 205.031C142.583 205.031 114.057 221.583 111.893 222.657C109.728 223.731 107.455 240.875 107.455 242.494C107.455 242.852 108.794 246.153 110.881 251.121C111.69 243.756 113.232 236.935 114.789 234.444Z" fill="#A2675F"/>
</g>
<path d="M142.583 205.032C142.583 205.032 114.119 221.584 111.893 222.674C109.666 223.764 107.455 240.892 107.455 242.511C107.455 244.131 135.919 308.454 135.919 308.454C135.919 308.454 142.926 314.387 163.433 314.387C183.939 314.387 185.528 311.272 185.528 311.272L187.163 284.132C187.163 284.132 194.17 265.79 194.714 262.551C195.259 259.312 188.969 219.56 188.969 219.56L159.851 200.143C159.851 200.143 147.986 193.167 142.583 205.032Z" stroke="#263238" stroke-linecap="round" stroke-linejoin="round"/>
<path d="M152.128 230.709L160.428 239.662L158.699 277.733L170.845 280.941L172.121 264.311L176.59 281.579L185.544 272.626L166.189 239.024L168.743 228.794L157.874 216.648L150.852 233.278" fill="#263238"/>
<path d="M152.128 230.709L160.428 239.662L158.699 277.733L170.845 280.941L172.121 264.311L176.59 281.579L185.544 272.626L166.189 239.024L168.743 228.794L157.874 216.648L150.852 233.278" stroke="#263238" stroke-linecap="round" stroke-linejoin="round"/>
<path d="M137.025 205.127C137.025 205.127 138.8 216.976 141.167 222.255C143.534 227.533 148.875 236.487 148.875 236.487L160.133 225.213L171.406 232.999C171.406 232.999 170.223 213.442 166.065 204.551C161.908 195.66 141.759 186.753 137.025 205.127Z" fill="white" stroke="#263238" stroke-linecap="round" stroke-linejoin="round"/>
<g style="mix-blend-mode:multiply" opacity="0.5">
<path d="M145.076 213.068L156.333 195.94C154.278 195.04 152.08 194.513 149.84 194.383C147.909 194.772 145.73 195.255 143.425 195.769C140.607 197.326 138.271 200.253 137.025 205.111C137.025 205.111 137.913 211.09 139.283 216.462L145.076 213.068Z" fill="#A2675F"/>
</g>
<path d="M164.88 201.561C163.356 204.918 162.55 208.556 162.514 212.242C162.514 218.159 163.697 224.699 163.697 227.658V236.549C163.697 236.549 156.581 227.658 151.24 221.133C145.9 214.609 141.758 208.677 142.349 203.351C142.941 198.026 148.282 177.255 148.282 177.255C151.103 177.229 153.875 177.993 156.285 179.459C158.696 180.926 160.648 183.037 161.922 185.554C166.656 194.445 164.88 201.561 164.88 201.561Z" fill="white" stroke="#263238" stroke-linecap="round" stroke-linejoin="round"/>
<g style="mix-blend-mode:multiply" opacity="0.5">
<path d="M146.414 191.253L144.639 192.109C143.549 196.78 142.584 201.249 142.35 203.351C141.774 208.49 145.62 214.251 150.681 220.479L151.319 208.225L164.881 201.607L153.982 190.848L146.414 191.253Z" fill="#A2675F"/>
</g>
<path d="M176.403 195.19C176.403 195.19 172.48 202.462 176.715 202.757C180.95 203.053 180.031 199.425 180.639 198.226C181.246 197.027 183.971 199.783 182.461 205.482C180.95 211.181 173.383 215.167 168.836 210.621C164.289 206.074 165.519 201.278 167.03 197.619C168.54 193.96 174.628 192.169 176.403 195.19Z" fill="#263238" stroke="#263238" stroke-linecap="round" stroke-linejoin="round"/>
<path d="M167.902 130.913C166.578 130.727 165.192 130.586 163.76 130.509C158.544 130.244 152.86 130.586 148.796 133.841C140.357 140.599 141.774 154.176 142.381 163.628C143.066 174.356 142.926 190.005 150.976 197.775C164.57 210.886 185.824 196.856 185.824 181.316C185.824 174.746 186.073 164.733 186.509 162.491C187.077 159.721 187.467 156.918 187.677 154.099C188.611 139.789 180.499 132.704 167.902 130.913Z" fill="white" stroke="#263238" stroke-linecap="round" stroke-linejoin="round"/>
<g style="mix-blend-mode:multiply" opacity="0.5">
<path d="M172.916 200.581C169.113 200.527 165.316 200.236 161.549 199.709C155.773 198.821 147.753 189.463 151.755 176.555C155.757 163.646 155.772 156.951 155.772 156.951L142.148 148.434C141.835 153.498 141.919 158.579 142.397 163.631C143.082 174.359 142.942 190.008 150.992 197.778C157.594 204.162 166.003 204.1 172.916 200.581Z" fill="#A2675F"/>
</g>
<path d="M165.192 172.333C166.043 172.333 166.733 171.148 166.733 169.686C166.733 168.224 166.043 167.039 165.192 167.039C164.341 167.039 163.65 168.224 163.65 169.686C163.65 171.148 164.341 172.333 165.192 172.333Z" fill="#263238"/>
<path d="M180.405 170.341C180.311 171.804 179.533 172.941 178.692 172.879C177.851 172.816 177.228 171.602 177.322 170.138C177.415 168.674 178.178 167.538 179.035 167.6C179.891 167.662 180.498 168.877 180.405 170.341Z" fill="#263238"/>
<path d="M160.412 163.35C160.412 163.35 163.526 156.779 168.525 159.877L160.412 163.35Z" fill="white"/>
<path d="M160.412 163.35C160.412 163.35 163.526 156.779 168.525 159.877" stroke="#263238" stroke-linecap="round" stroke-linejoin="round"/>
<path d="M176.637 161.029C176.637 161.029 180.327 156.794 182.429 163.738L176.637 161.029Z" fill="white"/>
<path d="M176.637 161.029C176.637 161.029 180.327 156.794 182.429 163.738" stroke="#263238" stroke-linecap="round" stroke-linejoin="round"/>
<path d="M174.239 174.949C174.239 175.214 174.239 175.479 174.239 175.712C174.628 178.422 176.559 180.383 175.796 181.505C175.033 182.626 171.125 183.062 171.125 183.062" fill="white"/>
<path d="M174.239 174.949C174.239 175.214 174.239 175.479 174.239 175.712C174.628 178.422 176.559 180.383 175.796 181.505C175.033 182.626 171.125 183.062 171.125 183.062" stroke="#263238" stroke-linecap="round" stroke-linejoin="round"/>
<path d="M169.677 189.242C169.677 189.242 162.872 191.344 160.334 185.848L169.677 189.242Z" fill="white"/>
<path d="M169.677 189.242C169.677 189.242 162.872 191.344 160.334 185.848" stroke="#263238" stroke-linecap="round" stroke-linejoin="round"/>
<path d="M163.869 176.163C168.289 176.163 171.872 172.58 171.872 168.16C171.872 163.74 168.289 160.156 163.869 160.156C159.449 160.156 155.865 163.74 155.865 168.16C155.865 172.58 159.449 176.163 163.869 176.163Z" stroke="#263238" stroke-width="0.5" stroke-linecap="round" stroke-linejoin="round"/>
<path d="M181.979 176.163C185.943 176.163 189.157 172.58 189.157 168.16C189.157 163.74 185.943 160.156 181.979 160.156C178.015 160.156 174.801 163.74 174.801 168.16C174.801 172.58 178.015 176.163 181.979 176.163Z" stroke="#263238" stroke-width="0.5" stroke-linecap="round" stroke-linejoin="round"/>
<path d="M155.867 168.16L144.438 168.643" stroke="#263238" stroke-width="0.5" stroke-linecap="round" stroke-linejoin="round"/>
<path d="M189.156 168.16H186.229" stroke="#263238" stroke-width="0.5" stroke-linecap="round" stroke-linejoin="round"/>
<path d="M171.857 165.715H175.174" stroke="#263238" stroke-width="0.5" stroke-linecap="round" stroke-linejoin="round"/>
<path d="M182.025 121.463C176.05 120.42 170.009 119.795 163.947 119.595C163.947 119.595 153.343 114.596 139.034 120.218C118.558 128.221 119.01 155.563 124.086 172.987C125.643 178.25 129.302 186.238 125.939 191.517C123.821 194.849 117.764 193.074 118.683 188.496C119.601 183.918 121.096 185.475 122.311 184.868C123.525 184.261 121.703 183.653 118.978 182.75C116.254 181.847 113.871 184.307 113.529 190.302C112.626 206.652 136.714 217.473 145.901 203.179C149.638 196.951 146.321 186.129 144.702 178.266C144.187 175.544 143.839 172.793 143.658 170.029C146.565 169.75 149.261 168.389 151.21 166.214C152.653 164.236 153.885 162.112 154.885 159.877C155.975 159.877 157.112 159.954 158.357 160.079C170.814 161.325 174.582 140.117 174.582 140.117C174.582 140.117 180.811 151.967 182.679 156.342L184.548 160.702C184.548 160.702 189.546 161.325 194.529 150.721C199.511 140.117 193.875 123.378 182.025 121.463Z" fill="#263238" stroke="#263238" stroke-linecap="round" stroke-linejoin="round"/>
<path d="M173.865 135.133C173.865 135.133 189.187 140.396 189.654 149.489C190.121 158.583 187.739 159.05 187.739 159.05" stroke="white" stroke-width="0.5" stroke-miterlimit="10" stroke-linecap="round"/>
<path d="M171.967 131.786C171.967 131.786 186.308 128.438 191.103 138.014" stroke="white" stroke-width="0.5" stroke-miterlimit="10" stroke-linecap="round"/>
<path d="M154.261 122.211C154.261 122.211 168.602 129.389 171 136.1C173.398 142.811 160.957 155.704 152.813 158.102C144.67 160.5 138.473 157.619 132.727 161.932C126.981 166.246 129.379 178.188 129.379 178.188" stroke="white" stroke-width="0.5" stroke-miterlimit="10" stroke-linecap="round"/>
<path d="M125.019 164.797C125.019 164.797 121.189 155.704 129.332 150.923C137.476 146.143 144.639 150.923 153.732 145.178C162.825 139.432 164.258 132.27 164.258 132.27" stroke="white" stroke-width="0.5" stroke-miterlimit="10" stroke-linecap="round"/>
<path d="M146.088 173.051C146.088 173.051 141.058 160.827 136.013 165.141C130.968 169.454 139.61 180.961 145.356 179.528" fill="white"/>
<path d="M146.088 173.051C146.088 173.051 141.058 160.827 136.013 165.141C130.968 169.454 139.61 180.961 145.356 179.528" stroke="#263238" stroke-linecap="round" stroke-linejoin="round"/>
<g opacity="0.37">
<path d="M146.088 173.051C146.088 173.051 141.058 160.827 136.013 165.141C130.968 169.454 139.61 180.961 145.356 179.528" fill="#A2675F"/>
<path d="M146.088 173.051C146.088 173.051 141.058 160.827 136.013 165.141C130.968 169.454 139.61 180.961 145.356 179.528" stroke="#263238" stroke-linecap="round" stroke-linejoin="round"/>
</g>
<path d="M115.366 223.903C115.366 223.903 112.921 222.066 107.487 226.161C102.052 230.256 96.9919 248.879 100.386 256.773C103.781 264.668 112.843 305.713 117.063 307.955C121.282 310.197 166.656 310.01 172.013 308.749C177.369 307.488 181.106 300.481 180.203 294.424C179.3 288.367 173.32 286.794 171.561 286.747C169.801 286.701 133.661 284.645 133.661 284.645L122.435 237.216" fill="white"/>
<g style="mix-blend-mode:multiply" opacity="0.5">
<path d="M173.445 298.581C170.86 295.389 129.722 300.948 125.331 298.581C120.94 296.214 118.822 291.714 122.03 288.678C125.238 285.642 115.895 284.957 115.973 282.278C116.051 279.6 121.407 278.868 121.064 275.287C120.722 271.706 109.153 270.958 109.433 260.713C109.713 250.467 112.282 238.073 114.603 234.569C115.887 233.092 117.364 231.793 118.994 230.708L115.366 223.888C115.366 223.888 112.921 222.05 107.487 226.145C102.052 230.24 96.9919 248.879 100.386 256.773C103.781 264.668 112.843 305.713 117.063 307.955C121.282 310.197 166.656 310.01 172.013 308.749C173.744 308.195 175.318 307.235 176.602 305.948C177.886 304.661 178.843 303.085 179.393 301.353C176.513 300.528 174.208 299.515 173.445 298.581Z" fill="#A2675F"/>
</g>
<path d="M115.366 223.903C115.366 223.903 112.921 222.066 107.487 226.161C102.052 230.256 96.9919 248.879 100.386 256.773C103.781 264.668 112.843 305.713 117.063 307.955C121.282 310.197 166.656 310.01 172.013 308.749C177.369 307.488 181.106 300.481 180.203 294.424C179.3 288.367 173.32 286.794 171.561 286.747C169.801 286.701 133.661 284.645 133.661 284.645L122.435 237.216" stroke="#263238" stroke-linecap="round" stroke-linejoin="round"/>
<path d="M119.912 293.398C122.59 285.519 133.646 285.363 133.646 285.363C129.236 284.209 124.626 284.044 120.146 284.881" stroke="#263238" stroke-width="0.5" stroke-linecap="round" stroke-linejoin="round"/>
<path d="M178.241 288.711C176.604 289.411 175.208 290.574 174.224 292.057C173.239 293.539 172.708 295.277 172.697 297.057C172.511 303.441 176.746 304.624 177.789 305.356C178.832 306.088 185.123 309.467 187.661 307.396C190.199 305.325 193.189 299.751 190.775 295.079C188.362 290.408 180.716 288.773 178.241 288.711Z" fill="white"/>
<g style="mix-blend-mode:multiply" opacity="0.5">
<path d="M187.661 307.394C188.308 306.845 188.883 306.217 189.374 305.525L184.08 302.707C179.222 301.368 174.597 299.997 173.445 298.58C173.244 298.369 172.992 298.213 172.713 298.129C173.009 303.579 176.792 304.669 177.789 305.354C178.786 306.039 185.123 309.465 187.661 307.394Z" fill="#A2675F"/>
</g>
<path d="M178.241 288.711C176.604 289.411 175.208 290.574 174.224 292.057C173.239 293.539 172.708 295.277 172.697 297.057C172.511 303.441 176.746 304.624 177.789 305.356C178.832 306.088 185.123 309.467 187.661 307.396C190.199 305.325 193.189 299.751 190.775 295.079C188.362 290.408 180.716 288.773 178.241 288.711Z" stroke="#263238" stroke-linecap="round" stroke-linejoin="round"/>
<path d="M187.008 294.426C187.008 294.426 183.146 295.905 182.617 298.817C182.088 301.729 182.274 303.301 182.944 303.488C183.614 303.675 185.84 304.687 185.84 304.687L192.707 308.253C192.707 308.253 198.157 314.481 199.947 314.979C201.738 315.478 200.197 314.31 199.947 312.955C199.168 311.015 198.159 309.175 196.942 307.474L205.07 314.668C205.07 314.668 207.748 315.633 207.126 313.594C206.503 311.554 202.345 307.365 202.345 307.365L210.022 314.325C210.022 314.325 211.579 315.042 211.579 314.139C211.666 313.686 211.635 313.219 211.487 312.782C211.34 312.345 211.082 311.954 210.738 311.647C209.866 310.947 204.634 304.952 204.634 304.952L211.921 309.421C211.921 309.421 213.479 311.492 214.569 311.523C215.659 311.554 215.036 310.853 214.21 308.408C213.385 305.964 207.842 302.383 205.864 300.981C203.887 299.58 193.081 294.597 187.008 294.426Z" fill="white" stroke="#263238" stroke-linecap="round" stroke-linejoin="round"/>
<path d="M535.39 292.556H474.57L485.517 257.055H546.337L535.39 292.556Z" fill="#263238" stroke="#263238" stroke-linecap="round" stroke-linejoin="round"/>
<path d="M530.609 295.904H469.805L480.751 260.387H541.555L530.609 295.904Z" fill="white" stroke="#263238" stroke-linecap="round" stroke-linejoin="round"/>
<path d="M443.227 281.844H543.441C545.919 281.844 548.295 282.828 550.047 284.58C551.799 286.332 552.784 288.709 552.784 291.186V317.314H443.227V281.844Z" fill="#263238" stroke="#263238" stroke-linecap="round" stroke-linejoin="round"/>
<path d="M534.846 281.844H425.242V317.361H534.846V281.844Z" fill="white" stroke="#263238" stroke-linecap="round" stroke-linejoin="round"/>
<path d="M510.18 307.832H422.625V312.519H510.18V307.832Z" fill="white" stroke="#263238" stroke-linecap="round" stroke-linejoin="round"/>
<path d="M510.181 303.145H441.311V307.831H510.181V303.145Z" fill="#263238" stroke="#263238" stroke-linecap="round" stroke-linejoin="round"/>
<path d="M422.985 313.906H353.896V317.129H422.985V313.906Z" fill="white" stroke="#263238" stroke-linecap="round" stroke-linejoin="round"/>
<path d="M476.112 199.816H327.191V295.858H476.112V199.816Z" fill="white" stroke="#263238" stroke-linecap="round" stroke-linejoin="round"/>
<path d="M476.113 199.816H335.32V295.858H476.113V199.816Z" fill="#263238" stroke="#263238" stroke-linecap="round" stroke-linejoin="round"/>
<path d="M424.588 244.441H391.998V318.59H424.588V244.441Z" fill="white" stroke="#263238" stroke-linecap="round" stroke-linejoin="round"/>
<path d="M427.592 244.441H395.002V318.59H427.592V244.441Z" fill="#263238" stroke="#263238" stroke-linecap="round" stroke-linejoin="round"/>
<path d="M392.838 245.316H428.355V296.093" stroke="white" stroke-linejoin="round"/>
<path d="M326.163 312.176H226.4V317.392H326.163V312.176Z" fill="white" stroke="#263238" stroke-linecap="round" stroke-linejoin="round"/>
<path d="M351.948 312.176H252.186V317.392H351.948V312.176Z" fill="white" stroke="#263238" stroke-linecap="round" stroke-linejoin="round"/>
<path d="M222.555 325.988H69.6955L62.4394 549.369C62.3994 549.987 62.483 550.608 62.6853 551.194C62.8875 551.78 63.2044 552.32 63.6175 552.782C64.0305 553.244 64.5315 553.62 65.0911 553.887C65.6507 554.153 66.2579 554.306 66.8771 554.336C68.0224 554.303 69.1136 553.841 69.9352 553.043C70.7568 552.244 71.2491 551.166 71.3148 550.023L85.9048 367.485C86.0899 364.229 87.4872 361.161 89.8216 358.884C92.1559 356.608 95.2581 355.287 98.5172 355.184H193.733C196.991 355.288 200.091 356.608 202.423 358.886C204.755 361.163 206.149 364.231 206.33 367.485L220.936 549.991C221.001 551.133 221.491 552.208 222.31 553.006C223.128 553.804 224.215 554.268 225.358 554.305C225.977 554.277 226.585 554.126 227.145 553.861C227.705 553.596 228.207 553.223 228.622 552.762C229.036 552.301 229.355 551.762 229.559 551.177C229.763 550.592 229.849 549.972 229.811 549.353L222.555 325.988Z" fill="#A2675F" stroke="#263238" stroke-linecap="round" stroke-linejoin="round"/>
<path d="M222.898 336.265L222.556 325.988H172.558H119.694H69.6961L69.3535 336.265H222.898Z" fill="#263238" stroke="#263238" stroke-linecap="round" stroke-linejoin="round"/>
<path d="M570.658 325.988H417.751L410.511 549.369C410.473 549.986 410.558 550.605 410.761 551.189C410.964 551.773 411.282 552.311 411.695 552.772C412.107 553.233 412.608 553.607 413.166 553.872C413.725 554.138 414.331 554.29 414.948 554.32C416.091 554.283 417.178 553.82 417.997 553.022C418.815 552.224 419.305 551.148 419.371 550.007L434.007 367.485C434.192 364.229 435.59 361.161 437.924 358.884C440.258 356.608 443.361 355.287 446.62 355.184H541.836C545.093 355.288 548.194 356.608 550.525 358.886C552.857 361.163 554.251 364.231 554.433 367.485L569.038 549.991C569.096 551.138 569.583 552.221 570.402 553.026C571.221 553.831 572.313 554.298 573.46 554.336C574.078 554.306 574.684 554.154 575.243 553.888C575.801 553.622 576.301 553.248 576.714 552.788C577.127 552.327 577.444 551.789 577.647 551.205C577.851 550.62 577.936 550.002 577.898 549.384L570.658 325.988Z" fill="#A2675F" stroke="#263238" stroke-linecap="round" stroke-linejoin="round"/>
<path d="M571.67 336.265L571.343 325.988H521.345H468.466H418.468L418.141 336.265H571.67Z" fill="#263238" stroke="#263238" stroke-linecap="round" stroke-linejoin="round"/>
<path d="M580.733 317.359H57.3008V329.131H580.733V317.359Z" fill="white" stroke="#263238" stroke-linecap="round" stroke-linejoin="round"/>
<path d="M580.748 317.359H205.582V329.131H580.748V317.359Z" fill="white" stroke="#263238" stroke-linecap="round" stroke-linejoin="round"/>
</svg>
