<svg width="808" height="439" viewBox="0 0 808 439" fill="none" xmlns="http://www.w3.org/2000/svg">
<path d="M85.7821 320.795C93.2459 316.082 95.9665 309.983 97.2003 301.235C97.7885 296.848 97.4284 292.385 96.1443 288.149C94.8602 283.913 92.682 280.001 89.7567 276.679C84.8618 271.177 77.9441 267.405 74.4043 260.953C70.6421 254.065 71.1983 244.953 65.7876 239.279C62.0658 235.385 56.4224 234.121 51.8106 231.33C48.0483 229.054 45.0143 225.778 41.606 222.996C38.1977 220.215 34.1017 217.859 29.7023 217.94C23.0779 218.132 17.6267 224.382 17.0098 230.986C16.3929 237.59 19.791 244.134 24.6455 248.624C28.1651 251.901 32.5645 254.49 34.7591 258.738C38.9057 266.768 33.6871 277.417 38.1775 285.255C41.4543 290.99 49.3024 294.024 50.152 300.578C50.4554 302.985 49.6665 305.392 49.5755 307.819C49.2721 315.404 56.0785 321.836 63.4817 323.525C70.8848 325.214 78.6015 323.232 85.7315 320.724" fill="#F5F5F5"/>
<path d="M42.7891 245.297C43.0048 245.63 43.2557 245.938 43.5375 246.217L45.8231 248.746C46.8345 249.818 48.0582 251.153 49.373 252.791C50.6878 254.429 52.3059 256.189 53.8533 258.333L56.3514 261.63C57.2211 262.783 58.0201 264.047 58.9101 265.322C60.7103 267.84 62.3892 270.702 64.2197 273.676C67.9978 280.222 71.313 287.025 74.1411 294.034C76.8695 301.09 79.0967 308.329 80.806 315.697C81.5038 319.116 82.232 322.352 82.6365 325.427C82.859 326.954 83.1321 328.461 83.2939 329.867C83.4557 331.272 83.5771 332.668 83.7187 333.983C84.0524 336.602 84.0929 339.04 84.2244 341.062C84.3559 343.085 84.3963 344.966 84.3963 346.443C84.3963 347.919 84.3963 348.971 84.4469 349.841C84.4328 350.24 84.4599 350.64 84.5278 351.034C84.5983 350.644 84.6322 350.248 84.6289 349.851C84.6289 348.981 84.6997 347.828 84.7503 346.443C84.8008 345.057 84.8413 343.146 84.7503 341.042C84.6593 338.938 84.6694 336.542 84.3761 333.902C84.2547 332.587 84.1334 331.202 84.0019 329.765C83.8704 328.329 83.6074 326.833 83.3951 325.295C83.0209 322.19 82.323 318.934 81.6353 315.495C79.9663 308.069 77.7488 300.778 75.0008 293.68C72.1624 286.622 68.8057 279.783 64.958 273.22C63.0971 270.247 61.3879 267.385 59.5473 264.867C58.6471 263.592 57.8178 262.328 56.9379 261.185L54.3792 257.909C52.7914 255.785 51.153 254.025 49.7775 252.427C48.4021 250.829 47.1581 249.524 46.1063 248.483L43.6892 246.076C43.4154 245.787 43.1139 245.526 42.7891 245.297Z" fill="#E0E0E0"/>
<path d="M647.518 150.653C647.518 150.653 638.012 144.363 626.432 167.108C614.851 189.854 610.452 202.92 610.452 202.92C610.452 202.92 607.418 207.684 604.111 204.569C600.804 201.454 596.354 192.615 590.791 194.213C585.027 195.861 583.125 202.303 584.228 211.76C585.33 221.216 586.978 242.04 587.12 243.921C587.262 245.802 586.2 248.492 583.631 246.722C581.062 244.952 566.276 228.518 558.893 235.982C551.51 243.445 558.893 269.356 559.652 272.158C560.41 274.959 559.844 276.203 558.499 276.911C557.154 277.619 552.704 271.622 548.304 267.111C543.905 262.6 538.019 258.14 534.145 262.813C530.272 267.485 528.997 286.883 547.455 318.438L556.971 332.475L573.972 331.535C610.25 327.297 624.975 314.615 626.361 308.688C627.746 302.761 620.636 300.739 614.386 299.95C608.136 299.161 600.672 299.222 600.419 297.715C600.167 296.208 600.804 295.045 603.524 293.932C606.245 292.82 631.347 283.151 632.854 272.754C634.361 262.358 612.333 260.456 609.38 259.465C606.427 258.474 607.954 255.996 609.522 254.995C611.089 253.994 628.737 242.758 636.929 237.933C645.121 233.109 649.147 227.719 646.992 222.126C644.909 216.725 635.16 218.465 630.699 217.727C626.239 216.988 628.201 211.658 628.201 211.658C628.201 211.658 636.029 200.25 647.195 177.272C658.36 154.294 647.336 150.481 647.336 150.481" fill="#EBEBEB"/>
<path d="M637.114 171.004L636.902 171.489L636.234 172.915L633.635 178.356C631.37 183.09 628.053 189.906 623.906 198.311C615.633 215.129 604.013 238.269 591.098 263.786C578.183 289.302 566.501 312.412 558.148 329.19L548.267 349.063L545.576 354.464L544.868 355.86C544.79 356.023 544.702 356.182 544.605 356.335L544.818 355.84L545.485 354.424L548.085 348.972C550.35 344.249 553.667 337.433 557.814 329.018C566.087 312.199 577.707 289.06 590.632 263.543C603.557 238.027 615.218 214.927 623.572 198.149L633.423 178.276L636.113 172.865L636.821 171.469C637.013 171.156 637.114 171.004 637.114 171.004Z" fill="#E0E0E0"/>
<path d="M596.566 206.867C596.758 207.219 596.907 207.593 597.011 207.98C597.264 208.728 597.588 209.82 597.972 211.176C598.741 213.886 599.702 217.658 600.693 221.845L603.191 232.556C603.494 233.84 603.757 234.922 603.97 235.792C604.094 236.183 604.172 236.587 604.202 236.996C604.02 236.63 603.874 236.247 603.767 235.853C603.525 235.104 603.201 234.002 602.827 232.647C602.088 229.926 601.168 226.144 600.177 221.967C599.186 217.79 598.296 214.129 597.608 211.277L596.819 208.04C596.696 207.659 596.611 207.266 596.566 206.867Z" fill="#E0E0E0"/>
<path d="M605.742 237.305C605.742 237.163 613.388 234.837 622.935 232.096C632.482 229.356 640.209 227.252 640.25 227.393C640.29 227.535 632.604 229.861 623.057 232.602C613.509 235.343 605.783 237.467 605.742 237.305Z" fill="#E0E0E0"/>
<path d="M584.141 275.616C584.552 275.551 584.969 275.531 585.385 275.555H588.793C591.665 275.555 595.63 275.555 600.009 275.373C604.388 275.191 608.342 274.938 611.205 274.706L614.603 274.443C615.019 274.394 615.44 274.394 615.857 274.443C615.456 274.571 615.042 274.652 614.623 274.685C613.824 274.807 612.671 274.959 611.245 275.12C608.383 275.444 604.418 275.788 600.029 275.94C595.64 276.091 591.665 276.061 588.783 275.94C587.347 275.889 586.184 275.828 585.385 275.768C584.965 275.767 584.548 275.717 584.141 275.616Z" fill="#E0E0E0"/>
<path d="M569.768 249.887C570.036 250.169 570.26 250.489 570.435 250.837L572.074 253.517C573.439 255.793 575.3 258.959 577.322 262.478C579.345 265.998 581.145 269.183 582.43 271.51L583.916 274.281C584.118 274.599 584.284 274.938 584.412 275.292C584.147 275.007 583.923 274.687 583.745 274.341L582.106 271.692C580.741 269.416 578.88 266.25 576.857 262.741C574.834 259.232 573.034 256.026 571.75 253.7L570.263 250.939C570.062 250.606 569.896 250.254 569.768 249.887Z" fill="#E0E0E0"/>
<path d="M546.445 281.258C546.755 281.644 547.036 282.053 547.285 282.482C547.831 283.382 548.539 284.504 549.398 285.92C551.158 288.823 553.575 292.868 556.205 297.349C558.834 301.829 561.191 305.894 562.88 308.848C563.679 310.274 564.336 311.457 564.852 312.367C565.112 312.787 565.332 313.231 565.509 313.692C565.193 313.31 564.912 312.901 564.67 312.468L562.556 309.04C560.796 306.127 558.379 302.092 555.75 297.611C553.12 293.131 550.764 289.065 549.075 286.102L547.103 282.593C546.841 282.17 546.621 281.723 546.445 281.258Z" fill="#E0E0E0"/>
<path d="M565.236 312.794C565.758 312.71 566.286 312.673 566.814 312.682L571.132 312.541C574.773 312.42 579.8 312.227 585.352 311.863C590.905 311.499 595.921 311.054 599.511 310.7L603.809 310.275C604.335 310.198 604.866 310.167 605.397 310.184C604.888 310.33 604.367 310.428 603.84 310.478C602.828 310.64 601.362 310.842 599.552 311.064C595.931 311.519 590.915 312.076 585.393 312.389C579.871 312.703 574.794 312.885 571.153 312.915C569.322 312.915 567.846 312.915 566.824 312.915C566.292 312.927 565.76 312.886 565.236 312.794Z" fill="#E0E0E0"/>
<path d="M808 436.056C808 434.358 627.103 433 404.019 433C180.935 433 0 434.358 0 436.056C0 437.755 180.859 439 404.019 439C627.179 439 808 437.981 808 436.056Z" fill="#263238"/>
<path d="M29.7772 367.196C31.6529 367.34 33.48 367.863 35.1486 368.732C36.8171 369.601 38.2926 370.799 39.4862 372.253C41.8615 375.183 43.5326 378.618 44.3711 382.296C46.1814 389.375 44.9576 397.618 42.8945 404.545C35.3194 401.764 30.6975 393.613 28.6141 389.375C25.3272 382.609 23.4865 368.379 29.7772 367.176" fill="#FCBD85"/>
<path d="M53.7666 413.21C52.6388 411.43 52.0026 409.384 51.9227 407.279C51.8427 405.174 52.3219 403.085 53.3115 401.225C54.3277 399.384 55.7008 397.764 57.3505 396.46C59.0002 395.156 60.8935 394.194 62.9194 393.63C64.7803 393.074 66.9648 392.851 68.5426 393.943C69.2658 394.497 69.8261 395.235 70.1643 396.081C70.5025 396.927 70.6061 397.848 70.4641 398.747C70.1687 400.547 69.4009 402.236 68.2392 403.642C64.4971 408.618 59.9663 412.745 53.7666 413.21Z" fill="#FCBD85"/>
<path d="M54.3956 436.675C54.2509 436.199 54.1427 435.712 54.0719 435.219C53.8798 434.208 53.627 432.832 53.3235 431.174C52.7572 427.806 51.847 423.012 52.6055 417.733C53.1604 413.218 54.9056 408.931 57.6623 405.313C58.5127 404.238 59.4908 403.27 60.575 402.431C60.8625 402.194 61.1667 401.977 61.4852 401.783C61.701 401.642 61.8122 401.581 61.8189 401.601C60.4012 402.782 59.1068 404.104 57.9556 405.546C55.3285 409.157 53.6553 413.373 53.0909 417.803C52.3324 422.982 53.1718 427.735 53.6472 431.123C53.9101 432.822 54.1124 434.157 54.2338 435.168C54.3437 435.663 54.398 436.169 54.3956 436.675Z" fill="#263238"/>
<path d="M32.1328 377.887C32.255 378.071 32.3567 378.267 32.4362 378.473C32.6385 378.908 32.8913 379.485 33.2048 380.172C33.8622 381.649 34.7927 383.803 35.9153 386.473C38.1605 391.803 41.1541 399.226 44.2792 407.489C47.4043 415.752 50.0642 423.307 51.9048 428.788C52.8353 431.539 53.5635 433.764 54.0489 435.312L54.5951 437.092C54.6727 437.293 54.7237 437.504 54.7468 437.719C54.6433 437.528 54.5586 437.329 54.4939 437.122C54.322 436.677 54.1096 436.111 53.8467 435.372C53.2904 433.784 52.5117 431.6 51.561 428.91C49.6192 423.458 46.9087 415.934 43.7837 407.671C40.6586 399.408 37.7357 392.046 35.5714 386.625L33.0127 380.253C32.7396 379.545 32.5171 378.969 32.3351 378.524C32.2468 378.319 32.179 378.105 32.1328 377.887Z" fill="#263238"/>
<path d="M45.5043 421.082C43.2553 417.255 40.1258 414.02 36.3757 411.646C32.6256 409.271 28.3631 407.825 23.9422 407.429C21.697 407.247 18.9966 407.601 17.9752 409.603C16.9537 411.606 18.2786 414.023 19.7956 415.671C23.0216 419.106 27.1924 421.509 31.7821 422.576C36.3718 423.643 41.1747 423.328 45.5852 421.669" fill="#FCBD85"/>
<path d="M27.3205 413.467C27.7902 413.448 28.2608 413.472 28.7262 413.538C29.276 413.572 29.8232 413.64 30.3647 413.74C31.0866 413.843 31.8023 413.985 32.5087 414.165C33.3742 414.362 34.2283 414.605 35.0675 414.893C36.0341 415.213 36.9828 415.584 37.9094 416.006C40.0363 416.981 42.045 418.196 43.8966 419.627C45.7268 421.083 47.3829 422.746 48.832 424.582C49.4561 425.391 50.0335 426.236 50.5615 427.111C51.0507 427.87 51.4964 428.657 51.8964 429.467C52.226 430.124 52.5164 430.799 52.7662 431.49C52.9876 431.994 53.1702 432.515 53.3123 433.047C53.4792 433.488 53.5979 433.946 53.6663 434.413C53.5551 434.413 53.0292 432.501 51.5627 429.649C51.1627 428.867 50.7204 428.107 50.2378 427.374C49.6992 426.529 49.1187 425.712 48.4983 424.926C47.0571 423.136 45.4223 421.512 43.6235 420.082C41.8043 418.676 39.8374 417.472 37.7577 416.491C36.8361 416.045 35.8908 415.65 34.9259 415.308C34.046 414.964 33.1964 414.742 32.4177 414.519C29.3128 413.71 27.3002 413.589 27.3205 413.467Z" fill="#263238"/>
<path d="M539.476 44.9766H94.8329C91.1528 44.9766 87.6234 46.4385 85.0212 49.0407C82.4189 51.6429 80.957 55.1723 80.957 58.8524V372.919C80.957 376.599 82.4189 380.129 85.0212 382.731C87.6234 385.333 91.1528 386.795 94.8329 386.795H265.489C265.489 386.795 276.341 420.362 242.693 437.727H402.255C402.255 437.727 364.268 424.711 374.028 386.795H539.476C543.156 386.795 546.686 385.333 549.288 382.731C551.89 380.129 553.352 376.599 553.352 372.919V58.8524C553.352 55.1723 551.89 51.6429 549.288 49.0407C546.686 46.4385 543.156 44.9766 539.476 44.9766Z" fill="#263238"/>
<path d="M323.086 353.764C329.154 362.411 319.668 371.878 311.021 365.83C310.733 365.625 310.483 365.372 310.282 365.081C304.214 356.444 313.701 346.988 322.348 353.026C322.637 353.225 322.888 353.475 323.086 353.764Z" fill="#455A64"/>
<path d="M539.092 63.8086H94.2974C92.4709 63.8086 90.9902 65.2893 90.9902 67.1157V328.258C90.9902 330.085 92.4709 331.565 94.2974 331.565H539.092C540.919 331.565 542.399 330.085 542.399 328.258V67.1157C542.399 65.2893 540.919 63.8086 539.092 63.8086Z" fill="#E0E0E0"/>
<path d="M542.399 83.418H90.9902V331.554H542.399V83.418Z" fill="white"/>
<path d="M128.004 74.1434C128.006 74.8584 127.796 75.5578 127.4 76.1531C127.004 76.7484 126.44 77.2128 125.78 77.4873C125.12 77.7618 124.393 77.8342 123.692 77.6952C122.991 77.5562 122.346 77.2121 121.841 76.7066C121.335 76.201 120.991 75.5567 120.852 74.8554C120.713 74.1541 120.785 73.4273 121.06 72.7672C121.335 72.107 121.799 71.5432 122.394 71.1472C122.989 70.7513 123.689 70.541 124.404 70.543C125.359 70.543 126.275 70.9223 126.95 71.5975C127.625 72.2727 128.004 73.1885 128.004 74.1434Z" fill="#455A64"/>
<path d="M106.161 74.1434C106.163 74.8579 105.952 75.557 105.557 76.1521C105.161 76.7472 104.598 77.2115 103.939 77.4863C103.279 77.7612 102.553 77.8341 101.852 77.6959C101.151 77.5578 100.507 77.2147 100.001 76.7101C99.4946 76.2056 99.1497 75.5623 99.0096 74.8616C98.8694 74.161 98.9403 73.4345 99.2133 72.7742C99.4863 72.1138 99.9491 71.5494 100.543 71.1522C101.137 70.755 101.835 70.543 102.55 70.543C103.024 70.5417 103.493 70.6338 103.931 70.8141C104.369 70.9945 104.767 71.2595 105.102 71.5939C105.438 71.9284 105.704 72.3258 105.886 72.7633C106.067 73.2007 106.161 73.6697 106.161 74.1434Z" fill="#455A64"/>
<path d="M116.616 74.1434C116.618 74.8579 116.408 75.557 116.012 76.1521C115.617 76.7472 115.053 77.2115 114.394 77.4863C113.734 77.7612 113.008 77.8341 112.307 77.6959C111.606 77.5578 110.962 77.2147 110.456 76.7101C109.95 76.2056 109.605 75.5623 109.465 74.8616C109.325 74.161 109.395 73.4345 109.668 72.7742C109.941 72.1138 110.404 71.5494 110.998 71.1522C111.592 70.755 112.291 70.543 113.005 70.543C113.479 70.5417 113.948 70.6338 114.386 70.8141C114.824 70.9945 115.222 71.2595 115.557 71.5939C115.893 71.9284 116.159 72.3258 116.341 72.7633C116.522 73.2007 116.616 73.6697 116.616 74.1434Z" fill="#455A64"/>
<path d="M528.365 98.375H409.49V296.985H528.365V98.375Z" fill="#F5F5F5"/>
<path d="M441.024 215.328L442.299 217.907L445.151 218.332L443.088 220.334L443.573 223.176L441.024 221.831L438.476 223.176L438.971 220.334L436.908 218.332L439.75 217.907L441.024 215.328Z" fill="#FCBD85"/>
<path d="M455.181 215.328L456.455 217.907L459.307 218.332L457.244 220.334L457.73 223.176L455.181 221.831L452.632 223.176L453.118 220.334L451.055 218.332L453.907 217.907L455.181 215.328Z" fill="#FCBD85"/>
<path d="M469.335 215.328L470.609 217.907L473.461 218.332L471.398 220.334L471.884 223.176L469.335 221.831L466.796 223.176L467.282 220.334L465.219 218.332L468.061 217.907L469.335 215.328Z" fill="#FCBD85"/>
<path d="M483.492 215.328L484.766 217.907L487.618 218.332L485.555 220.334L486.04 223.176L483.492 221.831L480.943 223.176L481.428 220.334L479.365 218.332L482.217 217.907L483.492 215.328Z" fill="#FCBD85"/>
<path d="M497.642 215.328L498.916 217.907L501.768 218.332L499.705 220.334L500.19 223.176L497.642 221.831L495.103 223.176L495.589 220.334L493.525 218.332L496.377 217.907L497.642 215.328Z" fill="#FCBD85"/>
<path d="M464.072 238.611C464.072 238.762 455.051 238.874 443.916 238.874C432.781 238.874 423.76 238.762 423.76 238.611C423.76 238.459 432.781 238.348 443.916 238.348C455.051 238.348 464.072 238.469 464.072 238.611Z" fill="#FCBD85"/>
<path d="M514.732 247.419C514.732 247.561 494.606 247.682 469.777 247.682C444.948 247.682 424.822 247.561 424.822 247.419C424.822 247.278 444.948 247.156 469.777 247.156C494.606 247.156 514.732 247.217 514.732 247.419Z" fill="#263238"/>
<path d="M514.732 254.884C514.732 255.026 494.606 255.147 469.777 255.147C444.948 255.147 424.822 255.026 424.822 254.884C424.822 254.742 444.948 254.621 469.777 254.621C494.606 254.621 514.732 254.742 514.732 254.884Z" fill="#263238"/>
<path d="M514.732 262.407C514.732 262.549 494.606 262.67 469.777 262.67C444.948 262.67 424.822 262.549 424.822 262.407C424.822 262.266 444.948 262.145 469.777 262.145C494.606 262.145 514.732 262.256 514.732 262.407Z" fill="#263238"/>
<path d="M514.732 269.923C514.732 270.075 494.606 270.186 469.777 270.186C444.948 270.186 424.822 270.075 424.822 269.923C424.822 269.771 444.948 269.66 469.777 269.66C494.606 269.66 514.732 269.782 514.732 269.923Z" fill="#263238"/>
<path d="M514.732 277.447C514.732 277.588 494.606 277.71 469.777 277.71C444.948 277.71 424.822 277.588 424.822 277.447C424.822 277.305 444.948 277.184 469.777 277.184C494.606 277.184 514.732 277.295 514.732 277.447Z" fill="#263238"/>
<path d="M519.71 108.457H417.311V206.761H519.71V108.457Z" fill="#E0E0E0"/>
<path d="M504.497 189.633L511.152 206.775H495.031L491.4 197.44L504.497 189.633Z" fill="#FFBE9D"/>
<path d="M443.118 206.774H486.778C487.456 200.322 487.881 194.223 487.881 194.223L490.126 200.291L508.462 191.118C508.462 191.118 501.797 173.349 496.214 167.331C489.135 159.716 476.483 160.474 476.483 160.474L460.018 160.747C455.804 161.246 451.703 162.442 447.881 164.287L447.477 164.408V164.489C443.917 167.523 433.217 181.864 433.217 181.864L437.161 185.697L445.252 193.232C445.242 193.256 445.236 193.282 445.236 193.308C445.236 193.334 445.242 193.36 445.252 193.384C445.313 194.203 443.118 206.774 443.118 206.774Z" fill="#FCBD85"/>
<path d="M476.949 159.887C476.949 159.887 477 159.988 477.04 160.18C477.1 160.467 477.137 160.757 477.152 161.05C477.204 162.134 477.053 163.217 476.707 164.246C476.184 165.786 475.259 167.159 474.026 168.22C472.478 169.495 470.548 170.218 468.543 170.275C466.538 170.331 464.571 169.719 462.952 168.534C461.667 167.538 460.669 166.219 460.06 164.711C459.658 163.704 459.448 162.63 459.443 161.545C459.436 161.251 459.456 160.956 459.503 160.665C459.503 160.473 459.554 160.372 459.574 160.372C459.587 161.811 459.869 163.234 460.403 164.569C461.032 165.981 462.01 167.21 463.245 168.139C464.786 169.236 466.643 169.801 468.533 169.748C470.424 169.695 472.246 169.028 473.723 167.846C474.905 166.852 475.811 165.57 476.353 164.124C476.818 162.762 477.02 161.324 476.949 159.887Z" fill="#263238"/>
<path d="M492.543 163.791C492.543 163.842 492.098 163.791 491.38 164.095C490.364 164.479 489.48 165.146 488.831 166.016C487.902 167.333 487.333 168.871 487.183 170.476C486.94 172.287 486.889 174.329 486.808 176.453C486.697 180.721 486.859 184.544 487.061 187.376C487.152 188.681 487.243 189.783 487.304 190.673C487.372 191.077 487.389 191.488 487.355 191.897C487.232 191.508 487.148 191.108 487.102 190.703C486.99 189.925 486.829 188.802 486.687 187.406C486.32 183.764 486.185 180.102 486.282 176.443C486.317 174.414 486.459 172.389 486.707 170.375C486.886 168.695 487.523 167.096 488.548 165.753C489.254 164.853 490.222 164.196 491.319 163.872C491.611 163.784 491.914 163.736 492.219 163.73C492.432 163.761 492.543 163.771 492.543 163.791Z" fill="#263238"/>
<path d="M453.402 161.949C453.338 162.369 453.237 162.782 453.098 163.183C452.825 164.073 452.491 165.206 452.087 166.51C451.247 169.312 450.125 173.196 448.992 177.524C447.859 181.853 446.969 185.787 446.342 188.649C446.039 189.994 445.786 191.127 445.584 192.037C445.518 192.459 445.406 192.873 445.25 193.271C445.256 192.843 445.3 192.417 445.381 191.997C445.503 191.188 445.705 189.974 445.968 188.578C446.514 185.686 447.364 181.721 448.486 177.393C449.609 173.064 450.802 169.18 451.733 166.399C452.198 165.004 452.592 163.891 452.886 163.122C453.017 162.715 453.19 162.322 453.402 161.949Z" fill="#263238"/>
<path opacity="0.2" d="M486.515 177.633L492.583 199.134L490.166 200.348L487.921 194.28C487.921 194.28 485.696 181.476 486.515 177.633Z" fill="black"/>
<g opacity="0.2">
<path d="M454.111 161.97C450.602 163.75 459.219 168.362 463.153 168.322L460.483 160.676C460.483 160.676 455.285 161.374 454.111 161.97Z" fill="black"/>
</g>
<path d="M468.927 169.787C467.708 169.87 466.486 169.696 465.339 169.276C464.192 168.856 463.146 168.199 462.269 167.348C461.393 166.497 460.705 165.472 460.251 164.338C459.797 163.204 459.586 161.987 459.633 160.766C459.734 157.964 459.825 155.709 459.825 155.709C459.825 155.709 452.877 155.102 452.331 148.235C451.785 141.368 451.906 125.5 451.906 125.5C455.702 123.558 459.947 122.664 464.203 122.911C468.459 123.158 472.573 124.537 476.118 126.906L477.19 127.614L477.059 161.17C477.038 163.367 476.189 165.475 474.681 167.072C473.174 168.67 471.119 169.64 468.927 169.787Z" fill="#FFBE9D"/>
<path d="M455.638 137.594C455.783 137.454 455.883 137.274 455.925 137.077C455.966 136.88 455.948 136.675 455.873 136.488C455.797 136.301 455.668 136.141 455.501 136.028C455.334 135.916 455.137 135.855 454.935 135.855C454.734 135.855 454.537 135.916 454.37 136.028C454.203 136.141 454.073 136.301 453.998 136.488C453.922 136.675 453.904 136.88 453.946 137.077C453.988 137.274 454.087 137.454 454.232 137.594C454.421 137.776 454.673 137.878 454.935 137.878C455.197 137.878 455.449 137.776 455.638 137.594Z" fill="#263238"/>
<path d="M452.596 135.552C452.707 135.663 453.344 135.107 454.295 135.036C455.246 134.965 455.964 135.41 456.055 135.279C456.146 135.147 455.984 135.016 455.671 134.804C455.243 134.543 454.744 134.423 454.245 134.46C453.747 134.5 453.276 134.699 452.899 135.026C452.626 135.279 452.535 135.501 452.596 135.552Z" fill="#263238"/>
<path d="M464.276 136.088C464.111 136.203 463.985 136.365 463.912 136.552C463.839 136.74 463.824 136.945 463.869 137.141C463.913 137.337 464.015 137.515 464.161 137.653C464.307 137.791 464.491 137.882 464.689 137.915C464.887 137.948 465.091 137.921 465.274 137.838C465.456 137.755 465.61 137.619 465.716 137.448C465.821 137.277 465.874 137.079 465.866 136.878C465.858 136.677 465.79 136.483 465.672 136.321C465.516 136.107 465.282 135.963 465.021 135.92C464.761 135.877 464.493 135.937 464.276 136.088Z" fill="#263238"/>
<path d="M462.604 135.583C462.725 135.694 463.362 135.127 464.313 135.057C465.264 134.986 465.972 135.431 466.073 135.299C466.174 135.168 466.002 135.036 465.679 134.834C465.258 134.565 464.76 134.444 464.263 134.49C463.765 134.523 463.292 134.718 462.917 135.047C462.634 135.309 462.553 135.532 462.604 135.583Z" fill="#263238"/>
<path d="M459.594 143.915C459.09 143.757 458.564 143.686 458.037 143.703C457.784 143.703 457.592 143.642 457.561 143.51C457.538 143.263 457.583 143.015 457.693 142.792L458.31 140.77C458.908 139.094 459.338 137.363 459.594 135.602C458.821 137.203 458.218 138.881 457.794 140.608C457.592 141.296 457.399 141.953 457.217 142.63C457.085 142.951 457.06 143.306 457.147 143.642C457.188 143.735 457.251 143.818 457.33 143.883C457.409 143.948 457.502 143.993 457.602 144.016C457.742 144.04 457.886 144.04 458.026 144.016C458.551 144.074 459.081 144.04 459.594 143.915Z" fill="#263238"/>
<path d="M459.814 155.577C462.993 155.423 466.053 154.324 468.603 152.422C468.603 152.422 466.813 157.479 459.916 157.357L459.814 155.577Z" fill="#EB996E"/>
<path d="M476.887 134.896C477.019 134.845 482.51 134.249 481.641 139.558C480.892 144.14 475.957 142.744 475.967 142.592C475.977 142.441 476.887 134.896 476.887 134.896Z" fill="#FFBE9D"/>
<path d="M477.887 140.57C477.887 140.57 477.958 140.631 478.09 140.701C478.273 140.797 478.487 140.819 478.686 140.762C478.986 140.589 479.237 140.342 479.414 140.045C479.591 139.747 479.689 139.409 479.698 139.063C479.744 138.674 479.699 138.279 479.566 137.91C479.533 137.764 479.465 137.628 479.368 137.514C479.271 137.4 479.148 137.31 479.01 137.253C478.919 137.224 478.822 137.228 478.733 137.263C478.645 137.298 478.571 137.362 478.525 137.445C478.454 137.566 478.525 137.657 478.454 137.657C478.383 137.657 478.363 137.576 478.454 137.394C478.49 137.284 478.561 137.188 478.656 137.121C478.788 137.037 478.948 137.008 479.101 137.04C479.286 137.09 479.456 137.186 479.592 137.321C479.729 137.456 479.828 137.624 479.88 137.809C480.04 138.217 480.102 138.657 480.062 139.093C480.053 139.5 479.925 139.896 479.693 140.23C479.461 140.565 479.135 140.824 478.757 140.974C478.632 141.002 478.503 141 478.378 140.971C478.254 140.941 478.138 140.883 478.039 140.803C477.887 140.681 477.867 140.58 477.887 140.57Z" fill="#EB996E"/>
<path d="M475.734 139.67C474.672 140.307 473.226 139.508 472.7 138.395C472.271 137.229 472.088 135.985 472.164 134.744C472.103 133.054 471.81 131.38 471.294 129.769C471.228 129.179 471.012 128.616 470.668 128.133C470.324 127.65 469.863 127.263 469.327 127.008C468.792 126.753 468.2 126.638 467.608 126.675C467.016 126.712 466.443 126.9 465.944 127.22C464.834 127.775 463.615 128.079 462.374 128.11C460.745 127.968 459.4 126.684 457.772 126.461C456.144 126.239 454.829 126.977 453.363 127.392C451.906 127.876 450.326 127.84 448.892 127.291C448.186 127.005 447.582 126.514 447.158 125.881C446.735 125.248 446.511 124.503 446.516 123.741C446.544 123.366 446.65 123.002 446.828 122.671C447.005 122.339 447.25 122.049 447.546 121.818C447.842 121.586 448.183 121.419 448.547 121.327C448.911 121.235 449.291 121.22 449.661 121.283C449.4 121.106 449.18 120.873 449.017 120.603C448.853 120.332 448.75 120.03 448.715 119.716C448.679 119.402 448.712 119.084 448.811 118.783C448.91 118.483 449.072 118.208 449.287 117.976C449.759 117.535 450.346 117.233 450.98 117.107C451.614 116.98 452.271 117.032 452.877 117.258C454.079 117.722 455.168 118.436 456.073 119.352C456.197 118.79 456.505 118.285 456.949 117.919C457.392 117.552 457.945 117.345 458.521 117.329C459.691 117.334 460.827 117.721 461.757 118.431C462.768 119.079 463.587 119.867 464.609 120.454C466.632 121.577 469.039 121.698 471.314 122.113C473.59 122.527 476.027 123.448 477.13 125.491C478.141 127.281 477.453 129.435 477.372 131.478C477.291 133.521 477.281 134.077 477.18 136.069C477.16 135.999 477.291 138.77 475.734 139.67Z" fill="#263238"/>
<path d="M458.734 146.697C458.734 146.758 458.987 146.869 459.452 146.859C460.059 146.84 460.646 146.636 461.134 146.274C461.622 145.913 461.988 145.411 462.183 144.836C462.325 144.391 462.284 144.108 462.183 144.098C462.082 144.088 461.809 145.109 460.808 145.898C460.163 146.272 459.463 146.541 458.734 146.697Z" fill="white"/>
<path d="M450.834 122.688C450.675 122.799 450.551 122.953 450.478 123.132C450.404 123.312 450.384 123.508 450.419 123.699C450.463 124.13 450.665 124.53 450.985 124.821C451.209 124.999 451.469 125.126 451.747 125.192C452.025 125.259 452.314 125.263 452.593 125.206C453.264 125.077 453.903 124.82 454.475 124.447C455.098 124.017 455.779 123.677 456.497 123.436C457.317 123.263 458.172 123.392 458.904 123.8C459.683 124.184 460.411 124.741 461.22 125.236C461.982 125.78 462.894 126.074 463.83 126.076C464.697 125.963 465.507 125.581 466.146 124.983C466.717 124.48 467.379 124.092 468.098 123.84C468.735 123.686 469.404 123.725 470.019 123.952C470.93 124.279 471.68 124.946 472.113 125.813C472.245 126.139 472.344 126.478 472.406 126.824C472.406 126.475 472.33 126.13 472.183 125.813C471.978 125.362 471.685 124.957 471.323 124.62C470.96 124.284 470.534 124.022 470.07 123.851C469.425 123.601 468.72 123.551 468.047 123.709C467.299 123.952 466.61 124.348 466.024 124.872C465.399 125.421 464.625 125.773 463.799 125.883C462.902 125.876 462.029 125.59 461.301 125.064C460.512 124.579 459.774 124.053 458.965 123.628C458.195 123.204 457.297 123.071 456.437 123.254C455.719 123.497 455.039 123.837 454.414 124.265C453.862 124.633 453.243 124.891 452.593 125.024C452.332 125.084 452.06 125.086 451.797 125.028C451.535 124.97 451.289 124.855 451.076 124.69C450.776 124.429 450.575 124.071 450.51 123.679C450.479 123.5 450.492 123.316 450.549 123.143C450.605 122.97 450.703 122.814 450.834 122.688Z" fill="#455A64"/>
<path d="M453.879 119.068C453.828 118.993 453.758 118.933 453.676 118.896C453.558 118.838 453.429 118.809 453.297 118.809C453.166 118.809 453.036 118.838 452.918 118.896C452.723 118.976 452.561 119.12 452.457 119.303C452.352 119.486 452.312 119.698 452.341 119.907C452.38 120.183 452.495 120.444 452.674 120.658C452.853 120.873 453.088 121.033 453.353 121.121C453.989 121.306 454.669 121.274 455.284 121.03C455.962 120.757 456.663 120.548 457.378 120.403C457.771 120.374 458.166 120.434 458.534 120.577C458.901 120.721 459.232 120.944 459.502 121.232C460.086 121.889 460.769 122.452 461.525 122.901C461.949 123.05 462.4 123.114 462.85 123.088C463.299 123.062 463.739 122.947 464.144 122.749C464.875 122.409 465.646 122.164 466.44 122.021C467.574 121.867 468.728 122.058 469.751 122.571C470.774 123.083 471.619 123.893 472.174 124.893C472.498 125.469 472.599 125.823 472.619 125.813C472.536 125.482 472.41 125.162 472.245 124.863C471.81 124.025 471.174 123.309 470.394 122.779C469.225 121.99 467.808 121.655 466.409 121.839C465.603 121.982 464.818 122.227 464.073 122.567C463.693 122.756 463.279 122.867 462.855 122.893C462.431 122.919 462.006 122.86 461.605 122.719C460.855 122.278 460.173 121.73 459.583 121.09C459.295 120.784 458.942 120.546 458.55 120.395C458.158 120.245 457.736 120.185 457.317 120.221C456.589 120.367 455.877 120.587 455.193 120.878C454.625 121.108 453.998 121.15 453.403 120.999C453.16 120.924 452.942 120.782 452.776 120.589C452.609 120.395 452.501 120.159 452.463 119.907C452.429 119.718 452.461 119.522 452.553 119.353C452.645 119.184 452.791 119.051 452.968 118.977C453.079 118.924 453.2 118.897 453.322 118.897C453.445 118.897 453.566 118.924 453.676 118.977C453.818 118.977 453.869 119.078 453.879 119.068Z" fill="#455A64"/>
<path d="M474.187 124.448C474.318 124.498 474.692 123.669 475.582 123.123C476.472 122.577 477.362 122.587 477.372 122.445C477.383 122.304 477.16 122.284 476.766 122.273C476.253 122.286 475.754 122.436 475.319 122.708C474.885 122.981 474.532 123.365 474.298 123.821C474.136 124.185 474.126 124.428 474.187 124.448Z" fill="#263238"/>
<path d="M474.995 119.363C474.853 119.363 475.055 120.435 474.884 121.7C474.712 122.964 474.287 123.914 474.408 123.985C474.938 123.351 475.274 122.579 475.378 121.76C475.482 120.941 475.349 120.109 474.995 119.363Z" fill="#263238"/>
<path d="M476.603 137.796C476.79 137.51 476.914 137.186 476.964 136.847C477.015 136.509 476.992 136.163 476.896 135.834C476.69 135.126 476.311 134.479 475.794 133.953C475.528 133.64 475.347 133.264 475.268 132.861C475.233 132.416 475.288 131.969 475.43 131.546C475.709 130.684 475.761 129.764 475.582 128.876C475.421 128.141 474.982 127.496 474.358 127.076C473.938 126.801 473.443 126.663 472.942 126.681C472.76 126.689 472.581 126.734 472.416 126.813C472.416 126.813 472.608 126.813 472.942 126.762C473.421 126.769 473.886 126.921 474.277 127.197C474.861 127.602 475.263 128.219 475.4 128.916C475.565 129.776 475.509 130.663 475.238 131.495C475.088 131.945 475.033 132.42 475.076 132.891C475.163 133.325 475.362 133.73 475.652 134.064C476.16 134.567 476.538 135.184 476.755 135.864C476.861 136.334 476.861 136.821 476.755 137.291C476.721 137.464 476.67 137.633 476.603 137.796Z" fill="#455A64"/>
<path d="M471.607 186.74C471.62 186.959 471.62 187.179 471.607 187.398C471.607 187.873 471.607 188.409 471.658 189.137C471.658 190.634 471.749 192.738 471.769 195.276L471.708 195.114L474.823 198.017H474.56L479.921 195.843L479.769 196.045C479.79 195.875 479.821 195.706 479.86 195.539C480.447 192.353 480.993 189.35 481.478 186.74L481.711 187.013C478.727 187.013 476.219 186.943 474.429 186.902L472.335 186.842C472.09 186.828 471.847 186.794 471.607 186.74C471.835 186.706 472.065 186.689 472.295 186.69L474.318 186.629C476.088 186.629 478.657 186.528 481.741 186.508H482.014V186.781C481.549 189.4 481.003 192.404 480.457 195.59L480.366 196.095V196.237L480.234 196.298L474.864 198.432L474.712 198.492L474.601 198.381L471.567 195.438L471.496 195.367V195.276C471.496 192.647 471.567 190.482 471.607 189.006C471.607 188.328 471.607 187.772 471.668 187.307C471.624 187.121 471.604 186.931 471.607 186.74Z" fill="#263238"/>
<path d="M481.126 189.376C479.56 189.724 477.954 189.856 476.352 189.771C474.748 189.861 473.14 189.739 471.568 189.407C473.155 189.215 474.756 189.161 476.352 189.245C477.944 189.154 479.541 189.198 481.126 189.376Z" fill="#263238"/>
<path d="M435.471 184.098C435.683 184.31 419.289 206.772 419.289 206.772H435.36L445.22 193.261L435.471 184.098Z" fill="#FFBE9D"/>
<path d="M402.913 61.4414H233.471V344.53H402.913V61.4414Z" fill="#F5F5F5"/>
<path d="M278.427 228.145L280.237 231.816L284.303 232.412L281.36 235.275L282.058 239.32L278.427 237.409L274.786 239.32L275.484 235.275L272.551 232.412L276.606 231.816L278.427 228.145Z" fill="#FCBD85"/>
<path d="M298.591 228.145L300.411 231.816L304.467 232.412L301.534 235.275L302.222 239.32L298.591 237.409L294.96 239.32L295.658 235.275L292.715 232.412L296.781 231.816L298.591 228.145Z" fill="#FCBD85"/>
<path d="M318.771 228.145L320.591 231.816L324.646 232.412L321.714 235.275L322.401 239.32L318.771 237.409L315.14 239.32L315.838 235.275L312.895 232.412L316.96 231.816L318.771 228.145Z" fill="#FCBD85"/>
<path d="M338.946 228.145L340.767 231.816L344.822 232.412L341.889 235.275L342.577 239.32L338.946 237.409L335.316 239.32L336.013 235.275L333.07 232.412L337.126 231.816L338.946 228.145Z" fill="#FCBD85"/>
<path d="M359.12 228.145L360.93 231.816L364.996 232.412L362.053 235.275L362.751 239.32L359.12 237.409L355.489 239.32L356.177 235.275L353.244 232.412L357.3 231.816L359.12 228.145Z" fill="#FCBD85"/>
<path d="M311.276 261.329C311.276 261.471 298.411 261.592 282.543 261.592C266.675 261.592 253.811 261.471 253.811 261.329C253.811 261.188 266.675 261.066 282.543 261.066C298.411 261.066 311.276 261.178 311.276 261.329Z" fill="#FCBD85"/>
<path d="M383.475 273.794C383.475 273.946 354.783 274.057 319.406 274.057C284.029 274.057 255.326 273.946 255.326 273.794C255.326 273.642 284.008 273.531 319.406 273.531C354.803 273.531 383.475 273.653 383.475 273.794Z" fill="#263238"/>
<path d="M383.475 284.517C383.475 284.658 354.783 284.78 319.406 284.78C284.029 284.78 255.326 284.658 255.326 284.517C255.326 284.375 284.008 284.254 319.406 284.254C354.803 284.254 383.475 284.375 383.475 284.517Z" fill="#263238"/>
<path d="M383.475 295.236C383.475 295.377 354.783 295.499 319.406 295.499C284.029 295.499 255.326 295.377 255.326 295.236C255.326 295.094 284.008 294.973 319.406 294.973C354.803 294.973 383.475 295.084 383.475 295.236Z" fill="#263238"/>
<path d="M383.475 305.958C383.475 306.1 354.783 306.221 319.406 306.221C284.029 306.221 255.326 306.1 255.326 305.958C255.326 305.817 284.008 305.695 319.406 305.695C354.803 305.695 383.475 305.807 383.475 305.958Z" fill="#263238"/>
<path d="M383.475 316.669C383.475 316.821 354.783 316.932 319.406 316.932C284.029 316.932 255.326 316.821 255.326 316.669C255.326 316.518 284.008 316.406 319.406 316.406C354.803 316.406 383.475 316.528 383.475 316.669Z" fill="#263238"/>
<path d="M390.574 75.8125H244.615V215.936H390.574V75.8125Z" fill="#E0E0E0"/>
<path d="M309.231 99.034C310.759 93.9065 315.451 90.0734 320.65 88.8295C325.848 87.5855 332.3 85.8864 337.064 88.3137C340.037 89.8307 342.889 92.0355 344.063 95.1605C345.448 98.8722 343.314 105.79 342.252 109.603C341.19 113.416 340.391 117.775 342.485 121.132C344.578 124.49 348.695 125.663 351.284 128.515C353.003 130.567 353.856 133.207 353.661 135.877C353.467 138.546 352.24 141.035 350.242 142.816C354.844 142.543 358.727 147.235 358.565 151.837C358.404 156.439 355.036 160.484 350.93 162.568C346.824 164.651 342.08 165.086 337.479 165.096C331.765 165.104 326.067 164.511 320.478 163.326C315.876 162.315 311.072 160.808 308.078 157.177C305.317 153.84 304.559 149.288 304.549 144.96C304.549 129.658 312.559 114.488 309.07 99.5802" fill="#263238"/>
<path d="M312.964 95.5178C310.556 93.8698 307.723 92.9514 304.806 92.8727C301.888 92.794 299.01 93.5585 296.517 95.0743C294.023 96.5902 292.02 98.7932 290.746 101.419C289.473 104.045 288.984 106.982 289.339 109.879C289.713 112.913 290.977 115.947 290.208 118.83C288.762 124.321 281.025 126.455 280.014 132.038C279.609 134.243 280.388 136.458 280.975 138.612C281.561 140.766 281.986 143.203 280.833 145.145C280.004 146.581 278.507 147.481 277.334 148.644C273.572 152.407 273.642 159.011 276.798 163.309C279.953 167.607 285.536 169.66 290.856 169.488C296.175 169.317 301.273 167.162 305.814 164.381" fill="#263238"/>
<path d="M301.789 101.662L301.86 105.292L302.588 159.774C302.669 166.105 308.181 171.071 314.947 170.899C321.794 170.747 327.346 165.458 327.366 159.066C327.366 152.361 327.528 145.302 327.528 145.302C327.528 145.302 336.175 143.865 337.965 132.589C338.855 126.986 338.572 117.793 338.097 110.278C338.001 108.671 337.579 107.1 336.859 105.661C336.138 104.221 335.133 102.942 333.903 101.903C332.674 100.863 331.247 100.083 329.708 99.6102C328.169 99.1376 326.55 98.9822 324.949 99.1534L301.789 101.662Z" fill="#B78876"/>
<path d="M333.756 116.712C333.758 117.088 333.614 117.451 333.354 117.723C333.093 117.995 332.736 118.155 332.36 118.168C332.176 118.183 331.991 118.161 331.816 118.103C331.64 118.045 331.479 117.953 331.34 117.831C331.201 117.709 331.088 117.561 331.008 117.395C330.928 117.228 330.882 117.048 330.873 116.863C330.868 116.488 331.01 116.125 331.269 115.852C331.528 115.58 331.883 115.42 332.259 115.407C332.443 115.392 332.629 115.414 332.805 115.472C332.981 115.529 333.143 115.622 333.282 115.743C333.422 115.865 333.536 116.013 333.617 116.18C333.698 116.346 333.745 116.527 333.756 116.712Z" fill="#263238"/>
<path d="M336.082 115.094C335.9 115.276 334.808 114.467 333.251 114.467C331.693 114.467 330.55 115.255 330.388 115.063C330.227 114.871 330.48 114.638 330.985 114.274C331.658 113.813 332.455 113.567 333.271 113.566C334.081 113.565 334.87 113.82 335.526 114.295C336.022 114.659 336.184 115.003 336.082 115.094Z" fill="#263238"/>
<path d="M318.769 116.712C318.772 117.088 318.628 117.451 318.367 117.723C318.107 117.995 317.75 118.155 317.374 118.168C317.19 118.18 317.006 118.156 316.832 118.097C316.658 118.038 316.497 117.946 316.359 117.824C316.221 117.703 316.108 117.556 316.027 117.391C315.946 117.226 315.898 117.047 315.887 116.863C315.881 116.486 316.025 116.121 316.286 115.849C316.547 115.576 316.905 115.418 317.283 115.407C317.466 115.392 317.652 115.414 317.827 115.472C318.002 115.53 318.164 115.622 318.303 115.744C318.441 115.866 318.554 116.014 318.634 116.18C318.714 116.347 318.76 116.527 318.769 116.712Z" fill="#263238"/>
<path d="M320.81 115.376C320.628 115.569 319.526 114.759 317.978 114.759C316.431 114.759 315.278 115.548 315.106 115.356C314.934 115.164 315.207 114.931 315.703 114.567C316.379 114.104 317.179 113.857 317.999 113.859C318.808 113.858 319.598 114.113 320.254 114.588C320.729 114.931 320.911 115.296 320.81 115.376Z" fill="#263238"/>
<path d="M326.455 126.918C327.275 126.661 328.125 126.508 328.983 126.463C329.378 126.463 329.752 126.342 329.823 126.069C329.856 125.66 329.764 125.251 329.56 124.895L328.377 121.861C326.748 117.553 325.565 114.013 325.747 113.942C325.929 113.872 327.375 117.32 329.014 121.629C329.408 122.691 329.782 123.702 330.136 124.663C330.39 125.14 330.462 125.694 330.339 126.22C330.281 126.36 330.194 126.486 330.082 126.587C329.97 126.689 329.836 126.764 329.691 126.807C329.47 126.864 329.242 126.894 329.014 126.898C328.165 127.014 327.305 127.021 326.455 126.918Z" fill="#263238"/>
<path d="M327.527 145.334C322.217 145.41 316.989 144.009 312.428 141.289C312.428 141.289 316.089 149.036 327.376 147.984L327.527 145.334Z" fill="#AA6550"/>
<path d="M325.8 130.668C325.499 130.302 325.11 130.017 324.67 129.84C324.23 129.663 323.753 129.6 323.282 129.657C322.939 129.687 322.606 129.787 322.303 129.95C322.001 130.114 321.735 130.337 321.522 130.608C321.311 130.865 321.186 131.181 321.162 131.512C321.139 131.844 321.218 132.174 321.39 132.458C321.64 132.733 321.964 132.929 322.324 133.021C322.684 133.112 323.063 133.096 323.413 132.974C324.159 132.717 324.846 132.315 325.436 131.791C325.607 131.659 325.757 131.502 325.881 131.326C325.938 131.241 325.969 131.14 325.969 131.037C325.969 130.935 325.938 130.834 325.881 130.749" fill="#AA6550"/>
<path d="M321.922 128C322.175 128 322.175 129.669 323.621 130.872C325.068 132.076 326.868 131.884 326.878 132.116C326.888 132.349 326.483 132.45 325.725 132.47C324.735 132.479 323.773 132.143 323.004 131.52C322.271 130.916 321.797 130.055 321.68 129.113C321.568 128.405 321.76 127.99 321.922 128Z" fill="#263238"/>
<path d="M310.96 96.3824C310.96 96.2409 311.142 96.1701 311.233 96.2105C311.324 96.251 311.365 96.3926 311.304 96.5341C311.285 96.5915 311.246 96.6398 311.194 96.6697C311.141 96.6996 311.08 96.709 311.021 96.696C310.973 96.6613 310.939 96.6095 310.928 96.5513C310.917 96.493 310.928 96.4326 310.96 96.3824Z" fill="#263238"/>
<path d="M301.19 155.002C302.844 154.378 304.343 153.404 305.586 152.147C306.829 150.891 307.786 149.38 308.391 147.72C309.578 144.369 309.663 140.726 308.634 137.323C308.189 135.755 307.562 134.036 308.25 132.56C308.891 131.564 309.727 130.707 310.707 130.041C312.638 128.176 313.781 125.643 313.903 122.962C314.006 120.289 313.519 117.627 312.477 115.164C311.941 113.799 311.294 112.302 311.789 110.927C312.243 109.989 312.916 109.174 313.751 108.55C315.356 107.045 316.681 105.268 317.665 103.301C318.353 101.915 318.869 100.267 318.201 98.8409C317.382 97.1418 315.258 96.6159 313.387 96.4743C308.917 96.1305 303.982 97.1216 301.14 100.58C298.601 103.675 298.308 107.994 298.106 112.009C297.539 124.631 296.973 137.384 299.117 149.834" fill="#263238"/>
<path d="M342.375 100.408C341.752 100.785 341.107 101.122 340.443 101.42C339.859 101.842 339.314 102.316 338.815 102.836C338.522 103.119 338.208 103.432 337.925 103.756L337.723 103.999L337.399 104.322L336.62 105.061C335.869 105.76 335.06 106.396 334.203 106.962C332.935 107.845 331.516 108.49 330.016 108.863C327.132 109.507 324.114 109.151 321.46 107.852C319.63 106.971 318.025 105.684 316.767 104.09C314.846 101.531 314.552 99.4576 315.432 98.335C316.312 97.2124 318.547 97.3237 321.035 97.9811C322.247 98.2967 323.476 98.5399 324.716 98.7092C325.692 98.8488 326.683 98.8214 327.649 98.6283C328.122 98.5216 328.581 98.3587 329.015 98.1429C329.652 97.8597 330.441 97.4451 331.351 97.0102C331.806 96.7978 332.281 96.5854 332.797 96.3831C333.05 96.282 333.323 96.191 333.586 96.0999C333.849 96.0089 334.183 95.8977 334.476 95.8269C335.578 95.541 336.721 95.4486 337.854 95.5538C338.753 95.588 339.633 95.8218 340.431 96.2381C341.229 96.6544 341.924 97.2428 342.466 97.9608C342.749 98.3107 342.896 98.7516 342.88 99.2017C342.863 99.6517 342.684 100.08 342.375 100.408Z" fill="#263238"/>
<path d="M285.393 162.77C285.336 162.719 285.282 162.665 285.232 162.608C285.079 162.441 284.937 162.266 284.807 162.082C284.295 161.382 283.908 160.598 283.664 159.766C283.286 158.451 283.217 157.066 283.462 155.72C283.821 153.906 284.783 152.266 286.192 151.068C287.699 149.693 289.672 148.661 291.482 147.225C292.424 146.498 293.232 145.611 293.869 144.606C294.528 143.551 294.797 142.298 294.627 141.066C294.283 138.517 292.18 136.282 291.998 133.228C291.924 131.689 292.295 130.161 293.066 128.826C293.837 127.492 294.976 126.408 296.346 125.703C297.709 125.117 299.001 124.381 300.2 123.509C300.721 123.047 301.131 122.473 301.399 121.83C301.667 121.188 301.786 120.492 301.747 119.797C301.679 118.421 301.335 117.073 300.736 115.832C300.149 114.609 299.441 113.446 298.834 112.262C298.209 111.107 297.778 109.856 297.56 108.561C297.396 107.312 297.552 106.041 298.015 104.869C298.874 102.805 300.374 101.071 302.293 99.9238C303.869 98.9978 305.611 98.3897 307.421 98.1337C308.76 97.9357 310.113 97.8478 311.466 97.8708C312.589 97.8708 313.489 97.9517 314.035 98.0022L314.703 98.073C314.854 98.073 314.925 98.073 314.925 98.073C314.629 98.0931 314.331 98.0931 314.035 98.073C313.449 98.073 312.579 98.073 311.466 98.073C310.111 98.0795 308.758 98.1944 307.421 98.4169C305.665 98.6956 303.979 99.3103 302.455 100.227C300.63 101.353 299.212 103.033 298.41 105.021C297.985 106.121 297.846 107.311 298.005 108.48C298.225 109.724 298.649 110.923 299.259 112.03C299.856 113.193 300.574 114.346 301.181 115.61C301.832 116.908 302.207 118.327 302.283 119.777C302.33 120.546 302.2 121.316 301.904 122.028C301.608 122.739 301.153 123.374 300.574 123.883C299.349 124.793 298.022 125.556 296.62 126.158C295.336 126.825 294.272 127.847 293.555 129.103C292.837 130.358 292.497 131.794 292.574 133.238C292.706 136.049 294.779 138.295 295.163 141.025C295.347 142.369 295.049 143.734 294.324 144.879C293.653 145.925 292.804 146.846 291.816 147.599C289.934 149.066 287.972 150.057 286.506 151.372C285.134 152.501 284.186 154.063 283.816 155.801C283.545 157.117 283.584 158.477 283.927 159.776C284.242 160.85 284.738 161.862 285.393 162.77Z" fill="#455A64"/>
<path d="M348.303 160.595C348.545 160.47 348.759 160.297 348.933 160.087C349.107 159.877 349.237 159.633 349.314 159.372C349.473 158.764 349.427 158.12 349.182 157.541C348.806 156.796 348.228 156.172 347.514 155.741C346.735 155.205 345.774 154.78 344.813 154.123C344.273 153.798 343.811 153.357 343.462 152.833C343.112 152.308 342.883 151.712 342.791 151.089C342.761 149.691 343.215 148.327 344.075 147.225C344.884 146.062 345.936 145.071 346.745 143.898C347.574 142.799 347.937 141.419 347.756 140.055C347.522 138.786 346.992 137.591 346.209 136.566C344.753 134.543 342.942 133.066 341.799 131.509C340.799 130.326 340.132 128.898 339.868 127.372C339.81 126.96 339.81 126.541 339.868 126.128C339.868 125.845 339.949 125.693 339.969 125.704C339.958 126.251 339.989 126.799 340.06 127.342C340.391 128.803 341.087 130.157 342.083 131.276C343.236 132.783 345.056 134.209 346.593 136.333C347.431 137.418 348 138.687 348.252 140.035C348.363 140.767 348.322 141.514 348.131 142.229C347.914 142.957 347.571 143.642 347.119 144.252C346.27 145.496 345.208 146.487 344.429 147.579C343.636 148.584 343.208 149.829 343.215 151.109C343.295 151.671 343.499 152.209 343.812 152.683C344.125 153.157 344.54 153.556 345.026 153.85C345.926 154.487 346.887 154.942 347.675 155.508C348.438 156 349.043 156.703 349.415 157.531C349.673 158.178 349.691 158.895 349.466 159.554C349.341 159.97 349.072 160.329 348.707 160.565C348.577 160.609 348.438 160.619 348.303 160.595Z" fill="#455A64"/>
<path d="M343.162 95.7981C343.162 95.7981 343.162 95.9194 343.162 96.1521C343.16 96.4921 343.123 96.831 343.051 97.1634C342.801 98.4006 342.193 99.5368 341.301 100.43C340.638 101.101 339.834 101.615 338.947 101.936C338.06 102.256 337.112 102.374 336.174 102.281C335.052 102.198 333.972 101.825 333.038 101.199C332.098 100.489 331.255 99.6598 330.53 98.731C329.826 97.8465 329.006 97.0608 328.093 96.3948C327.231 95.7934 326.283 95.3262 325.281 95.0092C323.573 94.4775 321.754 94.4112 320.012 94.8171C318.833 95.0983 317.708 95.5733 316.685 96.2228C315.957 96.6881 315.592 97.0016 315.572 96.9712C315.853 96.6081 316.196 96.2966 316.584 96.0509C317.589 95.3142 318.725 94.7754 319.931 94.4631C321.737 93.9811 323.642 94.0091 325.433 94.544C326.488 94.865 327.487 95.3459 328.396 95.97C329.353 96.6547 330.211 97.4681 330.945 98.3872C331.64 99.281 332.445 100.083 333.342 100.774C334.204 101.345 335.194 101.693 336.224 101.785C337.101 101.88 337.987 101.782 338.822 101.499C339.657 101.216 340.42 100.755 341.058 100.147C341.923 99.3165 342.549 98.2684 342.869 97.1128C343.081 96.2835 343.081 95.7981 343.162 95.7981Z" fill="#455A64"/>
<path d="M321.206 109.278C321.055 109.703 319.497 109.5 317.677 109.723C315.856 109.945 314.38 110.441 314.137 110.067C314.026 109.885 314.278 109.48 314.875 109.055C315.669 108.553 316.568 108.239 317.502 108.135C318.436 108.032 319.381 108.142 320.266 108.459C320.913 108.752 321.277 109.086 321.206 109.278Z" fill="#263238"/>
<path d="M335.526 110.582C335.253 110.936 334.181 110.582 332.896 110.582C331.612 110.582 330.509 110.825 330.256 110.451C330.155 110.269 330.327 109.915 330.803 109.581C331.439 109.168 332.189 108.967 332.947 109.004C333.7 109.022 334.431 109.269 335.04 109.712C335.495 110.046 335.647 110.41 335.526 110.582Z" fill="#263238"/>
<path d="M291.483 216.391C292.029 217.332 288.034 203.871 288.034 203.871L284.686 216.169L259.857 216.351C259.857 216.351 273.885 170.496 280.55 164.094C289.247 155.74 305.551 155.285 305.551 155.285L315.31 163.609L330.723 155.69L331.29 155.75C336.343 156.372 341.163 158.234 345.323 161.17C349.482 164.106 352.85 168.026 355.127 172.579L371.845 215.896H349.777L345.064 203.112L346.642 215.896" fill="#FCBD85"/>
<path d="M297.652 156.278L320.024 207.169L331.331 155.752C331.331 155.752 328.195 155.57 323.715 155.398C321.237 155.307 318.345 165.107 315.351 165.057C313.43 165.057 311.478 155.115 309.546 155.125C307.109 155.125 304.732 155.125 302.568 155.287C300.686 155.388 299.038 156.146 297.652 156.278Z" fill="#FAFAFA"/>
<path d="M301.859 156.751V152.078C301.859 152.078 315.189 152.26 315.422 162.93C315.422 162.93 317.313 152.412 328.074 152.078L328.761 155.658L325.727 167.926L317.96 173.094H307.493L303.164 167.4L301.859 156.751Z" fill="#FAFAFA"/>
<path d="M319.83 208.524C319.85 208.33 319.894 208.14 319.962 207.958C320.131 207.42 320.348 206.899 320.609 206.4C321.04 205.617 321.57 204.893 322.187 204.246C322.895 203.477 323.744 202.668 324.604 201.707C326.744 199.557 328.612 197.153 330.166 194.547C331.012 192.989 331.499 191.261 331.592 189.49C331.729 187.595 331.18 185.714 330.045 184.191L329.691 183.736H330.277C330.503 183.76 330.73 183.76 330.955 183.736C331.887 183.543 332.717 183.018 333.291 182.259C333.864 181.514 334.23 180.632 334.353 179.7C334.491 177.883 334.352 176.055 333.939 174.279C333.362 170.8 332.836 167.665 332.401 165.005C331.966 162.345 331.653 160.302 331.39 158.755C331.299 158.057 331.218 157.501 331.147 157.046C331.112 156.849 331.095 156.649 331.097 156.449C331.172 156.638 331.226 156.835 331.258 157.036C331.339 157.471 331.461 158.047 331.592 158.715C331.885 160.262 332.28 162.366 332.755 164.945L334.404 174.188C334.848 176.017 334.998 177.905 334.849 179.781C334.721 180.803 334.319 181.771 333.686 182.583C333.036 183.449 332.089 184.044 331.026 184.251C330.76 184.281 330.492 184.281 330.227 184.251L330.449 183.827C331.664 185.446 332.249 187.451 332.098 189.47C331.997 191.318 331.478 193.12 330.581 194.739C328.99 197.369 327.069 199.786 324.867 201.93C323.977 202.881 323.107 203.68 322.389 204.418C321.77 205.025 321.227 205.704 320.771 206.441C320.073 207.745 319.901 208.544 319.83 208.524Z" fill="#263238"/>
<path d="M319.833 208.092C319.675 207.956 319.536 207.799 319.418 207.627L318.275 206.262C317.264 205.078 315.818 203.399 313.967 201.357C312.116 199.314 309.922 196.876 307.666 193.964C306.449 192.466 305.4 190.838 304.541 189.109C303.602 187.18 303.468 184.958 304.167 182.93C304.278 182.657 304.41 182.393 304.561 182.141L304.693 182.525C302.749 181.822 301.02 180.627 299.677 179.056C298.437 177.622 297.465 175.978 296.804 174.202C295.742 171.201 295.318 168.011 295.56 164.836C295.694 162.72 295.947 160.613 296.319 158.526C296.45 157.838 296.551 157.282 296.642 156.837C296.664 156.636 296.711 156.438 296.784 156.25C296.807 156.452 296.807 156.655 296.784 156.857C296.723 157.302 296.653 157.868 296.562 158.556C296.38 160.043 296.066 162.187 295.975 164.857C295.782 167.972 296.229 171.094 297.29 174.03C297.944 175.747 298.896 177.335 300.101 178.722C301.385 180.214 303.028 181.352 304.875 182.029L305.168 182.131L305.006 182.414C304.876 182.644 304.758 182.88 304.652 183.122C304.009 185.02 304.14 187.095 305.017 188.897C305.846 190.596 306.864 192.198 308.051 193.67C310.235 196.573 312.43 199.02 314.24 201.104C316.05 203.187 317.487 204.906 318.427 206.16C318.902 206.777 319.256 207.253 319.489 207.597C319.622 207.749 319.737 207.915 319.833 208.092Z" fill="#263238"/>
<path d="M319.589 216.278C319.361 214.769 319.31 213.238 319.437 211.717C319.397 210.194 319.526 208.671 319.821 207.176C320.088 210.209 320.01 213.262 319.589 216.278Z" fill="#263238"/>
<path d="M287.387 206.905C287.496 206.314 287.641 205.729 287.822 205.156C288.116 204.033 288.54 202.405 288.945 200.372C289.997 195.08 290.405 189.681 290.159 184.291C290.071 181.331 289.671 178.389 288.965 175.513C288.394 173.17 287.321 170.978 285.82 169.091C284.806 167.823 283.556 166.765 282.139 165.976C281.127 165.43 280.49 165.258 280.51 165.207C280.665 165.224 280.818 165.258 280.965 165.308C281.4 165.433 281.823 165.595 282.23 165.794C283.723 166.521 285.046 167.555 286.113 168.828C287.685 170.737 288.821 172.967 289.441 175.361C290.177 178.27 290.594 181.251 290.684 184.251C290.94 189.682 290.478 195.123 289.309 200.433C288.854 202.455 288.379 204.084 288.025 205.196C287.843 205.742 287.681 206.207 287.58 206.46C287.479 206.713 287.408 206.966 287.387 206.905Z" fill="#263238"/>
<path d="M345.259 198.664C345.193 198.103 345.169 197.539 345.188 196.975C345.188 195.883 345.188 194.315 345.087 192.373C344.913 187.32 344.471 182.28 343.762 177.274C342.778 170.63 341.355 164.059 339.504 157.603L339.434 157.34L339.636 157.502C339.999 157.756 340.338 158.043 340.647 158.361C340.259 158.156 339.89 157.915 339.545 157.643L339.686 157.552C341.816 163.948 343.356 170.526 344.288 177.203C345.011 182.229 345.406 187.296 345.471 192.373C345.471 194.325 345.471 195.903 345.401 196.985C345.401 197.548 345.354 198.109 345.259 198.664Z" fill="#263238"/>
<path d="M312.941 156.883C312.941 156.933 312.688 156.883 312.344 157.156C311.894 157.54 311.547 158.03 311.333 158.582C310.37 160.419 309.769 162.424 309.563 164.488L309.492 165.146L309.087 164.61L308.359 163.598C306.67 161.404 305.012 159.553 303.788 158.177C303.083 157.493 302.43 156.756 301.836 155.973C302.647 156.54 303.393 157.195 304.061 157.925C305.751 159.6 307.325 161.387 308.774 163.275L309.512 164.286L309.037 164.407C309.273 162.283 309.963 160.235 311.06 158.4C311.342 157.812 311.783 157.314 312.334 156.964C312.668 156.772 312.951 156.863 312.941 156.883Z" fill="#263238"/>
<path d="M328.588 155.883C328.068 156.761 327.468 157.59 326.798 158.361C325.645 159.857 324.017 161.9 322.196 164.135L321.236 165.309L320.791 165.855V165.147C320.8 163.986 320.716 162.825 320.538 161.678C320.388 160.772 320.065 159.903 319.587 159.119C319.122 158.421 318.532 157.814 317.848 157.329C318.082 157.369 318.303 157.462 318.495 157.602C319.053 157.938 319.532 158.39 319.901 158.927C320.45 159.732 320.829 160.64 321.013 161.597C321.23 162.764 321.338 163.949 321.337 165.137L320.872 164.985L321.832 163.802C323.653 161.567 325.322 159.564 326.555 158.128C327.167 157.322 327.847 156.571 328.588 155.883Z" fill="#263238"/>
<path d="M319.386 205.953C319.264 205.397 319.182 204.832 319.144 204.264C319.012 203.081 318.85 201.533 318.648 199.652C318.254 195.749 317.758 190.358 317.232 184.401C316.706 178.444 316.221 173.054 315.958 169.14C315.826 167.259 315.725 165.701 315.634 164.518C315.585 163.949 315.585 163.377 315.634 162.809C315.758 163.365 315.843 163.929 315.887 164.498C316.008 165.681 316.17 167.228 316.372 169.109C316.767 173.013 317.273 178.404 317.799 184.361C318.324 190.318 318.81 195.708 319.063 199.612C319.194 201.503 319.305 203.061 319.386 204.244C319.435 204.813 319.435 205.384 319.386 205.953Z" fill="#263238"/>
<path d="M319.416 172.105C319.416 172.055 319.79 171.802 320.336 172.166C320.493 172.274 320.622 172.417 320.714 172.584C320.805 172.75 320.856 172.936 320.862 173.127C320.839 173.366 320.747 173.594 320.596 173.782C320.445 173.969 320.243 174.109 320.014 174.183C319.785 174.257 319.54 174.263 319.307 174.199C319.075 174.135 318.867 174.005 318.708 173.824C318.6 173.668 318.531 173.489 318.506 173.301C318.482 173.112 318.502 172.921 318.566 172.742C318.799 172.125 319.284 172.085 319.274 172.146C319.264 172.206 319.001 172.378 318.93 172.833C318.906 172.953 318.909 173.076 318.936 173.195C318.964 173.314 319.018 173.425 319.092 173.521C319.188 173.621 319.311 173.69 319.446 173.721C319.581 173.751 319.721 173.742 319.851 173.693C319.986 173.657 320.108 173.583 320.201 173.478C320.295 173.374 320.356 173.245 320.377 173.106C320.379 172.985 320.355 172.865 320.308 172.754C320.261 172.643 320.192 172.542 320.104 172.459C319.77 172.125 319.426 172.186 319.416 172.105Z" fill="#263238"/>
<path d="M321.358 184.716C321.358 184.655 321.803 184.493 322.258 184.979C322.393 185.119 322.491 185.29 322.544 185.477C322.597 185.664 322.603 185.861 322.562 186.051C322.49 186.29 322.343 186.5 322.142 186.65C321.942 186.799 321.699 186.88 321.449 186.88C321.201 186.903 320.952 186.845 320.74 186.713C320.528 186.582 320.365 186.385 320.276 186.152C320.216 185.966 320.203 185.768 320.238 185.575C320.273 185.383 320.356 185.202 320.478 185.05C320.893 184.534 321.388 184.655 321.348 184.716C321.307 184.776 321.004 184.837 320.792 185.262C320.73 185.37 320.692 185.49 320.681 185.614C320.671 185.738 320.688 185.863 320.731 185.98C320.795 186.107 320.896 186.211 321.021 186.278C321.146 186.345 321.288 186.371 321.429 186.354C321.571 186.358 321.711 186.319 321.831 186.241C321.95 186.164 322.043 186.051 322.096 185.919C322.126 185.799 322.13 185.674 322.109 185.553C322.088 185.431 322.043 185.315 321.975 185.211C321.712 184.766 321.358 184.716 321.358 184.716Z" fill="#263238"/>
<g opacity="0.3">
<path d="M296.339 156.883C294.447 163.608 292.657 171.224 296.177 177.262C297.188 179.082 298.725 180.629 299.717 182.49C301.426 185.676 301.537 189.459 302.599 192.907C304.733 199.896 312.358 206.692 319.59 207.754C315.858 203.213 310.083 197.297 306.644 192.149C305.551 190.807 304.745 189.254 304.278 187.588C303.853 185.717 303.539 183.734 304.783 182.268C299.949 181.519 297.198 176.523 296.328 171.709C295.525 166.869 295.728 161.914 296.925 157.156" fill="black"/>
</g>
<g opacity="0.3">
<path d="M345.458 192.653C344.254 199.874 345.063 209.34 349.503 215.166C351.132 207.237 350.323 196.87 345.458 190.367" fill="black"/>
</g>
<path d="M227.273 104.109H108.398V302.72H227.273V104.109Z" fill="#F5F5F5"/>
<path d="M139.933 221.062L141.207 223.641L144.059 224.056L141.996 226.059L142.481 228.901L139.933 227.566L137.384 228.901L137.88 226.059L135.816 224.056L138.658 223.641L139.933 221.062Z" fill="#FCBD85"/>
<path d="M154.089 221.062L155.364 223.641L158.216 224.056L156.152 226.059L156.638 228.901L154.089 227.566L151.541 228.901L152.026 226.059L149.963 224.056L152.815 223.641L154.089 221.062Z" fill="#FCBD85"/>
<path d="M168.243 221.062L169.517 223.641L172.37 224.056L170.306 226.059L170.792 228.901L168.243 227.566L165.705 228.901L166.19 226.059L164.127 224.056L166.969 223.641L168.243 221.062Z" fill="#FCBD85"/>
<path d="M182.4 221.062L183.674 223.641L186.526 224.056L184.463 226.059L184.948 228.901L182.4 227.566L179.851 228.901L180.337 226.059L178.273 224.056L181.125 223.641L182.4 221.062Z" fill="#FCBD85"/>
<path d="M196.55 221.062L197.824 223.641L200.676 224.056L198.613 226.059L199.098 228.901L196.55 227.566L194.001 228.901L194.497 226.059L192.434 224.056L195.286 223.641L196.55 221.062Z" fill="#FCBD85"/>
<path d="M162.98 244.384C162.98 244.526 153.959 244.647 142.824 244.647C131.689 244.647 122.688 244.485 122.688 244.384C122.688 244.283 131.719 244.121 142.844 244.121C153.969 244.121 162.98 244.192 162.98 244.384Z" fill="#FCBD85"/>
<path d="M213.64 253.095C213.64 253.237 193.514 253.358 168.685 253.358C143.856 253.358 123.73 253.237 123.73 253.095C123.73 252.953 143.856 252.832 168.685 252.832C193.514 252.832 213.64 252.953 213.64 253.095Z" fill="#263238"/>
<path d="M213.64 260.617C213.64 260.758 193.514 260.88 168.685 260.88C143.856 260.88 123.73 260.758 123.73 260.617C123.73 260.475 143.856 260.344 168.685 260.344C193.514 260.344 213.64 260.465 213.64 260.617Z" fill="#263238"/>
<path d="M213.64 268.13C213.64 268.272 193.514 268.393 168.685 268.393C143.856 268.393 123.73 268.272 123.73 268.13C123.73 267.989 143.856 267.867 168.685 267.867C193.514 267.867 213.64 267.989 213.64 268.13Z" fill="#263238"/>
<path d="M213.64 275.657C213.64 275.799 193.514 275.92 168.685 275.92C143.856 275.92 123.73 275.799 123.73 275.657C123.73 275.516 143.856 275.395 168.685 275.395C193.514 275.395 213.64 275.506 213.64 275.657Z" fill="#263238"/>
<path d="M213.641 283.169C213.641 283.321 193.515 283.432 168.686 283.432C143.858 283.432 123.701 283.321 123.701 283.169C123.701 283.018 143.827 282.906 168.656 282.906C193.485 282.906 213.641 283.028 213.641 283.169Z" fill="#263238"/>
<path d="M218.435 114.191H116.035V212.495H218.435V114.191Z" fill="#E0E0E0"/>
<path d="M173.52 162.911C173.52 165.47 173.752 166.957 173.772 169.536C173.734 169.853 173.764 170.175 173.86 170.48C173.956 170.786 174.116 171.067 174.329 171.306C174.552 171.458 174.812 171.545 175.082 171.557C175.352 171.57 175.62 171.507 175.856 171.376C176.324 171.106 176.73 170.741 177.049 170.304C179.887 166.809 181.597 162.535 181.954 158.047C181.993 157.858 181.994 157.663 181.958 157.474C181.921 157.285 181.848 157.105 181.742 156.944C181.337 156.479 180.589 156.651 180.033 156.944C177.264 158.187 174.977 160.3 173.52 162.962" fill="#263238"/>
<path d="M156.328 132.328L156.379 134.876L156.894 173.106C156.944 174.19 157.208 175.255 157.671 176.236C158.135 177.218 158.788 178.098 159.595 178.826C160.401 179.553 161.344 180.113 162.368 180.473C163.392 180.833 164.478 180.986 165.562 180.924C170.366 180.822 174.259 177.111 174.28 172.62C174.28 167.918 174.391 162.962 174.391 162.962C174.391 162.962 180.459 161.95 181.713 154.052C182.33 150.118 182.138 143.665 181.804 138.396C181.734 137.271 181.437 136.172 180.931 135.165C180.425 134.158 179.72 133.264 178.859 132.536C177.998 131.809 176.999 131.263 175.922 130.932C174.845 130.6 173.712 130.49 172.591 130.609L156.328 132.328Z" fill="#FFBE9D"/>
<path d="M178.759 142.883C178.759 143.151 178.652 143.408 178.463 143.598C178.273 143.788 178.016 143.894 177.748 143.894C177.496 143.896 177.253 143.803 177.066 143.635C176.879 143.466 176.761 143.234 176.736 142.984C176.736 142.716 176.843 142.459 177.033 142.269C177.222 142.079 177.479 141.973 177.748 141.973C177.999 141.971 178.242 142.064 178.429 142.232C178.616 142.401 178.734 142.633 178.759 142.883Z" fill="#263238"/>
<path d="M180.407 141.742C180.276 141.883 179.507 141.307 178.385 141.317C177.262 141.327 176.493 141.863 176.362 141.732C176.23 141.6 176.423 141.428 176.776 141.175C177.249 140.85 177.811 140.677 178.385 140.68C178.951 140.675 179.504 140.853 179.962 141.185C180.336 141.448 180.468 141.691 180.407 141.742Z" fill="#263238"/>
<path d="M168.2 142.883C168.2 143.151 168.094 143.408 167.904 143.598C167.715 143.788 167.457 143.894 167.189 143.894C166.937 143.896 166.694 143.803 166.507 143.635C166.32 143.466 166.203 143.234 166.178 142.984C166.178 142.716 166.284 142.459 166.474 142.269C166.664 142.079 166.921 141.973 167.189 141.973C167.441 141.971 167.684 142.064 167.871 142.232C168.058 142.401 168.175 142.633 168.2 142.883Z" fill="#263238"/>
<path d="M169.675 141.955C169.543 142.086 168.775 141.51 167.652 141.52C166.53 141.53 165.761 142.066 165.629 141.935C165.498 141.803 165.69 141.631 166.044 141.378C166.517 141.053 167.078 140.88 167.652 140.883C168.22 140.881 168.773 141.062 169.23 141.399C169.614 141.651 169.736 141.894 169.675 141.955Z" fill="#263238"/>
<path d="M173.63 150.045C174.208 149.865 174.806 149.756 175.41 149.722C175.683 149.722 175.946 149.641 175.997 149.449C176.018 149.164 175.955 148.879 175.815 148.629C175.552 147.952 175.279 147.244 174.986 146.505C174.223 144.706 173.604 142.85 173.135 140.953C174.046 142.684 174.813 144.487 175.431 146.344L176.219 148.478C176.391 148.814 176.441 149.2 176.361 149.57C176.324 149.669 176.263 149.758 176.184 149.829C176.105 149.9 176.009 149.95 175.906 149.974C175.751 150.02 175.591 150.044 175.431 150.045C174.833 150.122 174.228 150.122 173.63 150.045Z" fill="#263238"/>
<path d="M174.39 162.962C170.667 163.02 167.001 162.043 163.801 160.141C163.801 160.141 166.37 165.572 174.278 164.833L174.39 162.962Z" fill="#EB996E"/>
<path d="M173.176 152.676C172.964 152.418 172.692 152.217 172.383 152.09C172.074 151.963 171.739 151.914 171.406 151.948C171.167 151.971 170.934 152.042 170.722 152.157C170.51 152.271 170.323 152.427 170.173 152.616C170.024 152.795 169.935 153.016 169.919 153.248C169.902 153.48 169.959 153.712 170.082 153.91C170.257 154.108 170.487 154.249 170.743 154.314C171 154.379 171.269 154.365 171.518 154.274C172.033 154.091 172.507 153.81 172.913 153.445C173.033 153.352 173.138 153.244 173.227 153.121C173.267 153.061 173.288 152.991 173.288 152.919C173.288 152.847 173.267 152.777 173.227 152.717" fill="#EB996E"/>
<path d="M170.425 150.805C170.597 150.805 170.607 151.978 171.618 152.828C172.63 153.677 173.894 153.536 173.904 153.708C173.914 153.879 173.621 153.93 173.085 153.95C172.392 153.96 171.718 153.724 171.183 153.283C170.663 152.864 170.329 152.257 170.253 151.594C170.222 151.088 170.344 150.795 170.425 150.805Z" fill="#263238"/>
<path d="M168.198 131.672C169.036 131.917 169.755 132.46 170.221 133.199C170.674 133.927 171.181 134.62 171.738 135.272C172.424 135.95 173.308 136.393 174.261 136.539C175.215 136.684 176.19 136.524 177.048 136.081C177.685 136.698 178.524 137.356 179.374 137.093C179.614 136.996 179.826 136.839 179.989 136.637C180.152 136.436 180.261 136.195 180.304 135.94C180.383 135.423 180.305 134.895 180.082 134.423C179.252 132.491 177.118 131.459 175.025 131.055C172.506 130.569 169.903 130.772 167.49 131.641" fill="#263238"/>
<path d="M149.105 212.821C149.479 213.478 146.678 204.032 146.678 204.032L144.332 212.659L126.916 212.79C126.916 212.79 136.757 180.619 141.429 176.129C147.497 170.263 158.966 169.949 158.966 169.949L176.634 170.232H177.029C180.577 170.671 183.961 171.981 186.88 174.046C189.799 176.111 192.161 178.866 193.757 182.065L205.478 212.457H189.994L186.697 203.486L187.8 212.457" fill="#263238"/>
<path d="M184.613 169.191C184.077 167.917 182.135 167.967 181.285 166.885C180.436 165.803 181.174 164.013 181.872 162.668C185.219 156.215 184.906 148.509 184.269 141.288C184.006 138.183 183.692 135.017 182.347 132.186C179.667 126.583 173.184 122.153 165.154 122.517C158.59 122.77 153.594 128.686 150.044 134.218C146.494 139.751 144.603 148.377 145.766 154.88C146.353 158.117 149.812 160.615 149.205 163.841C148.8 165.864 146.677 168.311 147.091 170.344C147.658 173.115 151.683 174.076 154.039 175.654C156.384 177.381 158.58 179.303 160.603 181.398C162.641 183.493 165.098 185.133 167.814 186.212C170.575 187.143 173.882 186.971 176.107 185.12C179.778 182.086 179.424 176.089 182.762 172.711C183.733 171.709 185.169 170.556 184.613 169.191ZM179.434 134.218C180.779 136.241 180.891 138.861 181.204 141.298C181.858 145.371 181.905 149.519 181.346 153.606C180.771 157.716 178.888 161.532 175.976 164.488C174.508 165.943 172.707 167.017 170.729 167.617C168.751 168.216 166.657 168.323 164.628 167.927C160.128 166.916 158.681 162.87 157.407 158.471C156.133 154.071 158.975 149.975 160.239 145.536C161.25 142.107 161.584 137.273 163.799 134.481C166.014 131.69 169.685 131.498 170.767 131.548C170.767 131.538 176.734 130.153 179.434 134.218Z" fill="#FCBD85"/>
<g opacity="0.3">
<path d="M147.498 167.096C150.168 168.542 152.262 170.838 154.436 172.962C156.61 175.085 159.028 177.149 161.971 177.907C164.914 178.666 168.494 177.765 169.96 175.106C165.749 175.718 161.455 174.882 157.781 172.737C154.106 170.591 151.269 167.261 149.733 163.293" fill="black"/>
</g>
<g opacity="0.3">
<path d="M180.853 165.207C180.574 166.259 180.079 167.24 179.398 168.089C178.716 168.937 177.865 169.633 176.899 170.132C176.44 170.319 176.011 170.571 175.624 170.881C175.433 171.039 175.293 171.25 175.223 171.488C175.153 171.726 175.155 171.979 175.23 172.216C175.373 172.455 175.593 172.638 175.855 172.733C176.116 172.829 176.403 172.832 176.666 172.742C177.185 172.538 177.649 172.216 178.021 171.801C179.478 170.395 180.995 168.868 181.409 166.886" fill="black"/>
</g>
<path d="M551.012 213.062C552.904 205.101 547.984 197.114 540.023 195.221C532.062 193.329 524.074 198.249 522.182 206.21C520.29 214.171 525.21 222.159 533.171 224.051C541.132 225.943 549.119 221.024 551.012 213.062Z" fill="#E0E0E0"/>
<path d="M534.311 215.934C534.937 215.224 535.631 214.577 536.384 214.003C537.719 212.87 539.58 211.322 541.663 209.633V210.038L541.562 209.947C539.539 208.167 537.678 206.539 536.364 205.335C535.628 204.725 534.951 204.048 534.341 203.312C535.152 203.825 535.917 204.407 536.627 205.052C538.002 206.185 539.873 207.773 541.926 209.553L542.027 209.633L542.27 209.846L542.017 210.038C539.944 211.727 538.042 213.234 536.657 214.296C535.923 214.908 535.138 215.456 534.311 215.934Z" fill="#263238"/>
<path d="M114.845 213.616C116.727 205.678 111.818 197.718 103.881 195.836C95.9434 193.954 87.9832 198.863 86.1011 206.8C84.2191 214.737 89.1279 222.698 97.0653 224.58C105.003 226.462 112.963 221.553 114.845 213.616Z" fill="#E0E0E0"/>
<path d="M103.473 203.312C102.836 204.012 102.139 204.655 101.39 205.234C100.055 206.377 98.2039 207.924 96.1205 209.613V209.209L96.2317 209.3C98.2544 211.08 100.115 212.708 101.42 213.912C102.156 214.521 102.834 215.198 103.443 215.934C102.626 215.422 101.858 214.836 101.147 214.185C99.7715 213.062 97.9005 211.474 95.8575 209.694L95.7463 209.603L95.5137 209.401L95.7564 209.199C97.8398 207.52 99.7411 206.013 101.127 204.951C101.853 204.329 102.639 203.78 103.473 203.312Z" fill="#263238"/>
<path d="M262.813 64.6166C242.958 75.1655 226.677 91.3646 216.028 111.166C205.379 130.967 200.84 153.481 202.986 175.862C205.131 198.242 213.865 219.484 228.082 236.902C242.299 254.319 261.361 267.13 282.858 273.715C300.337 279.061 318.848 280.111 336.82 276.774C354.791 273.438 371.692 265.814 386.087 254.55L481.893 374.395L496.548 362.714L399.933 241.857C411.385 229.406 419.901 214.545 424.853 198.369C426.057 194.44 427.05 190.45 427.826 186.414C431.861 165.352 429.857 143.579 422.046 123.607C414.234 103.635 400.934 86.2796 383.68 73.5442C366.426 60.8088 345.922 53.2128 324.535 51.6332C303.148 50.0535 281.751 54.5545 262.813 64.6166ZM343.934 74.2549C364.936 80.6833 383.06 94.1952 395.217 112.488C407.374 130.782 412.812 152.724 410.604 174.577C408.396 196.43 398.679 216.842 383.109 232.333C367.538 247.825 347.078 257.439 325.214 259.536C303.35 261.634 281.436 256.085 263.204 243.836C244.973 231.587 231.552 213.395 225.23 192.36C218.908 171.325 220.075 148.749 228.532 128.479C236.99 108.208 252.214 91.4968 271.612 81.1928C282.609 75.312 294.664 71.6708 307.078 70.4799C319.492 69.289 332.019 70.5721 343.934 74.2549Z" fill="#455A64"/>
</svg>
