<svg width="476" height="456" viewBox="0 0 476 456" fill="none" xmlns="http://www.w3.org/2000/svg">
<path d="M307.196 322.835C311.133 324.55 320.732 324.33 320.743 324.33C320.754 324.33 318.676 318.041 318.489 317.656C316.389 313.257 309.692 305.967 304.304 306.659C303.406 306.806 302.55 307.139 301.79 307.638C301.03 308.138 300.384 308.791 299.893 309.557C299.402 310.322 299.078 311.183 298.942 312.082C298.806 312.981 298.861 313.898 299.102 314.775C300.004 318.579 303.853 321.372 307.196 322.835Z" fill="#263238"/>
<path d="M310.518 350.655C314.586 351.249 323.163 348.763 323.845 348.565C325.257 353.47 326.995 358.275 329.046 362.949C330.223 365.676 331.499 368.392 332.807 371.097C332.026 369.997 331.312 368.898 331.202 368.799C328.002 365.104 319.656 359.837 314.619 361.981C313.792 362.359 313.054 362.908 312.453 363.59C311.852 364.273 311.401 365.074 311.131 365.943C310.86 366.811 310.775 367.727 310.882 368.63C310.988 369.533 311.284 370.404 311.749 371.185C313.608 374.572 318.061 376.243 321.646 376.771C325.231 377.299 332.642 375.331 334.6 374.781C335.105 375.815 335.611 376.848 336.128 377.882C338.613 382.819 341.109 387.779 343.408 392.65C344.221 394.376 344.958 396.103 345.706 397.829C345.013 396.818 344.419 395.971 344.309 395.85C341.109 392.155 332.763 386.888 327.727 389.032C326.9 389.409 326.162 389.957 325.561 390.638C324.96 391.32 324.51 392.12 324.239 392.988C323.968 393.855 323.883 394.77 323.99 395.672C324.096 396.575 324.392 397.445 324.857 398.225C326.715 401.612 331.169 403.294 334.754 403.811C338.338 404.328 345.046 402.569 347.355 401.92C348.059 403.723 348.774 405.516 349.379 407.286C349.764 408.507 350.225 409.65 350.544 410.893C350.863 412.136 351.226 413.334 351.556 414.533C352.117 416.875 352.711 419.283 353.205 421.57C353.557 423.165 353.865 424.693 354.173 426.233C353.392 424.506 351.776 421.153 351.6 420.889C349.005 416.743 341.549 410.277 336.205 411.63C335.33 411.878 334.517 412.308 333.819 412.892C333.121 413.476 332.553 414.2 332.154 415.017C331.755 415.835 331.532 416.727 331.5 417.637C331.469 418.546 331.63 419.452 331.971 420.295C333.302 423.924 337.47 426.255 340.934 427.322C344.782 428.487 353.282 427.42 354.349 427.322C354.855 429.862 355.328 432.347 355.735 434.689C355.955 435.932 356.153 437.097 356.339 438.263H359.726C359.473 436.921 359.21 435.536 358.924 434.095C358.418 431.511 357.824 428.762 357.186 425.936C359.75 424.913 362.251 423.738 364.675 422.417C367.479 425.452 374.648 429.015 375.583 429.455C374.604 431.852 373.626 434.183 372.68 436.361C372.394 437.02 372.108 437.636 371.833 438.263H375.396L375.66 437.625C376.672 435.195 377.683 432.567 378.717 429.862C379.74 430.082 388.163 431.797 392.089 430.906C395.651 430.104 399.962 428.091 401.557 424.572C401.959 423.757 402.186 422.867 402.222 421.958C402.259 421.05 402.103 420.144 401.766 419.3C401.429 418.456 400.918 417.692 400.266 417.058C399.614 416.424 398.836 415.935 397.983 415.621C392.792 413.873 384.875 419.767 381.972 423.704C381.807 423.935 380.224 426.651 379.267 428.388C379.674 427.289 380.092 426.189 380.498 425.089C381.323 422.89 382.082 420.559 382.918 418.118C383.27 416.919 383.632 415.709 384.017 414.489C384.402 413.268 384.666 411.971 384.996 410.706C385.7 407.737 386.272 404.702 386.777 401.634C388.757 402.349 395.816 404.812 399.467 404.548C403.118 404.284 407.681 402.954 409.793 399.721C410.312 398.974 410.669 398.127 410.84 397.233C411.011 396.34 410.992 395.421 410.784 394.535C410.577 393.65 410.186 392.818 409.636 392.093C409.086 391.369 408.39 390.768 407.594 390.33C402.722 387.823 394.002 392.441 390.538 395.894C390.329 396.103 388.119 398.863 386.931 400.391C387.228 398.544 387.525 396.708 387.756 394.827C388.427 389.395 388.944 383.886 389.482 378.388C389.647 376.705 389.823 375.023 389.999 373.351C390.703 373.615 399.038 376.716 403.129 376.43C406.769 376.166 411.343 374.836 413.444 371.592C413.965 370.846 414.323 369.999 414.495 369.105C414.666 368.211 414.648 367.291 414.441 366.405C414.233 365.519 413.841 364.687 413.29 363.963C412.74 363.238 412.043 362.638 411.244 362.201C406.384 359.694 397.664 364.323 394.2 367.765C393.936 368.029 390.769 371.999 390.01 373.043C390.406 369.349 390.824 365.665 391.396 362.047C392.131 357.163 393.185 352.333 394.552 347.587C394.871 347.719 403.547 350.985 407.747 350.699C411.387 350.435 415.951 349.104 418.062 345.86C418.583 345.114 418.941 344.267 419.113 343.373C419.285 342.48 419.267 341.56 419.059 340.674C418.852 339.788 418.46 338.956 417.909 338.231C417.358 337.507 416.661 336.906 415.863 336.469C411.002 333.962 402.282 338.592 398.818 342.034C398.544 342.309 395.135 346.575 394.574 347.4C394.651 347.125 394.706 346.828 394.794 346.553C396.294 341.833 398.212 337.255 400.523 332.874C401.765 330.443 403.085 328.189 404.427 326.012C405.988 326.793 413.125 330.257 416.929 330.41C420.734 330.564 425.265 329.729 427.717 326.749C428.318 326.067 428.77 325.267 429.043 324.4C429.315 323.533 429.402 322.618 429.299 321.715C429.195 320.812 428.903 319.941 428.441 319.158C427.979 318.375 427.358 317.698 426.617 317.171C422.054 314.147 412.883 317.787 409.023 320.833C408.814 320.998 406.89 322.911 405.515 324.329C406.131 323.362 406.747 322.35 407.363 321.426C409.65 317.985 411.959 314.972 414.026 312.31C415.214 310.815 416.314 309.484 417.325 308.242C419.25 308.242 426.991 307.978 430.378 306.383C433.765 304.789 437.46 301.985 438.262 298.158C438.479 297.275 438.507 296.357 438.346 295.462C438.185 294.568 437.837 293.717 437.326 292.965C436.815 292.214 436.152 291.578 435.379 291.099C434.606 290.62 433.742 290.309 432.841 290.186C427.409 289.603 420.943 297.059 418.953 301.523C418.777 301.908 416.754 308.253 416.885 308.253H417.006C415.973 309.418 414.884 310.683 413.708 312.091C411.574 314.708 409.199 317.677 406.824 321.086C404.229 324.736 401.846 328.532 399.687 332.456C397.253 336.84 395.215 341.433 393.595 346.179C393.595 346.234 393.595 346.3 393.595 346.355C393.595 344.75 393.595 340.263 393.507 339.922C392.88 335.073 388.823 326.078 383.434 325.088C382.536 324.948 381.619 324.999 380.742 325.237C379.865 325.475 379.047 325.895 378.343 326.47C377.639 327.044 377.063 327.76 376.654 328.572C376.245 329.384 376.011 330.272 375.968 331.18C375.66 335.029 378.442 338.878 381.169 341.319C384.237 344.057 392.759 346.707 393.441 346.916C391.913 351.787 390.708 356.753 389.834 361.783C389.318 364.719 388.878 367.677 388.482 370.657C388.482 369.272 388.482 368.029 388.416 367.864C387.778 363.015 383.72 354.02 378.343 353.019C377.444 352.877 376.526 352.927 375.647 353.164C374.769 353.401 373.95 353.821 373.244 354.396C372.539 354.97 371.962 355.687 371.553 356.5C371.143 357.312 370.909 358.202 370.866 359.111C370.558 362.96 373.351 366.808 376.067 369.25C378.783 371.691 386.052 374.132 387.965 374.748C387.833 375.847 387.679 377.035 387.536 378.179C386.876 383.677 386.25 389.175 385.469 394.519C385.194 396.4 384.853 398.258 384.512 400.105C384.512 398.874 384.512 397.84 384.446 397.675C383.819 392.837 379.762 383.842 374.384 382.841C373.486 382.7 372.567 382.749 371.688 382.986C370.81 383.223 369.991 383.643 369.286 384.218C368.58 384.793 368.004 385.51 367.594 386.322C367.184 387.134 366.95 388.024 366.907 388.933C366.599 392.782 369.381 396.631 372.108 399.072C374.835 401.513 381.389 403.712 383.665 404.449C383.27 406.329 382.874 408.221 382.401 410.035C382.049 411.267 381.796 412.465 381.378 413.686C380.96 414.907 380.597 416.094 380.213 417.282C379.388 419.547 378.552 421.878 377.694 424.067C377.112 425.584 376.529 427.025 375.946 428.465C376.243 426.596 376.738 422.901 376.749 422.593C376.691 418.295 375.528 414.084 373.373 410.365C373.393 409.883 373.363 409.4 373.285 408.925C373.174 408.022 372.873 407.152 372.403 406.374C371.932 405.595 371.303 404.924 370.556 404.405C369.808 403.886 368.96 403.531 368.066 403.362C367.172 403.193 366.252 403.215 365.367 403.426C360.078 404.834 356.724 414.115 356.471 418.997C356.471 419.283 356.647 422.428 356.801 424.407C356.537 423.253 356.284 422.131 355.999 420.955C355.449 418.612 354.822 416.292 354.162 413.796C353.799 412.608 353.436 411.399 353.063 410.178C352.689 408.958 352.205 407.726 351.776 406.483C350.731 403.624 349.577 400.776 348.268 397.928C350.313 397.444 357.56 395.597 360.463 393.365C363.366 391.132 366.434 387.504 366.401 383.644C366.423 382.737 366.253 381.837 365.904 381C365.555 380.163 365.034 379.409 364.374 378.787C363.715 378.165 362.932 377.688 362.076 377.388C361.22 377.088 360.311 376.972 359.407 377.046C353.964 377.64 349.247 386.305 348.257 391.088C348.202 391.385 347.872 394.904 347.729 396.84C346.96 395.135 346.19 393.431 345.343 391.737C342.913 386.833 340.307 381.961 337.712 377.079C336.92 375.584 336.15 374.077 335.369 372.582C336.106 372.417 344.76 370.382 348.015 367.908C350.918 365.709 353.986 362.047 353.953 358.187C353.975 357.281 353.805 356.38 353.456 355.543C353.107 354.707 352.586 353.953 351.926 353.33C351.267 352.708 350.484 352.232 349.628 351.932C348.772 351.632 347.863 351.515 346.96 351.59C341.527 352.183 336.799 360.848 335.809 365.632C335.743 365.995 335.281 371.053 335.226 372.34C333.511 369.041 331.84 365.742 330.322 362.443C328.238 357.966 326.452 353.356 324.978 348.642C325.319 348.566 334.358 346.509 337.701 343.958C340.593 341.759 343.672 338.097 343.639 334.237C343.658 333.331 343.488 332.431 343.138 331.595C342.788 330.759 342.267 330.006 341.608 329.384C340.949 328.762 340.166 328.286 339.312 327.985C338.457 327.685 337.548 327.567 336.645 327.639C331.202 328.222 326.484 336.898 325.495 341.682C325.418 342.056 324.934 347.499 324.912 348.489C324.824 348.214 324.714 347.939 324.626 347.664C323.276 342.902 322.349 338.03 321.855 333.105C321.558 330.389 321.415 327.771 321.338 325.22C323.064 325.011 330.927 323.967 334.182 321.987C337.437 320.008 340.78 316.83 341.153 312.981C341.279 312.081 341.213 311.163 340.96 310.29C340.708 309.416 340.273 308.606 339.686 307.912C339.098 307.218 338.371 306.655 337.552 306.261C336.732 305.867 335.839 305.65 334.93 305.625C329.431 305.625 323.812 313.707 322.306 318.358C322.229 318.611 321.679 321.273 321.305 323.219C321.305 322.064 321.25 320.877 321.25 319.777C321.25 315.642 321.525 311.849 321.778 308.495C321.943 306.592 322.13 304.866 322.317 303.26C323.9 302.161 330.234 297.762 332.213 294.518C334.193 291.274 335.666 286.898 334.248 283.302C333.943 282.445 333.461 281.662 332.834 281.004C332.206 280.346 331.447 279.827 330.606 279.482C329.764 279.136 328.86 278.972 327.951 278.999C327.042 279.026 326.149 279.245 325.33 279.64C320.469 282.158 319.194 291.945 319.996 296.762C320.062 297.179 321.899 303.568 321.987 303.513L322.075 303.447C321.866 304.987 321.657 306.647 321.459 308.462C321.129 311.816 320.777 315.609 320.689 319.766C320.533 324.24 320.639 328.72 321.008 333.182C321.392 338.183 322.224 343.141 323.493 347.994C323.508 348.053 323.526 348.112 323.548 348.17C322.68 346.817 320.15 343.111 319.919 342.847C316.731 339.153 308.373 333.896 303.337 336.03C302.51 336.408 301.772 336.956 301.171 337.639C300.57 338.321 300.119 339.123 299.848 339.991C299.578 340.86 299.493 341.775 299.599 342.678C299.706 343.582 300.001 344.452 300.467 345.234C302.457 348.456 306.911 350.127 310.518 350.655Z" fill="#263238"/>
<path d="M404.359 324.923C404.447 324.978 406.108 318.534 406.163 318.116C406.844 313.278 405.294 303.524 400.368 301.149C399.539 300.779 398.642 300.587 397.734 300.586C396.827 300.585 395.93 300.775 395.1 301.143C394.271 301.511 393.528 302.049 392.92 302.722C392.312 303.396 391.852 304.19 391.57 305.052C390.251 308.681 391.922 313.135 393.902 316.203C396.222 319.82 404.359 324.923 404.359 324.923Z" fill="#263238"/>
<path d="M169.784 250.875H24.0605V62.1113H169.784V250.875ZM25.1602 249.775H168.685V63.211H25.1602V249.775Z" fill="#263238"/>
<path d="M165.672 245.553H28.1289V67.4121H165.672V245.553ZM29.3165 244.454H164.572V68.5117H29.2285L29.3165 244.454Z" fill="#263238"/>
<path d="M131.496 201.172H62.3613V111.826H131.496V201.172ZM63.483 200.072H130.396V112.926H63.461L63.483 200.072Z" fill="#263238"/>
<path d="M326.989 170.975L303.248 167.621L306.547 144.045L330.299 147.344L326.989 170.975ZM304.491 166.687L326.054 169.733L329.078 148.334L307.504 145.288L304.491 166.687ZM330.772 135.633L309.054 132.565L312.199 110.286L312.408 110.154C318.161 106.628 323.631 102.661 328.771 98.2891C333.578 94.2374 337.762 89.4982 341.186 84.2247C344.423 79.1982 346.531 73.5294 347.365 67.6092C348.014 63.0237 347.486 59.274 345.793 56.4369C344.1 53.5998 341.306 51.9614 337.447 51.4115C335.975 51.1211 334.46 51.1252 332.99 51.4234C331.52 51.7216 330.123 52.3081 328.881 53.149C327.72 54.0476 326.758 55.177 326.056 56.4659C325.354 57.7548 324.927 59.1752 324.801 60.6375C324.585 62.0716 324.548 63.5269 324.691 64.9701C324.834 66.3886 325.021 67.9171 325.252 69.5116L325.329 70.0944L302.643 71.7768L302.555 71.304C302.085 68.9919 301.802 66.6458 301.709 64.2883C301.623 61.9952 301.741 59.699 302.06 57.4266C303.413 47.8487 307.493 40.5141 314.156 35.6208C320.82 30.7274 329.771 29.0229 340.691 30.5844C351.841 32.1569 360.176 36.4675 365.487 43.3842C370.799 50.3009 372.701 59.4719 371.129 70.6222C370.22 77.5394 367.948 84.2074 364.443 90.2397C360.9 96.1566 356.422 101.46 351.181 105.943C345.555 110.765 339.508 115.074 333.114 118.819L330.772 135.633ZM310.297 131.63L329.837 134.39L332.135 118.094L332.366 117.962C338.784 114.218 344.85 109.901 350.488 105.063C355.637 100.645 360.037 95.4242 363.519 89.6019C366.97 83.7069 369.213 77.1839 370.117 70.4133C371.645 59.5709 369.82 50.6858 364.696 44.022C359.571 37.3582 351.5 33.1796 340.614 31.6401C329.991 30.1446 321.326 31.772 314.882 36.4785C308.438 41.1849 304.458 48.2556 303.149 57.5255C302.839 59.7324 302.725 61.9624 302.808 64.1893C302.892 66.3266 303.135 68.4548 303.534 70.5562L324.075 69.0277C323.888 67.6312 323.723 66.2896 323.591 65.0251C323.441 63.4938 323.482 61.9498 323.712 60.4286C323.857 58.8213 324.333 57.2614 325.111 55.8475C325.889 54.4336 326.951 53.1965 328.232 52.2143C329.586 51.2851 331.112 50.6345 332.721 50.3004C334.329 49.9662 335.988 49.9552 337.601 50.2679C341.812 50.8617 344.88 52.7311 346.728 55.7661C348.575 58.8011 349.136 62.8148 348.454 67.6532C347.606 73.7461 345.441 79.5811 342.109 84.7525C338.627 90.1125 334.373 94.9294 329.485 99.0478C324.366 103.396 318.926 107.352 313.211 110.88L310.297 131.63Z" fill="#263238"/>
<path d="M188.576 224.854C188.576 224.854 117.99 225.789 115.791 230.815C113.591 235.84 103.552 296.705 102.925 317.686C102.298 338.667 101.99 352.511 104.179 355.019C106.367 357.526 140.576 377.297 140.576 377.297C140.576 377.297 124.577 433.456 129.58 435.347C134.583 437.238 165.351 445.068 185.112 445.387C204.872 445.706 224.336 445.695 225.908 445.695C227.481 445.695 277.987 447.575 295.559 443.495C313.132 439.416 318.454 439.097 318.454 432.202C318.454 425.307 314.055 416.807 313.747 415.268C313.439 413.728 325.678 294.78 318.773 265.607C311.867 236.434 302.773 225.129 295.867 223.249C288.962 221.369 239.709 222.622 239.709 222.622L188.576 224.854Z" fill="#DAAA9E"/>
<path d="M252.993 446.74C245.296 446.74 236.708 446.619 227.449 446.355H225.92C222.401 446.355 203.927 446.355 185.124 446.047C165.033 445.729 134.287 437.8 129.405 435.964C128.305 435.568 125.809 434.622 132.704 405.603C135.717 392.825 139.302 380.102 139.962 377.672C136.058 375.418 105.928 357.934 103.806 355.492C101.485 352.842 101.749 340.097 102.409 317.786C103.047 296.53 113.251 235.412 115.319 230.672C117.518 225.581 176.733 224.537 188.599 224.383L239.732 222.183C241.755 222.128 289.215 220.952 296.055 222.832C300.3 223.932 311.043 230.464 319.356 265.586C325.042 289.624 317.894 373.065 315.2 404.47C314.683 410.507 314.309 414.873 314.342 415.302C314.589 416.067 314.875 416.82 315.2 417.556C316.541 420.855 319.048 427.057 319.048 432.313C319.048 438.911 314.573 439.878 301.267 442.88L295.769 444.145C288.182 445.883 273.348 446.74 252.993 446.74ZM270.972 222.832C256.028 222.832 240.018 223.228 239.732 223.239L188.599 225.438C161.437 225.801 117.804 227.637 116.308 231.068C114.252 235.764 104.124 296.596 103.487 317.775C102.937 336.282 102.453 352.27 104.586 354.734C106.335 356.735 131.351 371.404 140.874 376.891C140.98 376.953 141.063 377.048 141.108 377.161C141.154 377.275 141.161 377.4 141.127 377.518C133.309 404.888 126.942 433.786 129.79 434.886C134.639 436.701 165.176 444.574 185.135 444.893C203.949 445.19 222.401 445.201 225.92 445.201H227.482C261.032 446.146 285.169 445.366 295.439 443.001C297.452 442.529 299.299 442.122 300.992 441.737C313.99 438.801 317.916 437.91 317.916 432.236C317.916 427.2 315.464 421.141 314.144 417.886C313.785 417.077 313.477 416.247 313.22 415.401C313.165 415.082 313.319 413.146 314.078 404.294C316.761 372.933 323.898 289.635 318.246 265.74C310.075 231.189 299.783 224.899 295.736 223.789C292.844 223.063 282.211 222.832 270.972 222.832Z" fill="#263238"/>
<path d="M218.837 254.369C218.73 254.371 218.624 254.34 218.534 254.282C218.444 254.223 218.373 254.138 218.331 254.039C218.302 253.973 218.287 253.901 218.285 253.829C218.284 253.756 218.297 253.684 218.323 253.617C218.35 253.549 218.39 253.488 218.44 253.436C218.491 253.384 218.551 253.342 218.617 253.313C221.118 252.245 223.549 251.022 225.897 249.651C225.96 249.615 226.029 249.592 226.101 249.583C226.173 249.573 226.246 249.578 226.316 249.597C226.386 249.616 226.451 249.649 226.509 249.693C226.566 249.737 226.614 249.792 226.65 249.855C226.686 249.918 226.71 249.987 226.719 250.059C226.728 250.131 226.723 250.204 226.705 250.274C226.686 250.344 226.653 250.409 226.609 250.467C226.565 250.524 226.51 250.572 226.447 250.608C224.06 252 221.588 253.241 219.046 254.325C218.981 254.355 218.909 254.37 218.837 254.369Z" fill="#263238"/>
<path d="M229.494 248.629C229.403 248.628 229.314 248.606 229.234 248.564C229.154 248.522 229.085 248.461 229.032 248.387C228.954 248.265 228.927 248.116 228.958 247.974C228.989 247.832 229.075 247.707 229.197 247.628C237.938 241.806 245.612 234.523 251.883 226.098C251.924 226.038 251.977 225.987 252.039 225.949C252.1 225.91 252.168 225.883 252.24 225.871C252.312 225.859 252.385 225.861 252.456 225.877C252.526 225.893 252.593 225.923 252.652 225.966C252.712 226.006 252.762 226.058 252.801 226.119C252.839 226.179 252.866 226.247 252.878 226.317C252.89 226.388 252.888 226.46 252.872 226.53C252.856 226.6 252.826 226.666 252.784 226.724C246.43 235.259 238.656 242.639 229.802 248.541C229.711 248.602 229.603 248.632 229.494 248.629Z" fill="#263238"/>
<path d="M235.96 251.709C235.861 251.708 235.764 251.681 235.679 251.631C235.595 251.581 235.524 251.509 235.476 251.423C235.441 251.36 235.419 251.29 235.411 251.218C235.404 251.146 235.41 251.073 235.431 251.004C235.451 250.934 235.485 250.869 235.53 250.813C235.576 250.757 235.632 250.71 235.696 250.675C241.194 247.728 247.627 238.744 247.693 238.656C247.732 238.591 247.784 238.534 247.846 238.49C247.908 238.445 247.978 238.414 248.053 238.398C248.127 238.383 248.204 238.383 248.279 238.398C248.354 238.414 248.424 238.445 248.486 238.49C248.548 238.534 248.6 238.591 248.639 238.656C248.678 238.722 248.703 238.795 248.712 238.87C248.721 238.946 248.714 239.023 248.692 239.096C248.67 239.169 248.633 239.236 248.584 239.294C248.32 239.668 241.986 248.575 236.213 251.643C236.136 251.687 236.048 251.71 235.96 251.709Z" fill="#263238"/>
<path d="M203.289 340.054C203.173 340.052 203.061 340.014 202.968 339.945C202.875 339.876 202.807 339.779 202.772 339.669L200.925 333.929C200.901 333.86 200.891 333.788 200.896 333.715C200.901 333.643 200.92 333.572 200.953 333.507C200.986 333.443 201.031 333.385 201.087 333.339C201.143 333.292 201.207 333.257 201.276 333.236C201.415 333.191 201.566 333.203 201.696 333.269C201.826 333.335 201.924 333.449 201.969 333.588L203.817 339.328C203.862 339.467 203.85 339.617 203.784 339.747C203.718 339.877 203.603 339.975 203.465 340.021C203.409 340.042 203.349 340.054 203.289 340.054Z" fill="#263238"/>
<path d="M213.363 371.328C213.247 371.328 213.133 371.291 213.04 371.222C212.947 371.152 212.879 371.055 212.846 370.943L204.664 345.553C204.619 345.407 204.634 345.249 204.705 345.114C204.776 344.979 204.898 344.878 205.044 344.832C205.19 344.787 205.347 344.802 205.483 344.873C205.618 344.944 205.719 345.066 205.764 345.212L213.945 370.613C213.988 370.752 213.974 370.902 213.909 371.031C213.843 371.16 213.73 371.259 213.594 371.306L213.363 371.328Z" fill="#263238"/>
<path d="M215.881 371.954C215.775 371.959 215.67 371.928 215.584 371.866C215.522 371.828 215.469 371.778 215.427 371.719C215.385 371.66 215.355 371.593 215.338 371.523C215.322 371.452 215.32 371.379 215.332 371.308C215.344 371.237 215.37 371.168 215.408 371.107L223.567 358.252C223.604 358.19 223.654 358.135 223.713 358.092C223.771 358.049 223.838 358.019 223.909 358.002C223.98 357.986 224.053 357.984 224.125 357.997C224.197 358.009 224.265 358.036 224.326 358.076C224.448 358.155 224.534 358.279 224.567 358.42C224.6 358.562 224.577 358.71 224.502 358.835L216.343 371.701C216.292 371.778 216.224 371.841 216.143 371.885C216.063 371.929 215.973 371.953 215.881 371.954Z" fill="#263238"/>
<path d="M234.386 364.421C234.279 364.425 234.173 364.396 234.082 364.339C233.991 364.283 233.919 364.2 233.875 364.102C233.831 364.004 233.818 363.895 233.836 363.789C233.855 363.683 233.905 363.585 233.979 363.508L253.773 341.229C253.87 341.12 254.008 341.054 254.154 341.046C254.3 341.038 254.444 341.088 254.553 341.186C254.663 341.283 254.729 341.42 254.737 341.567C254.745 341.713 254.695 341.857 254.597 341.966L234.804 364.245C234.751 364.303 234.687 364.349 234.614 364.379C234.542 364.409 234.464 364.424 234.386 364.421Z" fill="#263238"/>
<path d="M225.92 446.312H225.766L183.177 433.897C183.108 433.877 183.043 433.843 182.987 433.798C182.931 433.753 182.884 433.697 182.849 433.633C182.814 433.57 182.792 433.501 182.785 433.429C182.777 433.357 182.783 433.284 182.803 433.215C182.822 433.145 182.855 433.079 182.9 433.022C182.945 432.965 183.001 432.918 183.064 432.883C183.128 432.848 183.198 432.826 183.27 432.819C183.343 432.812 183.416 432.819 183.485 432.841L226.063 445.234C226.209 445.255 226.341 445.332 226.429 445.45C226.518 445.567 226.556 445.715 226.536 445.861C226.515 446.007 226.438 446.138 226.32 446.227C226.203 446.316 226.055 446.354 225.909 446.334L225.92 446.312Z" fill="#263238"/>
<path d="M178.316 432.445H178.162L170.86 430.312C170.715 430.271 170.591 430.174 170.517 430.042C170.442 429.91 170.424 429.754 170.465 429.608C170.505 429.463 170.602 429.339 170.734 429.265C170.866 429.19 171.022 429.172 171.168 429.213L178.47 431.346C178.539 431.366 178.604 431.4 178.66 431.445C178.716 431.49 178.763 431.546 178.798 431.609C178.833 431.673 178.855 431.742 178.862 431.814C178.87 431.886 178.864 431.958 178.844 432.028C178.814 432.146 178.747 432.251 178.651 432.327C178.556 432.402 178.438 432.444 178.316 432.445Z" fill="#263238"/>
<path d="M188.136 85.344C188.136 85.344 165.978 80.2526 161.745 85.9488C157.511 91.6449 165.945 97.0331 164.747 98.2317C163.548 99.4303 137.783 112.604 139.873 125.492C141.962 138.379 159.347 151.553 159.952 155.182C160.557 158.811 139.873 159.976 137.179 165.365C134.485 170.753 130.581 196.22 153.057 204.611C175.534 213.001 203.641 198.915 211.47 198.915C219.3 198.915 227.052 214.199 236.036 213.298C241.509 212.672 246.542 209.996 250.122 205.809C250.122 205.809 259.403 218.697 272.885 213.298C286.366 207.899 301.948 189.029 295.361 183.344C288.775 177.659 281.275 175.855 286.07 170.764C290.864 165.672 300.75 152.191 299.265 140.502C297.781 128.813 283.98 127.922 278.592 124.326C273.204 120.73 284.585 114.737 284.288 104.852C283.991 94.9658 276.789 78.4602 240.248 67.4639C203.707 56.4675 185.728 61.7677 183.924 71.0597C183.361 73.6025 183.451 76.2467 184.188 78.745C184.924 81.2432 186.283 83.5137 188.136 85.344Z" fill="#263238"/>
<path d="M266.376 215.124C257.81 215.124 251.762 208.603 250.145 206.646C246.509 210.682 241.522 213.247 236.125 213.859C231.121 214.365 226.591 210.198 222.225 206.162C218.487 202.709 214.946 199.454 211.504 199.454C209.404 199.454 205.632 200.554 200.859 201.961C188.268 205.645 169.234 211.209 152.904 205.117C145.097 202.203 139.709 197.024 136.805 189.722C132.957 179.914 134.848 168.829 136.718 165.113C138.257 162.045 144.811 160.329 150.595 158.823C154.631 157.723 159.645 156.458 159.392 155.26C159.139 154.061 156.907 151.686 154.235 148.805C148.857 142.988 140.72 134.202 139.324 125.603C137.487 114.331 155.543 103.291 162.35 99.1343C163.296 98.5515 164.197 98.0347 164.34 97.8587C163.983 97.2558 163.579 96.6822 163.131 96.1433C161.305 93.7681 158.248 89.7764 161.294 85.6418C164.989 80.6274 181.088 83.4425 186.498 84.4652C185.004 82.5791 183.951 80.3824 183.416 78.0362C182.881 75.69 182.879 73.254 183.408 70.9066C183.737 69.4917 184.364 68.1633 185.248 67.0103C186.132 65.8573 187.252 64.9063 188.532 64.2208C197.692 58.7226 216.617 59.6683 240.424 66.8929C278.428 78.4171 284.575 95.6155 284.861 104.852C285.004 109.823 282.342 113.792 280.198 116.948C278.736 119.148 277.482 120.995 277.746 122.348C277.83 122.664 277.978 122.959 278.18 123.217C278.383 123.474 278.635 123.687 278.923 123.843C280.758 124.903 282.7 125.766 284.718 126.416C290.953 128.726 298.705 131.607 299.827 140.415C301.3 151.906 292.129 165.124 286.499 171.117C286.084 171.461 285.748 171.89 285.515 172.376C285.281 172.862 285.156 173.393 285.147 173.932C285.322 175.537 287.489 177 290.238 178.836C292.15 180.081 293.986 181.44 295.736 182.905C296.481 183.613 297.025 184.506 297.311 185.494C297.597 186.481 297.615 187.527 297.364 188.524C295.978 196.793 283.739 209.538 273.117 213.815C270.973 214.676 268.685 215.12 266.376 215.124ZM250.156 205.227C250.241 205.229 250.324 205.25 250.399 205.29C250.473 205.331 250.537 205.388 250.585 205.458C250.684 205.579 259.789 217.928 272.71 212.76C283.046 208.625 294.944 196.265 296.275 188.337C296.616 186.292 296.198 184.741 295.021 183.729C293.302 182.303 291.499 180.981 289.622 179.771C286.642 177.769 284.289 176.186 284.047 174.086C284.036 173.384 284.179 172.689 284.465 172.048C284.752 171.408 285.176 170.838 285.707 170.38C290.832 164.882 300.168 151.686 298.738 140.569C297.693 132.431 290.282 129.682 284.333 127.472C282.235 126.793 280.215 125.894 278.307 124.789C277.9 124.552 277.545 124.234 277.263 123.857C276.981 123.479 276.779 123.048 276.668 122.59C276.316 120.797 277.625 118.84 279.285 116.366C281.342 113.309 283.893 109.504 283.761 104.885C283.486 95.9454 277.46 79.2749 240.105 67.9486C216.595 60.812 198 59.8003 189.104 65.1665C187.956 65.773 186.95 66.6173 186.154 67.6431C185.357 68.6689 184.789 69.8527 184.486 71.1156C183.933 73.5762 184.011 76.1365 184.713 78.5588C185.415 80.981 186.717 83.1867 188.499 84.971C188.591 85.0537 188.653 85.1636 188.677 85.2845C188.7 85.4054 188.685 85.5307 188.631 85.6418C188.576 85.7515 188.485 85.8393 188.373 85.8911C188.261 85.943 188.135 85.9558 188.016 85.9277C181.946 84.5311 165.484 81.892 162.218 86.3125C159.667 89.7874 162.218 93.0863 164.043 95.5055C165.143 96.902 165.902 97.9247 165.143 98.6615C164.447 99.1954 163.712 99.6769 162.944 100.102C156.951 103.764 138.752 114.903 140.434 125.449C141.776 133.718 149.77 142.361 155.07 148.079C158.204 151.466 160.272 153.698 160.503 155.106C160.866 157.305 156.665 158.405 150.859 159.911C145.57 161.286 138.994 163.001 137.663 165.629C135.926 169.104 134.1 179.98 137.784 189.338C139.126 192.779 141.206 195.884 143.877 198.436C146.548 200.987 149.746 202.922 153.245 204.106C169.234 210.077 188.049 204.568 200.529 200.928C205.39 199.509 209.217 198.377 211.526 198.377C215.397 198.377 219.091 201.774 222.995 205.37C227.185 209.23 231.517 213.211 236.037 212.76C241.355 212.136 246.245 209.538 249.738 205.48C249.784 205.409 249.846 205.35 249.918 205.306C249.991 205.262 250.072 205.235 250.156 205.227Z" fill="#263238"/>
<path d="M192.128 181.465C192.128 181.465 184.64 228.199 184.343 229.695C184.046 231.19 197.538 244.672 215.792 242.275C226.485 240.99 236.312 235.758 243.349 227.606L237.664 181.168C237.664 181.168 222.082 188.656 212.493 188.36C202.905 188.063 192.128 181.465 192.128 181.465Z" fill="white"/>
<path d="M211.482 243.109C201.671 242.948 192.3 239.009 185.321 232.112C183.639 230.32 183.76 229.748 183.804 229.528C184.09 228.066 191.501 181.793 191.578 181.32C191.594 181.231 191.631 181.147 191.687 181.076C191.742 181.004 191.814 180.947 191.896 180.91C191.978 180.872 192.068 180.854 192.158 180.859C192.248 180.863 192.336 180.889 192.414 180.935C192.524 181.001 203.19 187.456 212.515 187.753C221.84 188.05 237.268 180.693 237.422 180.616C237.5 180.576 237.587 180.555 237.675 180.555C237.763 180.555 237.85 180.576 237.928 180.616C238.003 180.66 238.067 180.72 238.115 180.793C238.162 180.865 238.192 180.948 238.203 181.034L243.899 227.461C243.908 227.533 243.903 227.605 243.884 227.675C243.866 227.745 243.833 227.81 243.789 227.868C236.638 236.105 226.694 241.408 215.869 242.757C214.416 242.97 212.95 243.088 211.482 243.109ZM192.546 182.343C191.523 188.71 185.156 228.407 184.848 229.803C185.079 231.167 197.857 244.098 215.638 241.734C226.093 240.415 235.709 235.333 242.689 227.439L237.213 181.969C234.046 183.431 221.059 189.16 212.482 188.897C204.158 188.644 195.108 183.816 192.546 182.343Z" fill="#263238"/>
<path d="M189.049 206.535L220.597 200.432L192.128 181.463L189.049 206.535Z" fill="#263238"/>
<path d="M189.049 207.085C188.911 207.081 188.78 207.031 188.675 206.942C188.613 206.881 188.566 206.806 188.538 206.724C188.509 206.642 188.5 206.555 188.51 206.469L191.578 181.397C191.589 181.304 191.624 181.216 191.68 181.14C191.736 181.065 191.811 181.006 191.897 180.968C191.98 180.925 192.072 180.902 192.166 180.902C192.26 180.902 192.352 180.925 192.436 180.968L220.894 199.948C220.986 200.006 221.059 200.091 221.102 200.191C221.145 200.291 221.157 200.402 221.136 200.509C221.114 200.616 221.06 200.714 220.982 200.79C220.903 200.867 220.804 200.918 220.696 200.938L189.159 207.041L189.049 207.085ZM192.567 182.42L189.686 205.853L219.168 200.146L192.567 182.42Z" fill="#263238"/>
<path d="M175.479 140.26C175.479 140.26 170.201 133.574 167.781 142.019C165.362 150.464 175.875 160.713 175.875 160.713L175.479 140.26Z" fill="white"/>
<path d="M175.832 161.22C175.702 161.213 175.578 161.163 175.48 161.077C175.04 160.648 164.715 150.542 167.244 141.877C168.047 139.128 169.256 137.577 170.84 137.27C173.413 136.775 175.843 139.799 175.942 139.931C176.019 140.024 176.062 140.14 176.063 140.261L176.415 160.67C176.415 160.778 176.384 160.885 176.325 160.976C176.267 161.068 176.183 161.141 176.085 161.187C176.003 161.21 175.918 161.221 175.832 161.22ZM171.434 138.303C171.309 138.292 171.184 138.292 171.06 138.303C169.96 138.523 168.981 139.854 168.311 142.141C166.408 148.673 172.797 156.502 175.304 159.24L174.974 140.425C174.304 139.722 172.786 138.303 171.39 138.303H171.434Z" fill="#263238"/>
<path d="M251.101 140.26C251.101 140.26 256.379 133.574 258.798 142.019C261.218 150.464 250.705 160.713 250.705 160.713L251.101 140.26Z" fill="white"/>
<path d="M250.749 161.22C250.677 161.231 250.602 161.231 250.529 161.22C250.428 161.178 250.343 161.105 250.284 161.013C250.225 160.921 250.196 160.813 250.2 160.703L250.551 140.294C250.554 140.175 250.593 140.061 250.661 139.964C250.771 139.832 253.213 136.797 255.764 137.303C257.358 137.611 258.568 139.161 259.371 141.91C261.889 150.576 251.563 160.681 251.123 161.11C251.017 161.192 250.883 161.231 250.749 161.22ZM251.64 140.459L251.354 159.274C253.85 156.536 260.25 148.706 258.348 142.174C257.677 139.887 256.72 138.556 255.588 138.337C254.07 138.051 252.333 139.656 251.64 140.459Z" fill="#263238"/>
<path d="M192.061 98.0137C192.061 98.0137 176.952 112.694 174.764 117.092C172.575 121.491 173.455 171.612 175.863 176.473C178.272 181.333 202.354 200.126 206.29 201.654C210.227 203.183 219.211 204.722 226.216 201.215C233.22 197.707 250.078 179.761 251.837 175.164C253.597 170.568 251.397 117.983 250.298 112.98C249.198 107.976 222.763 89.9093 211.547 89.0406C200.33 88.1719 192.061 98.0137 192.061 98.0137Z" fill="white"/>
<path d="M216.167 203.809C212.724 203.827 209.305 203.247 206.061 202.093C201.828 200.444 177.779 181.519 175.337 176.648C172.896 171.776 171.951 121.391 174.238 116.816C176.437 112.418 190.732 98.4635 191.623 97.6388C192.173 96.99 200.42 87.6101 211.559 88.4898C222.435 89.3475 249.574 107.096 250.806 112.781C251.828 117.509 254.104 170.567 252.312 175.284C250.432 180.233 233.365 198.168 226.427 201.675C223.215 203.163 219.705 203.893 216.167 203.809ZM210.119 89.5345C200.046 89.5345 192.525 98.2766 192.448 98.3316C192.294 98.4745 177.383 112.99 175.26 117.234C173.138 121.479 174.073 171.512 176.36 176.076C178.647 180.639 202.487 199.421 206.501 200.983C210.724 202.621 219.389 203.864 225.987 200.565C233.057 197.035 249.717 179.056 251.333 174.811C253.104 170.171 250.795 117.63 249.772 112.946C248.749 108.261 222.545 90.4472 211.505 89.6004C211.054 89.6004 210.603 89.5345 210.152 89.5345H210.119Z" fill="#263238"/>
<path d="M203.937 89.0396C203.937 89.0396 226.568 109.691 242.842 110.482L259.128 111.274C259.128 111.274 223.39 106.513 212.272 82.2988C212.272 82.2988 199.968 72.0062 203.937 89.0396Z" fill="#263238"/>
<path d="M259.129 111.825L242.855 111.033C226.569 110.241 204.532 90.3049 203.598 89.4472C203.518 89.3728 203.461 89.2775 203.433 89.1723C202.124 83.5421 202.41 80.2432 204.313 79.0776C207.128 77.3512 212.109 81.4088 212.659 81.8707C212.725 81.9236 212.778 81.9914 212.813 82.0686C223.677 105.733 258.877 110.659 259.228 110.736C259.37 110.753 259.5 110.824 259.591 110.935C259.681 111.046 259.725 111.187 259.712 111.33C259.696 111.471 259.626 111.6 259.518 111.692C259.41 111.784 259.271 111.831 259.129 111.825ZM204.434 88.7324C206.281 90.3819 227.603 109.164 242.921 109.911L252.114 110.362C241.117 107.591 219.993 100.147 211.878 82.6184C210.449 81.4418 206.677 78.9017 204.895 79.9903C203.884 80.6061 203.037 82.6074 204.434 88.7544V88.7324Z" fill="#263238"/>
<path d="M218.364 152.643C218.226 152.643 218.092 152.591 217.99 152.498C217.888 152.404 217.826 152.275 217.815 152.137L216.066 130.023C216.06 129.951 216.069 129.878 216.091 129.81C216.114 129.741 216.149 129.677 216.196 129.622C216.243 129.566 216.3 129.521 216.365 129.488C216.429 129.455 216.5 129.435 216.572 129.429C216.644 129.424 216.717 129.432 216.786 129.455C216.855 129.477 216.919 129.512 216.974 129.559C217.029 129.606 217.074 129.664 217.107 129.728C217.14 129.793 217.16 129.863 217.166 129.935L218.914 152.049C218.92 152.121 218.912 152.194 218.89 152.263C218.868 152.332 218.832 152.396 218.785 152.451C218.738 152.506 218.68 152.552 218.616 152.585C218.551 152.617 218.481 152.637 218.408 152.643H218.364Z" fill="#263238"/>
<path d="M213.295 163.156C210.238 163.156 207.313 159.857 207.192 159.681C207.141 159.627 207.101 159.564 207.075 159.495C207.048 159.425 207.036 159.351 207.04 159.277C207.043 159.203 207.061 159.13 207.093 159.063C207.125 158.996 207.17 158.936 207.226 158.887C207.281 158.838 207.346 158.801 207.417 158.778C207.487 158.755 207.562 158.746 207.636 158.752C207.71 158.759 207.782 158.78 207.847 158.815C207.913 158.85 207.971 158.897 208.017 158.955C208.017 158.955 210.744 162.056 213.295 162.056C215.396 162.056 218.574 157.965 219.629 156.393C219.668 156.332 219.719 156.28 219.778 156.239C219.838 156.198 219.905 156.17 219.976 156.155C220.047 156.141 220.12 156.141 220.191 156.155C220.261 156.17 220.328 156.198 220.388 156.239C220.509 156.32 220.592 156.445 220.621 156.587C220.65 156.729 220.622 156.877 220.542 156.998C220.124 157.625 216.352 163.156 213.295 163.156Z" fill="#263238"/>
<path d="M209.821 173.294C209.15 173.294 208.469 173.294 207.787 173.228C201.013 172.777 195.966 164.552 195.746 164.2C195.708 164.138 195.683 164.069 195.672 163.997C195.661 163.925 195.665 163.852 195.682 163.782C195.699 163.711 195.73 163.645 195.773 163.586C195.816 163.528 195.871 163.479 195.933 163.441C195.995 163.403 196.064 163.379 196.135 163.368C196.207 163.357 196.28 163.36 196.351 163.377C196.421 163.395 196.488 163.426 196.546 163.469C196.604 163.512 196.654 163.566 196.691 163.628C196.691 163.716 201.662 171.71 207.864 172.128C212.375 172.281 216.884 171.77 221.246 170.611C221.392 170.57 221.548 170.589 221.68 170.663C221.812 170.737 221.909 170.861 221.95 171.007C221.991 171.152 221.972 171.308 221.898 171.44C221.824 171.572 221.7 171.669 221.554 171.71C217.721 172.709 213.782 173.24 209.821 173.294Z" fill="#263238"/>
<path d="M219.212 126.482C219.212 126.482 226.91 120.786 229.934 118.785C232.958 116.783 242.855 120.533 242.855 120.533C242.855 120.533 235.41 116.377 231.473 115.717C227.537 115.057 219.432 120.753 218.773 123.414C218.113 126.075 216.166 125.383 219.212 126.482Z" fill="#263238"/>
<path d="M219.211 126.988C219.149 126.998 219.086 126.998 219.024 126.988C217.573 126.471 217.144 126.317 217.012 125.888C216.988 125.717 217.007 125.542 217.069 125.381C217.13 125.219 217.232 125.076 217.364 124.964C217.794 124.504 218.098 123.939 218.244 123.326C218.958 120.456 227.261 114.529 231.56 115.254C235.552 115.914 242.82 119.961 243.128 120.126C243.248 120.195 243.339 120.307 243.381 120.439C243.424 120.571 243.416 120.714 243.359 120.841C243.301 120.967 243.198 121.067 243.069 121.12C242.941 121.173 242.797 121.175 242.667 121.126C239.994 120.115 232.561 117.828 230.241 119.323C227.217 121.258 219.618 126.911 219.541 126.966C219.435 127.002 219.321 127.01 219.211 126.988ZM218.277 125.503L219.123 125.822C220.432 124.843 226.898 120.071 229.636 118.311C231.208 117.3 234.21 117.597 236.981 118.201C235.198 117.334 233.32 116.677 231.384 116.244C227.744 115.65 219.893 121.17 219.288 123.502C219.132 124.259 218.784 124.963 218.277 125.547V125.503Z" fill="#263238"/>
<path d="M203.444 127.528C203.041 126.574 202.374 125.756 201.52 125.171C200.666 124.586 199.662 124.259 198.627 124.229C194.91 124.009 178.482 128.396 181.33 128.396C184.178 128.396 195.999 128.176 199.067 128.176C200.555 128.269 202.046 128.048 203.444 127.528Z" fill="#263238"/>
<path d="M181.33 128.956C181.176 128.978 181.02 128.956 180.879 128.894C180.737 128.832 180.615 128.732 180.527 128.604C180.476 128.512 180.449 128.408 180.449 128.302C180.449 128.196 180.476 128.092 180.527 128C181.198 126.9 195.592 123.502 198.638 123.689C199.78 123.72 200.888 124.081 201.829 124.729C202.77 125.377 203.503 126.284 203.938 127.34C203.983 127.466 203.981 127.605 203.933 127.73C203.884 127.855 203.793 127.958 203.674 128.022C202.197 128.576 200.621 128.82 199.045 128.736C197.483 128.736 193.657 128.736 189.896 128.846C186.135 128.956 182.726 128.956 181.33 128.956ZM198.308 124.789C195.537 124.789 187.818 126.647 183.826 127.835L189.907 127.747C193.668 127.692 197.505 127.637 199.067 127.637C200.286 127.664 201.504 127.523 202.685 127.219C202.266 126.494 201.668 125.889 200.948 125.464C200.227 125.038 199.409 124.805 198.572 124.789H198.308Z" fill="#263238"/>
<path d="M241.106 140.053C237.802 140.802 234.422 141.171 231.034 141.152C226.635 140.932 222.709 139.613 224.436 141.581C226.162 143.55 229.692 145.309 235.157 144.209C240.622 143.11 242.635 142.021 241.106 140.053Z" fill="#263238"/>
<path d="M201.476 140.053C198.171 140.802 194.791 141.171 191.403 141.152C187.004 140.932 183.09 139.613 184.805 141.581C186.52 143.55 190.061 145.309 195.537 144.209C201.014 143.11 202.971 142.021 201.476 140.053Z" fill="#263238"/>
<path d="M128.613 266.247C128.613 266.247 135.211 229.959 138.202 226.407C141.193 222.855 173.852 196.145 175.645 194.352C177.437 192.56 190.325 173.074 190.93 175.472C191.535 177.869 189.434 188.359 185.53 194.044C181.627 199.73 176.25 206.635 176.25 206.635C176.25 206.635 196.373 211.727 197.473 212.925C198.572 214.124 205.5 229.035 205.863 230.893C206.501 234.104 205.577 237.546 202.872 237.788C200.409 237.997 184.299 229.695 184.299 229.695L171.455 231.454C171.455 231.454 162.174 242.835 155.873 244.936C153.047 245.969 150.142 246.771 147.186 247.333L147.494 269.502L128.613 266.247Z" fill="white"/>
<path d="M147.493 270.096H147.394L128.525 266.797C128.378 266.77 128.248 266.687 128.162 266.566C128.082 266.446 128.051 266.301 128.074 266.159C128.349 264.675 134.726 229.728 137.783 226.066C139.785 223.658 154.366 211.496 165.01 202.622C170.399 198.125 174.665 194.573 175.259 193.968C175.853 193.363 177.535 191.01 179.548 188.206C187.377 177.297 189.697 174.526 190.852 174.746C191.001 174.777 191.137 174.851 191.245 174.958C191.352 175.066 191.426 175.202 191.457 175.351C192.106 177.946 189.939 188.602 185.959 194.375C182.792 198.982 178.613 204.447 177.161 206.317C181.846 207.515 196.713 211.386 197.879 212.541C199.044 213.695 206.027 228.848 206.412 230.806C206.67 231.834 206.72 232.904 206.559 233.951C206.399 234.999 206.031 236.005 205.477 236.909C205.178 237.316 204.796 237.655 204.356 237.903C203.917 238.152 203.429 238.304 202.926 238.349C200.419 238.569 186.431 231.444 184.232 230.278L171.74 232.004C170.52 233.489 162.074 243.496 156.048 245.497C153.335 246.456 150.561 247.239 147.746 247.839L148.043 269.535C148.042 269.616 148.024 269.697 147.99 269.77C147.955 269.844 147.906 269.91 147.845 269.964C147.745 270.044 147.622 270.09 147.493 270.096ZM129.294 265.796L146.888 268.842L146.592 247.333C146.593 247.199 146.643 247.069 146.731 246.969C146.82 246.868 146.942 246.802 147.075 246.784C149.998 246.226 152.87 245.432 155.664 244.408C161.723 242.385 170.894 231.213 170.982 231.103C171.071 230.996 171.196 230.926 171.333 230.905L184.276 229.156C184.386 229.136 184.499 229.155 184.595 229.211C190.775 232.389 201.222 237.404 202.871 237.239C203.222 237.208 203.561 237.101 203.867 236.927C204.172 236.752 204.437 236.513 204.641 236.227C205.103 235.448 205.405 234.585 205.532 233.689C205.658 232.793 205.606 231.88 205.378 231.004C204.982 229.024 198.132 214.3 197.142 213.311C196.207 212.486 183.748 209.099 176.128 207.164C176.04 207.141 175.959 207.096 175.892 207.035C175.825 206.973 175.775 206.895 175.745 206.809C175.716 206.723 175.708 206.631 175.723 206.541C175.738 206.451 175.775 206.367 175.831 206.295C175.831 206.218 181.252 199.345 185.09 193.737C188.928 188.129 190.731 178.705 190.467 175.978C188.796 177.209 183.429 184.698 180.449 188.844C178.327 191.802 176.656 194.133 176.051 194.738C175.446 195.342 171.344 198.762 165.725 203.458C155.708 211.804 140.577 224.428 138.63 226.759C136.288 229.563 131.164 255.372 129.294 265.796Z" fill="#263238"/>
<path d="M205.907 231.454C205.817 231.456 205.728 231.435 205.649 231.393C205.57 231.351 205.504 231.288 205.456 231.212C201.97 226.077 196.164 217.698 195.427 217.115C194.691 216.532 185.399 215.136 177.14 214.025C176.994 214.005 176.863 213.927 176.774 213.809C176.685 213.692 176.647 213.544 176.667 213.398C176.688 213.252 176.765 213.121 176.883 213.032C177 212.943 177.148 212.905 177.294 212.925C181.429 213.486 195.02 215.366 196.12 216.224C197.22 217.082 205.434 229.189 206.358 230.519C206.399 230.579 206.429 230.647 206.444 230.718C206.459 230.789 206.46 230.863 206.447 230.934C206.434 231.006 206.406 231.074 206.367 231.135C206.327 231.196 206.275 231.248 206.215 231.289C206.13 231.372 206.023 231.429 205.907 231.454Z" fill="#263238"/>
<path d="M205.169 235.996C205.09 235.996 205.011 235.979 204.938 235.945C204.866 235.91 204.802 235.86 204.752 235.798C202.398 233.082 197.692 227.727 196.713 226.902C195.922 226.265 186.641 223.889 178.294 221.976C178.153 221.942 178.031 221.854 177.955 221.73C177.879 221.606 177.854 221.458 177.887 221.316C177.903 221.246 177.932 221.179 177.974 221.12C178.016 221.061 178.069 221.011 178.131 220.973C178.193 220.935 178.261 220.91 178.333 220.899C178.404 220.888 178.477 220.891 178.547 220.909C181.461 221.569 196.141 224.967 197.417 226.067C198.693 227.166 205.301 234.754 205.587 235.084C205.635 235.137 205.672 235.2 205.695 235.268C205.718 235.336 205.727 235.408 205.722 235.48C205.717 235.552 205.698 235.622 205.665 235.686C205.632 235.75 205.587 235.807 205.532 235.853C205.434 235.946 205.304 235.997 205.169 235.996Z" fill="#263238"/>
<path d="M205.523 374.231C205.523 374.231 181.99 369.833 181.056 369.525C180.121 369.217 163.461 364.191 161.262 363.246C159.063 362.3 132.397 357.605 131.143 359.485C129.889 361.365 128.636 372.351 128.317 373.285C127.998 374.22 125.491 378.619 126.118 381.137C126.456 383.423 126.456 385.746 126.118 388.032C126.118 388.032 125.799 402.778 129.56 403.097C133.32 403.416 136.784 389.285 136.784 389.285C136.784 389.285 142.117 392.43 153.092 393.057C164.066 393.684 174.744 388.35 174.744 388.35L203.95 395.3L205.523 374.231Z" fill="white"/>
<path d="M129.713 403.646H129.548C125.479 403.305 125.545 390.571 125.589 388.02C125.922 385.782 125.922 383.507 125.589 381.268C125.039 379.069 126.568 375.77 127.393 374.044C127.58 373.626 127.734 373.296 127.799 373.12C127.865 372.944 128.074 371.591 128.272 370.228C129.042 365.159 129.801 360.496 130.681 359.177C132.33 356.713 159.865 362.047 161.47 362.739C163.076 363.432 173.401 366.61 178.339 368.128L181.187 368.996C181.902 369.227 196.175 371.932 205.588 373.692C205.722 373.716 205.842 373.789 205.925 373.896C206.009 374.004 206.049 374.139 206.039 374.275L204.499 395.3C204.495 395.38 204.473 395.458 204.435 395.528C204.397 395.598 204.344 395.659 204.279 395.707C204.216 395.755 204.142 395.788 204.064 395.803C203.986 395.819 203.905 395.816 203.828 395.795L174.842 388.944C173.368 389.637 163.318 394.2 153.091 393.617C144.118 393.1 138.906 390.956 137.179 390.109C136.3 393.507 133.375 403.646 129.713 403.646ZM133.408 359.572C132.791 359.508 132.168 359.595 131.593 359.825C130.802 361.013 129.878 367.116 129.394 370.393C129.119 372.251 128.976 373.153 128.877 373.461C128.778 373.769 128.635 374.033 128.415 374.506C127.712 376.023 126.216 379.201 126.689 381.004C127.045 383.359 127.045 385.754 126.689 388.108C126.568 393.958 127.404 402.403 129.647 402.546C132.066 402.7 134.991 394.442 136.245 389.164C136.267 389.08 136.307 389.003 136.362 388.936C136.417 388.87 136.486 388.816 136.564 388.779C136.641 388.741 136.725 388.721 136.811 388.721C136.897 388.721 136.981 388.741 137.058 388.779C137.058 388.779 142.436 391.858 153.124 392.474C163.813 393.089 174.391 387.877 174.501 387.822C174.619 387.784 174.746 387.784 174.864 387.822L203.455 394.574L204.939 374.692C200.98 373.956 181.781 370.36 180.879 370.052L178.053 369.183C172.709 367.545 162.779 364.499 161.064 363.762C158.919 362.827 139.61 359.572 133.408 359.572Z" fill="#263238"/>
<path d="M124.137 259.846L155.686 265.619L154.509 285.335C154.509 285.335 161.492 288.634 163.614 308.109C165.737 327.583 171.818 372.69 170.3 376.033C168.783 379.376 159.37 393.957 137.498 394.87C115.626 395.783 103.783 375.736 101.661 369.348C99.5386 362.959 110.777 321.172 111.382 317.533C111.987 313.893 115.021 288.942 117.76 284.73C119.447 282.128 121.49 279.774 123.83 277.737L124.137 259.846Z" fill="#DAAA9E"/>
<path d="M136.046 395.465C114.284 395.465 103.057 375.133 101.144 369.547C99.4284 364.411 105.784 338.405 109.193 324.462C110.073 320.855 110.711 318.249 110.843 317.479C110.975 316.709 111.129 315.555 111.37 313.839C112.536 305.482 114.977 288.086 117.297 284.479C118.967 281.898 120.983 279.559 123.291 277.529L123.587 259.858C123.587 259.778 123.605 259.699 123.639 259.627C123.674 259.554 123.723 259.491 123.785 259.44C123.848 259.391 123.921 259.355 123.999 259.336C124.077 259.317 124.158 259.315 124.236 259.33L155.818 265.092C155.952 265.116 156.072 265.189 156.155 265.297C156.239 265.405 156.279 265.539 156.269 265.675L155.081 285.073C156.544 286.018 162.273 290.758 164.164 308.099C164.692 312.959 165.484 319.513 166.363 326.452C169.585 353.195 171.96 373.857 170.85 376.31C170.762 376.485 162.328 394.432 137.564 395.454L136.046 395.465ZM124.676 260.507L124.379 277.771C124.379 277.851 124.362 277.93 124.327 278.002C124.293 278.075 124.243 278.138 124.181 278.189C121.887 280.19 119.882 282.499 118.221 285.051C116.022 288.449 113.526 306.34 112.459 313.971C112.217 315.698 112.03 316.995 111.92 317.644C111.788 318.458 111.151 321.075 110.26 324.693C107.115 337.569 100.572 364.356 102.188 369.206C104.036 374.704 115.439 395.267 137.476 394.333C157.467 393.508 167.584 380.697 169.805 375.826C170.905 373.461 167.606 346.355 165.231 326.562C164.395 319.612 163.603 313.058 163.031 308.198C160.964 289.284 154.289 285.886 154.234 285.853C154.137 285.805 154.057 285.729 154.002 285.635C153.948 285.541 153.921 285.434 153.926 285.326L155.114 266.071L124.676 260.507Z" fill="#263238"/>
<path d="M149.089 283.478C147.302 283.47 145.518 283.356 143.745 283.137C143.601 283.12 143.469 283.047 143.378 282.934C143.288 282.821 143.245 282.676 143.261 282.532C143.28 282.387 143.355 282.255 143.47 282.165C143.585 282.074 143.731 282.033 143.877 282.048C145.606 282.259 147.347 282.369 149.089 282.378C149.235 282.378 149.375 282.436 149.478 282.539C149.581 282.642 149.639 282.782 149.639 282.928C149.639 283.074 149.581 283.213 149.478 283.317C149.375 283.42 149.235 283.478 149.089 283.478Z" fill="#263238"/>
<path d="M136.386 281.873H136.265C131.991 280.925 127.776 279.728 123.641 278.288C123.508 278.235 123.401 278.133 123.342 278.003C123.283 277.872 123.277 277.724 123.326 277.589C123.374 277.455 123.474 277.344 123.602 277.282C123.731 277.219 123.879 277.209 124.015 277.254C128.102 278.679 132.27 279.861 136.496 280.795C136.567 280.811 136.634 280.84 136.693 280.882C136.753 280.924 136.804 280.977 136.842 281.038C136.881 281.099 136.908 281.168 136.92 281.239C136.932 281.311 136.93 281.384 136.914 281.455C136.886 281.574 136.819 281.68 136.723 281.756C136.627 281.832 136.508 281.873 136.386 281.873Z" fill="#263238"/>
<path d="M297.759 269.754L294.625 350.698C294.625 350.698 291.172 351.017 289.918 352.579C289.083 353.661 288.347 354.817 287.719 356.032C287.719 356.032 256.038 357.285 240.973 361.684C232.327 364.143 223.926 367.397 215.88 371.404L202.068 371.108L199.242 407.495L217.76 408.121C217.76 408.121 226.854 413.455 268.266 417.226C309.679 420.998 328.823 421.933 333.211 416.907C337.599 411.882 339.49 404.042 340.117 399.973C340.743 395.904 348.276 370.789 348.276 334.391C348.276 297.993 314.077 245.32 306.545 233.367C299.012 221.414 291.15 222.371 285.839 223.646" fill="#DAAA9E"/>
<path d="M315.65 420.888C305.148 420.888 289.776 419.723 268.223 417.765C229.23 414.214 218.871 409.331 217.639 408.66L199.264 408.034C199.189 408.034 199.115 408.019 199.046 407.988C198.977 407.958 198.916 407.913 198.866 407.856C198.816 407.8 198.778 407.734 198.756 407.662C198.734 407.59 198.727 407.514 198.737 407.44L201.519 371.108C201.527 370.967 201.591 370.835 201.696 370.74C201.801 370.646 201.938 370.596 202.079 370.602L215.748 370.91C223.796 366.928 232.187 363.681 240.82 361.211C254.961 357.087 284.013 355.713 287.378 355.548C287.984 354.388 288.69 353.284 289.49 352.249C290.589 350.874 293.052 350.38 294.097 350.226L297.209 269.743C297.209 269.67 297.224 269.598 297.253 269.531C297.282 269.463 297.325 269.403 297.379 269.354C297.433 269.304 297.496 269.266 297.565 269.242C297.635 269.218 297.708 269.209 297.781 269.215C297.853 269.218 297.924 269.235 297.99 269.266C298.055 269.296 298.114 269.339 298.163 269.392C298.212 269.445 298.25 269.507 298.275 269.575C298.3 269.643 298.312 269.715 298.309 269.787L295.175 350.731C295.17 350.864 295.117 350.991 295.026 351.088C294.935 351.185 294.812 351.246 294.68 351.259C293.778 351.336 291.26 351.798 290.347 352.931C289.541 353.985 288.827 355.107 288.214 356.285C288.171 356.375 288.105 356.451 288.021 356.505C287.938 356.56 287.841 356.59 287.741 356.593C287.433 356.593 255.951 357.89 241.128 362.223C232.52 364.685 224.154 367.924 216.133 371.9C216.047 371.942 215.953 371.965 215.858 371.965L202.574 371.669L199.836 406.967L217.771 407.572C217.864 407.579 217.953 407.605 218.035 407.649C218.123 407.649 227.646 412.982 268.322 416.677C309.558 420.427 328.648 421.295 332.804 416.545C337.544 411.135 339.182 402.425 339.578 399.885C339.677 399.193 339.963 398.005 340.381 396.191C345.251 375.951 347.716 355.208 347.726 334.391C347.726 311.145 333.992 277.694 306.919 234.973L306.083 233.664C298.265 221.282 289.951 223.24 285.971 224.174C285.828 224.208 285.678 224.184 285.552 224.108C285.427 224.032 285.336 223.909 285.3 223.767C285.284 223.697 285.282 223.623 285.294 223.552C285.306 223.48 285.333 223.412 285.371 223.35C285.41 223.289 285.461 223.236 285.52 223.194C285.58 223.153 285.647 223.123 285.718 223.108C292.173 221.59 299.76 221.59 307.018 233.07L307.843 234.39C335.037 277.276 348.826 310.936 348.826 334.391C348.813 355.292 346.34 376.12 341.458 396.443C341.052 398.159 340.766 399.401 340.667 400.05C340.26 402.667 338.566 411.629 333.629 417.271C331.419 419.789 325.822 420.888 315.65 420.888Z" fill="#263238"/>
<path d="M294.625 351.248C294.529 351.25 294.434 351.225 294.35 351.177C294.267 351.128 294.199 351.058 294.152 350.973C294.089 350.865 294.064 350.739 294.082 350.615C294.1 350.491 294.16 350.377 294.251 350.291L312.45 333.357C312.501 333.306 312.56 333.265 312.627 333.237C312.693 333.21 312.764 333.195 312.835 333.195C312.907 333.195 312.978 333.21 313.044 333.237C313.11 333.265 313.17 333.306 313.22 333.357C313.272 333.408 313.313 333.469 313.34 333.536C313.368 333.603 313.383 333.675 313.383 333.747C313.383 333.82 313.368 333.892 313.34 333.959C313.313 334.026 313.272 334.087 313.22 334.138L296.726 349.533L313.759 344.584C313.905 344.544 314.061 344.562 314.193 344.637C314.325 344.711 314.422 344.834 314.463 344.98C314.504 345.126 314.485 345.282 314.411 345.414C314.336 345.546 314.213 345.643 314.067 345.684L294.812 351.27L294.625 351.248Z" fill="#263238"/>
<path d="M319.905 343.913C319.759 343.932 319.612 343.892 319.496 343.803C319.379 343.713 319.303 343.581 319.284 343.435C319.265 343.289 319.305 343.142 319.394 343.025C319.484 342.909 319.616 342.832 319.762 342.813L325.843 341.054C325.913 341.032 325.986 341.025 326.058 341.032C326.13 341.039 326.2 341.061 326.264 341.096C326.328 341.131 326.383 341.178 326.428 341.235C326.473 341.292 326.506 341.358 326.525 341.428C326.566 341.568 326.549 341.718 326.479 341.846C326.409 341.974 326.291 342.069 326.151 342.11L320.059 343.869C320.012 343.895 319.959 343.91 319.905 343.913Z" fill="#263238"/>
<path d="M315.958 361.287H315.76C307.777 358.208 287.884 356.624 287.676 356.613C287.603 356.607 287.533 356.587 287.468 356.554C287.404 356.521 287.347 356.476 287.3 356.421C287.253 356.366 287.217 356.302 287.195 356.233C287.172 356.164 287.164 356.092 287.17 356.019C287.176 355.947 287.195 355.877 287.228 355.812C287.261 355.748 287.307 355.69 287.362 355.643C287.417 355.596 287.481 355.561 287.55 355.538C287.619 355.516 287.691 355.508 287.764 355.513C288.588 355.579 308.019 357.13 316.156 360.253C316.228 360.266 316.297 360.293 316.359 360.333C316.421 360.372 316.474 360.424 316.516 360.484C316.558 360.544 316.587 360.612 316.603 360.684C316.619 360.755 316.62 360.829 316.607 360.902C316.594 360.974 316.567 361.043 316.527 361.105C316.488 361.166 316.436 361.22 316.376 361.261C316.316 361.303 316.248 361.333 316.176 361.349C316.104 361.364 316.03 361.366 315.958 361.353V361.287Z" fill="#263238"/>
<path d="M321.61 377.607C321.525 377.607 321.441 377.586 321.365 377.548C321.288 377.51 321.222 377.455 321.17 377.387C320.345 376.288 319.444 375.287 318.487 374.286C318.399 374.179 318.354 374.043 318.362 373.904C318.37 373.766 318.431 373.636 318.531 373.54C318.631 373.444 318.764 373.389 318.902 373.387C319.041 373.385 319.176 373.435 319.279 373.528C320.252 374.543 321.173 375.608 322.039 376.717C322.129 376.831 322.17 376.975 322.154 377.12C322.137 377.264 322.064 377.396 321.951 377.486C321.853 377.562 321.734 377.604 321.61 377.607Z" fill="#263238"/>
<path d="M315.046 370.909C314.919 370.906 314.796 370.864 314.694 370.789C309.11 366.267 302.669 362.923 295.758 360.958C295.686 360.941 295.618 360.91 295.557 360.868C295.497 360.825 295.446 360.77 295.406 360.707C295.367 360.645 295.34 360.575 295.328 360.502C295.316 360.428 295.318 360.354 295.335 360.281C295.351 360.209 295.382 360.141 295.425 360.081C295.468 360.02 295.522 359.969 295.585 359.93C295.648 359.89 295.718 359.864 295.791 359.852C295.864 359.839 295.939 359.842 296.011 359.858C303.087 361.857 309.682 365.272 315.398 369.898C315.487 369.969 315.552 370.067 315.583 370.178C315.614 370.288 315.61 370.405 315.571 370.513C315.532 370.621 315.461 370.714 315.367 370.779C315.272 370.844 315.16 370.878 315.046 370.876V370.909Z" fill="#263238"/>
<path d="M215.88 405.844C215.734 405.844 215.595 405.786 215.491 405.683C215.388 405.58 215.33 405.44 215.33 405.294L215.067 374.867C215.065 374.795 215.078 374.723 215.104 374.656C215.13 374.589 215.17 374.527 215.22 374.475C215.27 374.423 215.33 374.382 215.396 374.353C215.462 374.324 215.533 374.308 215.605 374.307C215.751 374.307 215.891 374.365 215.994 374.468C216.097 374.571 216.155 374.711 216.155 374.856L216.474 405.283C216.474 405.43 216.417 405.571 216.314 405.676C216.211 405.781 216.071 405.841 215.924 405.844H215.88Z" fill="#263238"/>
<path d="M213.681 398.313H200.485C200.34 398.313 200.2 398.255 200.097 398.152C199.993 398.048 199.936 397.909 199.936 397.763C199.936 397.617 199.993 397.477 200.097 397.374C200.2 397.271 200.34 397.213 200.485 397.213H213.681C213.827 397.213 213.967 397.271 214.07 397.374C214.173 397.477 214.231 397.617 214.231 397.763C214.228 397.908 214.169 398.046 214.067 398.148C213.964 398.251 213.826 398.31 213.681 398.313Z" fill="#263238"/>
<path d="M203.641 380.422C203.5 380.423 203.365 380.369 203.263 380.273C203.161 380.177 203.099 380.045 203.091 379.905C203.086 379.834 203.096 379.762 203.12 379.694C203.144 379.626 203.181 379.564 203.229 379.511C203.277 379.457 203.335 379.414 203.4 379.384C203.465 379.354 203.536 379.336 203.608 379.334L208.941 379.015C209.013 379.01 209.086 379.02 209.154 379.044C209.222 379.067 209.286 379.104 209.34 379.152C209.394 379.2 209.438 379.258 209.47 379.323C209.501 379.389 209.52 379.459 209.524 379.532C209.53 379.677 209.479 379.819 209.383 379.927C209.287 380.036 209.152 380.103 209.007 380.114L203.674 380.422H203.641Z" fill="#263238"/>
</svg>
