<svg width="682" height="664" viewBox="0 0 682 664" fill="none" xmlns="http://www.w3.org/2000/svg">
<path d="M140.913 35.0747C140.913 35.0747 149.282 28.4711 151.425 24.2316C153.253 20.6225 154.577 15.5162 152.686 11.6234C152.27 10.7081 151.667 9.89032 150.914 9.22332C150.162 8.55632 149.278 8.05497 148.319 7.75179C147.361 7.44861 146.349 7.35039 145.35 7.4635C144.351 7.57661 143.387 7.89852 142.521 8.40835C137.367 11.5604 136.815 22.5926 138.123 27.7935C138.234 28.2505 140.834 35.2008 140.913 35.0747Z" fill="#165A2A"/>
<path d="M63.576 90.1223C63.907 90.4375 69.8801 94.7558 69.8801 94.6455C69.8801 94.5352 73.2686 84.5274 72.7012 79.8151C72.2284 75.7962 70.5106 70.8002 66.8227 68.6411C65.9715 68.1012 65.0162 67.7465 64.019 67.5999C63.0218 67.4533 62.0049 67.5181 61.0343 67.79C60.0637 68.062 59.1613 68.5352 58.3855 69.1787C57.6097 69.8222 56.9779 70.6216 56.5312 71.5252C54.0096 77.0413 59.5729 86.4502 63.576 90.1223Z" fill="#165A2A"/>
<path d="M238.862 45.082C238.862 45.082 208.239 76.6971 208.397 115.578C208.555 154.458 239.476 185.758 239.476 185.758C239.476 185.758 270.098 154.143 269.925 115.31C269.752 76.4765 238.862 45.082 238.862 45.082Z" fill="#165A2A"/>
<path d="M195.191 138.792C195.599 138.353 195.973 137.884 196.31 137.389C198.532 134.016 200.439 129.099 199.005 125.064C198.7 124.105 198.197 123.22 197.529 122.467C196.86 121.714 196.041 121.11 195.124 120.694C194.208 120.278 193.214 120.059 192.207 120.052C191.2 120.045 190.203 120.249 189.28 120.652C185.12 122.622 183.071 129.288 182.63 134.741C181.054 134.363 179.478 134.064 178.201 133.859C177.649 132.614 177.098 131.369 176.53 130.124C175.963 128.878 175.506 127.523 174.954 126.215C174.214 124.276 173.552 122.243 172.89 120.21C175.317 119.123 182.346 115.829 184.994 112.913C187.641 109.998 190.336 105.348 189.533 101.14C189.379 100.144 189.017 99.1913 188.47 98.3443C187.923 97.4973 187.204 96.7751 186.36 96.2248C185.515 95.6746 184.564 95.3086 183.568 95.1508C182.572 94.993 181.554 95.047 180.581 95.3091C174.765 97.027 171.345 107.429 171.235 112.835C171.235 113.008 171.235 114.158 171.44 115.53C170.857 113.512 170.258 111.526 169.738 109.478C168.241 103.662 166.901 97.6889 165.53 91.7158C165.246 90.4707 164.947 89.2257 164.647 87.9806C166.696 87.0823 174.371 83.5678 177.129 80.526C179.887 77.4843 182.456 72.9611 181.653 68.7531C181.501 67.7556 181.141 66.8014 180.595 65.9531C180.048 65.1048 179.329 64.3816 178.484 63.8309C177.638 63.2802 176.686 62.9146 175.689 62.7579C174.693 62.6012 173.674 62.6571 172.701 62.9218C166.901 64.6397 163.481 75.0415 163.355 80.4472C163.355 80.6521 163.465 82.0233 163.607 83.5993C162.819 80.3527 162.031 77.1376 161.07 73.9698C159.522 68.5313 157.61 63.2028 155.349 58.0204C156.074 57.7052 165.152 53.7809 168.209 50.3924C170.92 47.3822 173.552 42.8117 172.748 38.6038C172.592 37.6085 172.229 36.6572 171.681 35.8115C171.134 34.9658 170.415 34.2446 169.571 33.6947C168.726 33.1449 167.776 32.7786 166.781 32.6197C165.787 32.4609 164.77 32.5129 163.796 32.7725C157.981 34.5061 154.561 44.8921 154.45 50.3136C154.45 50.6919 154.892 55.6406 155.112 57.4057V57.2166C152.764 52.1783 149.974 47.3579 146.775 42.8118C143.938 38.7423 140.865 34.8428 137.571 31.1334C134.561 27.6504 131.582 24.6559 128.919 22.024C127.485 20.6056 126.129 19.3447 124.853 18.1785H124.979C125.089 18.1785 122.142 11.4173 121.921 11.0076C119.195 6.27949 111.188 -1.14359 105.263 0.148749C104.281 0.390417 103.362 0.836359 102.565 1.45745C101.767 2.07855 101.11 2.86083 100.635 3.75322C100.161 4.64561 99.8801 5.62804 99.8111 6.63635C99.7421 7.64467 99.8866 8.6562 100.235 9.6049C101.559 13.671 106.066 16.4291 109.896 17.7372C113.726 19.0453 122.378 18.4464 124.49 18.2573C125.798 19.4866 127.169 20.8262 128.651 22.3392C131.235 25.0342 134.135 28.0759 137.067 31.6062C137.855 32.5518 138.643 33.592 139.447 34.5849C137.76 33.1822 135.412 31.3068 135.16 31.1492C130.589 28.2335 120.046 25.3021 115.381 29.1791C114.625 29.8453 114.017 30.663 113.597 31.5792C113.178 32.4954 112.956 33.4896 112.945 34.4973C112.935 35.5049 113.136 36.5035 113.537 37.4282C113.938 38.3529 114.528 39.1829 115.27 39.8646C118.312 42.859 123.576 43.2215 127.579 42.6384C131.582 42.0553 139.226 37.3587 140.833 36.3343C142.567 38.5722 144.301 40.9048 145.956 43.4422C149.005 47.9946 151.642 52.8101 153.836 57.8313C153.962 58.1307 154.056 58.4459 154.167 58.7296C153.457 57.8943 149.202 53.5918 148.855 53.3238C144.632 49.9354 134.482 45.8692 129.423 49.2104C128.596 49.7872 127.9 50.5319 127.38 51.396C126.86 52.2601 126.529 53.224 126.407 54.2249C126.285 55.2259 126.375 56.2413 126.672 57.2049C126.969 58.1684 127.466 59.0586 128.131 59.8171C130.826 63.1267 136.011 64.0723 140.061 63.9147C144.789 63.7571 153.899 59.1866 154.245 58.9502C156.312 64.0163 158.045 69.2126 159.431 74.5056C160.471 78.4142 161.369 82.3857 162.236 86.4519C161.29 85.3802 157.319 81.3928 157.003 81.1249C152.78 77.7365 142.63 73.6703 137.555 77.0115C136.73 77.5899 136.036 78.3353 135.518 79.1993C134.999 80.0634 134.669 81.0268 134.547 82.027C134.425 83.0272 134.515 84.0418 134.81 85.005C135.106 85.9683 135.601 86.8586 136.263 87.6181C138.974 90.9278 144.143 91.8734 148.209 91.7158C152.748 91.5582 161.574 87.1611 162.393 86.7829C162.788 88.611 163.181 90.4392 163.56 92.2832C164.805 98.2721 166.018 104.292 167.389 110.187C167.878 112.236 168.414 114.237 168.966 116.239C167.484 114.663 164.726 111.905 164.474 111.7C160.25 108.296 150.085 104.229 145.026 107.571C144.199 108.147 143.502 108.892 142.983 109.756C142.463 110.62 142.131 111.584 142.009 112.585C141.887 113.586 141.978 114.601 142.275 115.565C142.572 116.529 143.069 117.419 143.733 118.177C146.428 121.503 151.613 122.433 155.664 122.291C159.714 122.149 167.216 118.603 169.312 117.563C170.242 120.888 171.219 124.166 172.354 127.35C172.874 128.705 173.3 130.124 173.93 131.4L174.797 133.433L173.615 133.323C173.615 133.323 173.615 135.23 173.725 138.303C169.265 135.151 162.835 132.393 158.658 134.316C157.755 134.762 156.955 135.394 156.312 136.17C155.668 136.946 155.195 137.848 154.923 138.819C154.651 139.789 154.586 140.806 154.733 141.804C154.88 142.801 155.234 143.756 155.774 144.607C156.043 145.061 156.354 145.489 156.704 145.884C157.497 150.588 159.483 155.011 162.472 158.728C162.693 158.981 165.719 161.786 167.311 163.173C165.735 162.353 164.253 161.597 162.677 160.635C160.408 159.375 158.044 157.972 155.743 156.617L152.071 154.268C150.857 153.528 149.785 152.692 148.619 151.873C146.933 150.659 145.262 149.335 143.592 147.996C145.01 145.758 149.076 139.123 149.675 135.246C150.274 131.369 149.943 125.979 146.948 122.921C146.275 122.172 145.451 121.573 144.53 121.163C143.61 120.753 142.613 120.541 141.606 120.541C140.598 120.541 139.602 120.753 138.681 121.163C137.761 121.573 136.937 122.172 136.263 122.921C132.37 127.649 135.254 138.13 138.138 142.716C138.233 142.858 138.942 143.772 139.714 144.828C138.138 143.488 136.562 142.149 134.986 140.73C130.542 136.696 126.129 132.456 121.685 128.232L118.974 125.663C120.188 123.788 124.648 116.633 125.278 112.582C125.909 108.532 125.546 103.315 122.567 100.242C121.893 99.493 121.069 98.894 120.149 98.484C119.229 98.0739 118.232 97.862 117.225 97.862C116.217 97.862 115.221 98.0739 114.3 98.484C113.38 98.894 112.556 99.493 111.882 100.242C107.989 104.97 110.873 115.435 113.757 120.021C113.852 120.195 114.703 121.266 115.664 122.464C113.222 120.21 110.763 117.972 108.241 115.845C103.95 112.162 99.4165 108.771 94.6717 105.695C95.0972 105.033 100.503 96.7433 101.196 92.2359C101.795 88.2328 101.464 82.9689 98.4699 79.9114C97.7974 79.1627 96.9749 78.5639 96.0557 78.154C95.1366 77.7441 94.1415 77.5323 93.1351 77.5323C92.1287 77.5323 91.1336 77.7441 90.2144 78.154C89.2953 78.5639 88.4727 79.1627 87.8002 79.9114C83.8917 84.6395 86.7758 95.12 89.6599 99.7063C89.8648 100.021 92.9853 103.914 94.1358 105.254L93.9625 105.144C89.2298 102.229 84.2454 99.7447 79.069 97.7205C74.4362 95.872 69.7002 94.2934 64.8848 92.9924C60.4404 91.7473 56.3112 90.8963 52.6549 90.1555C50.6533 89.7773 48.8409 89.4779 47.123 89.1942H47.2333C47.3121 89.1942 41.1341 85.1123 40.7086 84.9074C35.8702 82.4961 25.0744 80.6994 20.8349 85.0335C20.1527 85.7751 19.6341 86.6519 19.3127 87.607C18.9914 88.5621 18.8745 89.574 18.9696 90.5772C19.0647 91.5804 19.3697 92.5524 19.8649 93.43C20.36 94.3077 21.0341 95.0714 21.8436 95.6716C25.2005 98.3351 30.4644 98.146 34.4518 97.1373C38.4391 96.1287 45.2476 90.8332 46.9024 89.5094C48.6675 89.8246 50.5588 90.1871 52.6391 90.6283C56.2797 91.4321 60.3774 92.3777 64.7587 93.7804C65.9408 94.1429 67.1858 94.5684 68.3994 94.9467C66.2087 94.726 63.2142 94.4423 62.9148 94.4423C57.509 94.5526 47.1545 97.9096 45.3421 103.725C45.0747 104.696 45.0153 105.713 45.1679 106.709C45.3205 107.704 45.6816 108.657 46.2275 109.503C46.7735 110.35 47.4921 111.071 48.3363 111.621C49.1804 112.171 50.1311 112.536 51.1261 112.693C55.3341 113.512 59.9204 110.912 62.9306 108.217C65.9408 105.522 69.7232 97.3895 70.5112 95.6086C73.1905 96.5069 75.917 97.4998 78.6908 98.7606C83.756 100.874 88.624 103.432 93.2375 106.404C93.5054 106.578 93.7576 106.798 94.0255 106.972C92.9696 106.672 87.0437 105.396 86.6182 105.396C81.2282 104.891 70.5112 107.098 68.1314 112.677C67.7581 113.611 67.5857 114.612 67.6255 115.617C67.6654 116.622 67.9166 117.607 68.3627 118.508C68.8088 119.409 69.4398 120.206 70.2146 120.847C70.9895 121.488 71.8907 121.958 72.8595 122.228C76.9572 123.504 81.7956 121.424 85.0895 119.076C88.8877 116.365 93.9782 107.429 94.1674 107.098C98.6855 110.186 102.997 113.566 107.075 117.216C110.101 119.911 113.064 122.748 116.011 125.632C114.624 125.269 109.124 124.056 108.714 124.056C103.324 123.551 92.6071 125.758 90.2273 131.337C89.8564 132.272 89.6859 133.274 89.7268 134.279C89.7677 135.284 90.0192 136.27 90.4648 137.171C90.9105 138.073 91.5404 138.871 92.314 139.514C93.0875 140.157 93.9874 140.63 94.9554 140.904C99.053 142.18 103.891 140.1 107.185 137.751C110.889 135.104 115.806 126.577 116.232 125.852L120.235 129.793C124.569 134.111 128.903 138.461 133.316 142.621C134.892 144.056 136.468 145.427 137.949 146.798C135.853 146.325 132.023 145.521 131.645 145.49C126.239 145.001 115.538 147.208 113.143 152.787C112.772 153.721 112.602 154.722 112.643 155.726C112.684 156.73 112.935 157.714 113.381 158.615C113.827 159.515 114.457 160.312 115.23 160.953C116.004 161.594 116.903 162.066 117.871 162.337C121.953 163.614 126.807 161.534 130.101 159.185C133.395 156.837 137.697 149.729 138.879 147.728C141.48 149.981 144.112 152.172 146.759 154.205C147.941 155.056 149.092 156.002 150.274 156.758L153.757 159.091C156.184 160.667 158.485 162.007 160.754 163.346C161.905 164.04 163.008 164.654 164.143 165.316C162.094 164.512 158.832 163.299 158.516 163.22C153.268 161.912 142.331 162.464 139.131 167.617C138.623 168.488 138.305 169.455 138.196 170.457C138.087 171.459 138.191 172.473 138.5 173.432C138.81 174.391 139.318 175.274 139.991 176.024C140.665 176.774 141.489 177.373 142.41 177.783C146.255 179.674 151.361 178.35 155.018 176.522C158.989 174.504 164.978 167.066 165.703 166.183C168.493 167.759 171.219 169.335 173.788 170.659C180.66 174.347 186.664 177.278 191.314 179.453C206.443 192.534 227.735 193.984 227.735 193.984C227.735 193.984 228.854 168.484 213.851 151.699C208.645 146.09 202.276 141.684 195.191 138.792ZM168.193 163.646C168.666 162.605 172.291 154.505 172.543 149.934C173.378 149.777 174.229 149.603 175.049 149.414C176.601 157.477 179.822 165.127 184.505 171.872C181.747 170.564 178.768 169.114 175.616 167.507C173.189 166.309 170.715 165.017 168.193 163.646Z" fill="#165A2A"/>
<path d="M306.757 133.906C306.757 133.906 281.241 134.694 265.623 150.912C250.004 167.129 250.209 192.66 250.209 192.66C250.209 192.66 275.725 191.872 291.328 175.655C306.93 159.438 306.757 133.906 306.757 133.906Z" fill="#165A2A"/>
<g opacity="0.5">
<path d="M140.913 35.0747C140.913 35.0747 149.282 28.4711 151.425 24.2316C153.253 20.6225 154.577 15.5162 152.686 11.6234C152.27 10.7081 151.667 9.89032 150.914 9.22332C150.162 8.55632 149.278 8.05497 148.319 7.75179C147.361 7.44861 146.349 7.35039 145.35 7.4635C144.351 7.57661 143.387 7.89852 142.521 8.40835C137.367 11.5604 136.815 22.5926 138.123 27.7935C138.234 28.2505 140.834 35.2008 140.913 35.0747Z" fill="white"/>
<path d="M63.576 90.1223C63.907 90.4375 69.8801 94.7558 69.8801 94.6455C69.8801 94.5352 73.2686 84.5274 72.7012 79.8151C72.2284 75.7962 70.5106 70.8002 66.8227 68.6411C65.9715 68.1012 65.0162 67.7465 64.019 67.5999C63.0218 67.4533 62.0049 67.5181 61.0343 67.79C60.0637 68.062 59.1613 68.5352 58.3855 69.1787C57.6097 69.8222 56.9779 70.6216 56.5312 71.5252C54.0096 77.0413 59.5729 86.4502 63.576 90.1223Z" fill="white"/>
<path d="M238.862 45.082C238.862 45.082 208.239 76.6971 208.397 115.578C208.555 154.458 239.476 185.758 239.476 185.758C239.476 185.758 270.098 154.143 269.925 115.31C269.752 76.4765 238.862 45.082 238.862 45.082Z" fill="white"/>
<path d="M195.191 138.792C195.599 138.353 195.973 137.884 196.31 137.389C198.532 134.016 200.439 129.099 199.005 125.064C198.7 124.105 198.197 123.22 197.529 122.467C196.86 121.714 196.041 121.11 195.124 120.694C194.208 120.278 193.214 120.059 192.207 120.052C191.2 120.045 190.203 120.249 189.28 120.652C185.12 122.622 183.071 129.288 182.63 134.741C181.054 134.363 179.478 134.064 178.201 133.859C177.649 132.614 177.098 131.369 176.53 130.124C175.963 128.878 175.506 127.523 174.954 126.215C174.214 124.276 173.552 122.243 172.89 120.21C175.317 119.123 182.346 115.829 184.994 112.913C187.641 109.998 190.336 105.348 189.533 101.14C189.379 100.144 189.017 99.1913 188.47 98.3443C187.923 97.4973 187.204 96.7751 186.36 96.2248C185.515 95.6746 184.564 95.3086 183.568 95.1508C182.572 94.993 181.554 95.047 180.581 95.3091C174.765 97.027 171.345 107.429 171.235 112.835C171.235 113.008 171.235 114.158 171.44 115.53C170.857 113.512 170.258 111.526 169.738 109.478C168.241 103.662 166.901 97.6889 165.53 91.7158C165.246 90.4707 164.947 89.2257 164.647 87.9806C166.696 87.0823 174.371 83.5678 177.129 80.526C179.887 77.4843 182.456 72.9611 181.653 68.7531C181.501 67.7556 181.141 66.8014 180.595 65.9531C180.048 65.1048 179.329 64.3816 178.484 63.8309C177.638 63.2802 176.686 62.9146 175.689 62.7579C174.693 62.6012 173.674 62.6571 172.701 62.9218C166.901 64.6397 163.481 75.0415 163.355 80.4472C163.355 80.6521 163.465 82.0233 163.607 83.5993C162.819 80.3527 162.031 77.1376 161.07 73.9698C159.522 68.5313 157.61 63.2028 155.349 58.0204C156.074 57.7052 165.152 53.7809 168.209 50.3924C170.92 47.3822 173.552 42.8117 172.748 38.6038C172.592 37.6085 172.229 36.6572 171.681 35.8115C171.134 34.9658 170.415 34.2446 169.571 33.6947C168.726 33.1449 167.776 32.7786 166.781 32.6197C165.787 32.4609 164.77 32.5129 163.796 32.7725C157.981 34.5061 154.561 44.8921 154.45 50.3136C154.45 50.6919 154.892 55.6406 155.112 57.4057V57.2166C152.764 52.1783 149.974 47.3579 146.775 42.8118C143.938 38.7423 140.865 34.8428 137.571 31.1334C134.561 27.6504 131.582 24.6559 128.919 22.024C127.485 20.6056 126.129 19.3447 124.853 18.1785H124.979C125.089 18.1785 122.142 11.4173 121.921 11.0076C119.195 6.27949 111.188 -1.14359 105.263 0.148749C104.281 0.390417 103.362 0.836359 102.565 1.45745C101.767 2.07855 101.11 2.86083 100.635 3.75322C100.161 4.64561 99.8801 5.62804 99.8111 6.63635C99.7421 7.64467 99.8866 8.6562 100.235 9.6049C101.559 13.671 106.066 16.4291 109.896 17.7372C113.726 19.0453 122.378 18.4464 124.49 18.2573C125.798 19.4866 127.169 20.8262 128.651 22.3392C131.235 25.0342 134.135 28.0759 137.067 31.6062C137.855 32.5518 138.643 33.592 139.447 34.5849C137.76 33.1822 135.412 31.3068 135.16 31.1492C130.589 28.2335 120.046 25.3021 115.381 29.1791C114.625 29.8453 114.017 30.663 113.597 31.5792C113.178 32.4954 112.956 33.4896 112.945 34.4973C112.935 35.5049 113.136 36.5035 113.537 37.4282C113.938 38.3529 114.528 39.1829 115.27 39.8646C118.312 42.859 123.576 43.2215 127.579 42.6384C131.582 42.0553 139.226 37.3587 140.833 36.3343C142.567 38.5722 144.301 40.9048 145.956 43.4422C149.005 47.9946 151.642 52.8101 153.836 57.8313C153.962 58.1307 154.056 58.4459 154.167 58.7296C153.457 57.8943 149.202 53.5918 148.855 53.3238C144.632 49.9354 134.482 45.8692 129.423 49.2104C128.596 49.7872 127.9 50.5319 127.38 51.396C126.86 52.2601 126.529 53.224 126.407 54.2249C126.285 55.2259 126.375 56.2413 126.672 57.2049C126.969 58.1684 127.466 59.0586 128.131 59.8171C130.826 63.1267 136.011 64.0723 140.061 63.9147C144.789 63.7571 153.899 59.1866 154.245 58.9502C156.312 64.0163 158.045 69.2126 159.431 74.5056C160.471 78.4142 161.369 82.3857 162.236 86.4519C161.29 85.3802 157.319 81.3928 157.003 81.1249C152.78 77.7365 142.63 73.6703 137.555 77.0115C136.73 77.5899 136.036 78.3353 135.518 79.1993C134.999 80.0634 134.669 81.0268 134.547 82.027C134.425 83.0272 134.515 84.0418 134.81 85.005C135.106 85.9683 135.601 86.8586 136.263 87.6181C138.974 90.9278 144.143 91.8734 148.209 91.7158C152.748 91.5582 161.574 87.1611 162.393 86.7829C162.788 88.611 163.181 90.4392 163.56 92.2832C164.805 98.2721 166.018 104.292 167.389 110.187C167.878 112.236 168.414 114.237 168.966 116.239C167.484 114.663 164.726 111.905 164.474 111.7C160.25 108.296 150.085 104.229 145.026 107.571C144.199 108.147 143.502 108.892 142.983 109.756C142.463 110.62 142.131 111.584 142.009 112.585C141.887 113.586 141.978 114.601 142.275 115.565C142.572 116.529 143.069 117.419 143.733 118.177C146.428 121.503 151.613 122.433 155.664 122.291C159.714 122.149 167.216 118.603 169.312 117.563C170.242 120.888 171.219 124.166 172.354 127.35C172.874 128.705 173.3 130.124 173.93 131.4L174.797 133.433L173.615 133.323C173.615 133.323 173.615 135.23 173.725 138.303C169.265 135.151 162.835 132.393 158.658 134.316C157.755 134.762 156.955 135.394 156.312 136.17C155.668 136.946 155.195 137.848 154.923 138.819C154.651 139.789 154.586 140.806 154.733 141.804C154.88 142.801 155.234 143.756 155.774 144.607C156.043 145.061 156.354 145.489 156.704 145.884C157.497 150.588 159.483 155.011 162.472 158.728C162.693 158.981 165.719 161.786 167.311 163.173C165.735 162.353 164.253 161.597 162.677 160.635C160.408 159.375 158.044 157.972 155.743 156.617L152.071 154.268C150.857 153.528 149.785 152.692 148.619 151.873C146.933 150.659 145.262 149.335 143.592 147.996C145.01 145.758 149.076 139.123 149.675 135.246C150.274 131.369 149.943 125.979 146.948 122.921C146.275 122.172 145.451 121.573 144.53 121.163C143.61 120.753 142.613 120.541 141.606 120.541C140.598 120.541 139.602 120.753 138.681 121.163C137.761 121.573 136.937 122.172 136.263 122.921C132.37 127.649 135.254 138.13 138.138 142.716C138.233 142.858 138.942 143.772 139.714 144.828C138.138 143.488 136.562 142.149 134.986 140.73C130.542 136.696 126.129 132.456 121.685 128.232L118.974 125.663C120.188 123.788 124.648 116.633 125.278 112.582C125.909 108.532 125.546 103.315 122.567 100.242C121.893 99.493 121.069 98.894 120.149 98.484C119.229 98.0739 118.232 97.862 117.225 97.862C116.217 97.862 115.221 98.0739 114.3 98.484C113.38 98.894 112.556 99.493 111.882 100.242C107.989 104.97 110.873 115.435 113.757 120.021C113.852 120.195 114.703 121.266 115.664 122.464C113.222 120.21 110.763 117.972 108.241 115.845C103.95 112.162 99.4165 108.771 94.6717 105.695C95.0972 105.033 100.503 96.7433 101.196 92.2359C101.795 88.2328 101.464 82.9689 98.4699 79.9114C97.7974 79.1627 96.9749 78.5639 96.0557 78.154C95.1366 77.7441 94.1415 77.5323 93.1351 77.5323C92.1287 77.5323 91.1336 77.7441 90.2144 78.154C89.2953 78.5639 88.4727 79.1627 87.8002 79.9114C83.8917 84.6395 86.7758 95.12 89.6599 99.7063C89.8648 100.021 92.9853 103.914 94.1358 105.254L93.9625 105.144C89.2298 102.229 84.2454 99.7447 79.069 97.7205C74.4362 95.872 69.7002 94.2934 64.8848 92.9924C60.4404 91.7473 56.3112 90.8963 52.6549 90.1555C50.6533 89.7773 48.8409 89.4779 47.123 89.1942H47.2333C47.3121 89.1942 41.1341 85.1123 40.7086 84.9074C35.8702 82.4961 25.0744 80.6994 20.8349 85.0335C20.1527 85.7751 19.6341 86.6519 19.3127 87.607C18.9914 88.5621 18.8745 89.574 18.9696 90.5772C19.0647 91.5804 19.3697 92.5524 19.8649 93.43C20.36 94.3077 21.0341 95.0714 21.8436 95.6716C25.2005 98.3351 30.4644 98.146 34.4518 97.1373C38.4391 96.1287 45.2476 90.8332 46.9024 89.5094C48.6675 89.8246 50.5588 90.1871 52.6391 90.6283C56.2797 91.4321 60.3774 92.3777 64.7587 93.7804C65.9408 94.1429 67.1858 94.5684 68.3994 94.9467C66.2087 94.726 63.2142 94.4423 62.9148 94.4423C57.509 94.5526 47.1545 97.9096 45.3421 103.725C45.0747 104.696 45.0153 105.713 45.1679 106.709C45.3205 107.704 45.6816 108.657 46.2275 109.503C46.7735 110.35 47.4921 111.071 48.3363 111.621C49.1804 112.171 50.1311 112.536 51.1261 112.693C55.3341 113.512 59.9204 110.912 62.9306 108.217C65.9408 105.522 69.7232 97.3895 70.5112 95.6086C73.1905 96.5069 75.917 97.4998 78.6908 98.7606C83.756 100.874 88.624 103.432 93.2375 106.404C93.5054 106.578 93.7576 106.798 94.0255 106.972C92.9696 106.672 87.0437 105.396 86.6182 105.396C81.2282 104.891 70.5112 107.098 68.1314 112.677C67.7581 113.611 67.5857 114.612 67.6255 115.617C67.6654 116.622 67.9166 117.607 68.3627 118.508C68.8088 119.409 69.4398 120.206 70.2146 120.847C70.9895 121.488 71.8907 121.958 72.8595 122.228C76.9572 123.504 81.7956 121.424 85.0895 119.076C88.8877 116.365 93.9782 107.429 94.1674 107.098C98.6855 110.186 102.997 113.566 107.075 117.216C110.101 119.911 113.064 122.748 116.011 125.632C114.624 125.269 109.124 124.056 108.714 124.056C103.324 123.551 92.6071 125.758 90.2273 131.337C89.8564 132.272 89.6859 133.274 89.7268 134.279C89.7677 135.284 90.0192 136.27 90.4648 137.171C90.9105 138.073 91.5404 138.871 92.314 139.514C93.0875 140.157 93.9874 140.63 94.9554 140.904C99.053 142.18 103.891 140.1 107.185 137.751C110.889 135.104 115.806 126.577 116.232 125.852L120.235 129.793C124.569 134.111 128.903 138.461 133.316 142.621C134.892 144.056 136.468 145.427 137.949 146.798C135.853 146.325 132.023 145.521 131.645 145.49C126.239 145.001 115.538 147.208 113.143 152.787C112.772 153.721 112.602 154.722 112.643 155.726C112.684 156.73 112.935 157.714 113.381 158.615C113.827 159.515 114.457 160.312 115.23 160.953C116.004 161.594 116.903 162.066 117.871 162.337C121.953 163.614 126.807 161.534 130.101 159.185C133.395 156.837 137.697 149.729 138.879 147.728C141.48 149.981 144.112 152.172 146.759 154.205C147.941 155.056 149.092 156.002 150.274 156.758L153.757 159.091C156.184 160.667 158.485 162.007 160.754 163.346C161.905 164.04 163.008 164.654 164.143 165.316C162.094 164.512 158.832 163.299 158.516 163.22C153.268 161.912 142.331 162.464 139.131 167.617C138.623 168.488 138.305 169.455 138.196 170.457C138.087 171.459 138.191 172.473 138.5 173.432C138.81 174.391 139.318 175.274 139.991 176.024C140.665 176.774 141.489 177.373 142.41 177.783C146.255 179.674 151.361 178.35 155.018 176.522C158.989 174.504 164.978 167.066 165.703 166.183C168.493 167.759 171.219 169.335 173.788 170.659C180.66 174.347 186.664 177.278 191.314 179.453C206.443 192.534 227.735 193.984 227.735 193.984C227.735 193.984 228.854 168.484 213.851 151.699C208.645 146.09 202.276 141.684 195.191 138.792ZM168.193 163.646C168.666 162.605 172.291 154.505 172.543 149.934C173.378 149.777 174.229 149.603 175.049 149.414C176.601 157.477 179.822 165.127 184.505 171.872C181.747 170.564 178.768 169.114 175.616 167.507C173.189 166.309 170.715 165.017 168.193 163.646Z" fill="white"/>
<path d="M306.757 133.906C306.757 133.906 281.241 134.694 265.623 150.912C250.004 167.129 250.209 192.66 250.209 192.66C250.209 192.66 275.725 191.872 291.328 175.655C306.93 159.438 306.757 133.906 306.757 133.906Z" fill="white"/>
</g>
<path d="M240.124 150.345L265.183 127.823L264.111 126.626L240.108 148.201L239.982 118.667L240.124 118.761L261.305 87.7766L259.982 86.8625L239.982 116.113L239.667 45.082H238.059L238.264 93.3084L222.315 79.5024L221.274 80.716L238.28 95.436L238.422 129.919L214.245 108.517L213.189 109.731L238.437 132.063L238.563 163.457L220.392 149.194L219.415 150.471L238.579 165.506L238.674 185.711H240.281L240.124 150.345Z" fill="white"/>
<path d="M217.033 159.043L215.442 158.853L213.424 176.694L202.66 164.669H202.692L199.949 143.077L198.357 143.282L200.8 162.589L174.055 132.691L172.857 133.763L191.013 154.047L179.524 154.188L179.54 155.796L192.432 155.638L205.15 169.87L187.183 169.886V171.493L206.584 171.477L218.152 184.401L205.481 185.173L205.591 186.765L219.524 185.93L227.23 194.55L228.428 193.479L214.858 178.302L217.033 159.043Z" fill="white"/>
<path d="M277.586 165.396L298.925 161.078L298.594 159.502L279.524 163.363L307.325 134.474L306.175 133.355L287.31 152.961L286.301 141.519L284.709 141.661L285.828 154.506L272.59 168.249L271.234 150.329L269.627 150.455L271.092 169.809L259.067 182.307L257.365 169.73L255.758 169.935L257.649 183.788L249.627 192.11L250.777 193.213L264.899 178.556L284.268 179.297L284.331 177.689L266.396 177.011L277.586 165.38V165.396Z" fill="white"/>
<path d="M317.396 621.07L129.691 278.395L0 322.287L42.0641 404.083L39.4006 399.512L31.5205 402.128C30.7359 402.391 30.0175 402.82 29.4143 403.386C28.8112 403.953 28.3377 404.643 28.0263 405.409C27.7149 406.176 27.573 407.001 27.6103 407.827C27.6476 408.654 27.8632 409.462 28.2424 410.198L48.9829 450.528C50.3049 453.107 52.4135 455.198 55.0033 456.499C57.5931 457.799 60.5297 458.242 63.3877 457.762L69.1402 456.801L170.163 653.252L317.396 621.07Z" fill="#2E353A"/>
<path d="M438.655 130.437C436.638 131.539 434.266 131.797 432.059 131.152C429.852 130.508 427.99 129.016 426.882 127.001L422.076 118.223L129.691 278.394L317.396 621.069L609.796 460.914L507.606 274.359C506.505 272.344 506.248 269.974 506.892 267.77C507.536 265.566 509.029 263.707 511.042 262.602C512.041 262.055 512.923 261.317 513.636 260.429C514.349 259.541 514.881 258.521 515.2 257.428C515.519 256.335 515.619 255.189 515.496 254.057C515.372 252.925 515.026 251.828 514.478 250.829L450.412 133.873C449.308 131.859 447.449 130.367 445.245 129.722C443.04 129.078 440.67 129.335 438.655 130.437Z" fill="#DAAA9E" stroke="#2E353A" stroke-linecap="round" stroke-linejoin="round"/>
<path d="M453.2 143.08L215.736 227.73L329.117 545.789L566.581 461.139L453.2 143.08Z" fill="white" stroke="#2E353A" stroke-linecap="round" stroke-linejoin="round"/>
<path d="M453.212 143.092L215.748 227.742L257.518 344.915L494.982 260.265L453.212 143.092Z" fill="white" stroke="#2E353A" stroke-linecap="round" stroke-linejoin="round"/>
<path d="M434.832 263.469C452.564 252.212 457.812 228.712 446.555 210.981C435.298 193.249 411.798 188.001 394.067 199.258C376.335 210.515 371.087 234.015 382.344 251.746C393.601 269.478 417.101 274.727 434.832 263.469Z" fill="#2E353A" stroke="#2E353A" stroke-linecap="round" stroke-linejoin="round"/>
<path d="M427.213 267.236C432.485 265.363 437.278 262.347 441.247 258.404C445.217 254.462 448.266 249.69 450.176 244.431C443.572 229.648 427.434 221.941 412.903 227.095C398.372 232.249 390.76 248.466 394.999 264.084C399.805 266.951 405.185 268.72 410.754 269.265C416.323 269.81 421.943 269.117 427.213 267.236Z" fill="white" stroke="#2E353A" stroke-linecap="round" stroke-linejoin="round"/>
<path d="M424.666 238.749C432.643 231.701 433.397 219.52 426.349 211.542C419.301 203.565 407.12 202.811 399.142 209.859C391.164 216.907 390.411 229.088 397.459 237.066C404.507 245.044 416.688 245.797 424.666 238.749Z" fill="white" stroke="#2E353A" stroke-linecap="round" stroke-linejoin="round"/>
<path d="M334.6 232.379L251.496 262.004L254.899 271.549L338.002 241.925L334.6 232.379Z" fill="white" stroke="#2E353A" stroke-linecap="round" stroke-linejoin="round"/>
<path d="M342.787 255.313L259.684 284.938L263.086 294.483L346.19 264.858L342.787 255.313Z" fill="white" stroke="#2E353A" stroke-linecap="round" stroke-linejoin="round"/>
<path d="M349.58 274.403L266.477 304.027L268.181 308.808L351.284 279.183L349.58 274.403Z" fill="#2E353A"/>
<path d="M353.668 285.872L270.564 315.496L272.268 320.276L355.372 290.652L353.668 285.872Z" fill="#2E353A"/>
<path d="M374.439 344.141L291.336 373.766L293.04 378.546L376.143 348.921L374.439 344.141Z" fill="#2E353A"/>
<path d="M378.176 354.657L295.072 384.281L296.776 389.061L379.88 359.437L378.176 354.657Z" fill="#2E353A"/>
<path d="M381.93 365.161L298.826 394.785L300.53 399.565L383.634 369.941L381.93 365.161Z" fill="#2E353A"/>
<path d="M487.152 303.954L404.049 333.578L405.753 338.358L488.856 308.734L487.152 303.954Z" fill="#2E353A"/>
<path d="M490.906 314.473L407.803 344.098L409.507 348.878L492.61 319.253L490.906 314.473Z" fill="#2E353A"/>
<path d="M494.645 324.981L411.541 354.605L413.245 359.386L496.349 329.761L494.645 324.981Z" fill="#2E353A"/>
<path d="M286.002 364.934L486.614 293.445" stroke="#2E353A" stroke-linecap="round" stroke-linejoin="round"/>
<path d="M393.85 398.586L310.746 428.211L312.45 432.991L395.554 403.367L393.85 398.586Z" fill="#2E353A"/>
<path d="M397.588 409.11L314.484 438.734L316.188 443.515L399.292 413.89L397.588 409.11Z" fill="#2E353A"/>
<path d="M401.34 419.614L318.236 449.238L319.94 454.018L403.044 424.394L401.34 419.614Z" fill="#2E353A"/>
<path d="M506.564 358.407L423.461 388.031L425.165 392.811L508.268 363.187L506.564 358.407Z" fill="#2E353A"/>
<path d="M510.316 368.926L427.213 398.551L428.917 403.331L512.02 373.706L510.316 368.926Z" fill="#2E353A"/>
<path d="M514.055 379.43L430.951 409.055L432.655 413.835L515.759 384.21L514.055 379.43Z" fill="#2E353A"/>
<path d="M305.402 419.387L506.015 347.898" stroke="#2E353A" stroke-linecap="round" stroke-linejoin="round"/>
<path d="M521.544 400.428L324.756 470.578L341.78 518.335L538.568 448.185L521.544 400.428Z" fill="#2E353A" stroke="#2E353A" stroke-linecap="round" stroke-linejoin="round"/>
<path d="M422.117 162.768L190.42 262.121L323.494 572.456L555.191 473.103L422.117 162.768Z" fill="white" stroke="#2E353A" stroke-linecap="round" stroke-linejoin="round"/>
<path d="M422.129 162.771L190.432 262.125L239.456 376.453L471.154 277.099L422.129 162.771Z" fill="white" stroke="#2E353A" stroke-linecap="round" stroke-linejoin="round"/>
<path d="M421.115 273.638C432.326 255.877 427.015 232.39 409.255 221.18C391.494 209.969 368.007 215.279 356.797 233.04C345.586 250.801 350.896 274.287 368.657 285.498C386.418 296.709 409.904 291.399 421.115 273.638Z" fill="#2E353A" stroke="#2E353A" stroke-linecap="round" stroke-linejoin="round"/>
<path d="M403.951 288.309C409.094 286.107 413.688 282.795 417.401 278.61C421.115 274.425 423.857 269.47 425.432 264.101C417.93 249.775 401.335 243.077 387.166 249.161C372.998 255.244 366.41 271.871 371.611 287.19C376.586 289.747 382.065 291.173 387.656 291.366C393.246 291.559 398.81 290.516 403.951 288.309Z" fill="white" stroke="#2E353A" stroke-linecap="round" stroke-linejoin="round"/>
<path d="M399.122 260.471C406.907 253.209 407.33 241.013 400.069 233.228C392.808 225.444 380.611 225.02 372.827 232.282C365.043 239.543 364.619 251.74 371.88 259.524C379.142 267.308 391.338 267.732 399.122 260.471Z" fill="white" stroke="#2E353A" stroke-linecap="round" stroke-linejoin="round"/>
<path d="M309.335 259.328L228.25 294.098L232.244 303.411L313.329 268.641L309.335 259.328Z" fill="white" stroke="#2E353A" stroke-linecap="round" stroke-linejoin="round"/>
<path d="M318.931 281.695L237.846 316.465L241.839 325.779L322.925 291.008L318.931 281.695Z" fill="white" stroke="#2E353A" stroke-linecap="round" stroke-linejoin="round"/>
<path d="M326.929 300.328L245.844 335.098L247.844 339.762L328.929 304.992L326.929 300.328Z" fill="#2E353A"/>
<path d="M331.724 311.511L250.639 346.281L252.639 350.945L333.724 316.175L331.724 311.511Z" fill="#2E353A"/>
<path d="M356.109 368.367L275.023 403.137L277.023 407.801L358.109 373.031L356.109 368.367Z" fill="#2E353A"/>
<path d="M360.505 378.613L279.42 413.383L281.42 418.047L362.505 383.277L360.505 378.613Z" fill="#2E353A"/>
<path d="M364.888 388.886L283.803 423.656L285.803 428.32L366.888 393.55L364.888 388.886Z" fill="#2E353A"/>
<path d="M466.076 321.226L384.99 355.996L386.99 360.66L468.076 325.89L466.076 321.226Z" fill="#2E353A"/>
<path d="M470.466 331.46L389.381 366.23L391.381 370.895L472.466 336.125L470.466 331.46Z" fill="#2E353A"/>
<path d="M474.88 341.726L393.795 376.496L395.795 381.16L476.88 346.39L474.88 341.726Z" fill="#2E353A"/>
<path d="M269.139 394.658L464.881 310.734" stroke="#2E353A" stroke-linecap="round" stroke-linejoin="round"/>
<path d="M378.882 421.503L297.797 456.273L299.797 460.938L380.882 426.168L378.882 421.503Z" fill="#2E353A"/>
<path d="M383.289 431.738L302.203 466.508L304.203 471.172L385.289 436.402L383.289 431.738Z" fill="#2E353A"/>
<path d="M387.685 442.003L306.6 476.773L308.6 481.438L389.685 446.667L387.685 442.003Z" fill="#2E353A"/>
<path d="M488.873 374.343L407.787 409.113L409.787 413.777L490.873 379.007L488.873 374.343Z" fill="#2E353A"/>
<path d="M493.263 384.578L412.178 419.348L414.178 424.012L495.263 389.242L493.263 384.578Z" fill="#2E353A"/>
<path d="M497.646 394.851L416.561 429.621L418.561 434.285L499.646 399.515L497.646 394.851Z" fill="#2E353A"/>
<path d="M291.912 447.787L487.654 363.863" stroke="#2E353A" stroke-linecap="round" stroke-linejoin="round"/>
<path d="M506.447 415.337L314.438 497.672L334.419 544.269L526.428 461.934L506.447 415.337Z" fill="#2E353A" stroke="#2E353A" stroke-linecap="round" stroke-linejoin="round"/>
<path d="M369.133 160.713L157.68 297.98L341.535 581.201L552.989 443.934L369.133 160.713Z" fill="white" stroke="#2E353A" stroke-linecap="round" stroke-linejoin="round"/>
<path d="M369.143 160.725L157.689 297.992L225.422 402.331L436.876 265.064L369.143 160.725Z" fill="white" stroke="#2E353A" stroke-linecap="round" stroke-linejoin="round"/>
<path d="M357.922 293.103C378.654 289.734 392.728 270.197 389.36 249.466C385.991 228.735 366.454 214.66 345.723 218.029C324.991 221.398 310.917 240.935 314.285 261.666C317.654 282.397 337.191 296.472 357.922 293.103Z" fill="#2E353A" stroke="#2E353A" stroke-linecap="round" stroke-linejoin="round"/>
<path d="M372.557 287.363C377.253 284.32 381.218 280.277 384.169 275.522C387.119 270.768 388.983 265.42 389.625 259.861C379.791 247.001 362.297 243.25 349.374 251.635C336.45 260.019 332.762 277.544 340.5 291.76C345.837 293.437 351.479 293.913 357.021 293.152C362.563 292.392 367.869 290.415 372.557 287.363Z" fill="#DAAA9E" stroke="#2E353A" stroke-linecap="round" stroke-linejoin="round"/>
<path d="M360.213 263.848C368.316 256.944 369.289 244.779 362.385 236.676C355.481 228.573 343.316 227.6 335.213 234.504C327.11 241.407 326.137 253.573 333.041 261.676C339.945 269.779 352.11 270.751 360.213 263.848Z" fill="white" stroke="#2E353A" stroke-linecap="round" stroke-linejoin="round"/>
<path d="M274.384 275.028L200.383 323.066L205.901 331.566L279.901 283.528L274.384 275.028Z" fill="white" stroke="#2E353A" stroke-linecap="round" stroke-linejoin="round"/>
<path d="M287.63 295.442L213.629 343.48L219.147 351.98L293.148 303.942L287.63 295.442Z" fill="white" stroke="#2E353A" stroke-linecap="round" stroke-linejoin="round"/>
<path d="M297.35 314.546L223.24 362.188L225.981 366.45L300.09 318.808L297.35 314.546Z" fill="#2E353A"/>
<path d="M305.309 322.649L231.309 370.688L234.072 374.944L308.073 326.906L305.309 322.649Z" fill="#2E353A"/>
<path d="M339.001 374.532L265 422.57L267.763 426.827L341.764 378.789L339.001 374.532Z" fill="#2E353A"/>
<path d="M345.075 383.903L271.074 431.941L273.837 436.198L347.838 388.16L345.075 383.903Z" fill="#2E353A"/>
<path d="M351.147 393.274L277.146 441.312L279.91 445.569L353.911 397.531L351.147 393.274Z" fill="#2E353A"/>
<path d="M439.376 309.372L365.375 357.41L368.138 361.667L442.139 313.628L439.376 309.372Z" fill="#2E353A"/>
<path d="M445.462 318.731L371.461 366.77L374.224 371.026L448.225 322.988L445.462 318.731Z" fill="#2E353A"/>
<path d="M451.536 328.102L377.535 376.141L380.298 380.397L454.299 332.359L451.536 328.102Z" fill="#2E353A"/>
<path d="M257.791 415.148L436.418 299.168" stroke="#2E353A" stroke-linecap="round" stroke-linejoin="round"/>
<path d="M370.481 423.036L296.48 471.074L299.244 475.331L373.245 427.292L370.481 423.036Z" fill="#2E353A"/>
<path d="M376.546 432.391L302.545 480.43L305.308 484.686L379.309 436.648L376.546 432.391Z" fill="#2E353A"/>
<path d="M382.634 441.739L308.633 489.777L311.396 494.034L385.397 445.996L382.634 441.739Z" fill="#2E353A"/>
<path d="M470.854 357.872L396.854 405.91L399.617 410.167L473.618 362.128L470.854 357.872Z" fill="#2E353A"/>
<path d="M476.932 367.223L402.932 415.262L405.695 419.518L479.696 371.48L476.932 367.223Z" fill="#2E353A"/>
<path d="M482.991 376.594L408.99 424.633L411.753 428.889L485.754 380.851L482.991 376.594Z" fill="#2E353A"/>
<path d="M289.264 463.624L467.89 347.66" stroke="#2E353A" stroke-linecap="round" stroke-linejoin="round"/>
<path d="M495.167 395.3L319.934 509.055L347.54 551.581L522.773 437.826L495.167 395.3Z" fill="#2E353A" stroke="#2E353A" stroke-linecap="round" stroke-linejoin="round"/>
<path d="M129.69 278.393L17.6035 191.617L84.3009 316.738C85.8769 319.764 81.7005 320.331 77.4452 317.652C73.1426 314.957 68.9031 315.556 70.5895 318.613L105.183 381.497C105.733 382.393 106.456 383.17 107.311 383.782L124.206 396.516C125.085 397.136 125.821 397.937 126.365 398.864L196.356 531.802L317.411 621.068L129.69 278.393Z" fill="#DAAA9E" stroke="#2E353A" stroke-linecap="round" stroke-linejoin="round"/>
<path opacity="0.25" d="M129.69 278.393L17.6035 191.617L84.3009 316.738C85.8769 319.764 81.7005 320.331 77.4452 317.652C73.1426 314.957 68.9031 315.556 70.5895 318.613L105.183 381.497C105.733 382.393 106.456 383.17 107.311 383.782L124.206 396.516C125.085 397.136 125.821 397.937 126.365 398.864L196.356 531.802L317.411 621.068L129.69 278.393Z" fill="#2E353A" stroke="#2E353A" stroke-linecap="round" stroke-linejoin="round"/>
<path d="M607.116 469.426C607.092 469.369 607.047 469.324 606.99 469.3C605.146 468.496 589.654 468.638 589.244 469.552C589.244 469.662 589.323 469.804 589.56 469.962C589.89 470.17 590.238 470.349 590.6 470.498C591.041 470.687 591.577 470.892 592.176 471.097C592.775 471.302 593.342 471.506 593.957 471.696L596.589 472.515L597.975 472.925L598.89 473.177L582.846 488.701C579.504 491.752 575.994 494.614 572.334 497.274L571.609 496.549C570.56 495.536 569.449 494.589 568.283 493.713V493.303C566.925 494.167 565.509 494.936 564.044 495.604C558.559 498.362 543.177 505.265 537.693 516.329C534.943 521.943 531.892 527.404 528.552 532.688V533.413H528.11C522.799 532.956 512.681 536.486 505.242 540.158C498.89 543.671 492.772 547.593 486.929 551.899L481.161 553.933C479.064 554.232 475.219 554.721 474.683 555.367C474.147 556.013 470.412 555.367 468.757 555.776C467.102 556.186 467.575 557.353 467.575 557.353L470.727 557.652L449.939 564.886L466.661 578.156L489.34 569.74L490.554 570.039C492.972 570.783 495.585 570.551 497.835 569.393C498.635 569.093 499.419 568.751 500.183 568.369C504.375 567.817 517.125 565.012 521.554 564.035C524.879 568.542 534.367 576.123 535.99 579.401C536.067 579.575 536.13 579.754 536.18 579.937C536.18 579.937 536.18 580.016 536.18 580.063C536.212 580.198 536.212 580.338 536.18 580.473C535.429 582.307 534.449 584.038 533.264 585.626C531.104 584.735 528.874 584.023 526.597 583.499C517.976 581.513 513.264 590.465 511.767 590.906C510.27 591.347 508.442 592.671 510.191 593.932C511.94 595.193 509.293 596.359 508.221 598.061C507.555 599.407 507.103 600.848 506.881 602.332C501.192 602.821 496.322 605.169 495.061 608.636C493.485 613.065 507.843 616.312 507.843 616.312C507.843 616.312 527.716 624.081 542.878 619.211C558.039 614.342 557.456 606.225 558.638 601.875C559.82 597.525 572.192 586.824 586.077 579.37C599.961 571.915 605.997 565.185 592.79 555.083C584.122 548.448 576.494 545.264 570.206 545.012C570.364 544.634 570.537 544.256 570.71 543.893L571.025 543.2C571.215 542.806 571.435 542.428 571.64 542.034L571.955 541.466C572.286 540.899 572.633 540.347 573.011 539.796C573.669 538.86 574.244 537.869 574.729 536.833C576.261 533.63 576.666 530.003 575.88 526.541C575.61 525.544 575.462 524.517 575.438 523.484C575.754 521.419 579.189 513.303 580.072 509.694C580.104 509.442 580.104 509.188 580.072 508.937C579.945 507.919 579.624 506.934 579.126 506.037C582.672 503.925 589.812 500.08 593.09 496.439C596.368 492.799 603.539 479.828 606.218 473.177C606.328 472.909 606.423 472.641 606.518 472.389C606.612 472.153 606.691 471.9 606.77 471.68C606.833 471.459 606.896 471.254 606.959 471.065V470.986C606.959 470.829 607.053 470.655 607.085 470.514C607.077 470.488 607.077 470.46 607.085 470.435C607.085 470.293 607.085 470.167 607.085 470.057V469.946C607.092 469.862 607.092 469.778 607.085 469.694V469.568C607.085 469.568 607.132 469.473 607.116 469.426ZM523.382 558.141C518.512 559.496 507.291 563.042 501.318 565.028L490.286 554.925C492.965 553.539 498.907 550.954 505.652 548.054C511.907 545.712 518.395 544.047 525.006 543.089C525.553 544.104 525.911 545.209 526.061 546.352C526.692 548.305 527.482 550.203 528.425 552.026C527.158 554.373 525.445 556.45 523.382 558.141Z" fill="#2E353A"/>
<path d="M588.236 393.558C591.538 403.606 594.3 413.822 596.51 424.165C598.733 436.347 603.382 461.706 603.382 461.706C603.382 461.706 591.688 462.368 591.483 464.275C591.278 466.182 606.912 473.731 609.245 472.99C611.577 472.249 612.917 424.669 611.514 413.858C610.112 403.046 602.641 388.641 602.058 385.395C601.475 382.148 600.198 375.828 600.198 375.828L588.236 393.558Z" fill="white" stroke="#2E353A" stroke-linecap="round" stroke-linejoin="round"/>
<path d="M609.244 472.987C609.828 472.814 610.348 469.835 610.82 465.107C606.234 468.48 602.94 465.107 602.94 465.107L603.366 461.734C603.366 461.734 591.672 462.396 591.467 464.303C591.262 466.21 606.912 473.712 609.244 472.987Z" fill="#DAAA9E" stroke="#2E353A" stroke-linecap="round" stroke-linejoin="round"/>
<path d="M581.286 251.004C581.286 251.004 562.721 231.871 559.963 230.516C557.205 229.16 556.243 232.092 557.031 233.747C557.819 235.401 576.7 260.429 579.899 263.691C583.099 266.953 581.286 251.004 581.286 251.004Z" fill="white" stroke="#2E353A" stroke-linecap="round" stroke-linejoin="round"/>
<path d="M533.122 196.805L508.236 214.74L537.677 257.214L560.434 238.065L533.122 196.805Z" fill="#2E353A" stroke="#2E353A" stroke-linecap="round" stroke-linejoin="round"/>
<path d="M533.296 201.422L512.24 216.599L537.157 252.548L556.416 236.347L533.296 201.422Z" fill="#DAAA9E" stroke="#2E353A" stroke-linecap="round" stroke-linejoin="round"/>
<path d="M562.184 233.906C561.376 231.916 560.384 230.006 559.221 228.201C557.172 225.049 555.864 223.363 552.255 223.567C549.573 223.646 546.89 223.451 544.248 222.984C542.184 222.764 542.152 225.742 543.24 226.767C544.327 227.791 550.332 227.539 550.332 227.539C549.717 226.735 550.174 228.043 554.146 233.512C555.265 235.088 559.189 235.356 560.072 235.451" fill="white"/>
<path d="M562.184 233.906C561.376 231.916 560.384 230.006 559.221 228.201C557.172 225.049 555.864 223.363 552.255 223.567C549.573 223.646 546.89 223.451 544.248 222.984C542.184 222.764 542.152 225.742 543.24 226.767C544.327 227.791 550.332 227.539 550.332 227.539C549.717 226.735 550.174 228.043 554.146 233.512C555.265 235.088 559.189 235.356 560.072 235.451" stroke="#2E353A" stroke-linecap="round" stroke-linejoin="round"/>
<path d="M588.82 165.616C587.876 169.509 587.26 173.473 586.976 177.468C586.976 181.25 589.024 184.781 586.471 186.388C583.918 187.996 584.99 191.431 586.235 192.976C587.48 194.52 586.834 214.079 596.747 214.221C606.66 214.363 616.195 209.256 618.212 203.803C620.23 198.35 625.226 182.826 618.937 175.514C612.649 168.201 594.619 155.845 588.82 165.616Z" fill="white" stroke="#2E353A" stroke-linecap="round" stroke-linejoin="round"/>
<path d="M589.196 183.727L590.756 186.595L588.865 186.658" stroke="#2E353A" stroke-linecap="round" stroke-linejoin="round"/>
<path d="M588.883 179.121C588.883 179.121 591.846 179.121 592.035 184.038" stroke="#2E353A" stroke-linecap="round" stroke-linejoin="round"/>
<path d="M604.626 211.291C605.002 215.696 605.002 220.125 604.626 224.53C604.508 225.248 604.222 225.929 603.791 226.516C608.714 223.136 614 220.318 619.551 218.116L621.127 217.517C620.321 210.828 619.921 204.097 619.929 197.359L604.626 211.291Z" fill="white" stroke="#2E353A" stroke-linecap="round" stroke-linejoin="round"/>
<path d="M562.341 399.938C562.341 399.938 561.49 421.293 563.287 428.59C565.084 435.887 571.719 496.249 571.435 501.702C571.151 507.155 570.931 509.393 570.931 509.393C570.931 509.393 554.524 511.789 552.854 512.262C551.183 512.734 550.631 514.925 559.709 517.525C568.787 520.126 575.769 524.113 577.708 521.103C579.646 518.093 582.278 506.919 583.05 498.771C584.863 479.858 587.967 458.614 586.108 449.063C584.248 439.512 579.41 427.629 580.072 424.477C580.733 421.325 590.978 386.652 590.978 386.652L562.341 399.938Z" fill="white" stroke="#2E353A" stroke-linecap="round" stroke-linejoin="round"/>
<path d="M577.708 521.104C578.708 519.027 579.393 516.812 579.741 514.532C574.934 517.07 569.024 513.476 569.024 513.476L570.931 509.395C570.931 509.395 554.524 511.79 552.854 512.263C551.183 512.736 550.631 514.926 559.709 517.527C568.787 520.127 575.769 524.115 577.708 521.104Z" fill="#DAAA9E" stroke="#2E353A" stroke-linecap="round" stroke-linejoin="round"/>
<path d="M604.627 211.291C605.003 215.696 605.003 220.125 604.627 224.53C603.965 230.598 576.495 248.391 577.189 255.089C577.882 261.787 581.113 271.117 579.301 278.95C577.488 286.783 567.433 314.048 565.432 323.757C563.43 333.465 555.818 407.286 559.254 410.533C562.689 413.779 576.59 412.408 583.587 408.452C590.585 404.496 605.037 389.54 606.314 382.117C607.59 374.694 609.024 357.357 609.954 353.197C610.884 349.036 618.118 339.013 617.314 320.447C616.511 301.881 623.209 279.47 624.785 265.018C626.361 250.566 624.785 230.976 622.279 223.143C619.773 215.31 619.899 197.359 619.899 197.359L604.627 211.291Z" fill="#DAAA9E" stroke="#2E353A" stroke-linecap="round" stroke-linejoin="round"/>
<path d="M606.282 382.113C607.574 374.69 608.993 357.354 609.922 353.193C610.852 349.033 618.086 339.009 617.282 320.443C616.825 310.262 618.654 298.915 620.655 288.34C615.407 293.32 601.743 304.92 587.165 306.275C576.621 307.268 573.185 304.195 572.192 301.326C569.277 310.121 566.377 319.025 565.4 323.753C563.382 333.461 555.786 407.282 559.222 410.529C562.657 413.776 576.558 412.405 583.555 408.449C590.553 404.493 605.005 389.536 606.282 382.113Z" fill="#2E353A" stroke="#2E353A" stroke-linecap="round" stroke-linejoin="round"/>
<path d="M603.302 360.586L582.025 397.654" stroke="white" stroke-width="0.5" stroke-linecap="round" stroke-linejoin="round"/>
<path d="M593.578 384.289L583.854 403.737" stroke="white" stroke-width="0.5" stroke-linecap="round" stroke-linejoin="round"/>
<path d="M673.183 237.578C669.069 219.753 657.422 213.591 647.147 207.428C642.419 204.607 640.843 199.785 640.622 195.372L640.102 200.1C639.843 197.864 639.843 195.606 640.102 193.37C640.275 192.33 640.496 191.211 640.748 189.998C640.525 191.759 640.472 193.537 640.59 195.309L641.646 185.443V185.553C643.222 176.712 643.932 164.939 634.665 152.598C622.293 136.113 597.549 141.929 597.549 141.929C597.549 141.929 581.048 141.535 580.024 150.881C578.999 160.226 585.146 168.926 593.451 170.786C593.451 170.786 595.138 174.379 597.061 179.753C596.189 180.573 595.515 181.581 595.091 182.701C595.091 182.701 597.833 184.072 599.204 192.976C600.575 201.881 586.864 218.334 588.172 229.225C589.48 240.115 601.19 240.257 600.496 246.356C599.803 252.455 591.592 251.084 592.285 258.681C592.774 264.086 602.088 270.911 608.045 275.859C607.678 281.105 607.641 286.369 607.935 291.62C604.261 297.581 602.384 304.476 602.529 311.478C602.939 321.627 612.316 325.236 621.221 322.856C623.67 322.188 626.054 321.302 628.345 320.209C636.729 323.581 657.123 320.981 666.926 304.638C677.201 287.506 667.603 282.022 666.926 269.697C666.248 257.373 677.296 255.387 673.183 237.578Z" fill="#2E353A" stroke="#2E353A" stroke-linecap="round" stroke-linejoin="round"/>
<path d="M592.238 156.887C597.217 163.518 603.275 169.267 610.158 173.892C623.176 182.119 614.271 206.784 603.995 217.737C593.72 228.69 595.769 238.982 607.415 244.451C619.062 249.919 639.614 256.097 627.904 275.971C616.194 295.845 614.886 311.589 632.017 316.396" stroke="white" stroke-width="0.5" stroke-linecap="round" stroke-linejoin="round"/>
<path d="M588.236 151.258C588.236 151.258 589.182 152.834 590.916 155.119" stroke="white" stroke-width="0.5" stroke-linecap="round" stroke-linejoin="round"/>
<path d="M646.658 314.045C647.788 314.314 648.96 314.354 650.105 314.162C651.25 313.97 652.345 313.549 653.325 312.926" stroke="white" stroke-width="0.5" stroke-linecap="round" stroke-linejoin="round"/>
<path d="M634.082 238.855C644.704 242.669 656.146 245.885 657.423 256.759C659.488 274.568 635.5 282.795 635.5 297.168C635.5 303.93 638.069 308.721 641.426 311.479" stroke="white" stroke-width="0.5" stroke-linecap="round" stroke-linejoin="round"/>
<path d="M610.158 173.891C610.158 173.891 626.596 180.053 630.647 190.329C634.697 200.604 609.417 215.687 617.629 228.705C620.166 232.708 624.705 235.214 629.859 237.294" stroke="white" stroke-width="0.5" stroke-linecap="round" stroke-linejoin="round"/>
<path d="M633.074 159.422C633.074 159.422 647.258 173.906 640.781 190.06C634.303 206.214 631.325 213.511 636.053 217.766C640.781 222.022 665.856 223.85 671.971 243.235" stroke="white" stroke-width="0.5" stroke-linecap="round" stroke-linejoin="round"/>
<path d="M575.455 295.543C575.455 295.543 561.113 284.952 554.336 273.226C547.559 261.501 541.854 251.54 541.996 250.264C542.137 248.987 542.831 242.604 540.845 240.13C538.859 237.656 532.082 234.645 531.2 233.905C530.317 233.164 528.473 235.228 530.522 237.057C532.571 238.885 534.604 241.06 534.604 241.06L521.428 237.687C521.102 238.238 520.951 238.876 520.996 239.515C521.041 240.154 521.28 240.765 521.681 241.265C523.13 242.715 527.275 243.156 527.417 244.795C527.559 246.434 531.751 249.523 533.532 250.941C534.29 251.693 535.229 252.236 536.259 252.517C536.259 252.517 543.808 277.876 549.119 288.467C554.43 299.057 562.515 310.531 568.142 312.107C573.768 313.683 580.671 303.786 580.671 303.786L575.455 295.543Z" fill="white" stroke="#2E353A" stroke-linecap="round" stroke-linejoin="round"/>
<path d="M600.37 244.701C600.37 244.701 592.695 249.996 590.299 257.151C587.904 264.306 575.674 281.69 573.909 286.024C573.107 288.185 572.015 290.226 570.662 292.092C570.662 292.092 572.238 301.548 578.763 306.528C585.288 311.508 587.305 311.02 587.305 311.02C587.305 311.02 610.945 272.596 614.759 263.66C618.573 254.724 610.536 240.319 600.37 244.701Z" fill="#DAAA9E" stroke="#2E353A" stroke-linecap="round" stroke-linejoin="round"/>
</svg>
