<svg width="698" height="455" viewBox="0 0 698 455" fill="none" xmlns="http://www.w3.org/2000/svg">
<rect x="0.5" y="1.5" width="697" height="453" fill="#EFEADD" stroke="#EFEADD"/>
<path d="M186.146 23.8203C191.608 23.8203 196.847 25.99 200.709 29.8522C204.571 33.7144 206.741 38.9526 206.741 44.4145V58.0265H165.543V44.4145C165.543 38.9526 167.713 33.7144 171.575 29.8522C175.437 25.99 180.675 23.8203 186.137 23.8203H186.146Z" fill="white" stroke="#263238" stroke-linecap="round" stroke-linejoin="round"/>
<path d="M186.146 23.8196V1" stroke="#263238" stroke-linecap="round" stroke-linejoin="round"/>
<path d="M484.646 23.8203C490.108 23.8203 495.346 25.99 499.209 29.8522C503.071 33.7144 505.241 38.9526 505.241 44.4145V58.0265H464.043V44.4145C464.043 41.7092 464.576 39.0305 465.611 36.5313C466.647 34.0321 468.165 31.7614 470.078 29.8489C471.991 27.9365 474.263 26.4197 476.763 25.3853C479.262 24.3509 481.941 23.8191 484.646 23.8203Z" fill="white" stroke="#263238" stroke-linecap="round" stroke-linejoin="round"/>
<path d="M484.645 23.8196V1" stroke="#263238" stroke-linecap="round" stroke-linejoin="round"/>
<path d="M636.407 53.9531H521.596V194.283H636.407V53.9531Z" fill="white" stroke="#263238" stroke-linecap="round" stroke-linejoin="round"/>
<path d="M636.407 53.9531H521.596V194.283H636.407V53.9531Z" fill="white" stroke="#263238" stroke-linecap="round" stroke-linejoin="round"/>
<path d="M636.406 53.9531V108.234C629.543 115.218 621.365 120.774 612.344 124.582C582.561 136.636 543.895 123.311 566.074 80.8526C570.712 72.109 574.9 63.1339 578.62 53.9624L636.406 53.9531Z" fill="white" stroke="#263238" stroke-linecap="round" stroke-linejoin="round"/>
<path d="M636.407 142.691V194.33H626.763C612.966 189.545 597.898 182.155 595.867 172.076C593.123 158.371 620.838 147.606 636.407 142.691Z" fill="white" stroke="#263238" stroke-linecap="round" stroke-linejoin="round"/>
<path d="M569.08 194.329H521.596V172.567C541.578 153.178 571.834 127.493 576.85 144.23C582.599 163.378 570.629 182.878 569.08 194.329Z" fill="white" stroke="#263238" stroke-linecap="round" stroke-linejoin="round"/>
<path d="M552.77 104.93C552.77 113.424 535.773 118.895 521.596 121.992V71.9297C533.353 79.9782 552.77 94.7678 552.77 104.93Z" fill="white" stroke="#263238" stroke-linecap="round" stroke-linejoin="round"/>
<path d="M593.652 111.904C602.578 111.904 609.814 105.237 609.814 97.0127C609.814 88.7883 602.578 82.1211 593.652 82.1211C584.726 82.1211 577.49 88.7883 577.49 97.0127C577.49 105.237 584.726 111.904 593.652 111.904Z" fill="white" stroke="#263238" stroke-linecap="round" stroke-linejoin="round"/>
<path d="M551.536 134.056C551.536 136.838 548.976 139.119 545.824 139.119C542.671 139.119 540.121 136.857 540.121 134.056C540.121 131.256 542.68 128.984 545.824 128.984C548.967 128.984 551.536 131.275 551.536 134.056Z" fill="white" stroke="#263238" stroke-linecap="round" stroke-linejoin="round"/>
<path d="M601.608 149.301C601.608 150.68 601.199 152.028 600.433 153.175C599.667 154.322 598.578 155.215 597.303 155.743C596.029 156.271 594.627 156.409 593.275 156.14C591.922 155.871 590.68 155.207 589.704 154.232C588.729 153.256 588.065 152.014 587.796 150.661C587.527 149.309 587.665 147.907 588.193 146.633C588.721 145.358 589.614 144.269 590.761 143.503C591.908 142.737 593.256 142.328 594.635 142.328C596.484 142.328 598.258 143.063 599.566 144.37C600.873 145.678 601.608 147.452 601.608 149.301Z" fill="white" stroke="#263238" stroke-linecap="round" stroke-linejoin="round"/>
<path d="M616.148 168.951C616.148 169.454 615.998 169.945 615.719 170.363C615.439 170.781 615.042 171.107 614.577 171.299C614.112 171.491 613.601 171.541 613.108 171.442C612.615 171.343 612.162 171.1 611.807 170.744C611.452 170.388 611.211 169.934 611.114 169.441C611.017 168.947 611.069 168.436 611.262 167.972C611.456 167.508 611.783 167.112 612.202 166.834C612.621 166.556 613.113 166.408 613.616 166.41C613.95 166.41 614.279 166.476 614.587 166.604C614.895 166.732 615.174 166.919 615.41 167.155C615.645 167.391 615.831 167.671 615.958 167.979C616.084 168.287 616.149 168.618 616.148 168.951Z" fill="white" stroke="#263238" stroke-linecap="round" stroke-linejoin="round"/>
<path d="M571.43 81.7632C576.134 77.0593 576.134 69.4329 571.43 64.729C566.726 60.0252 559.1 60.0252 554.396 64.729C549.692 69.4329 549.692 77.0593 554.396 81.7632C559.1 86.467 566.726 86.467 571.43 81.7632Z" fill="white" stroke="#263238" stroke-linecap="round" stroke-linejoin="round"/>
<path d="M598.958 270.997C604.156 270.997 608.37 259.95 608.37 246.323C608.37 232.695 604.156 221.648 598.958 221.648C593.761 221.648 589.547 232.695 589.547 246.323C589.547 259.95 593.761 270.997 598.958 270.997Z" fill="#AFD6BA" stroke="#263238" stroke-miterlimit="10"/>
<path d="M569.732 231.104C572.671 240.376 578.318 246.82 582.352 245.541C586.385 244.261 587.257 235.721 584.317 226.467C581.378 217.213 575.731 210.704 571.697 212.021C567.664 213.338 566.792 221.84 569.732 231.104Z" fill="#AFD6BA" stroke="#263238" stroke-miterlimit="10"/>
<path d="M638.755 286.914C648.334 285.291 655.529 280.6 654.824 276.436C654.12 272.273 645.774 270.205 636.205 271.8C626.636 273.395 619.441 278.115 620.145 282.278C620.85 286.441 629.186 288.537 638.755 286.914Z" fill="#AFD6BA" stroke="#263238" stroke-miterlimit="10"/>
<path d="M560.876 264.105C568.869 272.033 578.317 275.473 581.98 271.782C585.643 268.092 582.119 258.68 574.126 250.743C566.133 242.806 556.676 239.375 553.013 243.065C549.35 246.756 552.874 256.167 560.876 264.105Z" fill="#AFD6BA" stroke="#263238" stroke-miterlimit="10"/>
<path d="M615.981 242.341C608.248 253.57 605.949 265.393 610.835 268.768C615.722 272.143 625.968 265.773 633.701 254.553C641.434 243.333 643.734 231.502 638.847 228.136C633.961 224.77 623.715 231.121 615.981 242.341Z" fill="#AFD6BA" stroke="#263238" stroke-miterlimit="10"/>
<path d="M598.299 269.758L597.576 344.828" stroke="#263238" stroke-miterlimit="10" stroke-linecap="round"/>
<path d="M599.18 237.141L598.299 269.761" stroke="#263238" stroke-miterlimit="10" stroke-linecap="round"/>
<path d="M599.115 231.82L599.18 234.324" stroke="#263238" stroke-miterlimit="10" stroke-linecap="round"/>
<path d="M610.882 267.164C605.491 278.328 602.341 290.441 601.609 302.817V349.179" stroke="#263238" stroke-miterlimit="10" stroke-linecap="round"/>
<path d="M627.035 242.445C620.579 249.933 615.148 258.246 610.883 267.166" stroke="#263238" stroke-miterlimit="10" stroke-linecap="round"/>
<path d="M632.117 237.062C632.117 237.062 631.19 237.99 629.539 239.659" stroke="#263238" stroke-miterlimit="10" stroke-linecap="round"/>
<path d="M581.395 270.648C587.995 279.915 593.139 290.137 596.648 300.96" stroke="#263238" stroke-miterlimit="10" stroke-linecap="round"/>
<path d="M570.574 258.207C574.557 262.012 578.179 266.178 581.395 270.651" stroke="#263238" stroke-miterlimit="10" stroke-linecap="round"/>
<path d="M559.012 249.406C561.952 251.062 564.715 253.017 567.255 255.239" stroke="#263238" stroke-miterlimit="10" stroke-linecap="round"/>
<path d="M581.795 243.25C587.006 259.653 593.997 283.891 597.261 304.921" stroke="#263238" stroke-miterlimit="10" stroke-linecap="round"/>
<path d="M578.613 233.523C579.541 236.305 580.625 239.569 581.794 243.25" stroke="#263238" stroke-miterlimit="10" stroke-linecap="round"/>
<path d="M575.359 224.109C575.359 224.109 576.287 226.622 577.742 230.925" stroke="#263238" stroke-miterlimit="10" stroke-linecap="round"/>
<path d="M620.627 280.035C614.136 282.502 605.207 289.391 602.082 298.413" stroke="#263238" stroke-miterlimit="10" stroke-linecap="round"/>
<path d="M632.654 277.586C628.535 277.791 624.472 278.616 620.6 280.034" stroke="#263238" stroke-miterlimit="10" stroke-linecap="round"/>
<path d="M640.442 277.78C640.442 277.78 639.283 277.613 637.373 277.539" stroke="#263238" stroke-miterlimit="10" stroke-linecap="round"/>
<path d="M619.978 323C628.777 327.108 637.363 327.33 639.144 323.501C640.924 319.671 635.249 313.236 626.45 309.129C617.65 305.021 609.064 304.789 607.274 308.619C605.485 312.448 611.178 318.883 619.978 323Z" fill="#AFD6BA" stroke="#263238" stroke-miterlimit="10"/>
<path d="M620.257 311.858C616.759 309.691 612.955 308.062 608.973 307.027C608.058 306.467 607.002 306.18 605.929 306.2C604.857 306.22 603.812 306.545 602.918 307.138C601.722 307.935 602.12 313.888 602.12 313.888V344.83" stroke="#263238" stroke-miterlimit="10" stroke-linecap="round"/>
<path d="M626.553 316.438C626.553 316.438 625.7 315.65 624.17 314.5" stroke="#263238" stroke-miterlimit="10" stroke-linecap="round"/>
<path d="M556.815 286.914C547.236 285.291 540.05 280.6 540.755 276.436C541.459 272.273 549.795 270.205 559.365 271.8C568.934 273.395 576.139 278.115 575.425 282.278C574.711 286.441 566.375 288.537 556.815 286.914Z" fill="#AFD6BA" stroke="#263238" stroke-miterlimit="10"/>
<path d="M574.719 279.961C575.893 280.398 577.039 280.909 578.15 281.491C582.023 283.525 585.262 286.586 587.512 290.337C589.762 294.089 590.937 298.387 590.909 302.762V343.616" stroke="#263238" stroke-miterlimit="10" stroke-linecap="round"/>
<path d="M561.914 277.539C566.283 277.67 570.604 278.487 574.719 279.959" stroke="#263238" stroke-miterlimit="10" stroke-linecap="round"/>
<path d="M555.127 277.779C555.127 277.779 555.887 277.668 557.195 277.594" stroke="#263238" stroke-miterlimit="10" stroke-linecap="round"/>
<path d="M566.422 314.938C558.012 319.788 549.481 320.752 547.367 317.09C545.253 313.427 550.371 306.528 558.782 301.679C567.192 296.829 575.732 295.865 577.837 299.527C579.941 303.19 574.842 310.089 566.422 314.938Z" fill="#AFD6BA" stroke="#263238" stroke-miterlimit="10"/>
<path d="M564.381 304.46C567.838 301.772 571.696 299.644 575.814 298.155C575.814 298.155 586.245 296.43 588.628 303.171" stroke="#263238" stroke-miterlimit="10" stroke-linecap="round"/>
<path d="M559.309 308.974C559.309 308.974 559.828 308.399 560.783 307.5" stroke="#263238" stroke-miterlimit="10" stroke-linecap="round"/>
<path d="M587.042 303.571C587.042 303.571 599.338 301.197 599.338 309.524C599.338 317.85 590.612 324.601 587.042 334.124C583.473 343.646 576.731 344.045 573.134 334.522C569.536 324.999 574.719 307.539 587.042 303.571Z" fill="#AFD6BA" stroke="#263238" stroke-miterlimit="10"/>
<path d="M595.379 303.969C595.379 303.969 584.66 308.336 581.471 322.217L595.379 303.969Z" fill="#AFD6BA"/>
<path d="M595.379 303.969C595.379 303.969 584.66 308.336 581.471 322.217" stroke="#263238" stroke-miterlimit="10"/>
<path d="M594.582 322.215V344.83" stroke="#263238" stroke-miterlimit="10" stroke-linecap="round"/>
<path d="M574.877 388.867C571.93 379.503 570.429 369.744 570.426 359.928C570.416 353.982 571.012 348.051 572.206 342.227H622.278C623.476 348.05 624.073 353.982 624.058 359.928C624.058 369.744 622.56 379.503 619.616 388.867H574.877Z" fill="#263238"/>
<path d="M623.604 350.496C623.752 351.859 623.854 353.278 623.938 354.632H570.584C570.667 353.241 570.779 351.85 570.927 350.496H623.604Z" fill="#7A7A7A"/>
<path d="M571.159 371.647C570.992 370.275 570.844 368.865 570.732 367.512H623.799C623.687 368.893 623.539 370.293 623.372 371.647H571.159Z" fill="#7A7A7A"/>
<path d="M617.623 360.148C617.606 360.578 617.718 361.004 617.946 361.37C618.173 361.736 618.504 362.026 618.897 362.202C619.29 362.379 619.727 362.434 620.151 362.36C620.576 362.286 620.968 362.087 621.279 361.789C621.589 361.49 621.804 361.106 621.894 360.684C621.984 360.263 621.947 359.825 621.786 359.425C621.625 359.025 621.349 358.683 620.992 358.442C620.635 358.2 620.214 358.071 619.783 358.071C619.505 358.065 619.228 358.114 618.968 358.215C618.709 358.316 618.472 358.467 618.271 358.66C618.071 358.853 617.91 359.084 617.799 359.339C617.687 359.595 617.628 359.869 617.623 360.148Z" fill="#8C8C8C"/>
<path d="M606.83 360.148C606.813 360.579 606.926 361.005 607.153 361.371C607.381 361.737 607.713 362.027 608.106 362.203C608.5 362.379 608.937 362.434 609.362 362.359C609.786 362.285 610.179 362.085 610.489 361.785C610.799 361.486 611.013 361.1 611.102 360.679C611.192 360.257 611.153 359.818 610.99 359.418C610.828 359.019 610.55 358.677 610.192 358.437C609.834 358.197 609.412 358.069 608.981 358.071C608.703 358.066 608.427 358.116 608.169 358.217C607.911 358.319 607.675 358.471 607.475 358.664C607.275 358.856 607.116 359.087 607.005 359.341C606.894 359.596 606.835 359.87 606.83 360.148Z" fill="#8C8C8C"/>
<path d="M596.047 360.148C596.03 360.578 596.142 361.004 596.369 361.37C596.596 361.736 596.928 362.026 597.321 362.202C597.714 362.379 598.151 362.434 598.575 362.36C598.999 362.286 599.392 362.087 599.703 361.789C600.013 361.49 600.227 361.106 600.318 360.684C600.408 360.263 600.371 359.825 600.21 359.425C600.049 359.025 599.772 358.683 599.416 358.442C599.059 358.2 598.638 358.071 598.207 358.071C597.929 358.065 597.652 358.114 597.392 358.215C597.133 358.316 596.896 358.467 596.695 358.66C596.494 358.853 596.334 359.084 596.222 359.339C596.111 359.595 596.051 359.869 596.047 360.148Z" fill="#8C8C8C"/>
<path d="M585.236 360.148C585.219 360.578 585.332 361.004 585.559 361.37C585.786 361.736 586.117 362.026 586.51 362.202C586.903 362.379 587.34 362.434 587.764 362.36C588.189 362.286 588.582 362.087 588.892 361.789C589.203 361.49 589.417 361.106 589.507 360.684C589.598 360.263 589.56 359.825 589.399 359.425C589.238 359.025 588.962 358.683 588.605 358.442C588.248 358.2 587.827 358.071 587.396 358.071C587.118 358.065 586.841 358.114 586.582 358.215C586.322 358.316 586.085 358.467 585.885 358.66C585.684 358.853 585.523 359.084 585.412 359.339C585.301 359.595 585.241 359.869 585.236 360.148Z" fill="#8C8C8C"/>
<path d="M574.443 360.148C574.426 360.579 574.539 361.005 574.766 361.371C574.994 361.737 575.326 362.027 575.719 362.203C576.113 362.379 576.55 362.434 576.975 362.359C577.4 362.285 577.792 362.085 578.103 361.785C578.413 361.486 578.626 361.1 578.716 360.679C578.805 360.257 578.766 359.818 578.604 359.418C578.441 359.019 578.163 358.677 577.805 358.437C577.447 358.197 577.025 358.069 576.594 358.071C576.317 358.066 576.041 358.116 575.782 358.217C575.524 358.319 575.288 358.471 575.088 358.664C574.889 358.856 574.729 359.087 574.618 359.341C574.507 359.596 574.448 359.87 574.443 360.148Z" fill="#8C8C8C"/>
<path d="M487.891 182.205L486.24 176.493C486.24 176.493 485.684 171.699 484.766 170.596C483.848 169.492 480.334 167.647 479.045 166.358C477.756 165.069 476.653 165.06 476.467 166.173C476.282 167.285 476.653 168.954 477.2 169.307C477.747 169.659 479.601 171.328 479.601 171.328C479.601 171.328 475.494 168.76 474.381 167.832C473.268 166.905 469.281 164.874 468.725 165.616C468.168 166.358 468.91 168.009 468.91 168.009C468.91 168.009 466.518 167.489 466.518 169.149C466.483 169.584 466.568 170.02 466.762 170.41C466.956 170.801 467.253 171.131 467.621 171.365C467.621 171.365 466.045 171.894 466.416 173.22C466.787 174.546 468.938 175.538 468.938 175.538C468.938 175.538 466.824 175.881 467.927 177.392C469.031 178.904 473.704 181.908 476.096 183.021C477.842 183.791 479.628 184.466 481.447 185.042L487.344 189.289L487.891 182.205Z" fill="white" stroke="#263238" stroke-linecap="round" stroke-linejoin="round"/>
<path d="M468.91 168.008C468.91 168.008 472.415 170.595 473.148 171.327C474.013 172.034 474.945 172.655 475.929 173.182" stroke="#263238" stroke-linecap="round" stroke-linejoin="round"/>
<path d="M467.732 171.531L473.639 175.027L474.483 175.602" stroke="#263238" stroke-linecap="round" stroke-linejoin="round"/>
<path d="M479.602 171.328L480.334 174.462" stroke="#263238" stroke-linecap="round" stroke-linejoin="round"/>
<path d="M503.746 190.873L487.899 182.203L485.127 189.76L501.539 204.698L503.746 190.873Z" fill="#62559A" stroke="#263238" stroke-linecap="round" stroke-linejoin="round"/>
<path d="M515.792 152.994C515.792 152.994 501.809 167.357 500.538 175.461C499.268 183.566 498.508 225.162 498.508 225.162C498.508 225.162 508.244 226.785 509.171 226.785H515.059C515.059 226.785 512.667 189.778 514.327 177.075C515.986 164.372 522.051 152.966 522.051 152.966C520.017 152.293 517.819 152.303 515.792 152.994Z" fill="#62559A" stroke="#263238" stroke-linecap="round" stroke-linejoin="round"/>
<path d="M505.582 222.634L506.509 247.41C506.509 247.41 500.946 265.028 504.961 284.268C507.383 295.794 508.832 307.503 509.291 319.272C509.291 319.272 511.146 332.893 511.146 339.402C511.146 345.912 508.976 371.921 508.976 371.921C508.976 371.921 506.806 375.018 504.34 378.115C501.873 381.212 495.67 383.076 494.733 385.533C493.797 387.99 498.442 387.081 502.151 387.081C506.274 386.892 510.342 386.056 514.206 384.606C516.06 383.678 520.084 384.29 521.021 383.678C521.957 383.066 523.181 379.348 522.875 376.557C522.569 373.766 525.351 349.305 527.215 339.699C529.079 330.093 526.288 311.52 526.288 311.52C526.288 311.52 531.851 261.347 532.166 258.24C532.482 255.134 535.875 240.901 535.263 235.634C534.651 230.367 534.03 222.004 534.03 220.798C534.03 219.593 505.582 222.634 505.582 222.634Z" fill="#263238" stroke="#263238" stroke-linecap="round" stroke-linejoin="round"/>
<path d="M519.519 251.125C519.519 251.125 516.422 283.032 517.664 297.895C518.907 312.759 521.077 329.487 522.625 333.511C524.174 337.535 526.028 358.602 526.028 364.49C526.028 370.378 526.343 380.254 526.343 380.254C526.343 380.254 520.78 385.817 516.737 387.671C512.694 389.526 511.174 391.074 513.334 392.002C515.495 392.929 519.528 393.856 526.316 392.929C533.103 392.002 539.01 392.002 539.937 389.517C540.864 387.032 540.558 380.532 540.558 380.532C540.558 380.532 542.107 350.804 542.107 336.552C542.107 322.301 537.767 305.888 537.767 305.888L541.476 279.258C541.476 279.258 548.894 265.006 549.219 251.691C549.543 238.375 542.097 222.89 541.476 221.954C540.855 221.017 514.846 223.808 514.846 223.808" fill="#263238"/>
<path d="M519.519 251.125C519.519 251.125 516.422 283.032 517.664 297.895C518.907 312.759 521.077 329.487 522.625 333.511C524.174 337.535 526.028 358.602 526.028 364.49C526.028 370.378 526.343 380.254 526.343 380.254C526.343 380.254 520.78 385.817 516.737 387.671C512.694 389.526 511.174 391.074 513.334 392.002C515.495 392.929 519.528 393.856 526.316 392.929C533.103 392.002 539.01 392.002 539.937 389.517C540.864 387.032 540.558 380.532 540.558 380.532C540.558 380.532 542.107 350.804 542.107 336.552C542.107 322.301 537.767 305.888 537.767 305.888L541.476 279.258C541.476 279.258 548.894 265.006 549.219 251.691C549.543 238.375 542.097 222.89 541.476 221.954C540.855 221.017 514.846 223.808 514.846 223.808" stroke="#263238" stroke-linecap="round" stroke-linejoin="round"/>
<path d="M510.84 250.199C511.273 251.486 511.963 252.672 512.869 253.684C513.774 254.696 514.876 255.514 516.107 256.087" stroke="white" stroke-linecap="round" stroke-linejoin="round"/>
<path d="M522.922 376.567C522.917 376.49 522.917 376.413 522.922 376.336C518.842 378.188 514.227 378.491 509.94 377.189V375.946C509.774 374.576 509.463 373.227 509.013 371.922C509.013 371.922 506.843 375.019 504.377 378.116C501.91 381.213 495.707 383.077 494.77 385.534C493.834 387.991 498.479 387.082 502.188 387.082C506.311 386.893 510.379 386.057 514.243 384.607C516.097 383.679 520.121 384.291 521.058 383.679C521.994 383.067 523.228 379.358 522.922 376.567Z" fill="white" stroke="#263238" stroke-linecap="round" stroke-linejoin="round"/>
<path d="M539.955 389.574C540.669 387.664 540.65 383.38 540.604 381.507C537.239 382.375 533.814 382.995 530.358 383.361L529.431 381.192C528.503 379.022 526.334 380.264 526.334 380.264C526.334 380.264 520.77 385.828 516.727 387.682C512.685 389.537 511.164 391.085 513.324 392.013C515.485 392.94 519.518 393.867 526.306 392.94C533.093 392.013 539.028 392.05 539.955 389.574Z" fill="white" stroke="#263238" stroke-linecap="round" stroke-linejoin="round"/>
<path d="M515.43 157.048C515.43 157.048 501.985 173.432 501.623 177.299C501.262 181.166 504.563 224.431 505.119 224.793C508.344 225.84 511.68 226.509 515.059 226.786C517.637 226.786 520.762 226.415 520.762 226.415C520.762 226.415 519.297 183.706 520.4 174.684C521.503 165.662 528.866 157.567 530.34 153.701C531.815 149.834 525.917 149.649 524.267 150.205C522.616 150.761 515.43 157.048 515.43 157.048Z" fill="white" stroke="#263238" stroke-linecap="round" stroke-linejoin="round"/>
<path d="M508.43 108.812C508.43 108.812 502.356 117.287 502.727 119.679C503.098 122.071 503.459 123.907 502.727 125.196C501.994 126.485 497.942 127.774 498.304 129.832C498.666 131.891 502.013 133.541 502.013 133.541C502.013 133.541 503.868 143.852 505.88 144.956C507.892 146.059 513.242 144.585 513.242 144.585L514.531 154.163C514.531 154.163 509.385 162.073 512.88 162.258C516.376 162.444 531.843 149.926 531.843 149.926L530.368 144.362C530.368 144.362 533.678 137 533.864 129.638C534.049 122.275 527.058 110.119 521.532 107.541C516.005 104.964 511.749 106.419 508.43 108.812Z" fill="white" stroke="#263238" stroke-linecap="round" stroke-linejoin="round"/>
<path d="M513.215 144.533L518.185 143.43L514.142 149.874L513.215 144.533Z" fill="#263238" stroke="#263238" stroke-linecap="round" stroke-linejoin="round"/>
<path d="M505.117 133.674C505.117 133.674 508.242 134.777 510.82 131.281" stroke="#263238" stroke-linecap="round" stroke-linejoin="round"/>
<path d="M509.171 123.909C509.171 124.929 508.717 125.764 508.161 125.764C507.604 125.764 507.141 124.938 507.141 123.909C507.141 122.88 507.595 122.055 508.161 122.055C508.726 122.055 509.171 122.936 509.171 123.909Z" fill="#263238"/>
<path d="M505.852 119.497C505.852 119.497 508.986 116.919 510.645 120.053" stroke="#263238" stroke-linecap="round" stroke-linejoin="round"/>
<path d="M509.903 109.026C509.903 109.026 514.687 116.388 518.192 120.997C521.697 125.605 525.369 131.855 524.266 135.175C523.162 138.494 519.296 137.196 520.399 139.403C521.503 141.61 527.947 144.966 531.999 144.558C536.051 144.15 540.094 139.403 543.228 134.804C546.362 130.204 550.961 121.729 545.435 111.418C539.908 101.107 531.999 96.3229 524.108 95.9612C516.217 95.5996 502.939 98.3535 501.65 103.871C500.361 109.388 505.517 113.449 505.517 113.449L509.903 109.026Z" fill="#263238" stroke="#263238" stroke-linecap="round" stroke-linejoin="round"/>
<path d="M522.978 155.389C522.978 155.389 508.244 176.567 507.511 182.279C506.779 187.991 511.007 227.936 511.007 227.936C517.243 228.681 523.547 228.681 529.783 227.936C536.093 226.876 542.227 224.954 548.013 222.225C548.013 222.225 542.858 200.694 542.858 197.374C542.858 194.055 544.147 171.411 540.836 164.235C538.322 159.157 535.299 154.348 531.814 149.881C531.265 149.786 530.711 149.724 530.154 149.695C529.598 149.686 526.102 152.078 522.978 155.389Z" fill="#62559A" stroke="#263238" stroke-linecap="round" stroke-linejoin="round"/>
<path d="M489.281 187.61L484.497 185.061C483.789 182.855 482.928 180.701 481.919 178.616C480.992 177.142 478.423 177.513 477.283 177.689C476.142 177.865 472.86 176.947 470.792 176.029C468.724 175.111 467.843 176.215 468.585 177.318C469.278 178.213 470.082 179.017 470.977 179.71C470.977 179.71 462.512 180.081 461.955 180.081C461.399 180.081 458.089 179.154 458.83 181.556C459.572 183.957 465.822 188.176 468.956 188.732C472.09 189.289 480.185 188.918 480.185 188.918L484.97 192.627L489.281 187.61Z" fill="white" stroke="#263238" stroke-linecap="round" stroke-linejoin="round"/>
<path d="M471.061 179.691L475.66 181.166L478.052 181.898" stroke="#263238" stroke-linecap="round" stroke-linejoin="round"/>
<path d="M459.23 180.422C459.23 180.422 463.153 182.944 463.997 183.361C464.84 183.779 471.136 184.205 471.136 184.205" stroke="#263238" stroke-linecap="round" stroke-linejoin="round"/>
<path d="M460.666 183.875C460.666 183.875 467.157 186.397 467.806 186.397C468.455 186.397 471.589 186.258 471.589 186.258" stroke="#263238" stroke-linecap="round" stroke-linejoin="round"/>
<path d="M524.266 167.359L511.748 198.886L489.281 187.657L482.846 195.752C482.846 195.752 509.356 216.151 511.377 217.078C513.399 218.006 517.08 218.367 517.821 217.811C518.563 217.255 538.805 183.382 538.805 183.382" fill="#62559A"/>
<path d="M524.266 167.359L511.748 198.886L489.281 187.657L482.846 195.752C482.846 195.752 509.356 216.151 511.377 217.078C513.399 218.006 517.08 218.367 517.821 217.811C518.563 217.255 538.805 183.382 538.805 183.382" stroke="#263238" stroke-linecap="round" stroke-linejoin="round"/>
<path d="M519 257.328C519 257.328 517.146 292.656 519 306.24C520.854 319.825 524.165 340.215 524.165 340.215" stroke="white" stroke-linecap="round" stroke-linejoin="round"/>
<path d="M393.136 226.412C393.136 226.412 390.902 266.006 390.484 273.415C390.067 280.823 390.911 318.915 393.433 322.753C395.955 326.592 398.997 364.146 398.997 364.146C398.997 364.146 396.753 364.962 396.678 366.334C396.604 367.706 396.678 371.545 396.678 371.545C396.678 371.545 389.214 377.572 385.004 379.223C380.795 380.873 380.971 382.783 383.4 383.33C385.83 383.877 392.617 385.25 397.606 384.156C402.594 383.061 407.685 380.586 409.901 380.039C412.117 379.492 415.112 380.039 416.577 378.397C418.042 376.756 417.245 371.545 417.245 371.545C417.245 371.545 418.172 370.173 417.328 365.24C416.485 360.307 415.557 357.822 415.631 356.468C415.706 355.114 415.474 310.968 415.474 310.968L415.557 261.351C415.557 261.351 419.646 309.865 420.611 312.35C421.575 314.835 428.706 353.195 429.141 355.114C429.577 357.034 429.679 364.98 429.679 364.98C429.679 364.98 427.584 367.994 427.537 368.819C427.491 369.644 428.52 375.671 428.52 375.671C428.52 375.671 421.779 383.349 418.107 385.268C414.435 387.188 418.664 389.905 422.215 390.201C425.766 390.498 429.855 390.748 434.9 388.829C439.944 386.91 446.639 380.057 448.104 378.416C449.569 376.775 448.604 374.299 448.104 372.936C447.603 371.573 446.87 370.469 447.176 369.366C448.284 365.042 449.084 360.645 449.569 356.208C449.791 352.37 449.995 348.79 449.995 348.79C449.995 348.79 450.431 326.592 449.068 317.264C447.705 307.936 444.534 290.949 444.534 290.949C444.534 290.949 441.975 249.278 442.355 247.368C442.735 245.458 444.274 238.912 443.718 233.116C443.461 230.07 442.99 227.046 442.308 224.066L393.136 226.412Z" fill="#263238" stroke="#263238" stroke-linecap="round" stroke-linejoin="round"/>
<path d="M414.409 149.819C414.409 149.819 392.646 156.894 392.609 158.535C392.572 160.176 387.25 195.022 387.25 195.022L360.656 213.196C360.656 213.196 364.412 215.737 365.088 218.101L365.756 220.457L393.574 211.546C393.574 211.546 392.173 225.343 392.878 226.428C393.583 227.513 397.728 228.607 397.728 228.607C397.728 228.607 422.569 230.063 430.747 229.701C438.925 229.34 442.384 228.774 442.959 227.337C443.534 225.9 443.886 226.41 443.942 224.249C443.997 222.089 458.898 156.356 458.917 155.262C458.903 154.553 458.702 153.861 458.334 153.255C457.966 152.649 457.444 152.151 456.821 151.813C455.384 151.089 436.079 145.461 436.079 145.461L414.409 149.819Z" fill="white" stroke="#263238" stroke-linecap="round" stroke-linejoin="round"/>
<path d="M410.968 157.61L412.925 167.318L403.541 214.153L406.823 227.255L416.671 212.966L416.504 166.919L424.293 156.2L420.853 150.016L410.968 157.61Z" fill="#869BD9" stroke="#263238" stroke-linecap="round" stroke-linejoin="round"/>
<path d="M404.281 210.448L413.999 216.836L416.669 212.97L416.66 210.809L405.663 203.586L404.281 210.448Z" fill="#263238"/>
<path d="M409.835 182.738L408.352 190.138L416.613 197.574L416.586 188.812L409.835 182.738Z" fill="#263238"/>
<path d="M411.691 161.188L412.925 167.317L412.294 170.451L416.532 174.243L416.513 166.918L417.134 166.065L411.691 161.188Z" fill="#263238"/>
<path d="M397.336 174.559L397.79 170.312" stroke="#263238" stroke-linecap="round" stroke-linejoin="round"/>
<path d="M393.656 208.805L396.827 179.281" stroke="#263238" stroke-linecap="round" stroke-linejoin="round"/>
<path d="M413.583 162.735L407.695 149.615L415.429 144.719L413.583 162.735Z" fill="white" stroke="#263238" stroke-linecap="round" stroke-linejoin="round"/>
<path d="M407.696 149.617L405.461 160.327L410.969 157.61L407.696 149.617Z" fill="white" stroke="#263238" stroke-linecap="round" stroke-linejoin="round"/>
<path d="M414.231 100.38C414.231 100.38 408.028 121.336 407.582 130.052C407.137 138.768 409.799 142.524 412.024 143.275L413.999 144.016L413.582 162.728L420.276 153.252L420.851 150.006L433.833 137.285L436.763 129.06C436.763 129.06 441.733 130.052 443.328 125.564C444.923 121.076 442.985 118.582 442.985 118.582C442.985 118.582 449.624 111.6 447.324 103.116C445.025 94.6313 438.979 86.1562 427.5 86.1562C416.02 86.1562 408.157 93.1477 414.231 100.38Z" fill="white" stroke="#263238" stroke-linecap="round" stroke-linejoin="round"/>
<path d="M447.344 103.123C445.035 94.6484 438.999 86.1641 427.52 86.1641C416.04 86.1641 408.159 93.1462 414.232 100.379C414.232 100.379 418.154 103.624 420.908 103.16C423.662 102.697 425.452 100.666 430.134 103.16C434.817 105.655 435.271 107.648 433.704 110.894C432.137 114.139 432.351 115.632 433.065 116.884C433.158 117.036 433.241 117.194 433.315 117.357L428.818 128.604C428.818 128.604 427.39 125.609 421.455 123.115C415.521 120.621 408.474 124.367 408.474 124.367C403.838 144.525 414.037 144.061 414.037 144.061C414.037 144.061 426.092 141.817 429.624 138.581C433.157 135.345 433.741 133.092 434.066 129.596C434.261 127.529 434.251 122.902 434.205 119.489C434.53 120.417 434.752 121.121 434.752 121.121C435.5 119.694 436.779 118.619 438.313 118.126C439.897 117.702 441.582 117.88 443.042 118.627C443.042 118.627 449.644 111.608 447.344 103.123Z" fill="#263238" stroke="#263238" stroke-linecap="round" stroke-linejoin="round"/>
<path d="M418.941 111.109L416.809 117.34C416.809 117.34 409.725 121.587 411.245 122.079C412.766 122.57 417.736 121.087 417.736 121.087" stroke="#263238" stroke-linecap="round" stroke-linejoin="round"/>
<path d="M411.115 128.067C411.115 128.067 414.045 131.062 419.609 127.316" stroke="white" stroke-linecap="round" stroke-linejoin="round"/>
<path d="M423.772 116.637C423.605 117.499 423.012 118.13 422.456 118.028C421.899 117.926 421.528 117.156 421.732 116.284C421.936 115.413 422.493 114.791 423.058 114.884C423.624 114.977 423.939 115.765 423.772 116.637Z" fill="#263238"/>
<path d="M414.973 115.401C414.806 116.272 414.213 116.903 413.647 116.801C413.081 116.699 412.72 115.92 412.933 115.058C413.146 114.195 413.684 113.565 414.25 113.657C414.815 113.75 415.14 114.585 414.973 115.401Z" fill="#263238"/>
<path d="M412.961 110.208C413.67 109.873 414.444 109.699 415.228 109.699C416.012 109.699 416.786 109.873 417.495 110.208" stroke="#263238" stroke-linecap="round" stroke-linejoin="round"/>
<path d="M422.391 110.818C423.355 110.754 424.32 110.921 425.207 111.305C426.094 111.689 426.877 112.278 427.49 113.025" stroke="#263238" stroke-linecap="round" stroke-linejoin="round"/>
<path d="M420.277 153.264L422.512 160.691L438.683 144.177L433.852 137.297L420.852 150.019L420.277 153.264Z" fill="white" stroke="#263238" stroke-linecap="round" stroke-linejoin="round"/>
<path d="M374.369 226.783C374.369 226.783 370.891 224.929 372.458 224.697C374.026 224.465 376.752 225.485 376.752 225.485C376.752 225.485 373.414 223 375.11 223.13C376.807 223.26 379.496 225.355 379.496 225.355C379.496 225.355 378.634 223.13 380.312 223.788C381.286 224.151 382.165 224.731 382.881 225.485C382.881 225.485 381.026 227.701 379.431 227.961C377.837 228.22 378.245 228.48 377.215 228.091C376.186 227.701 374.369 226.783 374.369 226.783Z" fill="white" stroke="#263238" stroke-linecap="round" stroke-linejoin="round"/>
<path d="M398.236 215.156C398.236 215.156 389.316 215.156 388.036 216.232C386.756 217.307 384.958 220.08 384.327 220.506C383.697 220.933 376.612 221.156 376.798 222.648C376.983 224.141 381.249 224.355 381.249 224.355L378.142 227.563C378.142 227.563 371.568 225.217 371.114 226.496C370.659 227.776 378.077 230.558 379.783 230.558C381.49 230.558 384.948 229.492 385.597 228.852C386.246 228.212 393.293 221.814 393.293 221.814C393.599 222.519 398.718 221.332 398.931 220.581C399.144 219.83 398.236 215.156 398.236 215.156Z" fill="white" stroke="#263238" stroke-linecap="round" stroke-linejoin="round"/>
<path d="M381.203 224.353C383.027 224.543 384.863 224.58 386.692 224.464C388.259 224.204 390.142 221.988 390.142 221.988" stroke="#263238" stroke-linecap="round" stroke-linejoin="round"/>
<path d="M441.659 165.234L433.073 200.09L398.236 215.157L399.164 222.789C399.164 222.789 429.095 219.376 436.393 217.559C443.69 215.741 452.712 210.66 453.89 206.664C455.067 202.667 461.029 159.968 460.918 156.704C460.807 153.44 460.455 153.069 459.064 152.16C457.673 151.251 446.963 149.258 446.963 149.258" fill="white"/>
<path d="M441.659 165.234L433.073 200.09L398.236 215.157L399.164 222.789C399.164 222.789 429.095 219.376 436.393 217.559C443.69 215.741 452.712 210.66 453.89 206.664C455.067 202.667 461.029 159.968 460.918 156.704C460.807 153.44 460.455 153.069 459.064 152.16C457.673 151.251 446.963 149.258 446.963 149.258" stroke="#263238" stroke-linecap="round" stroke-linejoin="round"/>
<path d="M403.549 213.164L404.819 220.971" stroke="#263238" stroke-linecap="round" stroke-linejoin="round"/>
<path d="M364.15 211.02C364.951 211.149 365.718 211.435 366.408 211.861C367.099 212.288 367.698 212.845 368.172 213.503C368.647 214.161 368.987 214.906 369.174 215.695C369.36 216.485 369.389 217.303 369.26 218.104" stroke="#263238" stroke-linecap="round" stroke-linejoin="round"/>
<path d="M360.655 213.18L355.75 215.544C354.422 215.172 353.072 214.887 351.707 214.691C350.854 214.691 349.76 215.757 347.219 214.691C344.678 213.625 342.583 212.122 342.527 214.051C342.494 214.869 342.713 215.678 343.156 216.367C343.599 217.056 344.244 217.591 345.003 217.899C346.283 218.326 347.785 218.966 347.785 218.966L339.69 227.098C339.69 227.098 335.536 231.159 336.584 231.799C337.631 232.438 347.098 230.306 348.638 229.87C350.177 229.434 358.773 226.022 360.099 224.306C361.424 222.591 362.083 221.525 362.083 221.525L365.792 220.431C365.792 220.431 364.818 215.09 360.655 213.18Z" stroke="#263238" stroke-linecap="round" stroke-linejoin="round"/>
<path d="M357.104 221.961C357.104 221.961 352.848 221.321 351.114 222.174C349.38 223.027 346.941 226.884 346.941 226.884C346.941 226.884 341.378 228.591 340.033 229.87" stroke="#263238" stroke-linecap="round" stroke-linejoin="round"/>
<path d="M254.737 238.07H230.582V247.13H254.737V238.07Z" fill="white" stroke="#263238" stroke-linecap="round" stroke-linejoin="round"/>
<path d="M289.406 169.203H195.912C193.797 169.203 192.082 170.918 192.082 173.033V238.459C192.082 240.574 193.797 242.289 195.912 242.289H289.406C291.521 242.289 293.235 240.574 293.235 238.459V173.033C293.235 170.918 291.521 169.203 289.406 169.203Z" fill="#263238" stroke="#263238" stroke-linecap="round" stroke-linejoin="round"/>
<path d="M192.082 230.496V238.433C192.082 239.449 192.486 240.423 193.204 241.141C193.922 241.859 194.896 242.263 195.912 242.263H289.406C290.422 242.263 291.396 241.859 292.114 241.141C292.832 240.423 293.235 239.449 293.235 238.433V230.496H192.082Z" fill="white" stroke="#263238" stroke-linecap="round" stroke-linejoin="round"/>
<path d="M358.271 169.565L327.227 169.815C327.227 169.815 325.178 169.565 324.668 171.104C324.668 171.104 319.281 184.697 319.021 189.565C318.761 194.433 320.05 193.673 318.001 200.08C315.952 206.488 310.045 221.629 306.707 233.943C302.229 250.485 301.06 268.057 300.782 285.127C300.736 287.909 299.094 311.452 303.36 311.452C306.902 311.452 339.522 315.782 339.949 309.486C341.516 284.395 336.982 259.878 345.698 235.483C349.082 226.006 352.968 216.01 355.833 206.08C358.698 196.149 359.208 185.866 361.09 175.712C362.379 168.795 358.271 169.565 358.271 169.565Z" fill="#263238" stroke="#263238" stroke-miterlimit="10"/>
<path d="M361.303 172.633C360.997 169.054 358.271 169.564 358.271 169.564L327.226 169.815C327.226 169.815 325.177 169.564 324.667 171.103C324.667 171.103 319.28 184.697 319.02 189.565C318.957 190.855 318.994 192.147 319.131 193.431L319.79 194.442C319.79 194.442 320.819 203.418 333.133 203.928C345.447 204.438 352.364 198.8 354.96 193.404C357.557 188.007 358.549 179.3 360.607 174.163C360.813 173.642 361.045 173.131 361.303 172.633Z" fill="#BABABA" stroke="#263238" stroke-linecap="round" stroke-linejoin="round"/>
<path d="M354.107 182.646C352.03 190.147 353.281 192.224 351.195 205.132C349.109 218.039 341.626 232.606 338.705 245.931C335.784 259.255 337.045 306.294 337.463 308.381C337.623 309.486 337.682 310.603 337.639 311.719C339.039 311.2 339.883 310.476 339.948 309.493C341.515 284.402 336.98 259.886 345.697 235.49C349.081 226.013 352.966 216.018 355.831 206.087C358.697 196.156 359.206 185.873 361.089 175.719C361.877 171.473 360.634 170.156 359.55 169.711V169.757C357.2 173.807 355.371 178.138 354.107 182.646Z" fill="#BABABA" stroke="#263238" stroke-linecap="round" stroke-linejoin="round"/>
<path d="M294.169 372.066L293.955 371.899V342.923H298.119V324.609H282.717V342.923H286.881V372.363L250.041 384.102V387.022C250.041 387.905 250.392 388.752 251.016 389.376C251.64 390 252.487 390.351 253.37 390.351C254.253 390.351 255.099 390 255.724 389.376C256.348 388.752 256.699 387.905 256.699 387.022V386.605L287.502 383.026V387.44C287.544 388.185 287.869 388.885 288.412 389.398C288.954 389.91 289.672 390.196 290.418 390.196C291.164 390.196 291.882 389.91 292.424 389.398C292.967 388.885 293.292 388.185 293.334 387.44V382.878L325.389 386.587V387.004C325.389 387.887 325.74 388.733 326.364 389.358C326.988 389.982 327.835 390.333 328.718 390.333C329.601 390.333 330.448 389.982 331.072 389.358C331.696 388.733 332.047 387.887 332.047 387.004V384.083L294.169 372.066Z" fill="#263238" stroke="#263238" stroke-miterlimit="10"/>
<path d="M338.603 306.734H246.092C244.043 306.734 242.383 308.395 242.383 310.443V324.269C242.383 326.317 244.043 327.978 246.092 327.978H338.603C340.652 327.978 342.312 326.317 342.312 324.269V310.443C342.312 308.395 340.652 306.734 338.603 306.734Z" fill="#263238" stroke="#263238" stroke-miterlimit="10"/>
<path d="M201.798 388.879H197.653L194.955 267.883H205.433L201.798 388.879Z" fill="#263238" stroke="#263238" stroke-miterlimit="10"/>
<path d="M406.989 388.879H402.835L400.137 267.883H410.615L406.989 388.879Z" fill="#263238" stroke="#263238" stroke-miterlimit="10"/>
<path d="M173.602 249.172L177.171 393.164H181.465L185.035 273.772H427.389L430.495 393.164H436.995L438.396 249.172H173.602Z" fill="white" stroke="#263238" stroke-linecap="round" stroke-linejoin="round"/>
<path d="M438.201 252.629H173.723V256.616H438.201V252.629Z" fill="#757575" stroke="#263238" stroke-miterlimit="10"/>
<path d="M440.25 246.805H168.02V253.101H440.25V246.805Z" fill="white" stroke="#263238" stroke-linecap="round" stroke-linejoin="round"/>
<path d="M662.77 382.426H12" stroke="#263238" stroke-linecap="round" stroke-linejoin="round"/>
<path d="M150.967 250.533C150.967 250.533 151.773 256.097 152.506 257.812C153.238 259.528 153.971 261.948 152.997 263.654C152.024 265.36 144.198 268.846 144.198 268.846L143.984 247.102L150.586 246.055L150.967 250.533Z" fill="white" stroke="#263238" stroke-linecap="round" stroke-linejoin="round"/>
<path d="M149.021 255.688C149.021 255.688 148.807 258.052 148.325 260.732C147.843 263.411 147.741 266.508 144.82 266.295" fill="white"/>
<path d="M149.021 255.688C149.021 255.688 148.807 258.052 148.325 260.732C147.843 263.411 147.741 266.508 144.82 266.295" stroke="#263238" stroke-linecap="round" stroke-linejoin="round"/>
<path d="M142.723 154.348L147.591 207.664L151.003 248.074L142.973 248.315L138.828 212.282L142.723 154.348Z" fill="#E0E0E0" stroke="#263238" stroke-linecap="round" stroke-linejoin="round"/>
<path d="M90.742 217.098C90.742 217.098 88.3868 237.887 88.8876 240.557C89.3883 243.228 91.0017 303.202 91.0017 303.202C91.0017 303.202 87.441 324.278 87.5709 328.136C87.7007 331.993 88.8412 374.452 88.8412 374.452C88.8412 374.452 86.4303 382.463 86.0594 384.243C85.6885 386.024 86.1614 388.703 87.3298 389.297C88.4981 389.89 96.1757 390.78 99.4582 390.224C102.741 389.668 106.635 389.037 107.405 384.874C108.174 380.71 105.754 374.785 106.125 373.005C106.594 370.652 106.904 368.269 107.052 365.874L107.219 362.017C107.219 362.017 113.321 322.832 113.376 321.645C113.432 320.458 117.085 283.34 117.085 283.34C117.085 283.34 116.659 335.6 116.316 343.908C115.972 352.216 114.684 361.424 114.637 362.611C114.591 363.797 113.376 378.374 113.627 379.533C113.877 380.692 115.917 381.61 117.679 381.907C119.44 382.203 124.216 381.907 125.097 381.907C125.977 381.907 132.45 383.39 136.613 383.39C140.776 383.39 145.542 382.797 144.763 380.126C143.985 377.456 137.271 374.785 135.241 373.636C133.21 372.486 130.539 365.29 130.539 365.29C130.539 365.29 132.561 359.653 132.691 356.685C132.821 353.718 141.778 310.073 143.178 297.898C144.578 285.723 143.354 230.209 143.354 230.209L144.476 217.404C144.476 217.404 109.463 223.931 90.742 217.098Z" fill="#263238" stroke="#263238" stroke-linecap="round" stroke-linejoin="round"/>
<path d="M99.8738 138.52C99.8738 138.52 88.1905 148.015 82.831 150.936C77.4715 153.857 71.3981 157.751 71.3981 157.751C71.3981 157.751 64.3325 217.401 65.065 219.589C65.7975 221.777 68.7183 253.183 68.7183 253.183L79.428 252.748L82.1078 214.526L87.6713 195.981L88.3945 217.892C88.3945 217.892 87.9123 221.064 90.5921 222.278C93.2718 223.493 116.657 225.672 128.359 224.93C140.061 224.188 143.696 219.812 144.187 217.382C144.678 214.953 145.402 172.198 145.643 167.571C145.884 162.944 143.482 150.88 137.706 144.121C136.12 142.266 118.382 138.993 118.382 138.993C118.382 138.993 106.207 135.117 99.8738 138.52Z" fill="#E0E0E0" stroke="#263238" stroke-linecap="round" stroke-linejoin="round"/>
<path d="M115.109 149.907L121.711 158.836L119.384 213.201C119.384 213.201 124.428 219.803 125.207 220.971C125.986 222.14 132.199 211.652 132.199 211.652L124.781 159.615L127.887 150.296L126.125 144.844L117.4 142.137L115.109 149.907Z" fill="#77C0CA" stroke="#263238" stroke-linecap="round" stroke-linejoin="round"/>
<path d="M120.758 181.137L127.276 176.937L126.154 169.027L121.138 172.254L120.758 181.137Z" fill="#263238"/>
<path d="M121.711 158.835L121.572 162.09L124.854 159.883L124.817 159.614L127.924 150.295L127.608 149.312L118.957 155.108L121.711 158.835Z" fill="#263238"/>
<path d="M132.198 211.652L131.271 205.375L119.439 211.133L119.355 213.201C119.355 213.201 121.108 215.491 122.703 217.615L130.983 213.59C131.716 212.45 132.198 211.652 132.198 211.652Z" fill="#263238"/>
<path d="M120.274 192.413L119.885 201.389L129.806 194.778L128.675 186.812L120.274 192.413Z" fill="#263238"/>
<path d="M87.7109 195.971L96.7145 176.008" stroke="#263238" stroke-linecap="round" stroke-linejoin="round"/>
<path d="M123.289 153.182L128.175 138.512L121.666 135.258L123.289 153.182Z" fill="white" stroke="#263238" stroke-linecap="round" stroke-linejoin="round"/>
<path d="M128.176 138.512L134.695 146.458L126.164 144.845L128.176 138.512Z" fill="white" stroke="#263238" stroke-linecap="round" stroke-linejoin="round"/>
<path d="M120.646 92.4935C120.646 92.4935 122.881 101.859 125.283 107.329C127.684 112.8 128.333 116.287 127.527 121.785C126.72 127.284 126.711 129.732 125.487 130.344C124.034 130.886 122.535 131.296 121.008 131.568L123.243 153.154L118.152 146.023L101.703 130.353L92.7455 106.523C92.7455 106.523 88.1093 100.82 94.1734 93.6989C100.238 86.5776 116.576 87.4029 120.646 92.4935Z" fill="white" stroke="#263238" stroke-linecap="round" stroke-linejoin="round"/>
<path d="M94.9888 113.661L97.8355 112.437C97.1299 111.815 96.6058 111.013 96.3185 110.117C96.0312 109.221 95.9915 108.264 96.2035 107.347C97.0195 104.296 105.374 102.46 104.354 100.012C103.334 97.5643 93.7649 97.1656 100.079 94.3097C106.394 91.4537 117.586 95.3296 121.258 95.7376C124.93 96.1456 121.462 88.2084 121.462 88.2084C121.462 88.2084 127.952 86.9844 122.88 82.3018C117.808 77.6192 96.8155 80.4473 90.909 86.7804C85.0024 93.1135 86.2727 98.1856 88.0623 101.616C89.8519 105.047 93.1529 113.226 93.1529 113.226L94.9888 113.661Z" fill="#263238" stroke="#263238" stroke-linecap="round" stroke-linejoin="round"/>
<path d="M97.8345 114.896C97.8345 114.896 93.7638 110.612 91.5199 112.652C89.276 114.692 92.5399 119.783 95.2289 121.609C97.9179 123.436 100.319 121.202 100.319 121.202" fill="white"/>
<path d="M97.8345 114.896C97.8345 114.896 93.7638 110.612 91.5199 112.652C89.276 114.692 92.5399 119.783 95.2289 121.609C97.9179 123.436 100.319 121.202 100.319 121.202" stroke="#263238" stroke-linecap="round" stroke-linejoin="round"/>
<path d="M120.645 100.225C120.645 100.225 118.605 98.6027 117.585 100.837C116.984 102.322 116.842 103.953 117.177 105.52L123.668 115.302L117.353 116.721" stroke="#263238" stroke-linecap="round" stroke-linejoin="round"/>
<path d="M119.625 120.597C118.182 121.099 116.633 121.212 115.132 120.926C113.632 120.639 112.233 119.963 111.076 118.965" stroke="#263238" stroke-linecap="round" stroke-linejoin="round"/>
<path d="M112.086 102.063C112.086 102.063 106.791 100.023 104.148 104.91" stroke="#263238" stroke-linecap="round" stroke-linejoin="round"/>
<path d="M111.578 110.619C112.31 110.619 112.904 109.706 112.904 108.579C112.904 107.452 112.31 106.539 111.578 106.539C110.846 106.539 110.252 107.452 110.252 108.579C110.252 109.706 110.846 110.619 111.578 110.619Z" fill="#263238"/>
<path d="M123.084 105.929C123.084 107.06 122.491 107.969 121.767 107.969C121.044 107.969 120.441 107.042 120.441 105.929C120.441 104.816 121.035 103.898 121.767 103.898C122.5 103.898 123.084 104.807 123.084 105.929Z" fill="#263238"/>
<path d="M121.053 131.593L111.688 130.777L122.073 144.213L121.053 131.593Z" fill="#263238" stroke="#263238" stroke-miterlimit="10"/>
<path d="M101.702 130.371L97.4277 137.9L110.873 157.252L118.198 146.051L101.702 130.371Z" fill="white" stroke="#263238" stroke-linecap="round" stroke-linejoin="round"/>
<path d="M69.1649 263.586H82.9994C83.5238 263.586 84.0431 263.689 84.5274 263.89C85.0118 264.091 85.4517 264.386 85.8221 264.757C86.1924 265.128 86.4859 265.569 86.6858 266.054C86.8856 266.539 86.9878 267.058 86.9866 267.582V276.855H65.1777V267.582C65.1765 267.058 65.2788 266.539 65.4786 266.054C65.6784 265.569 65.9719 265.128 66.3423 264.757C66.7126 264.386 67.1526 264.091 67.6369 263.89C68.1213 263.689 68.6405 263.586 69.1649 263.586V263.586Z" stroke="#263238" stroke-width="4" stroke-linecap="round" stroke-linejoin="round"/>
<path d="M103.221 274.176H48.3468C45.4176 274.176 43.043 276.55 43.043 279.48V312.61C43.043 315.539 45.4176 317.914 48.3468 317.914H103.221C106.151 317.914 108.525 315.539 108.525 312.61V279.48C108.525 276.55 106.151 274.176 103.221 274.176Z" fill="#DAAA9E" stroke="#263238" stroke-linecap="round" stroke-linejoin="round"/>
<path d="M79.4297 252.75C79.4297 252.75 81.1358 255.42 82.8327 257.859C84.5295 260.298 87.71 261.512 87.4689 262.727C87.312 263.292 86.9513 263.78 86.4565 264.095C85.9617 264.41 85.3677 264.53 84.7892 264.433C83.8156 264.192 79.9211 261.021 79.9211 261.021L80.6536 267.354C80.6536 267.354 81.5809 269.542 79.9211 270.275C78.2613 271.007 75.7856 271.007 75.2849 270.275C74.9218 269.653 74.6116 269.002 74.3576 268.328C74.3576 268.328 70.2128 268.328 68.9981 267.595C67.7835 266.863 66.3184 265.648 66.5595 262.486C66.8006 259.324 68.7571 253.214 68.7571 253.214L79.4297 252.75Z" fill="white" stroke="#263238" stroke-linecap="round" stroke-linejoin="round"/>
</svg>
