<svg width="218" height="56" viewBox="0 0 218 56" fill="none" xmlns="http://www.w3.org/2000/svg">
<line x1="31.4453" y1="34.1134" x2="43.8757" y2="50.3438" stroke="#B2AAD6" stroke-width="7.69294" stroke-linecap="round"/>
<line x1="31.1806" y1="34.3771" x2="43.611" y2="50.6075" stroke="#A79DD1" stroke-width="7.69294" stroke-linecap="round"/>
<path d="M37.1383 19.4976C37.1383 28.7505 29.4693 36.3425 19.8955 36.3425C10.3218 36.3425 2.65274 28.7505 2.65274 19.4976C2.65274 14.1527 4.60674 9.99485 7.63881 7.16045C10.6939 4.30453 14.9966 2.65274 19.8955 2.65274C29.4693 2.65274 37.1383 10.2447 37.1383 19.4976Z" stroke="#A79DD1" stroke-width="5.30548"/>
<path fill-rule="evenodd" clip-rule="evenodd" d="M38.6781 19.655C38.6992 19.3128 38.7103 18.9679 38.7112 18.6207C38.734 8.93534 30.7408 1.0649 20.8577 1.04159C20.4986 1.04074 20.142 1.04872 19.788 1.06541C29.9802 1.61952 38.1348 9.64935 38.6781 19.655Z" fill="#DCD8EF"/>
<line x1="120.833" y1="11.7195" x2="120.833" y2="41.4302" stroke="#F3E0DB" stroke-width="7.69294" stroke-linecap="round"/>
<line x1="120.833" y1="42.4895" x2="140.463" y2="42.4895" stroke="#F3E0DB" stroke-width="7.69294" stroke-linecap="round"/>
<line x1="120.303" y1="12.2508" x2="120.303" y2="41.9614" stroke="#DAAA9E" stroke-width="7.69294" stroke-linecap="round"/>
<line x1="120.303" y1="43.0227" x2="139.933" y2="43.0227" stroke="#DAAA9E" stroke-width="7.69294" stroke-linecap="round"/>
<line x1="55.0428" y1="11.2746" x2="74.673" y2="11.2746" stroke="#F3E0DB" stroke-width="7.69294" stroke-linecap="round"/>
<line x1="55.0428" y1="11.2742" x2="55.0428" y2="40.9849" stroke="#F3E0DB" stroke-width="7.69294" stroke-linecap="round"/>
<line x1="55.0428" y1="42.0461" x2="74.673" y2="42.0461" stroke="#F3E0DB" stroke-width="7.69294" stroke-linecap="round"/>
<line x1="55.8377" y1="27.4563" x2="68.8361" y2="27.4563" stroke="#F3E0DB" stroke-width="7.69294" stroke-linecap="round"/>
<line x1="54.5135" y1="11.8059" x2="74.1437" y2="11.8059" stroke="#DAAA9E" stroke-width="7.69294" stroke-linecap="round"/>
<line x1="54.5135" y1="11.8055" x2="54.5135" y2="41.5161" stroke="#DAAA9E" stroke-width="7.69294" stroke-linecap="round"/>
<line x1="54.5135" y1="42.5774" x2="74.1437" y2="42.5774" stroke="#DAAA9E" stroke-width="7.69294" stroke-linecap="round"/>
<line x1="55.3084" y1="27.9875" x2="68.3068" y2="27.9875" stroke="#DAAA9E" stroke-width="7.69294" stroke-linecap="round"/>
<line x1="88.2029" y1="11.7199" x2="107.833" y2="11.7199" stroke="#F3E0DB" stroke-width="7.69294" stroke-linecap="round"/>
<line x1="88.2029" y1="11.7195" x2="88.2029" y2="41.4302" stroke="#F3E0DB" stroke-width="7.69294" stroke-linecap="round"/>
<line x1="88.9978" y1="27.9016" x2="101.996" y2="27.9016" stroke="#F3E0DB" stroke-width="7.69294" stroke-linecap="round"/>
<line x1="87.6717" y1="12.2473" x2="107.302" y2="12.2473" stroke="#DAAA9E" stroke-width="7.69294" stroke-linecap="round"/>
<line x1="87.6717" y1="12.2488" x2="87.6717" y2="41.9595" stroke="#DAAA9E" stroke-width="7.69294" stroke-linecap="round"/>
<line x1="88.4676" y1="28.4309" x2="101.466" y2="28.4309" stroke="#DAAA9E" stroke-width="7.69294" stroke-linecap="round"/>
<path d="M154.67 40.2539H155.714V45.178C155.714 45.6234 155.626 46.0044 155.45 46.3209C155.275 46.6374 155.03 46.8793 154.714 47.0466C154.397 47.2117 154.026 47.2942 153.601 47.2942C153.21 47.2942 152.859 47.223 152.547 47.0805C152.237 46.9381 151.992 46.7312 151.811 46.4599C151.632 46.1864 151.543 45.854 151.543 45.4629H152.584C152.584 45.6551 152.628 45.8212 152.716 45.9614C152.807 46.1016 152.93 46.2112 153.086 46.2904C153.244 46.3672 153.425 46.4057 153.628 46.4057C153.85 46.4057 154.038 46.3593 154.191 46.2666C154.347 46.1717 154.466 46.0326 154.547 45.8495C154.629 45.6664 154.67 45.4425 154.67 45.178V40.2539ZM163.607 43.7265C163.607 44.4681 163.471 45.1057 163.2 45.6392C162.928 46.1705 162.556 46.5797 162.084 46.8669C161.614 47.1517 161.079 47.2942 160.48 47.2942C159.878 47.2942 159.342 47.1517 158.869 46.8669C158.399 46.5797 158.028 46.1694 157.757 45.6358C157.485 45.1023 157.35 44.4658 157.35 43.7265C157.35 42.985 157.485 42.3485 157.757 41.8172C158.028 41.2837 158.399 40.8745 158.869 40.5896C159.342 40.3025 159.878 40.1589 160.48 40.1589C161.079 40.1589 161.614 40.3025 162.084 40.5896C162.556 40.8745 162.928 41.2837 163.2 41.8172C163.471 42.3485 163.607 42.985 163.607 43.7265ZM162.569 43.7265C162.569 43.1613 162.477 42.6854 162.294 42.2988C162.113 41.9099 161.865 41.616 161.548 41.4171C161.234 41.2159 160.878 41.1153 160.48 41.1153C160.08 41.1153 159.722 41.2159 159.408 41.4171C159.094 41.616 158.845 41.9099 158.662 42.2988C158.481 42.6854 158.391 43.1613 158.391 43.7265C158.391 44.2918 158.481 44.7688 158.662 45.1577C158.845 45.5443 159.094 45.8382 159.408 46.0394C159.722 46.2384 160.08 46.3378 160.48 46.3378C160.878 46.3378 161.234 46.2384 161.548 46.0394C161.865 45.8382 162.113 45.5443 162.294 45.1577C162.477 44.7688 162.569 44.2918 162.569 43.7265ZM165.247 47.1992V40.2539H167.791C168.284 40.2539 168.692 40.3353 169.015 40.498C169.338 40.6586 169.58 40.8767 169.741 41.1526C169.901 41.4261 169.982 41.7347 169.982 42.0784C169.982 42.3678 169.928 42.6119 169.822 42.8109C169.716 43.0076 169.574 43.1658 169.395 43.2857C169.219 43.4032 169.024 43.4892 168.812 43.5434V43.6112C169.042 43.6225 169.267 43.6972 169.486 43.8351C169.708 43.9707 169.891 44.164 170.036 44.415C170.181 44.6659 170.253 44.9711 170.253 45.3306C170.253 45.6856 170.169 46.0044 170.002 46.287C169.837 46.5673 169.581 46.79 169.236 46.955C168.89 47.1178 168.448 47.1992 167.91 47.1992H165.247ZM166.295 46.3005H167.808C168.31 46.3005 168.669 46.2033 168.886 46.0089C169.103 45.8144 169.212 45.5714 169.212 45.2798C169.212 45.0604 169.156 44.8592 169.046 44.6761C168.935 44.493 168.777 44.3471 168.571 44.2386C168.367 44.1301 168.125 44.0758 167.845 44.0758H166.295V46.3005ZM166.295 43.2585H167.699C167.934 43.2585 168.146 43.2133 168.333 43.1229C168.523 43.0325 168.674 42.9059 168.784 42.7431C168.898 42.578 168.954 42.3836 168.954 42.1598C168.954 41.8726 168.853 41.6319 168.652 41.4374C168.451 41.243 168.142 41.1458 167.726 41.1458H166.295V43.2585ZM175.618 42.0784C175.582 41.7573 175.433 41.5086 175.17 41.3323C174.908 41.1537 174.578 41.0644 174.18 41.0644C173.895 41.0644 173.649 41.1096 173.441 41.2C173.233 41.2882 173.071 41.4103 172.956 41.5663C172.843 41.72 172.786 41.8952 172.786 42.0919C172.786 42.257 172.825 42.3994 172.902 42.5192C172.981 42.6391 173.084 42.7397 173.21 42.8211C173.339 42.9002 173.477 42.9669 173.624 43.0212C173.771 43.0732 173.912 43.1161 174.048 43.15L174.726 43.3264C174.948 43.3806 175.175 43.4541 175.408 43.5468C175.641 43.6395 175.857 43.7616 176.056 43.9131C176.255 44.0645 176.415 44.2522 176.537 44.476C176.661 44.6998 176.724 44.9678 176.724 45.2798C176.724 45.6731 176.622 46.0224 176.418 46.3277C176.217 46.6329 175.924 46.8737 175.54 47.05C175.158 47.2263 174.696 47.3145 174.153 47.3145C173.633 47.3145 173.183 47.232 172.803 47.067C172.424 46.9019 172.126 46.6679 171.911 46.365C171.697 46.0597 171.578 45.698 171.555 45.2798H172.607C172.627 45.5307 172.708 45.7398 172.851 45.9071C172.996 46.0722 173.18 46.1954 173.404 46.2768C173.63 46.3559 173.877 46.3955 174.146 46.3955C174.442 46.3955 174.706 46.3491 174.936 46.2564C175.169 46.1615 175.352 46.0304 175.486 45.8631C175.619 45.6935 175.686 45.4957 175.686 45.2696C175.686 45.0638 175.627 44.8954 175.51 44.7643C175.394 44.6331 175.237 44.5246 175.038 44.4387C174.842 44.3528 174.619 44.2771 174.37 44.2115L173.549 43.9877C172.993 43.8362 172.552 43.6135 172.227 43.3196C171.904 43.0257 171.742 42.6368 171.742 42.153C171.742 41.7528 171.85 41.4035 172.067 41.1051C172.284 40.8066 172.578 40.5749 172.949 40.4099C173.32 40.2426 173.738 40.1589 174.204 40.1589C174.674 40.1589 175.089 40.2414 175.449 40.4065C175.81 40.5715 176.095 40.7987 176.303 41.0881C176.511 41.3753 176.62 41.7053 176.629 42.0784H175.618ZM182.22 40.2539V47.1992H181.172V40.2539H182.22ZM189.686 40.2539V47.1992H188.723L185.192 42.1055H185.128V47.1992H184.08V40.2539H185.05L188.584 45.3544H188.648V40.2539H189.686ZM194.997 47.1992H193.885L196.384 40.2539H197.595L200.094 47.1992H198.982L197.018 41.5154H196.964L194.997 47.1992ZM195.183 44.4794H198.792V45.3611H195.183V44.4794ZM205.163 42.0784C205.127 41.7573 204.978 41.5086 204.716 41.3323C204.453 41.1537 204.123 41.0644 203.725 41.0644C203.441 41.0644 203.194 41.1096 202.986 41.2C202.778 41.2882 202.617 41.4103 202.501 41.5663C202.388 41.72 202.332 41.8952 202.332 42.0919C202.332 42.257 202.37 42.3994 202.447 42.5192C202.526 42.6391 202.629 42.7397 202.756 42.8211C202.884 42.9002 203.022 42.9669 203.169 43.0212C203.316 43.0732 203.458 43.1161 203.593 43.15L204.271 43.3264C204.493 43.3806 204.72 43.4541 204.953 43.5468C205.186 43.6395 205.402 43.7616 205.601 43.9131C205.8 44.0645 205.96 44.2522 206.082 44.476C206.207 44.6998 206.269 44.9678 206.269 45.2798C206.269 45.6731 206.167 46.0224 205.964 46.3277C205.762 46.6329 205.47 46.8737 205.085 47.05C204.703 47.2263 204.241 47.3145 203.698 47.3145C203.178 47.3145 202.728 47.232 202.349 47.067C201.969 46.9019 201.671 46.6679 201.457 46.365C201.242 46.0597 201.123 45.698 201.101 45.2798H202.152C202.172 45.5307 202.254 45.7398 202.396 45.9071C202.541 46.0722 202.725 46.1954 202.949 46.2768C203.175 46.3559 203.423 46.3955 203.692 46.3955C203.988 46.3955 204.251 46.3491 204.482 46.2564C204.715 46.1615 204.898 46.0304 205.031 45.8631C205.164 45.6935 205.231 45.4957 205.231 45.2696C205.231 45.0638 205.172 44.8954 205.055 44.7643C204.94 44.6331 204.782 44.5246 204.583 44.4387C204.387 44.3528 204.164 44.2771 203.915 44.2115L203.095 43.9877C202.539 43.8362 202.098 43.6135 201.772 43.3196C201.449 43.0257 201.287 42.6368 201.287 42.153C201.287 41.7528 201.396 41.4035 201.613 41.1051C201.83 40.8066 202.124 40.5749 202.494 40.4099C202.865 40.2426 203.283 40.1589 203.749 40.1589C204.219 40.1589 204.634 40.2414 204.994 40.4065C205.356 40.5715 205.64 40.7987 205.848 41.0881C206.056 41.3753 206.165 41.7053 206.174 42.0784H205.163ZM208.903 40.2539V47.1992H207.855V40.2539H208.903ZM211.35 47.1992H210.238L212.737 40.2539H213.948L216.447 47.1992H215.335L213.372 41.5154H213.317L211.35 47.1992ZM211.537 44.4794H215.145V45.3611H211.537V44.4794Z" fill="#A79DD1"/>
</svg>
