<svg width="29" height="33" viewBox="0 0 29 33" fill="none" xmlns="http://www.w3.org/2000/svg">
<line x1="18.8574" y1="20.1452" x2="25.8987" y2="29.339" stroke="#B2AAD6" stroke-width="5" stroke-linecap="round"/>
<line x1="18.7016" y1="20.3013" x2="25.743" y2="29.4952" stroke="#A79DD1" stroke-width="5" stroke-linecap="round"/>
<path d="M21.9483 11.4897C21.9483 16.9784 17.3995 21.4793 11.7242 21.4793C6.0488 21.4793 1.5 16.9784 1.5 11.4897C1.5 8.32351 2.65797 5.8563 4.45827 4.17337C6.27159 2.47827 8.82307 1.5 11.7242 1.5C17.3995 1.5 21.9483 6.00095 21.9483 11.4897Z" stroke="#A79DD1" stroke-width="3"/>
<path fill-rule="evenodd" clip-rule="evenodd" d="M22.7924 11.5827C22.8049 11.381 22.8114 11.1777 22.8119 10.973C22.8254 5.26556 18.1151 0.627619 12.2911 0.613878C12.0776 0.613374 11.8655 0.618167 11.6551 0.628183C17.6637 0.952041 22.472 5.68486 22.7924 11.5827Z" fill="#DCD8EF"/>
</svg>
